%TF.GenerationSoftware,KiCad,Pcbnew,10.0.0*%
%TF.CreationDate,2026-04-27T22:06:30+10:00*%
%TF.ProjectId,YetAnotherKeyboard,59657441-6e6f-4746-9865-724b6579626f,rev?*%
%TF.SameCoordinates,Original*%
%TF.FileFunction,Paste,Bot*%
%TF.FilePolarity,Positive*%
%FSLAX46Y46*%
G04 Gerber Fmt 4.6, Leading zero omitted, Abs format (unit mm)*
G04 Created by KiCad (PCBNEW 10.0.0) date 2026-04-27 22:06:30*
%MOMM*%
%LPD*%
G01*
G04 APERTURE LIST*
G04 Aperture macros list*
%AMRoundRect*
0 Rectangle with rounded corners*
0 $1 Rounding radius*
0 $2 $3 $4 $5 $6 $7 $8 $9 X,Y pos of 4 corners*
0 Add a 4 corners polygon primitive as box body*
4,1,4,$2,$3,$4,$5,$6,$7,$8,$9,$2,$3,0*
0 Add four circle primitives for the rounded corners*
1,1,$1+$1,$2,$3*
1,1,$1+$1,$4,$5*
1,1,$1+$1,$6,$7*
1,1,$1+$1,$8,$9*
0 Add four rect primitives between the rounded corners*
20,1,$1+$1,$2,$3,$4,$5,0*
20,1,$1+$1,$4,$5,$6,$7,0*
20,1,$1+$1,$6,$7,$8,$9,0*
20,1,$1+$1,$8,$9,$2,$3,0*%
G04 Aperture macros list end*
%ADD10RoundRect,0.225000X0.225000X0.375000X-0.225000X0.375000X-0.225000X-0.375000X0.225000X-0.375000X0*%
%ADD11RoundRect,0.200000X1.075000X1.050000X-1.075000X1.050000X-1.075000X-1.050000X1.075000X-1.050000X0*%
G04 APERTURE END LIST*
D10*
%TO.C,D27*%
X306567500Y-225425000D03*
X303267500Y-225425000D03*
%TD*%
D11*
%TO.C,SW2*%
X88550750Y-212566250D03*
X75623750Y-215106250D03*
%TD*%
D10*
%TO.C,D2*%
X74867500Y-225425000D03*
X78167500Y-225425000D03*
%TD*%
%TO.C,D3*%
X93917500Y-225425000D03*
X97217500Y-225425000D03*
%TD*%
D11*
%TO.C,SW3*%
X107600750Y-212566250D03*
X94673750Y-215106250D03*
%TD*%
D10*
%TO.C,D4*%
X113030000Y-225425000D03*
X116330000Y-225425000D03*
%TD*%
D11*
%TO.C,SW4*%
X126650750Y-212566250D03*
X113723750Y-215106250D03*
%TD*%
D10*
%TO.C,D57*%
X146305000Y-301625000D03*
X149605000Y-301625000D03*
%TD*%
D11*
%TO.C,SW57*%
X209994500Y-288766250D03*
X197067500Y-291306250D03*
%TD*%
D10*
%TO.C,D63*%
X308230000Y-282575000D03*
X311530000Y-282575000D03*
%TD*%
D11*
%TO.C,SW59*%
X305244500Y-288766250D03*
X292317500Y-291306250D03*
%TD*%
D10*
%TO.C,D59*%
X289180000Y-301625000D03*
X292480000Y-301625000D03*
%TD*%
%TO.C,D51*%
X292500000Y-282575000D03*
X289200000Y-282575000D03*
%TD*%
D11*
%TO.C,SW51*%
X302873250Y-269711050D03*
X289946250Y-272251050D03*
%TD*%
%TO.C,SW41*%
X100457000Y-269716250D03*
X87530000Y-272256250D03*
%TD*%
D10*
%TO.C,D41*%
X74867500Y-282575000D03*
X78167500Y-282575000D03*
%TD*%
%TO.C,D29*%
X108205000Y-263525000D03*
X111505000Y-263525000D03*
%TD*%
%TO.C,D36*%
X241575000Y-263525000D03*
X244875000Y-263525000D03*
%TD*%
D11*
%TO.C,SW36*%
X255248250Y-250661050D03*
X242321250Y-253201050D03*
%TD*%
D10*
%TO.C,D28*%
X74867500Y-263525000D03*
X78167500Y-263525000D03*
%TD*%
D11*
%TO.C,SW28*%
X95694500Y-250666250D03*
X82767500Y-253206250D03*
%TD*%
%TO.C,SW15*%
X93313250Y-231616250D03*
X80386250Y-234156250D03*
%TD*%
D10*
%TO.C,D15*%
X74805000Y-244475000D03*
X78105000Y-244475000D03*
%TD*%
D11*
%TO.C,SW21*%
X212375750Y-231616250D03*
X199448750Y-234156250D03*
%TD*%
D10*
%TO.C,D21*%
X198755000Y-244475000D03*
X202055000Y-244475000D03*
%TD*%
%TO.C,D20*%
X179642500Y-244475000D03*
X182942500Y-244475000D03*
%TD*%
D11*
%TO.C,SW20*%
X193325750Y-231775000D03*
X180398750Y-234315000D03*
%TD*%
D10*
%TO.C,D39*%
X293942500Y-244475000D03*
X297242500Y-244475000D03*
%TD*%
D11*
%TO.C,SW39*%
X307625750Y-231611050D03*
X294698750Y-234151050D03*
%TD*%
D10*
%TO.C,D8*%
X189187500Y-225425000D03*
X192487500Y-225425000D03*
%TD*%
D11*
%TO.C,SW8*%
X202860750Y-212561050D03*
X189933750Y-215101050D03*
%TD*%
%TO.C,SW5*%
X132773750Y-215106250D03*
X145700750Y-212566250D03*
%TD*%
%TO.C,SW38*%
X280421250Y-253201050D03*
X293348250Y-250661050D03*
%TD*%
%TO.C,SW7*%
X171248512Y-215111450D03*
X184175512Y-212571450D03*
%TD*%
D10*
%TO.C,D32*%
X168737500Y-263525000D03*
X165437500Y-263525000D03*
%TD*%
%TO.C,D23*%
X240155000Y-244475000D03*
X236855000Y-244475000D03*
%TD*%
D11*
%TO.C,SW18*%
X142308750Y-234151050D03*
X155235750Y-231611050D03*
%TD*%
%TO.C,SW60*%
X323273750Y-291301050D03*
X336200750Y-288761050D03*
%TD*%
%TO.C,SW19*%
X161358750Y-234151050D03*
X174285750Y-231611050D03*
%TD*%
D10*
%TO.C,D26*%
X287717500Y-225425000D03*
X284417500Y-225425000D03*
%TD*%
D11*
%TO.C,SW63*%
X316130000Y-272251050D03*
X329057000Y-269711050D03*
%TD*%
D10*
%TO.C,D31*%
X149605000Y-263525000D03*
X146305000Y-263525000D03*
%TD*%
D11*
%TO.C,SW10*%
X228023750Y-215106250D03*
X240950750Y-212566250D03*
%TD*%
D10*
%TO.C,D35*%
X225805000Y-263525000D03*
X222505000Y-263525000D03*
%TD*%
%TO.C,D13*%
X335405000Y-244475000D03*
X332105000Y-244475000D03*
%TD*%
%TO.C,D43*%
X140142500Y-282575000D03*
X136842500Y-282575000D03*
%TD*%
D11*
%TO.C,SW40*%
X313738750Y-234156250D03*
X326665750Y-231616250D03*
%TD*%
%TO.C,SW52*%
X299471250Y-253201050D03*
X312398250Y-250661050D03*
%TD*%
%TO.C,SW16*%
X104198750Y-234156250D03*
X117125750Y-231616250D03*
%TD*%
%TO.C,SW34*%
X204221250Y-253201050D03*
X217148250Y-250661050D03*
%TD*%
%TO.C,SW24*%
X256498750Y-234156250D03*
X269425750Y-231616250D03*
%TD*%
D10*
%TO.C,D16*%
X106742500Y-244475000D03*
X103442500Y-244475000D03*
%TD*%
%TO.C,D64*%
X344910000Y-282575000D03*
X341610000Y-282575000D03*
%TD*%
%TO.C,D24*%
X258942500Y-244475000D03*
X255642500Y-244475000D03*
%TD*%
%TO.C,D42*%
X120830000Y-282575000D03*
X117530000Y-282575000D03*
%TD*%
%TO.C,D52*%
X302025000Y-263525000D03*
X298725000Y-263525000D03*
%TD*%
%TO.C,D14*%
X325428512Y-225425000D03*
X322128512Y-225425000D03*
%TD*%
D11*
%TO.C,SW23*%
X237548750Y-234156250D03*
X250475750Y-231616250D03*
%TD*%
%TO.C,SW22*%
X218498750Y-234156250D03*
X231425750Y-231616250D03*
%TD*%
%TO.C,SW9*%
X208973750Y-215106250D03*
X221900750Y-212566250D03*
%TD*%
D10*
%TO.C,D11*%
X249617500Y-225425000D03*
X246317500Y-225425000D03*
%TD*%
%TO.C,D48*%
X235350000Y-282575000D03*
X232050000Y-282575000D03*
%TD*%
%TO.C,D30*%
X130575000Y-263525000D03*
X127275000Y-263525000D03*
%TD*%
%TO.C,D6*%
X154367500Y-225425000D03*
X151067500Y-225425000D03*
%TD*%
D11*
%TO.C,SW62*%
X361363750Y-291306250D03*
X374290750Y-288766250D03*
%TD*%
%TO.C,SW54*%
X78015000Y-291301050D03*
X90942000Y-288761050D03*
%TD*%
%TO.C,SW49*%
X251836250Y-272256250D03*
X264763250Y-269716250D03*
%TD*%
D10*
%TO.C,D19*%
X163975000Y-244475000D03*
X160675000Y-244475000D03*
%TD*%
%TO.C,D46*%
X197030000Y-282575000D03*
X193730000Y-282575000D03*
%TD*%
D11*
%TO.C,SW35*%
X223261250Y-253206250D03*
X236188250Y-250666250D03*
%TD*%
D10*
%TO.C,D7*%
X173782262Y-225425000D03*
X170482262Y-225425000D03*
%TD*%
%TO.C,D58*%
X268530000Y-301625000D03*
X265230000Y-301625000D03*
%TD*%
D11*
%TO.C,SW26*%
X285173750Y-215101050D03*
X298100750Y-212561050D03*
%TD*%
%TO.C,SW27*%
X304123750Y-215106250D03*
X317050750Y-212566250D03*
%TD*%
D10*
%TO.C,D56*%
X125855000Y-301625000D03*
X122555000Y-301625000D03*
%TD*%
D11*
%TO.C,SW29*%
X108961250Y-253206250D03*
X121888250Y-250666250D03*
%TD*%
%TO.C,SW44*%
X156486250Y-272256250D03*
X169413250Y-269716250D03*
%TD*%
%TO.C,SW25*%
X275648750Y-234315000D03*
X288575750Y-231775000D03*
%TD*%
%TO.C,SW55*%
X101817500Y-291306250D03*
X114744500Y-288766250D03*
%TD*%
%TO.C,SW46*%
X194586250Y-272256250D03*
X207513250Y-269716250D03*
%TD*%
D10*
%TO.C,D34*%
X206837500Y-263525000D03*
X203537500Y-263525000D03*
%TD*%
D11*
%TO.C,SW11*%
X247073750Y-215106250D03*
X260000750Y-212566250D03*
%TD*%
%TO.C,SW31*%
X147061250Y-253206250D03*
X159988250Y-250666250D03*
%TD*%
D10*
%TO.C,D47*%
X216362500Y-282575000D03*
X213062500Y-282575000D03*
%TD*%
%TO.C,D10*%
X230630000Y-225425000D03*
X227330000Y-225425000D03*
%TD*%
D11*
%TO.C,SW64*%
X342313750Y-272256250D03*
X355240750Y-269716250D03*
%TD*%
D10*
%TO.C,D37*%
X263987500Y-263525000D03*
X260687500Y-263525000D03*
%TD*%
D11*
%TO.C,SW61*%
X342313750Y-291306250D03*
X355240750Y-288766250D03*
%TD*%
%TO.C,SW45*%
X175536250Y-272256250D03*
X188463250Y-269716250D03*
%TD*%
D10*
%TO.C,D54*%
X78187500Y-301625000D03*
X74887500Y-301625000D03*
%TD*%
D11*
%TO.C,SW12*%
X266133750Y-215101050D03*
X279060750Y-212561050D03*
%TD*%
%TO.C,SW58*%
X268405000Y-291306250D03*
X281332000Y-288766250D03*
%TD*%
D10*
%TO.C,D45*%
X178042500Y-282575000D03*
X174742500Y-282575000D03*
%TD*%
D11*
%TO.C,SW66*%
X361363750Y-234156250D03*
X374290750Y-231616250D03*
%TD*%
D10*
%TO.C,D40*%
X316272500Y-244475000D03*
X312972500Y-244475000D03*
%TD*%
%TO.C,D12*%
X268687500Y-225425000D03*
X265387500Y-225425000D03*
%TD*%
D11*
%TO.C,SW43*%
X137536250Y-272256250D03*
X150463250Y-269716250D03*
%TD*%
D10*
%TO.C,D38*%
X282975000Y-263525000D03*
X279675000Y-263525000D03*
%TD*%
D11*
%TO.C,SW14*%
X333151012Y-215106250D03*
X346078012Y-212566250D03*
%TD*%
%TO.C,SW6*%
X151823750Y-215106250D03*
X164750750Y-212566250D03*
%TD*%
D10*
%TO.C,D61*%
X344910000Y-301625000D03*
X341610000Y-301625000D03*
%TD*%
%TO.C,D55*%
X101980000Y-301625000D03*
X98680000Y-301625000D03*
%TD*%
%TO.C,D17*%
X125812500Y-244475000D03*
X122512500Y-244475000D03*
%TD*%
D11*
%TO.C,SW17*%
X123258750Y-234151050D03*
X136185750Y-231611050D03*
%TD*%
D10*
%TO.C,D33*%
X187767500Y-263525000D03*
X184467500Y-263525000D03*
%TD*%
%TO.C,D62*%
X363960000Y-301625000D03*
X360660000Y-301625000D03*
%TD*%
D11*
%TO.C,SW37*%
X261371250Y-253201050D03*
X274298250Y-250661050D03*
%TD*%
%TO.C,SW65*%
X361363750Y-215106250D03*
X374290750Y-212566250D03*
%TD*%
%TO.C,SW32*%
X166121250Y-253201050D03*
X179048250Y-250661050D03*
%TD*%
D10*
%TO.C,D53*%
X321097500Y-263525000D03*
X317797500Y-263525000D03*
%TD*%
D11*
%TO.C,SW56*%
X125630000Y-291306250D03*
X138557000Y-288766250D03*
%TD*%
%TO.C,SW13*%
X337561250Y-234151050D03*
X350488250Y-231611050D03*
%TD*%
D10*
%TO.C,D18*%
X144925000Y-244475000D03*
X141625000Y-244475000D03*
%TD*%
D11*
%TO.C,SW48*%
X232796250Y-272251050D03*
X245723250Y-269711050D03*
%TD*%
D10*
%TO.C,D50*%
X273492500Y-282575000D03*
X270192500Y-282575000D03*
%TD*%
D11*
%TO.C,SW47*%
X213746250Y-272251050D03*
X226673250Y-269711050D03*
%TD*%
%TO.C,SW50*%
X270886250Y-272256250D03*
X283813250Y-269716250D03*
%TD*%
D10*
%TO.C,D9*%
X211580000Y-225425000D03*
X208280000Y-225425000D03*
%TD*%
%TO.C,D22*%
X221042500Y-244475000D03*
X217742500Y-244475000D03*
%TD*%
%TO.C,D49*%
X254442500Y-282575000D03*
X251142500Y-282575000D03*
%TD*%
%TO.C,D25*%
X278255000Y-244475000D03*
X274955000Y-244475000D03*
%TD*%
%TO.C,D65*%
X363897500Y-225425000D03*
X360597500Y-225425000D03*
%TD*%
%TO.C,D60*%
X325817500Y-301625000D03*
X322517500Y-301625000D03*
%TD*%
D11*
%TO.C,SW53*%
X330407500Y-253206250D03*
X343334500Y-250666250D03*
%TD*%
D10*
%TO.C,D44*%
X158930000Y-282575000D03*
X155630000Y-282575000D03*
%TD*%
%TO.C,D66*%
X363897500Y-244475000D03*
X360597500Y-244475000D03*
%TD*%
D11*
%TO.C,SW30*%
X128021250Y-253201050D03*
X140948250Y-250661050D03*
%TD*%
D10*
%TO.C,D5*%
X135317500Y-225425000D03*
X132017500Y-225425000D03*
%TD*%
D11*
%TO.C,SW33*%
X185161250Y-253206250D03*
X198088250Y-250666250D03*
%TD*%
%TO.C,SW42*%
X118386250Y-272256250D03*
X131313250Y-269716250D03*
%TD*%
M02*
