M48
; DRILL file KiCad 10.0.0 date 2026-04-14T12:55:16
; FORMAT={-:-/ absolute / metric / decimal}
; #@! TF.CreationDate,2026-04-14T12:55:16+10:00
; #@! TF.GenerationSoftware,Kicad,Pcbnew,10.0.0
; #@! TF.FileFunction,NonPlated,1,2,NPTH
FMAT,2
METRIC
; #@! TA.AperFunction,NonPlated,NPTH,ComponentDrill
T1C0.850
; #@! TA.AperFunction,NonPlated,NPTH,ComponentDrill
T2C1.702
; #@! TA.AperFunction,NonPlated,NPTH,ComponentDrill
T3C1.850
; #@! TA.AperFunction,NonPlated,NPTH,ComponentDrill
T4C2.200
; #@! TA.AperFunction,NonPlated,NPTH,ComponentDrill
T5C3.000
; #@! TA.AperFunction,NonPlated,NPTH,ComponentDrill
T6C3.048
; #@! TA.AperFunction,NonPlated,NPTH,ComponentDrill
T7C3.988
%
G90
G05
T1
X509.675Y-170.656
X512.675Y-170.656
T2
X107.93Y-209.555
X107.94Y-180.98
X110.321Y-285.75
X112.692Y-228.605
X114.974Y-247.655
X118.09Y-209.555
X118.1Y-180.98
X119.836Y-266.705
X120.481Y-285.75
X122.852Y-228.605
X125.134Y-247.655
X126.98Y-209.555
X129.996Y-266.705
X134.134Y-285.755
X136.515Y-228.6
X137.14Y-209.555
X141.267Y-247.655
X144.294Y-285.755
X146.02Y-180.991
X146.04Y-209.55
X146.675Y-228.6
X150.792Y-266.705
X151.427Y-247.655
X155.555Y-228.605
X156.18Y-180.991
X156.2Y-209.55
X157.946Y-285.75
X160.218Y-247.655
X160.952Y-266.705
X165.08Y-180.985
X165.08Y-209.555
X165.715Y-228.605
X168.106Y-285.75
X169.843Y-266.705
X170.377Y-247.655
X174.615Y-228.6
X175.24Y-180.985
X175.24Y-209.555
X179.367Y-247.655
X180.002Y-266.705
X184.13Y-180.985
X184.13Y-209.555
X184.775Y-228.6
X188.892Y-266.705
X189.528Y-247.655
X193.655Y-228.605
X194.29Y-180.985
X194.29Y-209.555
X198.317Y-247.655
X199.052Y-266.705
X203.17Y-180.991
X203.18Y-209.555
X203.815Y-228.605
X207.942Y-266.705
X208.477Y-247.655
X212.705Y-228.605
X213.33Y-180.991
X213.34Y-209.555
X217.477Y-247.65
X218.102Y-266.705
X222.23Y-209.555
X222.865Y-228.605
X226.992Y-266.705
X227.637Y-247.65
X229.374Y-285.755
X231.755Y-228.605
X231.865Y-180.985
X232.39Y-209.555
X236.517Y-247.655
X237.153Y-266.705
X239.534Y-285.755
X241.29Y-209.55
X241.915Y-228.605
X242.025Y-180.985
X246.042Y-266.705
X246.677Y-247.655
X250.805Y-228.605
X250.915Y-180.985
X251.45Y-209.55
X255.567Y-247.655
X256.202Y-266.705
X260.33Y-209.555
X260.965Y-228.605
X261.075Y-180.985
X265.092Y-266.705
X265.727Y-247.655
X269.855Y-228.605
X269.965Y-180.985
X270.49Y-209.555
X274.618Y-247.655
X275.252Y-266.705
X279.38Y-209.555
X280.015Y-228.605
X280.125Y-180.985
X284.152Y-266.7
X284.777Y-247.655
X288.905Y-228.605
X288.915Y-180.985
X289.54Y-209.555
X293.678Y-247.65
X294.312Y-266.7
X298.43Y-209.555
X299.065Y-228.605
X299.075Y-180.985
X300.821Y-285.75
X303.192Y-266.705
X303.837Y-247.65
X307.965Y-228.6
X308.59Y-209.555
X310.981Y-285.75
X312.717Y-247.655
X313.352Y-266.705
X317.48Y-209.555
X317.49Y-180.98
X318.125Y-228.6
X322.243Y-266.705
X322.877Y-247.655
X324.624Y-285.755
X327.015Y-228.6
X327.64Y-209.555
X327.65Y-180.98
X331.777Y-247.655
X332.402Y-266.705
X334.784Y-285.755
X336.53Y-209.555
X336.54Y-180.98
X337.175Y-228.6
X341.938Y-247.655
X346.075Y-228.6
X346.69Y-209.555
X346.7Y-180.98
X348.446Y-285.75
X355.59Y-180.98
X356.235Y-228.6
X357.971Y-266.705
X358.606Y-285.75
X362.734Y-247.655
X365.115Y-209.555
X365.75Y-180.98
X368.131Y-266.705
X369.887Y-228.6
X372.259Y-285.755
X372.894Y-247.655
X374.64Y-180.98
X375.275Y-209.555
X380.047Y-228.6
X382.419Y-285.755
X384.8Y-180.98
X403.215Y-180.98
X403.215Y-209.555
X403.215Y-285.75
X403.225Y-228.6
X413.375Y-180.98
X413.375Y-209.555
X413.375Y-285.75
X413.385Y-228.6
X422.265Y-180.98
X422.265Y-209.555
X422.275Y-228.6
X422.275Y-266.7
X422.275Y-285.75
X432.425Y-180.98
X432.425Y-209.555
X432.435Y-228.6
X432.435Y-266.7
X432.435Y-285.75
X441.305Y-180.985
X441.315Y-228.605
X441.315Y-285.755
X441.325Y-209.55
X451.465Y-180.985
X451.475Y-228.605
X451.475Y-285.755
X451.485Y-209.55
X464.989Y-285.909
X464.999Y-266.854
X475.149Y-285.909
X475.159Y-266.854
X484.039Y-285.909
X484.049Y-266.854
X494.199Y-285.909
X494.209Y-266.854
T3
X489.859Y-163.021
X494.709Y-163.021
T4
X489.559Y-159.991
X495.009Y-159.991
T5
X110.47Y-204.475
X110.48Y-175.9
X112.861Y-280.67
X115.233Y-223.525
X116.82Y-207.015
X116.83Y-178.44
X117.514Y-242.575
X119.211Y-283.21
X121.582Y-226.065
X122.376Y-261.625
X123.864Y-245.115
X128.726Y-264.165
X129.52Y-204.475
X135.87Y-207.015
X136.674Y-280.675
X139.055Y-223.52
X143.024Y-283.215
X143.808Y-242.575
X145.405Y-226.06
X148.56Y-175.911
X148.58Y-204.47
X150.157Y-245.115
X153.332Y-261.625
X154.91Y-178.451
X154.93Y-207.01
X158.095Y-223.525
X159.683Y-264.165
X160.486Y-280.67
X162.757Y-242.575
X164.445Y-226.065
X166.836Y-283.21
X167.62Y-175.905
X167.62Y-204.475
X169.107Y-245.115
X172.382Y-261.625
X173.97Y-178.445
X173.97Y-207.015
X177.155Y-223.52
X178.732Y-264.165
X181.907Y-242.575
X183.505Y-226.06
X186.67Y-175.905
X186.67Y-204.475
X188.257Y-245.115
X191.433Y-261.625
X193.02Y-178.445
X193.02Y-207.015
X196.195Y-223.525
X197.782Y-264.165
X200.857Y-242.575
X202.545Y-226.065
X205.71Y-175.911
X205.72Y-204.475
X207.207Y-245.115
X210.482Y-261.625
X212.06Y-178.451
X212.07Y-207.015
X215.245Y-223.525
X216.832Y-264.165
X220.017Y-242.57
X221.595Y-226.065
X224.77Y-204.475
X226.367Y-245.11
X229.532Y-261.625
X231.12Y-207.015
X231.914Y-280.675
X234.295Y-223.525
X234.405Y-175.905
X235.882Y-264.165
X238.264Y-283.215
X239.057Y-242.575
X240.645Y-226.065
X240.755Y-178.445
X243.83Y-204.47
X245.407Y-245.115
X248.582Y-261.625
X250.18Y-207.01
X253.345Y-223.525
X253.455Y-175.905
X254.932Y-264.165
X258.108Y-242.575
X259.695Y-226.065
X259.805Y-178.445
X262.87Y-204.475
X264.457Y-245.115
X267.632Y-261.625
X269.22Y-207.015
X272.395Y-223.525
X272.505Y-175.905
X273.983Y-264.165
X277.157Y-242.575
X278.745Y-226.065
X278.855Y-178.445
X281.92Y-204.475
X283.507Y-245.115
X286.692Y-261.62
X288.27Y-207.015
X291.445Y-223.525
X291.455Y-175.905
X293.042Y-264.16
X296.217Y-242.57
X297.795Y-226.065
X297.805Y-178.445
X300.97Y-204.475
X302.567Y-245.11
X303.361Y-280.67
X305.732Y-261.625
X307.32Y-207.015
X309.711Y-283.21
X310.505Y-223.52
X312.082Y-264.165
X315.257Y-242.575
X316.855Y-226.06
X320.02Y-204.475
X320.03Y-175.9
X321.607Y-245.115
X324.782Y-261.625
X326.37Y-207.015
X326.38Y-178.44
X327.164Y-280.675
X329.555Y-223.52
X331.132Y-264.165
X333.514Y-283.215
X334.317Y-242.575
X335.905Y-226.06
X339.07Y-204.475
X339.08Y-175.9
X340.667Y-245.115
X345.42Y-207.015
X345.43Y-178.44
X348.615Y-223.52
X350.986Y-280.67
X354.965Y-226.06
X357.336Y-283.21
X358.13Y-175.9
X360.511Y-261.625
X364.48Y-178.44
X365.274Y-242.575
X366.861Y-264.165
X367.655Y-204.475
X371.624Y-245.115
X372.428Y-223.52
X374.005Y-207.015
X374.799Y-280.675
X377.18Y-175.9
X378.777Y-226.06
X381.149Y-283.215
X383.53Y-178.44
X405.755Y-175.9
X405.755Y-204.475
X405.755Y-280.67
X405.765Y-223.52
X412.105Y-178.44
X412.105Y-207.015
X412.105Y-283.21
X412.115Y-226.06
X424.805Y-175.9
X424.805Y-204.475
X424.815Y-223.52
X424.815Y-261.62
X424.815Y-280.67
X431.155Y-178.44
X431.155Y-207.015
X431.165Y-226.06
X431.165Y-264.16
X431.165Y-283.21
X443.845Y-175.905
X443.855Y-223.525
X443.855Y-280.675
X443.865Y-204.47
X450.195Y-178.445
X450.205Y-226.065
X450.205Y-283.215
X450.215Y-207.01
X467.529Y-280.829
X467.539Y-261.774
X473.879Y-283.369
X473.889Y-264.314
X486.579Y-280.829
X486.589Y-261.774
X492.929Y-283.369
X492.939Y-264.314
T6
X112.978Y-259.72
X136.854Y-259.72
X184.454Y-278.77
X284.454Y-278.77
X351.113Y-259.72
X355.876Y-240.67
X358.257Y-202.57
X374.989Y-259.72
X379.752Y-240.67
X382.133Y-202.57
T7
X112.978Y-274.96
X113.01Y-209.555
X113.02Y-180.98
X115.401Y-285.75
X117.772Y-228.605
X120.054Y-247.655
X124.916Y-266.705
X132.06Y-209.555
X136.854Y-274.96
X139.214Y-285.755
X141.595Y-228.6
X146.347Y-247.655
X151.1Y-180.991
X151.12Y-209.55
X155.873Y-266.705
X160.635Y-228.605
X163.026Y-285.75
X165.297Y-247.655
X170.16Y-180.985
X170.16Y-209.555
X174.922Y-266.705
X179.695Y-228.6
X184.447Y-247.655
X184.454Y-294.01
X189.21Y-180.985
X189.21Y-209.555
X193.972Y-266.705
X198.735Y-228.605
X203.397Y-247.655
X208.25Y-180.991
X208.26Y-209.555
X213.022Y-266.705
X217.785Y-228.605
X222.557Y-247.65
X227.31Y-209.555
X232.072Y-266.705
X234.454Y-285.755
X236.835Y-228.605
X236.945Y-180.985
X241.597Y-247.655
X246.37Y-209.55
X251.123Y-266.705
X255.885Y-228.605
X255.995Y-180.985
X260.647Y-247.655
X265.41Y-209.555
X270.173Y-266.705
X274.935Y-228.605
X275.045Y-180.985
X279.697Y-247.655
X284.454Y-294.01
X284.46Y-209.555
X289.232Y-266.7
X293.985Y-228.605
X293.995Y-180.985
X298.757Y-247.65
X303.51Y-209.555
X305.901Y-285.75
X308.272Y-266.705
X313.045Y-228.6
X317.798Y-247.655
X322.56Y-209.555
X322.57Y-180.98
X327.322Y-266.705
X329.704Y-285.755
X332.095Y-228.6
X336.857Y-247.655
X341.61Y-209.555
X341.62Y-180.98
X351.113Y-274.96
X351.155Y-228.6
X353.526Y-285.75
X355.876Y-255.91
X358.257Y-217.81
X360.67Y-180.98
X363.051Y-266.705
X367.814Y-247.655
X370.195Y-209.555
X374.967Y-228.6
X374.989Y-274.96
X377.339Y-285.755
X379.72Y-180.98
X379.752Y-255.91
X382.133Y-217.81
X408.295Y-180.98
X408.295Y-209.555
X408.295Y-285.75
X408.305Y-228.6
X427.345Y-180.98
X427.345Y-209.555
X427.355Y-228.6
X427.355Y-266.7
X427.355Y-285.75
X446.385Y-180.985
X446.395Y-228.605
X446.395Y-285.755
X446.405Y-209.55
X470.069Y-285.909
X470.079Y-266.854
X489.119Y-285.909
X489.129Y-266.854
M30
