%TF.GenerationSoftware,KiCad,Pcbnew,10.0.0*%
%TF.CreationDate,2026-04-27T22:06:30+10:00*%
%TF.ProjectId,YetAnotherKeyboard,59657441-6e6f-4746-9865-724b6579626f,rev?*%
%TF.SameCoordinates,Original*%
%TF.FileFunction,Soldermask,Bot*%
%TF.FilePolarity,Negative*%
%FSLAX46Y46*%
G04 Gerber Fmt 4.6, Leading zero omitted, Abs format (unit mm)*
G04 Created by KiCad (PCBNEW 10.0.0) date 2026-04-27 22:06:30*
%MOMM*%
%LPD*%
G01*
G04 APERTURE LIST*
G04 Aperture macros list*
%AMRoundRect*
0 Rectangle with rounded corners*
0 $1 Rounding radius*
0 $2 $3 $4 $5 $6 $7 $8 $9 X,Y pos of 4 corners*
0 Add a 4 corners polygon primitive as box body*
4,1,4,$2,$3,$4,$5,$6,$7,$8,$9,$2,$3,0*
0 Add four circle primitives for the rounded corners*
1,1,$1+$1,$2,$3*
1,1,$1+$1,$4,$5*
1,1,$1+$1,$6,$7*
1,1,$1+$1,$8,$9*
0 Add four rect primitives between the rounded corners*
20,1,$1+$1,$2,$3,$4,$5,0*
20,1,$1+$1,$4,$5,$6,$7,0*
20,1,$1+$1,$6,$7,$8,$9,0*
20,1,$1+$1,$8,$9,$2,$3,0*%
G04 Aperture macros list end*
%ADD10RoundRect,0.225000X0.225000X0.375000X-0.225000X0.375000X-0.225000X-0.375000X0.225000X-0.375000X0*%
%ADD11RoundRect,0.200000X1.075000X1.050000X-1.075000X1.050000X-1.075000X-1.050000X1.075000X-1.050000X0*%
%ADD12C,1.701800*%
%ADD13C,3.000000*%
%ADD14C,3.987800*%
%ADD15C,3.048000*%
%ADD16R,1.000000X1.000000*%
%ADD17C,1.000000*%
%ADD18C,1.752600*%
G04 APERTURE END LIST*
D10*
%TO.C,D27*%
X306567500Y-225425000D03*
X303267500Y-225425000D03*
%TD*%
D11*
%TO.C,SW2*%
X88550750Y-212566250D03*
X75623750Y-215106250D03*
D12*
X77628750Y-217646250D03*
D13*
X78898750Y-215106250D03*
D14*
X82708750Y-217646250D03*
D13*
X85248750Y-212566250D03*
D12*
X87788750Y-217646250D03*
%TD*%
D10*
%TO.C,D2*%
X74867500Y-225425000D03*
X78167500Y-225425000D03*
%TD*%
%TO.C,D3*%
X93917500Y-225425000D03*
X97217500Y-225425000D03*
%TD*%
D11*
%TO.C,SW3*%
X107600750Y-212566250D03*
X94673750Y-215106250D03*
D12*
X96678750Y-217646250D03*
D13*
X97948750Y-215106250D03*
D14*
X101758750Y-217646250D03*
D13*
X104298750Y-212566250D03*
D12*
X106838750Y-217646250D03*
%TD*%
D10*
%TO.C,D4*%
X113030000Y-225425000D03*
X116330000Y-225425000D03*
%TD*%
D11*
%TO.C,SW4*%
X126650750Y-212566250D03*
X113723750Y-215106250D03*
D12*
X115728750Y-217646250D03*
D13*
X116998750Y-215106250D03*
D14*
X120808750Y-217646250D03*
D13*
X123348750Y-212566250D03*
D12*
X125888750Y-217646250D03*
%TD*%
D10*
%TO.C,D57*%
X146305000Y-301625000D03*
X149605000Y-301625000D03*
%TD*%
D11*
%TO.C,SW57*%
X209994500Y-288766250D03*
X197067500Y-291306250D03*
D14*
X154152500Y-302101250D03*
D15*
X154152500Y-286861250D03*
D12*
X199072500Y-293846250D03*
D13*
X200342500Y-291306250D03*
D14*
X204152500Y-293846250D03*
D13*
X206692500Y-288766250D03*
D12*
X209232500Y-293846250D03*
D14*
X254152500Y-302101250D03*
D15*
X254152500Y-286861250D03*
%TD*%
D10*
%TO.C,D63*%
X308230000Y-282575000D03*
X311530000Y-282575000D03*
%TD*%
D11*
%TO.C,SW59*%
X305244500Y-288766250D03*
X292317500Y-291306250D03*
D12*
X294322500Y-293846250D03*
D13*
X295592500Y-291306250D03*
D14*
X299402500Y-293846250D03*
D13*
X301942500Y-288766250D03*
D12*
X304482500Y-293846250D03*
%TD*%
D10*
%TO.C,D59*%
X289180000Y-301625000D03*
X292480000Y-301625000D03*
%TD*%
%TO.C,D51*%
X292500000Y-282575000D03*
X289200000Y-282575000D03*
%TD*%
D11*
%TO.C,SW51*%
X302873250Y-269711050D03*
X289946250Y-272251050D03*
D12*
X291951250Y-274791050D03*
D13*
X293221250Y-272251050D03*
D14*
X297031250Y-274791050D03*
D13*
X299571250Y-269711050D03*
D12*
X302111250Y-274791050D03*
%TD*%
D11*
%TO.C,SW41*%
X100457000Y-269716250D03*
X87530000Y-272256250D03*
D14*
X82677000Y-283051250D03*
D15*
X82677000Y-267811250D03*
D12*
X89535000Y-274796250D03*
D13*
X90805000Y-272256250D03*
D14*
X94615000Y-274796250D03*
D13*
X97155000Y-269716250D03*
D12*
X99695000Y-274796250D03*
D14*
X106553000Y-283051250D03*
D15*
X106553000Y-267811250D03*
%TD*%
D10*
%TO.C,D41*%
X74867500Y-282575000D03*
X78167500Y-282575000D03*
%TD*%
%TO.C,D29*%
X108205000Y-263525000D03*
X111505000Y-263525000D03*
%TD*%
%TO.C,D36*%
X241575000Y-263525000D03*
X244875000Y-263525000D03*
%TD*%
D11*
%TO.C,SW36*%
X255248250Y-250661050D03*
X242321250Y-253201050D03*
D12*
X244326250Y-255741050D03*
D13*
X245596250Y-253201050D03*
D14*
X249406250Y-255741050D03*
D13*
X251946250Y-250661050D03*
D12*
X254486250Y-255741050D03*
%TD*%
D10*
%TO.C,D28*%
X74867500Y-263525000D03*
X78167500Y-263525000D03*
%TD*%
D11*
%TO.C,SW28*%
X95694500Y-250666250D03*
X82767500Y-253206250D03*
D12*
X84772500Y-255746250D03*
D13*
X86042500Y-253206250D03*
D14*
X89852500Y-255746250D03*
D13*
X92392500Y-250666250D03*
D12*
X94932500Y-255746250D03*
%TD*%
D11*
%TO.C,SW15*%
X93313250Y-231616250D03*
X80386250Y-234156250D03*
D12*
X82391250Y-236696250D03*
D13*
X83661250Y-234156250D03*
D14*
X87471250Y-236696250D03*
D13*
X90011250Y-231616250D03*
D12*
X92551250Y-236696250D03*
%TD*%
D10*
%TO.C,D15*%
X74805000Y-244475000D03*
X78105000Y-244475000D03*
%TD*%
D11*
%TO.C,SW21*%
X212375750Y-231616250D03*
X199448750Y-234156250D03*
D12*
X201453750Y-236696250D03*
D13*
X202723750Y-234156250D03*
D14*
X206533750Y-236696250D03*
D13*
X209073750Y-231616250D03*
D12*
X211613750Y-236696250D03*
%TD*%
D10*
%TO.C,D21*%
X198755000Y-244475000D03*
X202055000Y-244475000D03*
%TD*%
%TO.C,D20*%
X179642500Y-244475000D03*
X182942500Y-244475000D03*
%TD*%
D11*
%TO.C,SW20*%
X193325750Y-231775000D03*
X180398750Y-234315000D03*
D12*
X182403750Y-236855000D03*
D13*
X183673750Y-234315000D03*
D14*
X187483750Y-236855000D03*
D13*
X190023750Y-231775000D03*
D12*
X192563750Y-236855000D03*
%TD*%
D10*
%TO.C,D39*%
X293942500Y-244475000D03*
X297242500Y-244475000D03*
%TD*%
D11*
%TO.C,SW39*%
X307625750Y-231611050D03*
X294698750Y-234151050D03*
D12*
X296703750Y-236691050D03*
D13*
X297973750Y-234151050D03*
D14*
X301783750Y-236691050D03*
D13*
X304323750Y-231611050D03*
D12*
X306863750Y-236691050D03*
%TD*%
D10*
%TO.C,D8*%
X189187500Y-225425000D03*
X192487500Y-225425000D03*
%TD*%
D11*
%TO.C,SW8*%
X202860750Y-212561050D03*
X189933750Y-215101050D03*
D12*
X191938750Y-217641050D03*
D13*
X193208750Y-215101050D03*
D14*
X197018750Y-217641050D03*
D13*
X199558750Y-212561050D03*
D12*
X202098750Y-217641050D03*
%TD*%
%TO.C,SW5*%
X144938750Y-217646250D03*
D13*
X142398750Y-212566250D03*
D14*
X139858750Y-217646250D03*
D13*
X136048750Y-215106250D03*
D12*
X134778750Y-217646250D03*
D11*
X132773750Y-215106250D03*
X145700750Y-212566250D03*
%TD*%
D12*
%TO.C,SW38*%
X292586250Y-255741050D03*
D13*
X290046250Y-250661050D03*
D14*
X287506250Y-255741050D03*
D13*
X283696250Y-253201050D03*
D12*
X282426250Y-255741050D03*
D11*
X280421250Y-253201050D03*
X293348250Y-250661050D03*
%TD*%
D12*
%TO.C,SW7*%
X183413512Y-217651450D03*
D13*
X180873512Y-212571450D03*
D14*
X178333512Y-217651450D03*
D13*
X174523512Y-215111450D03*
D12*
X173253512Y-217651450D03*
D11*
X171248512Y-215111450D03*
X184175512Y-212571450D03*
%TD*%
D10*
%TO.C,D32*%
X168737500Y-263525000D03*
X165437500Y-263525000D03*
%TD*%
%TO.C,D23*%
X240155000Y-244475000D03*
X236855000Y-244475000D03*
%TD*%
D12*
%TO.C,SW18*%
X154473750Y-236691050D03*
D13*
X151933750Y-231611050D03*
D14*
X149393750Y-236691050D03*
D13*
X145583750Y-234151050D03*
D12*
X144313750Y-236691050D03*
D11*
X142308750Y-234151050D03*
X155235750Y-231611050D03*
%TD*%
D12*
%TO.C,SW60*%
X335438750Y-293841050D03*
D13*
X332898750Y-288761050D03*
D14*
X330358750Y-293841050D03*
D13*
X326548750Y-291301050D03*
D12*
X325278750Y-293841050D03*
D11*
X323273750Y-291301050D03*
X336200750Y-288761050D03*
%TD*%
D12*
%TO.C,SW19*%
X173523750Y-236691050D03*
D13*
X170983750Y-231611050D03*
D14*
X168443750Y-236691050D03*
D13*
X164633750Y-234151050D03*
D12*
X163363750Y-236691050D03*
D11*
X161358750Y-234151050D03*
X174285750Y-231611050D03*
%TD*%
D10*
%TO.C,D26*%
X287717500Y-225425000D03*
X284417500Y-225425000D03*
%TD*%
D12*
%TO.C,SW63*%
X328295000Y-274791050D03*
D13*
X325755000Y-269711050D03*
D14*
X323215000Y-274791050D03*
D13*
X319405000Y-272251050D03*
D12*
X318135000Y-274791050D03*
D11*
X316130000Y-272251050D03*
X329057000Y-269711050D03*
%TD*%
D10*
%TO.C,D31*%
X149605000Y-263525000D03*
X146305000Y-263525000D03*
%TD*%
D12*
%TO.C,SW10*%
X240188750Y-217646250D03*
D13*
X237648750Y-212566250D03*
D14*
X235108750Y-217646250D03*
D13*
X231298750Y-215106250D03*
D12*
X230028750Y-217646250D03*
D11*
X228023750Y-215106250D03*
X240950750Y-212566250D03*
%TD*%
D10*
%TO.C,D35*%
X225805000Y-263525000D03*
X222505000Y-263525000D03*
%TD*%
%TO.C,D13*%
X335405000Y-244475000D03*
X332105000Y-244475000D03*
%TD*%
%TO.C,D43*%
X140142500Y-282575000D03*
X136842500Y-282575000D03*
%TD*%
D12*
%TO.C,SW40*%
X325903750Y-236696250D03*
D13*
X323363750Y-231616250D03*
D14*
X320823750Y-236696250D03*
D13*
X317013750Y-234156250D03*
D12*
X315743750Y-236696250D03*
D11*
X313738750Y-234156250D03*
X326665750Y-231616250D03*
%TD*%
D16*
%TO.C,J1*%
X373856250Y-263207500D03*
D17*
X373856250Y-264477500D03*
X373856250Y-265747500D03*
X373856250Y-267017500D03*
X373856250Y-268287500D03*
%TD*%
D12*
%TO.C,SW52*%
X311636250Y-255741050D03*
D13*
X309096250Y-250661050D03*
D14*
X306556250Y-255741050D03*
D13*
X302746250Y-253201050D03*
D12*
X301476250Y-255741050D03*
D11*
X299471250Y-253201050D03*
X312398250Y-250661050D03*
%TD*%
D12*
%TO.C,SW16*%
X116363750Y-236696250D03*
D13*
X113823750Y-231616250D03*
D14*
X111283750Y-236696250D03*
D13*
X107473750Y-234156250D03*
D12*
X106203750Y-236696250D03*
D11*
X104198750Y-234156250D03*
X117125750Y-231616250D03*
%TD*%
D12*
%TO.C,SW34*%
X216386250Y-255741050D03*
D13*
X213846250Y-250661050D03*
D14*
X211306250Y-255741050D03*
D13*
X207496250Y-253201050D03*
D12*
X206226250Y-255741050D03*
D11*
X204221250Y-253201050D03*
X217148250Y-250661050D03*
%TD*%
D12*
%TO.C,SW24*%
X268663750Y-236696250D03*
D13*
X266123750Y-231616250D03*
D14*
X263583750Y-236696250D03*
D13*
X259773750Y-234156250D03*
D12*
X258503750Y-236696250D03*
D11*
X256498750Y-234156250D03*
X269425750Y-231616250D03*
%TD*%
D10*
%TO.C,D16*%
X106742500Y-244475000D03*
X103442500Y-244475000D03*
%TD*%
%TO.C,D64*%
X344910000Y-282575000D03*
X341610000Y-282575000D03*
%TD*%
%TO.C,D24*%
X258942500Y-244475000D03*
X255642500Y-244475000D03*
%TD*%
%TO.C,D42*%
X120830000Y-282575000D03*
X117530000Y-282575000D03*
%TD*%
%TO.C,D52*%
X302025000Y-263525000D03*
X298725000Y-263525000D03*
%TD*%
%TO.C,D14*%
X325428512Y-225425000D03*
X322128512Y-225425000D03*
%TD*%
D12*
%TO.C,SW23*%
X249713750Y-236696250D03*
D13*
X247173750Y-231616250D03*
D14*
X244633750Y-236696250D03*
D13*
X240823750Y-234156250D03*
D12*
X239553750Y-236696250D03*
D11*
X237548750Y-234156250D03*
X250475750Y-231616250D03*
%TD*%
D12*
%TO.C,SW22*%
X230663750Y-236696250D03*
D13*
X228123750Y-231616250D03*
D14*
X225583750Y-236696250D03*
D13*
X221773750Y-234156250D03*
D12*
X220503750Y-236696250D03*
D11*
X218498750Y-234156250D03*
X231425750Y-231616250D03*
%TD*%
D12*
%TO.C,SW9*%
X221138750Y-217646250D03*
D13*
X218598750Y-212566250D03*
D14*
X216058750Y-217646250D03*
D13*
X212248750Y-215106250D03*
D12*
X210978750Y-217646250D03*
D11*
X208973750Y-215106250D03*
X221900750Y-212566250D03*
%TD*%
D10*
%TO.C,D11*%
X249617500Y-225425000D03*
X246317500Y-225425000D03*
%TD*%
%TO.C,D48*%
X235350000Y-282575000D03*
X232050000Y-282575000D03*
%TD*%
%TO.C,D30*%
X130575000Y-263525000D03*
X127275000Y-263525000D03*
%TD*%
%TO.C,D6*%
X154367500Y-225425000D03*
X151067500Y-225425000D03*
%TD*%
D12*
%TO.C,SW62*%
X373528750Y-293846250D03*
D13*
X370988750Y-288766250D03*
D14*
X368448750Y-293846250D03*
D13*
X364638750Y-291306250D03*
D12*
X363368750Y-293846250D03*
D11*
X361363750Y-291306250D03*
X374290750Y-288766250D03*
%TD*%
D12*
%TO.C,SW54*%
X90180000Y-293841050D03*
D13*
X87640000Y-288761050D03*
D14*
X85100000Y-293841050D03*
D13*
X81290000Y-291301050D03*
D12*
X80020000Y-293841050D03*
D11*
X78015000Y-291301050D03*
X90942000Y-288761050D03*
%TD*%
D12*
%TO.C,SW49*%
X264001250Y-274796250D03*
D13*
X261461250Y-269716250D03*
D14*
X258921250Y-274796250D03*
D13*
X255111250Y-272256250D03*
D12*
X253841250Y-274796250D03*
D11*
X251836250Y-272256250D03*
X264763250Y-269716250D03*
%TD*%
D10*
%TO.C,D19*%
X163975000Y-244475000D03*
X160675000Y-244475000D03*
%TD*%
%TO.C,D46*%
X197030000Y-282575000D03*
X193730000Y-282575000D03*
%TD*%
D12*
%TO.C,SW35*%
X235426250Y-255746250D03*
D13*
X232886250Y-250666250D03*
D14*
X230346250Y-255746250D03*
D13*
X226536250Y-253206250D03*
D12*
X225266250Y-255746250D03*
D11*
X223261250Y-253206250D03*
X236188250Y-250666250D03*
%TD*%
D10*
%TO.C,D7*%
X173782262Y-225425000D03*
X170482262Y-225425000D03*
%TD*%
%TO.C,D58*%
X268530000Y-301625000D03*
X265230000Y-301625000D03*
%TD*%
D12*
%TO.C,SW26*%
X297338750Y-217641050D03*
D13*
X294798750Y-212561050D03*
D14*
X292258750Y-217641050D03*
D13*
X288448750Y-215101050D03*
D12*
X287178750Y-217641050D03*
D11*
X285173750Y-215101050D03*
X298100750Y-212561050D03*
%TD*%
D12*
%TO.C,SW27*%
X316288750Y-217646250D03*
D13*
X313748750Y-212566250D03*
D14*
X311208750Y-217646250D03*
D13*
X307398750Y-215106250D03*
D12*
X306128750Y-217646250D03*
D11*
X304123750Y-215106250D03*
X317050750Y-212566250D03*
%TD*%
D10*
%TO.C,D56*%
X125855000Y-301625000D03*
X122555000Y-301625000D03*
%TD*%
D12*
%TO.C,SW29*%
X121126250Y-255746250D03*
D13*
X118586250Y-250666250D03*
D14*
X116046250Y-255746250D03*
D13*
X112236250Y-253206250D03*
D12*
X110966250Y-255746250D03*
D11*
X108961250Y-253206250D03*
X121888250Y-250666250D03*
%TD*%
D12*
%TO.C,SW44*%
X168651250Y-274796250D03*
D13*
X166111250Y-269716250D03*
D14*
X163571250Y-274796250D03*
D13*
X159761250Y-272256250D03*
D12*
X158491250Y-274796250D03*
D11*
X156486250Y-272256250D03*
X169413250Y-269716250D03*
%TD*%
D12*
%TO.C,SW25*%
X287813750Y-236855000D03*
D13*
X285273750Y-231775000D03*
D14*
X282733750Y-236855000D03*
D13*
X278923750Y-234315000D03*
D12*
X277653750Y-236855000D03*
D11*
X275648750Y-234315000D03*
X288575750Y-231775000D03*
%TD*%
D12*
%TO.C,SW55*%
X113982500Y-293846250D03*
D13*
X111442500Y-288766250D03*
D14*
X108902500Y-293846250D03*
D13*
X105092500Y-291306250D03*
D12*
X103822500Y-293846250D03*
D11*
X101817500Y-291306250D03*
X114744500Y-288766250D03*
%TD*%
D12*
%TO.C,SW46*%
X206751250Y-274796250D03*
D13*
X204211250Y-269716250D03*
D14*
X201671250Y-274796250D03*
D13*
X197861250Y-272256250D03*
D12*
X196591250Y-274796250D03*
D11*
X194586250Y-272256250D03*
X207513250Y-269716250D03*
%TD*%
D10*
%TO.C,D34*%
X206837500Y-263525000D03*
X203537500Y-263525000D03*
%TD*%
D12*
%TO.C,SW11*%
X259238750Y-217646250D03*
D13*
X256698750Y-212566250D03*
D14*
X254158750Y-217646250D03*
D13*
X250348750Y-215106250D03*
D12*
X249078750Y-217646250D03*
D11*
X247073750Y-215106250D03*
X260000750Y-212566250D03*
%TD*%
D12*
%TO.C,SW31*%
X159226250Y-255746250D03*
D13*
X156686250Y-250666250D03*
D14*
X154146250Y-255746250D03*
D13*
X150336250Y-253206250D03*
D12*
X149066250Y-255746250D03*
D11*
X147061250Y-253206250D03*
X159988250Y-250666250D03*
%TD*%
D10*
%TO.C,D47*%
X216362500Y-282575000D03*
X213062500Y-282575000D03*
%TD*%
%TO.C,D10*%
X230630000Y-225425000D03*
X227330000Y-225425000D03*
%TD*%
D12*
%TO.C,SW64*%
X354478750Y-274796250D03*
D13*
X351938750Y-269716250D03*
D14*
X349398750Y-274796250D03*
D13*
X345588750Y-272256250D03*
D12*
X344318750Y-274796250D03*
D11*
X342313750Y-272256250D03*
X355240750Y-269716250D03*
%TD*%
D10*
%TO.C,D37*%
X263987500Y-263525000D03*
X260687500Y-263525000D03*
%TD*%
D12*
%TO.C,SW61*%
X354478750Y-293846250D03*
D13*
X351938750Y-288766250D03*
D14*
X349398750Y-293846250D03*
D13*
X345588750Y-291306250D03*
D12*
X344318750Y-293846250D03*
D11*
X342313750Y-291306250D03*
X355240750Y-288766250D03*
%TD*%
D12*
%TO.C,SW45*%
X187701250Y-274796250D03*
D13*
X185161250Y-269716250D03*
D14*
X182621250Y-274796250D03*
D13*
X178811250Y-272256250D03*
D12*
X177541250Y-274796250D03*
D11*
X175536250Y-272256250D03*
X188463250Y-269716250D03*
%TD*%
D10*
%TO.C,D54*%
X78187500Y-301625000D03*
X74887500Y-301625000D03*
%TD*%
D12*
%TO.C,SW12*%
X278298750Y-217641050D03*
D13*
X275758750Y-212561050D03*
D14*
X273218750Y-217641050D03*
D13*
X269408750Y-215101050D03*
D12*
X268138750Y-217641050D03*
D11*
X266133750Y-215101050D03*
X279060750Y-212561050D03*
%TD*%
D12*
%TO.C,SW58*%
X280570000Y-293846250D03*
D13*
X278030000Y-288766250D03*
D14*
X275490000Y-293846250D03*
D13*
X271680000Y-291306250D03*
D12*
X270410000Y-293846250D03*
D11*
X268405000Y-291306250D03*
X281332000Y-288766250D03*
%TD*%
D10*
%TO.C,D45*%
X178042500Y-282575000D03*
X174742500Y-282575000D03*
%TD*%
D12*
%TO.C,SW66*%
X373528750Y-236696250D03*
D13*
X370988750Y-231616250D03*
D14*
X368448750Y-236696250D03*
D13*
X364638750Y-234156250D03*
D12*
X363368750Y-236696250D03*
D11*
X361363750Y-234156250D03*
X374290750Y-231616250D03*
%TD*%
D10*
%TO.C,D40*%
X316272500Y-244475000D03*
X312972500Y-244475000D03*
%TD*%
%TO.C,D12*%
X268687500Y-225425000D03*
X265387500Y-225425000D03*
%TD*%
D12*
%TO.C,SW43*%
X149701250Y-274796250D03*
D13*
X147161250Y-269716250D03*
D14*
X144621250Y-274796250D03*
D13*
X140811250Y-272256250D03*
D12*
X139541250Y-274796250D03*
D11*
X137536250Y-272256250D03*
X150463250Y-269716250D03*
%TD*%
D10*
%TO.C,D38*%
X282975000Y-263525000D03*
X279675000Y-263525000D03*
%TD*%
D15*
%TO.C,SW14*%
X352174012Y-210661250D03*
D14*
X352174012Y-225901250D03*
D12*
X345316012Y-217646250D03*
D13*
X342776012Y-212566250D03*
D14*
X340236012Y-217646250D03*
D13*
X336426012Y-215106250D03*
D12*
X335156012Y-217646250D03*
D15*
X328298012Y-210661250D03*
D14*
X328298012Y-225901250D03*
D11*
X333151012Y-215106250D03*
X346078012Y-212566250D03*
%TD*%
D12*
%TO.C,SW6*%
X163988750Y-217646250D03*
D13*
X161448750Y-212566250D03*
D14*
X158908750Y-217646250D03*
D13*
X155098750Y-215106250D03*
D12*
X153828750Y-217646250D03*
D11*
X151823750Y-215106250D03*
X164750750Y-212566250D03*
%TD*%
D10*
%TO.C,D61*%
X344910000Y-301625000D03*
X341610000Y-301625000D03*
%TD*%
D18*
%TO.C,U1*%
X381793750Y-211613750D03*
X381793750Y-214153750D03*
X381793750Y-216693750D03*
X381793750Y-219233750D03*
X381793750Y-221773750D03*
X381793750Y-224313750D03*
X381793750Y-226853750D03*
X381793750Y-229393750D03*
X381793750Y-231933750D03*
X381793750Y-234473750D03*
X381793750Y-237013750D03*
X381793750Y-239553750D03*
X397033750Y-239553750D03*
X397033750Y-237013750D03*
X397033750Y-234473750D03*
X397033750Y-231933750D03*
X397033750Y-229393750D03*
X397033750Y-226853750D03*
X397033750Y-224313750D03*
X397033750Y-221773750D03*
X397033750Y-219233750D03*
X397033750Y-216693750D03*
X397033750Y-214153750D03*
X397033750Y-211613750D03*
X384333750Y-234473750D03*
X386873750Y-234473750D03*
X389413750Y-234473750D03*
%TD*%
D10*
%TO.C,D55*%
X101980000Y-301625000D03*
X98680000Y-301625000D03*
%TD*%
%TO.C,D17*%
X125812500Y-244475000D03*
X122512500Y-244475000D03*
%TD*%
D12*
%TO.C,SW17*%
X135423750Y-236691050D03*
D13*
X132883750Y-231611050D03*
D14*
X130343750Y-236691050D03*
D13*
X126533750Y-234151050D03*
D12*
X125263750Y-236691050D03*
D11*
X123258750Y-234151050D03*
X136185750Y-231611050D03*
%TD*%
D10*
%TO.C,D33*%
X187767500Y-263525000D03*
X184467500Y-263525000D03*
%TD*%
%TO.C,D62*%
X363960000Y-301625000D03*
X360660000Y-301625000D03*
%TD*%
D12*
%TO.C,SW37*%
X273536250Y-255741050D03*
D13*
X270996250Y-250661050D03*
D14*
X268456250Y-255741050D03*
D13*
X264646250Y-253201050D03*
D12*
X263376250Y-255741050D03*
D11*
X261371250Y-253201050D03*
X274298250Y-250661050D03*
%TD*%
D12*
%TO.C,SW65*%
X373528750Y-217646250D03*
D13*
X370988750Y-212566250D03*
D14*
X368448750Y-217646250D03*
D13*
X364638750Y-215106250D03*
D12*
X363368750Y-217646250D03*
D11*
X361363750Y-215106250D03*
X374290750Y-212566250D03*
%TD*%
D12*
%TO.C,SW32*%
X178286250Y-255741050D03*
D13*
X175746250Y-250661050D03*
D14*
X173206250Y-255741050D03*
D13*
X169396250Y-253201050D03*
D12*
X168126250Y-255741050D03*
D11*
X166121250Y-253201050D03*
X179048250Y-250661050D03*
%TD*%
D10*
%TO.C,D53*%
X321097500Y-263525000D03*
X317797500Y-263525000D03*
%TD*%
D12*
%TO.C,SW56*%
X137795000Y-293846250D03*
D13*
X135255000Y-288766250D03*
D14*
X132715000Y-293846250D03*
D13*
X128905000Y-291306250D03*
D12*
X127635000Y-293846250D03*
D11*
X125630000Y-291306250D03*
X138557000Y-288766250D03*
%TD*%
D12*
%TO.C,SW13*%
X349726250Y-236691050D03*
D13*
X347186250Y-231611050D03*
D14*
X344646250Y-236691050D03*
D13*
X340836250Y-234151050D03*
D12*
X339566250Y-236691050D03*
D11*
X337561250Y-234151050D03*
X350488250Y-231611050D03*
%TD*%
D10*
%TO.C,D18*%
X144925000Y-244475000D03*
X141625000Y-244475000D03*
%TD*%
D12*
%TO.C,SW48*%
X244961250Y-274791050D03*
D13*
X242421250Y-269711050D03*
D14*
X239881250Y-274791050D03*
D13*
X236071250Y-272251050D03*
D12*
X234801250Y-274791050D03*
D11*
X232796250Y-272251050D03*
X245723250Y-269711050D03*
%TD*%
D10*
%TO.C,D50*%
X273492500Y-282575000D03*
X270192500Y-282575000D03*
%TD*%
D12*
%TO.C,SW47*%
X225911250Y-274791050D03*
D13*
X223371250Y-269711050D03*
D14*
X220831250Y-274791050D03*
D13*
X217021250Y-272251050D03*
D12*
X215751250Y-274791050D03*
D11*
X213746250Y-272251050D03*
X226673250Y-269711050D03*
%TD*%
D12*
%TO.C,SW50*%
X283051250Y-274796250D03*
D13*
X280511250Y-269716250D03*
D14*
X277971250Y-274796250D03*
D13*
X274161250Y-272256250D03*
D12*
X272891250Y-274796250D03*
D11*
X270886250Y-272256250D03*
X283813250Y-269716250D03*
%TD*%
D10*
%TO.C,D9*%
X211580000Y-225425000D03*
X208280000Y-225425000D03*
%TD*%
%TO.C,D22*%
X221042500Y-244475000D03*
X217742500Y-244475000D03*
%TD*%
%TO.C,D49*%
X254442500Y-282575000D03*
X251142500Y-282575000D03*
%TD*%
%TO.C,D25*%
X278255000Y-244475000D03*
X274955000Y-244475000D03*
%TD*%
%TO.C,D65*%
X363897500Y-225425000D03*
X360597500Y-225425000D03*
%TD*%
%TO.C,D60*%
X325817500Y-301625000D03*
X322517500Y-301625000D03*
%TD*%
D15*
%TO.C,SW53*%
X349430500Y-248761250D03*
D14*
X349430500Y-264001250D03*
D12*
X342572500Y-255746250D03*
D13*
X340032500Y-250666250D03*
D14*
X337492500Y-255746250D03*
D13*
X333682500Y-253206250D03*
D12*
X332412500Y-255746250D03*
D15*
X325554500Y-248761250D03*
D14*
X325554500Y-264001250D03*
D11*
X330407500Y-253206250D03*
X343334500Y-250666250D03*
%TD*%
D10*
%TO.C,D44*%
X158930000Y-282575000D03*
X155630000Y-282575000D03*
%TD*%
%TO.C,D66*%
X363897500Y-244475000D03*
X360597500Y-244475000D03*
%TD*%
D12*
%TO.C,SW30*%
X140186250Y-255741050D03*
D13*
X137646250Y-250661050D03*
D14*
X135106250Y-255741050D03*
D13*
X131296250Y-253201050D03*
D12*
X130026250Y-255741050D03*
D11*
X128021250Y-253201050D03*
X140948250Y-250661050D03*
%TD*%
D10*
%TO.C,D5*%
X135317500Y-225425000D03*
X132017500Y-225425000D03*
%TD*%
D12*
%TO.C,SW33*%
X197326250Y-255746250D03*
D13*
X194786250Y-250666250D03*
D14*
X192246250Y-255746250D03*
D13*
X188436250Y-253206250D03*
D12*
X187166250Y-255746250D03*
D11*
X185161250Y-253206250D03*
X198088250Y-250666250D03*
%TD*%
D12*
%TO.C,SW42*%
X130551250Y-274796250D03*
D13*
X128011250Y-269716250D03*
D14*
X125471250Y-274796250D03*
D13*
X121661250Y-272256250D03*
D12*
X120391250Y-274796250D03*
D11*
X118386250Y-272256250D03*
X131313250Y-269716250D03*
%TD*%
M02*
