M48
; DRILL file KiCad 10.0.0 date 2026-04-21T08:28:01
; FORMAT={-:-/ absolute / metric / decimal}
; #@! TF.CreationDate,2026-04-21T08:28:01+10:00
; #@! TF.GenerationSoftware,Kicad,Pcbnew,10.0.0
; #@! TF.FileFunction,NonPlated,1,2,NPTH
FMAT,2
METRIC
; #@! TA.AperFunction,NonPlated,NPTH,ComponentDrill
T1C1.702
; #@! TA.AperFunction,NonPlated,NPTH,ComponentDrill
T2C3.000
; #@! TA.AperFunction,NonPlated,NPTH,ComponentDrill
T3C3.048
; #@! TA.AperFunction,NonPlated,NPTH,ComponentDrill
T4C3.988
%
G90
G05
T1
X77.629Y-217.646
X80.02Y-293.841
X82.391Y-236.696
X84.772Y-255.746
X87.789Y-217.646
X89.535Y-274.796
X90.18Y-293.841
X92.551Y-236.696
X94.932Y-255.746
X96.679Y-217.646
X99.695Y-274.796
X103.822Y-293.846
X106.204Y-236.696
X106.839Y-217.646
X110.966Y-255.746
X113.983Y-293.846
X115.729Y-217.646
X116.364Y-236.696
X120.391Y-274.796
X121.126Y-255.746
X125.264Y-236.691
X125.889Y-217.646
X127.635Y-293.846
X130.026Y-255.741
X130.551Y-274.796
X134.779Y-217.646
X135.424Y-236.691
X137.795Y-293.846
X139.541Y-274.796
X140.186Y-255.741
X144.314Y-236.691
X144.939Y-217.646
X149.066Y-255.746
X149.701Y-274.796
X153.829Y-217.646
X154.474Y-236.691
X158.491Y-274.796
X159.226Y-255.746
X163.364Y-236.691
X163.989Y-217.646
X168.126Y-255.741
X168.651Y-274.796
X172.869Y-217.651
X173.524Y-236.691
X177.541Y-274.796
X178.286Y-255.741
X182.404Y-236.855
X183.029Y-217.651
X187.166Y-255.746
X187.701Y-274.796
X191.939Y-217.641
X192.564Y-236.855
X196.591Y-274.796
X197.326Y-255.746
X199.072Y-293.846
X201.454Y-236.696
X202.099Y-217.641
X206.226Y-255.741
X206.751Y-274.796
X209.232Y-293.846
X210.979Y-217.646
X211.614Y-236.696
X215.751Y-274.791
X216.386Y-255.741
X220.504Y-236.696
X221.139Y-217.646
X225.266Y-255.746
X225.911Y-274.791
X230.029Y-217.646
X230.664Y-236.696
X234.801Y-274.791
X235.426Y-255.746
X239.554Y-236.696
X240.189Y-217.646
X244.326Y-255.741
X244.961Y-274.791
X249.079Y-217.646
X249.714Y-236.696
X253.841Y-274.796
X254.486Y-255.741
X258.504Y-236.696
X259.239Y-217.646
X263.376Y-255.741
X264.001Y-274.796
X268.139Y-217.641
X268.664Y-236.696
X270.41Y-293.846
X272.891Y-274.796
X273.536Y-255.741
X277.654Y-236.855
X278.299Y-217.641
X280.57Y-293.846
X282.426Y-255.741
X283.051Y-274.796
X287.179Y-217.641
X287.814Y-236.855
X291.951Y-274.791
X292.586Y-255.741
X294.322Y-293.846
X296.704Y-236.691
X297.339Y-217.641
X301.476Y-255.741
X302.111Y-274.791
X304.482Y-293.846
X306.129Y-217.646
X306.864Y-236.691
X311.636Y-255.741
X315.744Y-236.696
X316.289Y-217.646
X318.135Y-274.791
X325.279Y-293.841
X325.904Y-236.696
X328.295Y-274.791
X332.412Y-255.746
X334.794Y-217.646
X335.439Y-293.841
X339.566Y-236.691
X342.572Y-255.746
X344.319Y-274.796
X344.319Y-293.846
X344.954Y-217.646
X349.726Y-236.691
X354.479Y-274.796
X354.479Y-293.846
X363.369Y-217.646
X363.369Y-236.696
X363.369Y-293.846
X373.529Y-217.646
X373.529Y-236.696
X373.529Y-293.846
T2
X80.169Y-212.566
X82.56Y-288.761
X84.931Y-231.616
X86.519Y-215.106
X87.312Y-250.666
X88.91Y-291.301
X91.281Y-234.156
X92.075Y-269.716
X93.662Y-253.206
X98.425Y-272.256
X99.219Y-212.566
X105.569Y-215.106
X106.362Y-288.766
X108.744Y-231.616
X112.712Y-291.306
X113.506Y-250.666
X115.094Y-234.156
X118.269Y-212.566
X119.856Y-253.206
X122.931Y-269.716
X124.619Y-215.106
X127.804Y-231.611
X129.281Y-272.256
X130.175Y-288.766
X132.566Y-250.661
X134.154Y-234.151
X136.525Y-291.306
X137.319Y-212.566
X138.916Y-253.201
X142.081Y-269.716
X143.669Y-215.106
X146.854Y-231.611
X148.431Y-272.256
X151.606Y-250.666
X153.204Y-234.151
X156.369Y-212.566
X157.956Y-253.206
X161.031Y-269.716
X162.719Y-215.106
X165.904Y-231.611
X167.381Y-272.256
X170.666Y-250.661
X172.254Y-234.151
X175.409Y-212.571
X177.016Y-253.201
X180.081Y-269.716
X181.759Y-215.111
X184.944Y-231.775
X186.431Y-272.256
X189.706Y-250.666
X191.294Y-234.315
X194.479Y-212.561
X196.056Y-253.206
X199.131Y-269.716
X200.829Y-215.101
X201.612Y-288.766
X203.994Y-231.616
X205.481Y-272.256
X207.962Y-291.306
X208.766Y-250.661
X210.344Y-234.156
X213.519Y-212.566
X215.116Y-253.201
X218.291Y-269.711
X219.869Y-215.106
X223.044Y-231.616
X224.641Y-272.251
X227.806Y-250.666
X229.394Y-234.156
X232.569Y-212.566
X234.156Y-253.206
X237.341Y-269.711
X238.919Y-215.106
X242.094Y-231.616
X243.691Y-272.251
X246.866Y-250.661
X248.444Y-234.156
X251.619Y-212.566
X253.216Y-253.201
X256.381Y-269.716
X257.969Y-215.106
X261.044Y-231.616
X262.731Y-272.256
X265.916Y-250.661
X267.394Y-234.156
X270.679Y-212.561
X272.266Y-253.201
X272.95Y-288.766
X275.431Y-269.716
X277.029Y-215.101
X279.3Y-291.306
X280.194Y-231.775
X281.781Y-272.256
X284.966Y-250.661
X286.544Y-234.315
X289.719Y-212.561
X291.316Y-253.201
X294.491Y-269.711
X296.069Y-215.101
X296.863Y-288.766
X299.244Y-231.611
X300.841Y-272.251
X303.212Y-291.306
X304.016Y-250.661
X305.594Y-234.151
X308.669Y-212.566
X310.366Y-253.201
X315.019Y-215.106
X318.284Y-231.616
X320.675Y-269.711
X324.634Y-234.156
X327.025Y-272.251
X327.819Y-288.761
X334.169Y-291.301
X334.952Y-250.666
X337.334Y-212.566
X341.303Y-253.206
X342.106Y-231.611
X343.684Y-215.106
X346.859Y-269.716
X346.859Y-288.766
X348.456Y-234.151
X353.209Y-272.256
X353.209Y-291.306
X365.909Y-212.566
X365.909Y-231.616
X365.909Y-288.766
X372.259Y-215.106
X372.259Y-234.156
X372.259Y-291.306
T3
X82.677Y-267.811
X106.553Y-267.811
X154.153Y-286.861
X254.152Y-286.861
X325.554Y-248.761
X327.936Y-210.661
X349.43Y-248.761
X351.812Y-210.661
T4
X82.677Y-283.051
X82.709Y-217.646
X85.1Y-293.841
X87.471Y-236.696
X89.852Y-255.746
X94.615Y-274.796
X101.759Y-217.646
X106.553Y-283.051
X108.902Y-293.846
X111.284Y-236.696
X116.046Y-255.746
X120.809Y-217.646
X125.471Y-274.796
X130.344Y-236.691
X132.715Y-293.846
X135.106Y-255.741
X139.859Y-217.646
X144.621Y-274.796
X149.394Y-236.691
X154.146Y-255.746
X154.153Y-302.101
X158.909Y-217.646
X163.571Y-274.796
X168.444Y-236.691
X173.206Y-255.741
X177.949Y-217.651
X182.621Y-274.796
X187.484Y-236.855
X192.246Y-255.746
X197.019Y-217.641
X201.671Y-274.796
X204.153Y-293.846
X206.534Y-236.696
X211.306Y-255.741
X216.059Y-217.646
X220.831Y-274.791
X225.584Y-236.696
X230.346Y-255.746
X235.109Y-217.646
X239.881Y-274.791
X244.634Y-236.696
X249.406Y-255.741
X254.152Y-302.101
X254.159Y-217.646
X258.921Y-274.796
X263.584Y-236.696
X268.456Y-255.741
X273.219Y-217.641
X275.49Y-293.846
X277.971Y-274.796
X282.734Y-236.855
X287.506Y-255.741
X292.259Y-217.641
X297.031Y-274.791
X299.402Y-293.846
X301.784Y-236.691
X306.556Y-255.741
X311.209Y-217.646
X320.824Y-236.696
X323.215Y-274.791
X325.554Y-264.001
X327.936Y-225.901
X330.359Y-293.841
X337.493Y-255.746
X339.874Y-217.646
X344.646Y-236.691
X349.399Y-274.796
X349.399Y-293.846
X349.43Y-264.001
X351.812Y-225.901
X368.449Y-217.646
X368.449Y-236.696
X368.449Y-293.846
M30
