%TF.GenerationSoftware,KiCad,Pcbnew,10.0.0*%
%TF.CreationDate,2026-04-21T08:27:56+10:00*%
%TF.ProjectId,YetAnotherKeyboard,59657441-6e6f-4746-9865-724b6579626f,rev?*%
%TF.SameCoordinates,Original*%
%TF.FileFunction,Paste,Top*%
%TF.FilePolarity,Positive*%
%FSLAX46Y46*%
G04 Gerber Fmt 4.6, Leading zero omitted, Abs format (unit mm)*
G04 Created by KiCad (PCBNEW 10.0.0) date 2026-04-21 08:27:56*
%MOMM*%
%LPD*%
G01*
G04 APERTURE LIST*
G04 Aperture macros list*
%AMRoundRect*
0 Rectangle with rounded corners*
0 $1 Rounding radius*
0 $2 $3 $4 $5 $6 $7 $8 $9 X,Y pos of 4 corners*
0 Add a 4 corners polygon primitive as box body*
4,1,4,$2,$3,$4,$5,$6,$7,$8,$9,$2,$3,0*
0 Add four circle primitives for the rounded corners*
1,1,$1+$1,$2,$3*
1,1,$1+$1,$4,$5*
1,1,$1+$1,$6,$7*
1,1,$1+$1,$8,$9*
0 Add four rect primitives between the rounded corners*
20,1,$1+$1,$2,$3,$4,$5,0*
20,1,$1+$1,$4,$5,$6,$7,0*
20,1,$1+$1,$6,$7,$8,$9,0*
20,1,$1+$1,$8,$9,$2,$3,0*%
G04 Aperture macros list end*
%ADD10RoundRect,0.200000X-1.075000X-1.050000X1.075000X-1.050000X1.075000X1.050000X-1.075000X1.050000X0*%
%ADD11RoundRect,0.225000X-0.225000X-0.375000X0.225000X-0.375000X0.225000X0.375000X-0.225000X0.375000X0*%
%ADD12RoundRect,0.200000X-0.200000X-0.800000X0.200000X-0.800000X0.200000X0.800000X-0.200000X0.800000X0*%
%ADD13RoundRect,0.135000X-0.135000X-0.185000X0.135000X-0.185000X0.135000X0.185000X-0.135000X0.185000X0*%
G04 APERTURE END LIST*
D10*
%TO.C,SW5*%
X146943750Y-215106250D03*
X134016750Y-212566250D03*
%TD*%
%TO.C,SW38*%
X294591250Y-253201050D03*
X281664250Y-250661050D03*
%TD*%
%TO.C,SW7*%
X185033750Y-215111450D03*
X172106750Y-212571450D03*
%TD*%
D11*
%TO.C,D32*%
X177675000Y-263525000D03*
X180975000Y-263525000D03*
%TD*%
%TO.C,D23*%
X249112500Y-244475000D03*
X252412500Y-244475000D03*
%TD*%
D10*
%TO.C,SW18*%
X156478750Y-234151050D03*
X143551750Y-231611050D03*
%TD*%
D11*
%TO.C,D3*%
X106300000Y-225425000D03*
X109600000Y-225425000D03*
%TD*%
D10*
%TO.C,SW60*%
X337443750Y-291301050D03*
X324516750Y-288761050D03*
%TD*%
D11*
%TO.C,D2*%
X87250000Y-225425000D03*
X90550000Y-225425000D03*
%TD*%
D10*
%TO.C,SW19*%
X175528750Y-234151050D03*
X162601750Y-231611050D03*
%TD*%
D11*
%TO.C,D4*%
X125287500Y-225425000D03*
X128587500Y-225425000D03*
%TD*%
%TO.C,D26*%
X296800000Y-225425000D03*
X300100000Y-225425000D03*
%TD*%
D10*
%TO.C,SW63*%
X330300000Y-272251050D03*
X317373000Y-269711050D03*
%TD*%
D11*
%TO.C,D31*%
X158687500Y-263525000D03*
X161987500Y-263525000D03*
%TD*%
D10*
%TO.C,SW10*%
X242193750Y-215106250D03*
X229266750Y-212566250D03*
%TD*%
%TO.C,SW57*%
X211237500Y-291306250D03*
X198310500Y-288766250D03*
%TD*%
D11*
%TO.C,D35*%
X234887500Y-263525000D03*
X238187500Y-263525000D03*
%TD*%
%TO.C,D13*%
X353887500Y-244475000D03*
X357187500Y-244475000D03*
%TD*%
%TO.C,D43*%
X149100000Y-282575000D03*
X152400000Y-282575000D03*
%TD*%
D10*
%TO.C,SW40*%
X327908750Y-234156250D03*
X314981750Y-231616250D03*
%TD*%
%TO.C,SW52*%
X313641250Y-253201050D03*
X300714250Y-250661050D03*
%TD*%
%TO.C,SW16*%
X118368750Y-234156250D03*
X105441750Y-231616250D03*
%TD*%
%TO.C,SW34*%
X218391250Y-253201050D03*
X205464250Y-250661050D03*
%TD*%
%TO.C,SW24*%
X270668750Y-234156250D03*
X257741750Y-231616250D03*
%TD*%
D11*
%TO.C,D16*%
X115825000Y-244475000D03*
X119125000Y-244475000D03*
%TD*%
%TO.C,D21*%
X211012500Y-244475000D03*
X214312500Y-244475000D03*
%TD*%
D10*
%TO.C,SW21*%
X213618750Y-234156250D03*
X200691750Y-231616250D03*
%TD*%
D11*
%TO.C,D64*%
X353887500Y-282575000D03*
X357187500Y-282575000D03*
%TD*%
%TO.C,D24*%
X268225000Y-244475000D03*
X271525000Y-244475000D03*
%TD*%
%TO.C,D42*%
X130112500Y-282575000D03*
X133412500Y-282575000D03*
%TD*%
%TO.C,D52*%
X311087500Y-263525000D03*
X314387500Y-263525000D03*
%TD*%
%TO.C,D14*%
X354681250Y-225425000D03*
X357981250Y-225425000D03*
%TD*%
D10*
%TO.C,SW23*%
X251718750Y-234156250D03*
X238791750Y-231616250D03*
%TD*%
D11*
%TO.C,D28*%
X101537500Y-263525000D03*
X104837500Y-263525000D03*
%TD*%
D10*
%TO.C,SW22*%
X232668750Y-234156250D03*
X219741750Y-231616250D03*
%TD*%
%TO.C,SW9*%
X223143750Y-215106250D03*
X210216750Y-212566250D03*
%TD*%
D11*
%TO.C,D11*%
X258700000Y-225425000D03*
X262000000Y-225425000D03*
%TD*%
%TO.C,D48*%
X244412500Y-282575000D03*
X247712500Y-282575000D03*
%TD*%
%TO.C,D30*%
X139637500Y-263525000D03*
X142937500Y-263525000D03*
%TD*%
%TO.C,D6*%
X163450000Y-225425000D03*
X166750000Y-225425000D03*
%TD*%
D10*
%TO.C,SW62*%
X375533750Y-291306250D03*
X362606750Y-288766250D03*
%TD*%
%TO.C,SW54*%
X92185000Y-291301050D03*
X79258000Y-288761050D03*
%TD*%
%TO.C,SW28*%
X96937500Y-253206250D03*
X84010500Y-250666250D03*
%TD*%
D11*
%TO.C,D63*%
X334900000Y-282575000D03*
X338200000Y-282575000D03*
%TD*%
D10*
%TO.C,SW49*%
X266006250Y-272256250D03*
X253079250Y-269716250D03*
%TD*%
D11*
%TO.C,D36*%
X253937500Y-263525000D03*
X257237500Y-263525000D03*
%TD*%
%TO.C,D19*%
X172912500Y-244475000D03*
X176212500Y-244475000D03*
%TD*%
%TO.C,D46*%
X206312500Y-282575000D03*
X209612500Y-282575000D03*
%TD*%
%TO.C,D39*%
X306325000Y-244475000D03*
X309625000Y-244475000D03*
%TD*%
D10*
%TO.C,SW35*%
X237431250Y-253206250D03*
X224504250Y-250666250D03*
%TD*%
D12*
%TO.C,SW1*%
X391087500Y-245268750D03*
X395287500Y-245268750D03*
%TD*%
D11*
%TO.C,D8*%
X201550000Y-225425000D03*
X204850000Y-225425000D03*
%TD*%
%TO.C,D7*%
X182500000Y-225425000D03*
X185800000Y-225425000D03*
%TD*%
%TO.C,D58*%
X282450000Y-301625000D03*
X285750000Y-301625000D03*
%TD*%
D10*
%TO.C,SW26*%
X299343750Y-215101050D03*
X286416750Y-212561050D03*
%TD*%
%TO.C,SW27*%
X318293750Y-215106250D03*
X305366750Y-212566250D03*
%TD*%
D11*
%TO.C,D56*%
X139575000Y-301625000D03*
X142875000Y-301625000D03*
%TD*%
D10*
%TO.C,SW29*%
X123131250Y-253206250D03*
X110204250Y-250666250D03*
%TD*%
%TO.C,SW44*%
X170656250Y-272256250D03*
X157729250Y-269716250D03*
%TD*%
%TO.C,SW2*%
X89793750Y-215106250D03*
X76866750Y-212566250D03*
%TD*%
D11*
%TO.C,D41*%
X111062500Y-282575000D03*
X114362500Y-282575000D03*
%TD*%
D10*
%TO.C,SW25*%
X289818750Y-234315000D03*
X276891750Y-231775000D03*
%TD*%
%TO.C,SW55*%
X115987500Y-291306250D03*
X103060500Y-288766250D03*
%TD*%
%TO.C,SW59*%
X306487500Y-291306250D03*
X293560500Y-288766250D03*
%TD*%
%TO.C,SW46*%
X208756250Y-272256250D03*
X195829250Y-269716250D03*
%TD*%
D11*
%TO.C,D34*%
X215775000Y-263525000D03*
X219075000Y-263525000D03*
%TD*%
D10*
%TO.C,SW11*%
X261243750Y-215106250D03*
X248316750Y-212566250D03*
%TD*%
%TO.C,SW31*%
X161231250Y-253206250D03*
X148304250Y-250666250D03*
%TD*%
D11*
%TO.C,D47*%
X225300000Y-282575000D03*
X228600000Y-282575000D03*
%TD*%
%TO.C,D10*%
X239587500Y-225425000D03*
X242887500Y-225425000D03*
%TD*%
%TO.C,D51*%
X301562500Y-282575000D03*
X304862500Y-282575000D03*
%TD*%
D10*
%TO.C,SW64*%
X356483750Y-272256250D03*
X343556750Y-269716250D03*
%TD*%
D11*
%TO.C,D37*%
X272925000Y-263525000D03*
X276225000Y-263525000D03*
%TD*%
D10*
%TO.C,SW61*%
X356483750Y-291306250D03*
X343556750Y-288766250D03*
%TD*%
%TO.C,SW45*%
X189706250Y-272256250D03*
X176779250Y-269716250D03*
%TD*%
D11*
%TO.C,D54*%
X92012500Y-301625000D03*
X95312500Y-301625000D03*
%TD*%
D10*
%TO.C,SW12*%
X280303750Y-215101050D03*
X267376750Y-212561050D03*
%TD*%
%TO.C,SW58*%
X282575000Y-291306250D03*
X269648000Y-288766250D03*
%TD*%
D11*
%TO.C,D45*%
X187200000Y-282575000D03*
X190500000Y-282575000D03*
%TD*%
D10*
%TO.C,SW66*%
X375533750Y-234156250D03*
X362606750Y-231616250D03*
%TD*%
D11*
%TO.C,D40*%
X325375000Y-244475000D03*
X328675000Y-244475000D03*
%TD*%
%TO.C,D29*%
X120587500Y-263525000D03*
X123887500Y-263525000D03*
%TD*%
%TO.C,D12*%
X277750000Y-225425000D03*
X281050000Y-225425000D03*
%TD*%
D10*
%TO.C,SW43*%
X151706250Y-272256250D03*
X138779250Y-269716250D03*
%TD*%
D11*
%TO.C,D20*%
X192025000Y-244475000D03*
X195325000Y-244475000D03*
%TD*%
%TO.C,D38*%
X292037500Y-263525000D03*
X295337500Y-263525000D03*
%TD*%
D10*
%TO.C,SW15*%
X94556250Y-234156250D03*
X81629250Y-231616250D03*
%TD*%
%TO.C,SW36*%
X256491250Y-253201050D03*
X243564250Y-250661050D03*
%TD*%
%TO.C,SW14*%
X346958750Y-215106250D03*
X334031750Y-212566250D03*
%TD*%
%TO.C,SW39*%
X308868750Y-234151050D03*
X295941750Y-231611050D03*
%TD*%
D11*
%TO.C,D59*%
X306325000Y-301625000D03*
X309625000Y-301625000D03*
%TD*%
D10*
%TO.C,SW6*%
X165993750Y-215106250D03*
X153066750Y-212566250D03*
%TD*%
D11*
%TO.C,D57*%
X258700000Y-301625000D03*
X262000000Y-301625000D03*
%TD*%
%TO.C,D61*%
X353887500Y-301625000D03*
X357187500Y-301625000D03*
%TD*%
D10*
%TO.C,SW3*%
X108843750Y-215106250D03*
X95916750Y-212566250D03*
%TD*%
%TO.C,SW20*%
X194568750Y-234315000D03*
X181641750Y-231775000D03*
%TD*%
D11*
%TO.C,D55*%
X115825000Y-301625000D03*
X119125000Y-301625000D03*
%TD*%
%TO.C,D17*%
X134875000Y-244475000D03*
X138175000Y-244475000D03*
%TD*%
D10*
%TO.C,SW17*%
X137428750Y-234151050D03*
X124501750Y-231611050D03*
%TD*%
D11*
%TO.C,D33*%
X196725000Y-263525000D03*
X200025000Y-263525000D03*
%TD*%
D13*
%TO.C,R1*%
X396648750Y-242887500D03*
X397668750Y-242887500D03*
%TD*%
D11*
%TO.C,D62*%
X372937500Y-301625000D03*
X376237500Y-301625000D03*
%TD*%
%TO.C,D15*%
X96837500Y-244475000D03*
X100137500Y-244475000D03*
%TD*%
D10*
%TO.C,SW37*%
X275541250Y-253201050D03*
X262614250Y-250661050D03*
%TD*%
%TO.C,SW65*%
X375533750Y-215106250D03*
X362606750Y-212566250D03*
%TD*%
%TO.C,SW32*%
X180291250Y-253201050D03*
X167364250Y-250661050D03*
%TD*%
D11*
%TO.C,D53*%
X353887500Y-263525000D03*
X357187500Y-263525000D03*
%TD*%
D10*
%TO.C,SW56*%
X139800000Y-291306250D03*
X126873000Y-288766250D03*
%TD*%
%TO.C,SW13*%
X351731250Y-234151050D03*
X338804250Y-231611050D03*
%TD*%
%TO.C,SW4*%
X127893750Y-215106250D03*
X114966750Y-212566250D03*
%TD*%
D11*
%TO.C,D18*%
X153862500Y-244475000D03*
X157162500Y-244475000D03*
%TD*%
D10*
%TO.C,SW48*%
X246966250Y-272251050D03*
X234039250Y-269711050D03*
%TD*%
D11*
%TO.C,D50*%
X282450000Y-282575000D03*
X285750000Y-282575000D03*
%TD*%
D10*
%TO.C,SW47*%
X227916250Y-272251050D03*
X214989250Y-269711050D03*
%TD*%
%TO.C,SW50*%
X285056250Y-272256250D03*
X272129250Y-269716250D03*
%TD*%
D11*
%TO.C,D9*%
X220537500Y-225425000D03*
X223837500Y-225425000D03*
%TD*%
D10*
%TO.C,SW51*%
X304116250Y-272251050D03*
X291189250Y-269711050D03*
%TD*%
D11*
%TO.C,D22*%
X230125000Y-244475000D03*
X233425000Y-244475000D03*
%TD*%
%TO.C,D49*%
X263400000Y-282575000D03*
X266700000Y-282575000D03*
%TD*%
%TO.C,D25*%
X287212500Y-244475000D03*
X290512500Y-244475000D03*
%TD*%
%TO.C,D65*%
X373000000Y-225425000D03*
X376300000Y-225425000D03*
%TD*%
%TO.C,D60*%
X334900000Y-301625000D03*
X338200000Y-301625000D03*
%TD*%
D10*
%TO.C,SW8*%
X204103750Y-215101050D03*
X191176750Y-212561050D03*
%TD*%
%TO.C,SW53*%
X344577500Y-253206250D03*
X331650500Y-250666250D03*
%TD*%
D11*
%TO.C,D44*%
X168212500Y-282575000D03*
X171512500Y-282575000D03*
%TD*%
D10*
%TO.C,SW41*%
X101700000Y-272256250D03*
X88773000Y-269716250D03*
%TD*%
D11*
%TO.C,D27*%
X315850000Y-225425000D03*
X319150000Y-225425000D03*
%TD*%
%TO.C,D66*%
X373000000Y-244475000D03*
X376300000Y-244475000D03*
%TD*%
D10*
%TO.C,SW30*%
X142191250Y-253201050D03*
X129264250Y-250661050D03*
%TD*%
D11*
%TO.C,D5*%
X144400000Y-225425000D03*
X147700000Y-225425000D03*
%TD*%
D10*
%TO.C,SW33*%
X199331250Y-253206250D03*
X186404250Y-250666250D03*
%TD*%
%TO.C,SW42*%
X132556250Y-272256250D03*
X119629250Y-269716250D03*
%TD*%
M02*
