%TF.GenerationSoftware,KiCad,Pcbnew,10.0.0*%
%TF.CreationDate,2026-04-27T22:06:30+10:00*%
%TF.ProjectId,YetAnotherKeyboard,59657441-6e6f-4746-9865-724b6579626f,rev?*%
%TF.SameCoordinates,Original*%
%TF.FileFunction,Soldermask,Top*%
%TF.FilePolarity,Negative*%
%FSLAX46Y46*%
G04 Gerber Fmt 4.6, Leading zero omitted, Abs format (unit mm)*
G04 Created by KiCad (PCBNEW 10.0.0) date 2026-04-27 22:06:30*
%MOMM*%
%LPD*%
G01*
G04 APERTURE LIST*
G04 Aperture macros list*
%AMRoundRect*
0 Rectangle with rounded corners*
0 $1 Rounding radius*
0 $2 $3 $4 $5 $6 $7 $8 $9 X,Y pos of 4 corners*
0 Add a 4 corners polygon primitive as box body*
4,1,4,$2,$3,$4,$5,$6,$7,$8,$9,$2,$3,0*
0 Add four circle primitives for the rounded corners*
1,1,$1+$1,$2,$3*
1,1,$1+$1,$4,$5*
1,1,$1+$1,$6,$7*
1,1,$1+$1,$8,$9*
0 Add four rect primitives between the rounded corners*
20,1,$1+$1,$2,$3,$4,$5,0*
20,1,$1+$1,$4,$5,$6,$7,0*
20,1,$1+$1,$6,$7,$8,$9,0*
20,1,$1+$1,$8,$9,$2,$3,0*%
G04 Aperture macros list end*
%ADD10C,1.701800*%
%ADD11C,3.000000*%
%ADD12C,3.987800*%
%ADD13C,3.048000*%
%ADD14C,2.000000*%
%ADD15R,1.000000X1.000000*%
%ADD16C,1.000000*%
%ADD17RoundRect,0.200000X-0.200000X-0.800000X0.200000X-0.800000X0.200000X0.800000X-0.200000X0.800000X0*%
%ADD18C,1.752600*%
%ADD19RoundRect,0.135000X-0.135000X-0.185000X0.135000X-0.185000X0.135000X0.185000X-0.135000X0.185000X0*%
G04 APERTURE END LIST*
D10*
%TO.C,SW2*%
X77628750Y-217646250D03*
D11*
X78898750Y-215106250D03*
D12*
X82708750Y-217646250D03*
D11*
X85248750Y-212566250D03*
D10*
X87788750Y-217646250D03*
%TD*%
%TO.C,SW3*%
X96678750Y-217646250D03*
D11*
X97948750Y-215106250D03*
D12*
X101758750Y-217646250D03*
D11*
X104298750Y-212566250D03*
D10*
X106838750Y-217646250D03*
%TD*%
%TO.C,SW4*%
X115728750Y-217646250D03*
D11*
X116998750Y-215106250D03*
D12*
X120808750Y-217646250D03*
D11*
X123348750Y-212566250D03*
D10*
X125888750Y-217646250D03*
%TD*%
D12*
%TO.C,SW57*%
X154152500Y-302101250D03*
D13*
X154152500Y-286861250D03*
D10*
X199072500Y-293846250D03*
D11*
X200342500Y-291306250D03*
D12*
X204152500Y-293846250D03*
D11*
X206692500Y-288766250D03*
D10*
X209232500Y-293846250D03*
D12*
X254152500Y-302101250D03*
D13*
X254152500Y-286861250D03*
%TD*%
D10*
%TO.C,SW59*%
X294322500Y-293846250D03*
D11*
X295592500Y-291306250D03*
D12*
X299402500Y-293846250D03*
D11*
X301942500Y-288766250D03*
D10*
X304482500Y-293846250D03*
%TD*%
%TO.C,SW51*%
X291951250Y-274791050D03*
D11*
X293221250Y-272251050D03*
D12*
X297031250Y-274791050D03*
D11*
X299571250Y-269711050D03*
D10*
X302111250Y-274791050D03*
%TD*%
D12*
%TO.C,SW41*%
X82677000Y-283051250D03*
D13*
X82677000Y-267811250D03*
D10*
X89535000Y-274796250D03*
D11*
X90805000Y-272256250D03*
D12*
X94615000Y-274796250D03*
D11*
X97155000Y-269716250D03*
D10*
X99695000Y-274796250D03*
D12*
X106553000Y-283051250D03*
D13*
X106553000Y-267811250D03*
%TD*%
D10*
%TO.C,SW36*%
X244326250Y-255741050D03*
D11*
X245596250Y-253201050D03*
D12*
X249406250Y-255741050D03*
D11*
X251946250Y-250661050D03*
D10*
X254486250Y-255741050D03*
%TD*%
%TO.C,SW28*%
X84772500Y-255746250D03*
D11*
X86042500Y-253206250D03*
D12*
X89852500Y-255746250D03*
D11*
X92392500Y-250666250D03*
D10*
X94932500Y-255746250D03*
%TD*%
%TO.C,SW15*%
X82391250Y-236696250D03*
D11*
X83661250Y-234156250D03*
D12*
X87471250Y-236696250D03*
D11*
X90011250Y-231616250D03*
D10*
X92551250Y-236696250D03*
%TD*%
%TO.C,SW21*%
X201453750Y-236696250D03*
D11*
X202723750Y-234156250D03*
D12*
X206533750Y-236696250D03*
D11*
X209073750Y-231616250D03*
D10*
X211613750Y-236696250D03*
%TD*%
%TO.C,SW20*%
X182403750Y-236855000D03*
D11*
X183673750Y-234315000D03*
D12*
X187483750Y-236855000D03*
D11*
X190023750Y-231775000D03*
D10*
X192563750Y-236855000D03*
%TD*%
%TO.C,SW39*%
X296703750Y-236691050D03*
D11*
X297973750Y-234151050D03*
D12*
X301783750Y-236691050D03*
D11*
X304323750Y-231611050D03*
D10*
X306863750Y-236691050D03*
%TD*%
%TO.C,SW8*%
X191938750Y-217641050D03*
D11*
X193208750Y-215101050D03*
D12*
X197018750Y-217641050D03*
D11*
X199558750Y-212561050D03*
D10*
X202098750Y-217641050D03*
%TD*%
%TO.C,SW5*%
X144938750Y-217646250D03*
D11*
X142398750Y-212566250D03*
D12*
X139858750Y-217646250D03*
D11*
X136048750Y-215106250D03*
D10*
X134778750Y-217646250D03*
%TD*%
%TO.C,SW38*%
X292586250Y-255741050D03*
D11*
X290046250Y-250661050D03*
D12*
X287506250Y-255741050D03*
D11*
X283696250Y-253201050D03*
D10*
X282426250Y-255741050D03*
%TD*%
%TO.C,SW7*%
X183413512Y-217651450D03*
D11*
X180873512Y-212571450D03*
D12*
X178333512Y-217651450D03*
D11*
X174523512Y-215111450D03*
D10*
X173253512Y-217651450D03*
%TD*%
%TO.C,SW18*%
X154473750Y-236691050D03*
D11*
X151933750Y-231611050D03*
D12*
X149393750Y-236691050D03*
D11*
X145583750Y-234151050D03*
D10*
X144313750Y-236691050D03*
%TD*%
%TO.C,SW60*%
X335438750Y-293841050D03*
D11*
X332898750Y-288761050D03*
D12*
X330358750Y-293841050D03*
D11*
X326548750Y-291301050D03*
D10*
X325278750Y-293841050D03*
%TD*%
%TO.C,SW19*%
X173523750Y-236691050D03*
D11*
X170983750Y-231611050D03*
D12*
X168443750Y-236691050D03*
D11*
X164633750Y-234151050D03*
D10*
X163363750Y-236691050D03*
%TD*%
D14*
%TO.C,TP2*%
X391750000Y-269500000D03*
%TD*%
D10*
%TO.C,SW63*%
X328295000Y-274791050D03*
D11*
X325755000Y-269711050D03*
D12*
X323215000Y-274791050D03*
D11*
X319405000Y-272251050D03*
D10*
X318135000Y-274791050D03*
%TD*%
%TO.C,SW10*%
X240188750Y-217646250D03*
D11*
X237648750Y-212566250D03*
D12*
X235108750Y-217646250D03*
D11*
X231298750Y-215106250D03*
D10*
X230028750Y-217646250D03*
%TD*%
%TO.C,SW40*%
X325903750Y-236696250D03*
D11*
X323363750Y-231616250D03*
D12*
X320823750Y-236696250D03*
D11*
X317013750Y-234156250D03*
D10*
X315743750Y-236696250D03*
%TD*%
D15*
%TO.C,J1*%
X373856250Y-263207500D03*
D16*
X373856250Y-264477500D03*
X373856250Y-265747500D03*
X373856250Y-267017500D03*
X373856250Y-268287500D03*
%TD*%
D10*
%TO.C,SW52*%
X311636250Y-255741050D03*
D11*
X309096250Y-250661050D03*
D12*
X306556250Y-255741050D03*
D11*
X302746250Y-253201050D03*
D10*
X301476250Y-255741050D03*
%TD*%
%TO.C,SW16*%
X116363750Y-236696250D03*
D11*
X113823750Y-231616250D03*
D12*
X111283750Y-236696250D03*
D11*
X107473750Y-234156250D03*
D10*
X106203750Y-236696250D03*
%TD*%
%TO.C,SW34*%
X216386250Y-255741050D03*
D11*
X213846250Y-250661050D03*
D12*
X211306250Y-255741050D03*
D11*
X207496250Y-253201050D03*
D10*
X206226250Y-255741050D03*
%TD*%
%TO.C,SW24*%
X268663750Y-236696250D03*
D11*
X266123750Y-231616250D03*
D12*
X263583750Y-236696250D03*
D11*
X259773750Y-234156250D03*
D10*
X258503750Y-236696250D03*
%TD*%
%TO.C,SW23*%
X249713750Y-236696250D03*
D11*
X247173750Y-231616250D03*
D12*
X244633750Y-236696250D03*
D11*
X240823750Y-234156250D03*
D10*
X239553750Y-236696250D03*
%TD*%
%TO.C,SW22*%
X230663750Y-236696250D03*
D11*
X228123750Y-231616250D03*
D12*
X225583750Y-236696250D03*
D11*
X221773750Y-234156250D03*
D10*
X220503750Y-236696250D03*
%TD*%
%TO.C,SW9*%
X221138750Y-217646250D03*
D11*
X218598750Y-212566250D03*
D12*
X216058750Y-217646250D03*
D11*
X212248750Y-215106250D03*
D10*
X210978750Y-217646250D03*
%TD*%
%TO.C,SW62*%
X373528750Y-293846250D03*
D11*
X370988750Y-288766250D03*
D12*
X368448750Y-293846250D03*
D11*
X364638750Y-291306250D03*
D10*
X363368750Y-293846250D03*
%TD*%
%TO.C,SW54*%
X90180000Y-293841050D03*
D11*
X87640000Y-288761050D03*
D12*
X85100000Y-293841050D03*
D11*
X81290000Y-291301050D03*
D10*
X80020000Y-293841050D03*
%TD*%
%TO.C,SW49*%
X264001250Y-274796250D03*
D11*
X261461250Y-269716250D03*
D12*
X258921250Y-274796250D03*
D11*
X255111250Y-272256250D03*
D10*
X253841250Y-274796250D03*
%TD*%
%TO.C,SW35*%
X235426250Y-255746250D03*
D11*
X232886250Y-250666250D03*
D12*
X230346250Y-255746250D03*
D11*
X226536250Y-253206250D03*
D10*
X225266250Y-255746250D03*
%TD*%
D17*
%TO.C,SW1*%
X391500000Y-245268750D03*
X395700000Y-245268750D03*
%TD*%
D10*
%TO.C,SW26*%
X297338750Y-217641050D03*
D11*
X294798750Y-212561050D03*
D12*
X292258750Y-217641050D03*
D11*
X288448750Y-215101050D03*
D10*
X287178750Y-217641050D03*
%TD*%
%TO.C,SW27*%
X316288750Y-217646250D03*
D11*
X313748750Y-212566250D03*
D12*
X311208750Y-217646250D03*
D11*
X307398750Y-215106250D03*
D10*
X306128750Y-217646250D03*
%TD*%
%TO.C,SW29*%
X121126250Y-255746250D03*
D11*
X118586250Y-250666250D03*
D12*
X116046250Y-255746250D03*
D11*
X112236250Y-253206250D03*
D10*
X110966250Y-255746250D03*
%TD*%
%TO.C,SW44*%
X168651250Y-274796250D03*
D11*
X166111250Y-269716250D03*
D12*
X163571250Y-274796250D03*
D11*
X159761250Y-272256250D03*
D10*
X158491250Y-274796250D03*
%TD*%
D14*
%TO.C,TP1*%
X386250000Y-269500000D03*
%TD*%
D10*
%TO.C,SW25*%
X287813750Y-236855000D03*
D11*
X285273750Y-231775000D03*
D12*
X282733750Y-236855000D03*
D11*
X278923750Y-234315000D03*
D10*
X277653750Y-236855000D03*
%TD*%
%TO.C,SW55*%
X113982500Y-293846250D03*
D11*
X111442500Y-288766250D03*
D12*
X108902500Y-293846250D03*
D11*
X105092500Y-291306250D03*
D10*
X103822500Y-293846250D03*
%TD*%
%TO.C,SW46*%
X206751250Y-274796250D03*
D11*
X204211250Y-269716250D03*
D12*
X201671250Y-274796250D03*
D11*
X197861250Y-272256250D03*
D10*
X196591250Y-274796250D03*
%TD*%
%TO.C,SW11*%
X259238750Y-217646250D03*
D11*
X256698750Y-212566250D03*
D12*
X254158750Y-217646250D03*
D11*
X250348750Y-215106250D03*
D10*
X249078750Y-217646250D03*
%TD*%
%TO.C,SW31*%
X159226250Y-255746250D03*
D11*
X156686250Y-250666250D03*
D12*
X154146250Y-255746250D03*
D11*
X150336250Y-253206250D03*
D10*
X149066250Y-255746250D03*
%TD*%
%TO.C,SW64*%
X354478750Y-274796250D03*
D11*
X351938750Y-269716250D03*
D12*
X349398750Y-274796250D03*
D11*
X345588750Y-272256250D03*
D10*
X344318750Y-274796250D03*
%TD*%
%TO.C,SW61*%
X354478750Y-293846250D03*
D11*
X351938750Y-288766250D03*
D12*
X349398750Y-293846250D03*
D11*
X345588750Y-291306250D03*
D10*
X344318750Y-293846250D03*
%TD*%
%TO.C,SW45*%
X187701250Y-274796250D03*
D11*
X185161250Y-269716250D03*
D12*
X182621250Y-274796250D03*
D11*
X178811250Y-272256250D03*
D10*
X177541250Y-274796250D03*
%TD*%
%TO.C,SW12*%
X278298750Y-217641050D03*
D11*
X275758750Y-212561050D03*
D12*
X273218750Y-217641050D03*
D11*
X269408750Y-215101050D03*
D10*
X268138750Y-217641050D03*
%TD*%
%TO.C,SW58*%
X280570000Y-293846250D03*
D11*
X278030000Y-288766250D03*
D12*
X275490000Y-293846250D03*
D11*
X271680000Y-291306250D03*
D10*
X270410000Y-293846250D03*
%TD*%
%TO.C,SW66*%
X373528750Y-236696250D03*
D11*
X370988750Y-231616250D03*
D12*
X368448750Y-236696250D03*
D11*
X364638750Y-234156250D03*
D10*
X363368750Y-236696250D03*
%TD*%
%TO.C,SW43*%
X149701250Y-274796250D03*
D11*
X147161250Y-269716250D03*
D12*
X144621250Y-274796250D03*
D11*
X140811250Y-272256250D03*
D10*
X139541250Y-274796250D03*
%TD*%
D13*
%TO.C,SW14*%
X352174012Y-210661250D03*
D12*
X352174012Y-225901250D03*
D10*
X345316012Y-217646250D03*
D11*
X342776012Y-212566250D03*
D12*
X340236012Y-217646250D03*
D11*
X336426012Y-215106250D03*
D10*
X335156012Y-217646250D03*
D13*
X328298012Y-210661250D03*
D12*
X328298012Y-225901250D03*
%TD*%
D10*
%TO.C,SW6*%
X163988750Y-217646250D03*
D11*
X161448750Y-212566250D03*
D12*
X158908750Y-217646250D03*
D11*
X155098750Y-215106250D03*
D10*
X153828750Y-217646250D03*
%TD*%
D18*
%TO.C,U1*%
X381793750Y-211613750D03*
X381793750Y-214153750D03*
X381793750Y-216693750D03*
X381793750Y-219233750D03*
X381793750Y-221773750D03*
X381793750Y-224313750D03*
X381793750Y-226853750D03*
X381793750Y-229393750D03*
X381793750Y-231933750D03*
X381793750Y-234473750D03*
X381793750Y-237013750D03*
X381793750Y-239553750D03*
X397033750Y-239553750D03*
X397033750Y-237013750D03*
X397033750Y-234473750D03*
X397033750Y-231933750D03*
X397033750Y-229393750D03*
X397033750Y-226853750D03*
X397033750Y-224313750D03*
X397033750Y-221773750D03*
X397033750Y-219233750D03*
X397033750Y-216693750D03*
X397033750Y-214153750D03*
X397033750Y-211613750D03*
X384333750Y-234473750D03*
X386873750Y-234473750D03*
X389413750Y-234473750D03*
%TD*%
D10*
%TO.C,SW17*%
X135423750Y-236691050D03*
D11*
X132883750Y-231611050D03*
D12*
X130343750Y-236691050D03*
D11*
X126533750Y-234151050D03*
D10*
X125263750Y-236691050D03*
%TD*%
D19*
%TO.C,R1*%
X396648750Y-242887500D03*
X397668750Y-242887500D03*
%TD*%
D10*
%TO.C,SW37*%
X273536250Y-255741050D03*
D11*
X270996250Y-250661050D03*
D12*
X268456250Y-255741050D03*
D11*
X264646250Y-253201050D03*
D10*
X263376250Y-255741050D03*
%TD*%
%TO.C,SW65*%
X373528750Y-217646250D03*
D11*
X370988750Y-212566250D03*
D12*
X368448750Y-217646250D03*
D11*
X364638750Y-215106250D03*
D10*
X363368750Y-217646250D03*
%TD*%
%TO.C,SW32*%
X178286250Y-255741050D03*
D11*
X175746250Y-250661050D03*
D12*
X173206250Y-255741050D03*
D11*
X169396250Y-253201050D03*
D10*
X168126250Y-255741050D03*
%TD*%
%TO.C,SW56*%
X137795000Y-293846250D03*
D11*
X135255000Y-288766250D03*
D12*
X132715000Y-293846250D03*
D11*
X128905000Y-291306250D03*
D10*
X127635000Y-293846250D03*
%TD*%
%TO.C,SW13*%
X349726250Y-236691050D03*
D11*
X347186250Y-231611050D03*
D12*
X344646250Y-236691050D03*
D11*
X340836250Y-234151050D03*
D10*
X339566250Y-236691050D03*
%TD*%
%TO.C,SW48*%
X244961250Y-274791050D03*
D11*
X242421250Y-269711050D03*
D12*
X239881250Y-274791050D03*
D11*
X236071250Y-272251050D03*
D10*
X234801250Y-274791050D03*
%TD*%
%TO.C,SW47*%
X225911250Y-274791050D03*
D11*
X223371250Y-269711050D03*
D12*
X220831250Y-274791050D03*
D11*
X217021250Y-272251050D03*
D10*
X215751250Y-274791050D03*
%TD*%
%TO.C,SW50*%
X283051250Y-274796250D03*
D11*
X280511250Y-269716250D03*
D12*
X277971250Y-274796250D03*
D11*
X274161250Y-272256250D03*
D10*
X272891250Y-274796250D03*
%TD*%
D13*
%TO.C,SW53*%
X349430500Y-248761250D03*
D12*
X349430500Y-264001250D03*
D10*
X342572500Y-255746250D03*
D11*
X340032500Y-250666250D03*
D12*
X337492500Y-255746250D03*
D11*
X333682500Y-253206250D03*
D10*
X332412500Y-255746250D03*
D13*
X325554500Y-248761250D03*
D12*
X325554500Y-264001250D03*
%TD*%
D10*
%TO.C,SW30*%
X140186250Y-255741050D03*
D11*
X137646250Y-250661050D03*
D12*
X135106250Y-255741050D03*
D11*
X131296250Y-253201050D03*
D10*
X130026250Y-255741050D03*
%TD*%
%TO.C,SW33*%
X197326250Y-255746250D03*
D11*
X194786250Y-250666250D03*
D12*
X192246250Y-255746250D03*
D11*
X188436250Y-253206250D03*
D10*
X187166250Y-255746250D03*
%TD*%
%TO.C,SW42*%
X130551250Y-274796250D03*
D11*
X128011250Y-269716250D03*
D12*
X125471250Y-274796250D03*
D11*
X121661250Y-272256250D03*
D10*
X120391250Y-274796250D03*
%TD*%
M02*
