M48
; DRILL file KiCad 10.0.0 date 2026-04-21T08:28:01
; FORMAT={-:-/ absolute / metric / decimal}
; #@! TF.CreationDate,2026-04-21T08:28:01+10:00
; #@! TF.GenerationSoftware,Kicad,Pcbnew,10.0.0
; #@! TF.FileFunction,Plated,1,2,PTH
FMAT,2
METRIC
; #@! TA.AperFunction,Plated,PTH,ViaDrill
T1C0.300
; #@! TA.AperFunction,Plated,PTH,ComponentDrill
T2C0.650
; #@! TA.AperFunction,Plated,PTH,ComponentDrill
T3C1.092
%
G90
G05
T1
X96.044Y-215.106
X101.6Y-292.1
X105.569Y-233.362
X110.331Y-253.206
X114.3Y-215.9
X119.856Y-272.256
X123.825Y-234.156
X126.206Y-292.1
X128.665Y-253.139
X134.144Y-215.106
X138.112Y-272.256
X143.669Y-234.156
X149.225Y-253.206
X153.194Y-215.106
X157.956Y-272.256
X161.925Y-234.95
X166.688Y-253.206
X172.244Y-215.9
X175.419Y-272.256
X180.181Y-234.156
X185.737Y-253.206
X191.294Y-215.106
X195.262Y-273.05
X195.262Y-289.719
X200.819Y-234.95
X204.787Y-253.206
X209.55Y-215.9
X213.519Y-273.05
X219.075Y-234.156
X223.837Y-253.206
X228.6Y-215.9
X233.362Y-273.05
X237.331Y-234.156
X242.887Y-254.0
X247.65Y-215.106
X251.619Y-273.05
X257.175Y-234.95
X260.35Y-254.794
X267.494Y-215.9
X268.287Y-291.306
X271.462Y-272.256
X273.05Y-277.812
X276.225Y-234.156
X280.988Y-253.206
X285.75Y-215.9
X289.719Y-261.938
X290.512Y-272.256
X292.1Y-291.306
X293.688Y-228.6
X295.275Y-225.425
X295.275Y-234.95
X302.419Y-247.65
X304.006Y-215.9
X306.546Y-225.443
X310.356Y-239.712
X313.531Y-229.394
X314.325Y-269.875
X317.5Y-223.837
X317.5Y-282.575
X317.5Y-285.75
X321.469Y-288.131
X329.0Y-247.25
X329.406Y-280.988
X331.787Y-215.106
X332.5Y-246.75
X340.519Y-269.081
X342.9Y-286.544
X354.012Y-279.4
X360.325Y-236.575
X360.363Y-287.337
X361.156Y-216.694
X361.156Y-226.219
X362.744Y-229.394
X363.537Y-268.287
X365.125Y-277.812
X365.919Y-286.544
X370.681Y-272.256
X371.475Y-242.887
X373.035Y-250.798
X373.55Y-247.705
X373.856Y-248.444
X374.305Y-251.274
X374.65Y-222.25
X379.412Y-248.444
X380.206Y-235.744
X381.0Y-251.619
X381.794Y-259.556
X383.5Y-216.694
X384.175Y-245.269
X386.556Y-225.425
X387.5Y-250.675
X388.09Y-265.205
X389.25Y-221.75
X389.731Y-220.662
X390.0Y-213.25
X391.25Y-247.0
X391.512Y-237.731
X392.112Y-257.969
X393.25Y-218.25
X393.673Y-229.366
T2
X373.856Y-263.207
X373.856Y-264.477
X373.856Y-265.748
X373.856Y-267.017
X373.856Y-268.287
T3
X381.794Y-211.614
X381.794Y-214.154
X381.794Y-216.694
X381.794Y-219.234
X381.794Y-221.774
X381.794Y-224.314
X381.794Y-226.854
X381.794Y-229.394
X381.794Y-231.934
X381.794Y-234.474
X381.794Y-237.014
X381.794Y-239.554
X384.334Y-234.474
X386.874Y-234.474
X389.414Y-234.474
X397.034Y-211.614
X397.034Y-214.154
X397.034Y-216.694
X397.034Y-219.234
X397.034Y-221.774
X397.034Y-224.314
X397.034Y-226.854
X397.034Y-229.394
X397.034Y-231.934
X397.034Y-234.474
X397.034Y-237.014
X397.034Y-239.554
M30
