%TF.GenerationSoftware,KiCad,Pcbnew,10.0.0*%
%TF.CreationDate,2026-04-27T22:06:30+10:00*%
%TF.ProjectId,YetAnotherKeyboard,59657441-6e6f-4746-9865-724b6579626f,rev?*%
%TF.SameCoordinates,Original*%
%TF.FileFunction,Legend,Bot*%
%TF.FilePolarity,Positive*%
%FSLAX46Y46*%
G04 Gerber Fmt 4.6, Leading zero omitted, Abs format (unit mm)*
G04 Created by KiCad (PCBNEW 10.0.0) date 2026-04-27 22:06:30*
%MOMM*%
%LPD*%
G01*
G04 APERTURE LIST*
%ADD10C,0.100000*%
%ADD11C,0.150000*%
%ADD12C,0.120000*%
%ADD13C,0.381000*%
%ADD14C,1.752600*%
G04 APERTURE END LIST*
D10*
X399805639Y-303086284D02*
X399805639Y-303562475D01*
X400138972Y-302562475D02*
X399805639Y-303086284D01*
X399805639Y-303086284D02*
X399472306Y-302562475D01*
X398758020Y-303514856D02*
X398853258Y-303562475D01*
X398853258Y-303562475D02*
X399043734Y-303562475D01*
X399043734Y-303562475D02*
X399138972Y-303514856D01*
X399138972Y-303514856D02*
X399186591Y-303419617D01*
X399186591Y-303419617D02*
X399186591Y-303038665D01*
X399186591Y-303038665D02*
X399138972Y-302943427D01*
X399138972Y-302943427D02*
X399043734Y-302895808D01*
X399043734Y-302895808D02*
X398853258Y-302895808D01*
X398853258Y-302895808D02*
X398758020Y-302943427D01*
X398758020Y-302943427D02*
X398710401Y-303038665D01*
X398710401Y-303038665D02*
X398710401Y-303133903D01*
X398710401Y-303133903D02*
X399186591Y-303229141D01*
X398424686Y-302895808D02*
X398043734Y-302895808D01*
X398281829Y-302562475D02*
X398281829Y-303419617D01*
X398281829Y-303419617D02*
X398234210Y-303514856D01*
X398234210Y-303514856D02*
X398138972Y-303562475D01*
X398138972Y-303562475D02*
X398043734Y-303562475D01*
X397758019Y-303276760D02*
X397281829Y-303276760D01*
X397853257Y-303562475D02*
X397519924Y-302562475D01*
X397519924Y-302562475D02*
X397186591Y-303562475D01*
X396853257Y-302895808D02*
X396853257Y-303562475D01*
X396853257Y-302991046D02*
X396805638Y-302943427D01*
X396805638Y-302943427D02*
X396710400Y-302895808D01*
X396710400Y-302895808D02*
X396567543Y-302895808D01*
X396567543Y-302895808D02*
X396472305Y-302943427D01*
X396472305Y-302943427D02*
X396424686Y-303038665D01*
X396424686Y-303038665D02*
X396424686Y-303562475D01*
X395805638Y-303562475D02*
X395900876Y-303514856D01*
X395900876Y-303514856D02*
X395948495Y-303467236D01*
X395948495Y-303467236D02*
X395996114Y-303371998D01*
X395996114Y-303371998D02*
X395996114Y-303086284D01*
X395996114Y-303086284D02*
X395948495Y-302991046D01*
X395948495Y-302991046D02*
X395900876Y-302943427D01*
X395900876Y-302943427D02*
X395805638Y-302895808D01*
X395805638Y-302895808D02*
X395662781Y-302895808D01*
X395662781Y-302895808D02*
X395567543Y-302943427D01*
X395567543Y-302943427D02*
X395519924Y-302991046D01*
X395519924Y-302991046D02*
X395472305Y-303086284D01*
X395472305Y-303086284D02*
X395472305Y-303371998D01*
X395472305Y-303371998D02*
X395519924Y-303467236D01*
X395519924Y-303467236D02*
X395567543Y-303514856D01*
X395567543Y-303514856D02*
X395662781Y-303562475D01*
X395662781Y-303562475D02*
X395805638Y-303562475D01*
X395186590Y-302895808D02*
X394805638Y-302895808D01*
X395043733Y-302562475D02*
X395043733Y-303419617D01*
X395043733Y-303419617D02*
X394996114Y-303514856D01*
X394996114Y-303514856D02*
X394900876Y-303562475D01*
X394900876Y-303562475D02*
X394805638Y-303562475D01*
X394472304Y-303562475D02*
X394472304Y-302562475D01*
X394043733Y-303562475D02*
X394043733Y-303038665D01*
X394043733Y-303038665D02*
X394091352Y-302943427D01*
X394091352Y-302943427D02*
X394186590Y-302895808D01*
X394186590Y-302895808D02*
X394329447Y-302895808D01*
X394329447Y-302895808D02*
X394424685Y-302943427D01*
X394424685Y-302943427D02*
X394472304Y-302991046D01*
X393186590Y-303514856D02*
X393281828Y-303562475D01*
X393281828Y-303562475D02*
X393472304Y-303562475D01*
X393472304Y-303562475D02*
X393567542Y-303514856D01*
X393567542Y-303514856D02*
X393615161Y-303419617D01*
X393615161Y-303419617D02*
X393615161Y-303038665D01*
X393615161Y-303038665D02*
X393567542Y-302943427D01*
X393567542Y-302943427D02*
X393472304Y-302895808D01*
X393472304Y-302895808D02*
X393281828Y-302895808D01*
X393281828Y-302895808D02*
X393186590Y-302943427D01*
X393186590Y-302943427D02*
X393138971Y-303038665D01*
X393138971Y-303038665D02*
X393138971Y-303133903D01*
X393138971Y-303133903D02*
X393615161Y-303229141D01*
X392710399Y-303562475D02*
X392710399Y-302895808D01*
X392710399Y-303086284D02*
X392662780Y-302991046D01*
X392662780Y-302991046D02*
X392615161Y-302943427D01*
X392615161Y-302943427D02*
X392519923Y-302895808D01*
X392519923Y-302895808D02*
X392424685Y-302895808D01*
X392091351Y-303562475D02*
X392091351Y-302562475D01*
X391519923Y-303562475D02*
X391948494Y-302991046D01*
X391519923Y-302562475D02*
X392091351Y-303133903D01*
X390710399Y-303514856D02*
X390805637Y-303562475D01*
X390805637Y-303562475D02*
X390996113Y-303562475D01*
X390996113Y-303562475D02*
X391091351Y-303514856D01*
X391091351Y-303514856D02*
X391138970Y-303419617D01*
X391138970Y-303419617D02*
X391138970Y-303038665D01*
X391138970Y-303038665D02*
X391091351Y-302943427D01*
X391091351Y-302943427D02*
X390996113Y-302895808D01*
X390996113Y-302895808D02*
X390805637Y-302895808D01*
X390805637Y-302895808D02*
X390710399Y-302943427D01*
X390710399Y-302943427D02*
X390662780Y-303038665D01*
X390662780Y-303038665D02*
X390662780Y-303133903D01*
X390662780Y-303133903D02*
X391138970Y-303229141D01*
X390329446Y-302895808D02*
X390091351Y-303562475D01*
X389853256Y-302895808D02*
X390091351Y-303562475D01*
X390091351Y-303562475D02*
X390186589Y-303800570D01*
X390186589Y-303800570D02*
X390234208Y-303848189D01*
X390234208Y-303848189D02*
X390329446Y-303895808D01*
X389472303Y-303562475D02*
X389472303Y-302562475D01*
X389472303Y-302943427D02*
X389377065Y-302895808D01*
X389377065Y-302895808D02*
X389186589Y-302895808D01*
X389186589Y-302895808D02*
X389091351Y-302943427D01*
X389091351Y-302943427D02*
X389043732Y-302991046D01*
X389043732Y-302991046D02*
X388996113Y-303086284D01*
X388996113Y-303086284D02*
X388996113Y-303371998D01*
X388996113Y-303371998D02*
X389043732Y-303467236D01*
X389043732Y-303467236D02*
X389091351Y-303514856D01*
X389091351Y-303514856D02*
X389186589Y-303562475D01*
X389186589Y-303562475D02*
X389377065Y-303562475D01*
X389377065Y-303562475D02*
X389472303Y-303514856D01*
X388424684Y-303562475D02*
X388519922Y-303514856D01*
X388519922Y-303514856D02*
X388567541Y-303467236D01*
X388567541Y-303467236D02*
X388615160Y-303371998D01*
X388615160Y-303371998D02*
X388615160Y-303086284D01*
X388615160Y-303086284D02*
X388567541Y-302991046D01*
X388567541Y-302991046D02*
X388519922Y-302943427D01*
X388519922Y-302943427D02*
X388424684Y-302895808D01*
X388424684Y-302895808D02*
X388281827Y-302895808D01*
X388281827Y-302895808D02*
X388186589Y-302943427D01*
X388186589Y-302943427D02*
X388138970Y-302991046D01*
X388138970Y-302991046D02*
X388091351Y-303086284D01*
X388091351Y-303086284D02*
X388091351Y-303371998D01*
X388091351Y-303371998D02*
X388138970Y-303467236D01*
X388138970Y-303467236D02*
X388186589Y-303514856D01*
X388186589Y-303514856D02*
X388281827Y-303562475D01*
X388281827Y-303562475D02*
X388424684Y-303562475D01*
X387234208Y-303562475D02*
X387234208Y-303038665D01*
X387234208Y-303038665D02*
X387281827Y-302943427D01*
X387281827Y-302943427D02*
X387377065Y-302895808D01*
X387377065Y-302895808D02*
X387567541Y-302895808D01*
X387567541Y-302895808D02*
X387662779Y-302943427D01*
X387234208Y-303514856D02*
X387329446Y-303562475D01*
X387329446Y-303562475D02*
X387567541Y-303562475D01*
X387567541Y-303562475D02*
X387662779Y-303514856D01*
X387662779Y-303514856D02*
X387710398Y-303419617D01*
X387710398Y-303419617D02*
X387710398Y-303324379D01*
X387710398Y-303324379D02*
X387662779Y-303229141D01*
X387662779Y-303229141D02*
X387567541Y-303181522D01*
X387567541Y-303181522D02*
X387329446Y-303181522D01*
X387329446Y-303181522D02*
X387234208Y-303133903D01*
X386758017Y-303562475D02*
X386758017Y-302895808D01*
X386758017Y-303086284D02*
X386710398Y-302991046D01*
X386710398Y-302991046D02*
X386662779Y-302943427D01*
X386662779Y-302943427D02*
X386567541Y-302895808D01*
X386567541Y-302895808D02*
X386472303Y-302895808D01*
X385710398Y-303562475D02*
X385710398Y-302562475D01*
X385710398Y-303514856D02*
X385805636Y-303562475D01*
X385805636Y-303562475D02*
X385996112Y-303562475D01*
X385996112Y-303562475D02*
X386091350Y-303514856D01*
X386091350Y-303514856D02*
X386138969Y-303467236D01*
X386138969Y-303467236D02*
X386186588Y-303371998D01*
X386186588Y-303371998D02*
X386186588Y-303086284D01*
X386186588Y-303086284D02*
X386138969Y-302991046D01*
X386138969Y-302991046D02*
X386091350Y-302943427D01*
X386091350Y-302943427D02*
X385996112Y-302895808D01*
X385996112Y-302895808D02*
X385805636Y-302895808D01*
X385805636Y-302895808D02*
X385710398Y-302943427D01*
X384567540Y-302895808D02*
X384329445Y-303562475D01*
X384329445Y-303562475D02*
X384091350Y-302895808D01*
X383758016Y-302657713D02*
X383710397Y-302610094D01*
X383710397Y-302610094D02*
X383615159Y-302562475D01*
X383615159Y-302562475D02*
X383377064Y-302562475D01*
X383377064Y-302562475D02*
X383281826Y-302610094D01*
X383281826Y-302610094D02*
X383234207Y-302657713D01*
X383234207Y-302657713D02*
X383186588Y-302752951D01*
X383186588Y-302752951D02*
X383186588Y-302848189D01*
X383186588Y-302848189D02*
X383234207Y-302991046D01*
X383234207Y-302991046D02*
X383805635Y-303562475D01*
X383805635Y-303562475D02*
X383186588Y-303562475D01*
X399996115Y-305172419D02*
X399996115Y-304172419D01*
X399567544Y-305172419D02*
X399567544Y-304648609D01*
X399567544Y-304648609D02*
X399615163Y-304553371D01*
X399615163Y-304553371D02*
X399710401Y-304505752D01*
X399710401Y-304505752D02*
X399853258Y-304505752D01*
X399853258Y-304505752D02*
X399948496Y-304553371D01*
X399948496Y-304553371D02*
X399996115Y-304600990D01*
X399234210Y-304505752D02*
X398853258Y-304505752D01*
X399091353Y-304172419D02*
X399091353Y-305029561D01*
X399091353Y-305029561D02*
X399043734Y-305124800D01*
X399043734Y-305124800D02*
X398948496Y-305172419D01*
X398948496Y-305172419D02*
X398853258Y-305172419D01*
X398662781Y-304505752D02*
X398281829Y-304505752D01*
X398519924Y-304172419D02*
X398519924Y-305029561D01*
X398519924Y-305029561D02*
X398472305Y-305124800D01*
X398472305Y-305124800D02*
X398377067Y-305172419D01*
X398377067Y-305172419D02*
X398281829Y-305172419D01*
X397948495Y-304505752D02*
X397948495Y-305505752D01*
X397948495Y-304553371D02*
X397853257Y-304505752D01*
X397853257Y-304505752D02*
X397662781Y-304505752D01*
X397662781Y-304505752D02*
X397567543Y-304553371D01*
X397567543Y-304553371D02*
X397519924Y-304600990D01*
X397519924Y-304600990D02*
X397472305Y-304696228D01*
X397472305Y-304696228D02*
X397472305Y-304981942D01*
X397472305Y-304981942D02*
X397519924Y-305077180D01*
X397519924Y-305077180D02*
X397567543Y-305124800D01*
X397567543Y-305124800D02*
X397662781Y-305172419D01*
X397662781Y-305172419D02*
X397853257Y-305172419D01*
X397853257Y-305172419D02*
X397948495Y-305124800D01*
X397091352Y-305124800D02*
X396996114Y-305172419D01*
X396996114Y-305172419D02*
X396805638Y-305172419D01*
X396805638Y-305172419D02*
X396710400Y-305124800D01*
X396710400Y-305124800D02*
X396662781Y-305029561D01*
X396662781Y-305029561D02*
X396662781Y-304981942D01*
X396662781Y-304981942D02*
X396710400Y-304886704D01*
X396710400Y-304886704D02*
X396805638Y-304839085D01*
X396805638Y-304839085D02*
X396948495Y-304839085D01*
X396948495Y-304839085D02*
X397043733Y-304791466D01*
X397043733Y-304791466D02*
X397091352Y-304696228D01*
X397091352Y-304696228D02*
X397091352Y-304648609D01*
X397091352Y-304648609D02*
X397043733Y-304553371D01*
X397043733Y-304553371D02*
X396948495Y-304505752D01*
X396948495Y-304505752D02*
X396805638Y-304505752D01*
X396805638Y-304505752D02*
X396710400Y-304553371D01*
X396234209Y-305077180D02*
X396186590Y-305124800D01*
X396186590Y-305124800D02*
X396234209Y-305172419D01*
X396234209Y-305172419D02*
X396281828Y-305124800D01*
X396281828Y-305124800D02*
X396234209Y-305077180D01*
X396234209Y-305077180D02*
X396234209Y-305172419D01*
X396234209Y-304553371D02*
X396186590Y-304600990D01*
X396186590Y-304600990D02*
X396234209Y-304648609D01*
X396234209Y-304648609D02*
X396281828Y-304600990D01*
X396281828Y-304600990D02*
X396234209Y-304553371D01*
X396234209Y-304553371D02*
X396234209Y-304648609D01*
X395043734Y-304124800D02*
X395900876Y-305410514D01*
X393996115Y-304124800D02*
X394853257Y-305410514D01*
X393234210Y-304505752D02*
X393234210Y-305315276D01*
X393234210Y-305315276D02*
X393281829Y-305410514D01*
X393281829Y-305410514D02*
X393329448Y-305458133D01*
X393329448Y-305458133D02*
X393424686Y-305505752D01*
X393424686Y-305505752D02*
X393567543Y-305505752D01*
X393567543Y-305505752D02*
X393662781Y-305458133D01*
X393234210Y-305124800D02*
X393329448Y-305172419D01*
X393329448Y-305172419D02*
X393519924Y-305172419D01*
X393519924Y-305172419D02*
X393615162Y-305124800D01*
X393615162Y-305124800D02*
X393662781Y-305077180D01*
X393662781Y-305077180D02*
X393710400Y-304981942D01*
X393710400Y-304981942D02*
X393710400Y-304696228D01*
X393710400Y-304696228D02*
X393662781Y-304600990D01*
X393662781Y-304600990D02*
X393615162Y-304553371D01*
X393615162Y-304553371D02*
X393519924Y-304505752D01*
X393519924Y-304505752D02*
X393329448Y-304505752D01*
X393329448Y-304505752D02*
X393234210Y-304553371D01*
X392758019Y-305172419D02*
X392758019Y-304505752D01*
X392758019Y-304172419D02*
X392805638Y-304220038D01*
X392805638Y-304220038D02*
X392758019Y-304267657D01*
X392758019Y-304267657D02*
X392710400Y-304220038D01*
X392710400Y-304220038D02*
X392758019Y-304172419D01*
X392758019Y-304172419D02*
X392758019Y-304267657D01*
X392424686Y-304505752D02*
X392043734Y-304505752D01*
X392281829Y-304172419D02*
X392281829Y-305029561D01*
X392281829Y-305029561D02*
X392234210Y-305124800D01*
X392234210Y-305124800D02*
X392138972Y-305172419D01*
X392138972Y-305172419D02*
X392043734Y-305172419D01*
X391710400Y-305172419D02*
X391710400Y-304172419D01*
X391281829Y-305172419D02*
X391281829Y-304648609D01*
X391281829Y-304648609D02*
X391329448Y-304553371D01*
X391329448Y-304553371D02*
X391424686Y-304505752D01*
X391424686Y-304505752D02*
X391567543Y-304505752D01*
X391567543Y-304505752D02*
X391662781Y-304553371D01*
X391662781Y-304553371D02*
X391710400Y-304600990D01*
X390377067Y-304505752D02*
X390377067Y-305172419D01*
X390805638Y-304505752D02*
X390805638Y-305029561D01*
X390805638Y-305029561D02*
X390758019Y-305124800D01*
X390758019Y-305124800D02*
X390662781Y-305172419D01*
X390662781Y-305172419D02*
X390519924Y-305172419D01*
X390519924Y-305172419D02*
X390424686Y-305124800D01*
X390424686Y-305124800D02*
X390377067Y-305077180D01*
X389900876Y-305172419D02*
X389900876Y-304172419D01*
X389900876Y-304553371D02*
X389805638Y-304505752D01*
X389805638Y-304505752D02*
X389615162Y-304505752D01*
X389615162Y-304505752D02*
X389519924Y-304553371D01*
X389519924Y-304553371D02*
X389472305Y-304600990D01*
X389472305Y-304600990D02*
X389424686Y-304696228D01*
X389424686Y-304696228D02*
X389424686Y-304981942D01*
X389424686Y-304981942D02*
X389472305Y-305077180D01*
X389472305Y-305077180D02*
X389519924Y-305124800D01*
X389519924Y-305124800D02*
X389615162Y-305172419D01*
X389615162Y-305172419D02*
X389805638Y-305172419D01*
X389805638Y-305172419D02*
X389900876Y-305124800D01*
X388996114Y-305077180D02*
X388948495Y-305124800D01*
X388948495Y-305124800D02*
X388996114Y-305172419D01*
X388996114Y-305172419D02*
X389043733Y-305124800D01*
X389043733Y-305124800D02*
X388996114Y-305077180D01*
X388996114Y-305077180D02*
X388996114Y-305172419D01*
X388091353Y-305124800D02*
X388186591Y-305172419D01*
X388186591Y-305172419D02*
X388377067Y-305172419D01*
X388377067Y-305172419D02*
X388472305Y-305124800D01*
X388472305Y-305124800D02*
X388519924Y-305077180D01*
X388519924Y-305077180D02*
X388567543Y-304981942D01*
X388567543Y-304981942D02*
X388567543Y-304696228D01*
X388567543Y-304696228D02*
X388519924Y-304600990D01*
X388519924Y-304600990D02*
X388472305Y-304553371D01*
X388472305Y-304553371D02*
X388377067Y-304505752D01*
X388377067Y-304505752D02*
X388186591Y-304505752D01*
X388186591Y-304505752D02*
X388091353Y-304553371D01*
X387519924Y-305172419D02*
X387615162Y-305124800D01*
X387615162Y-305124800D02*
X387662781Y-305077180D01*
X387662781Y-305077180D02*
X387710400Y-304981942D01*
X387710400Y-304981942D02*
X387710400Y-304696228D01*
X387710400Y-304696228D02*
X387662781Y-304600990D01*
X387662781Y-304600990D02*
X387615162Y-304553371D01*
X387615162Y-304553371D02*
X387519924Y-304505752D01*
X387519924Y-304505752D02*
X387377067Y-304505752D01*
X387377067Y-304505752D02*
X387281829Y-304553371D01*
X387281829Y-304553371D02*
X387234210Y-304600990D01*
X387234210Y-304600990D02*
X387186591Y-304696228D01*
X387186591Y-304696228D02*
X387186591Y-304981942D01*
X387186591Y-304981942D02*
X387234210Y-305077180D01*
X387234210Y-305077180D02*
X387281829Y-305124800D01*
X387281829Y-305124800D02*
X387377067Y-305172419D01*
X387377067Y-305172419D02*
X387519924Y-305172419D01*
X386758019Y-305172419D02*
X386758019Y-304505752D01*
X386758019Y-304600990D02*
X386710400Y-304553371D01*
X386710400Y-304553371D02*
X386615162Y-304505752D01*
X386615162Y-304505752D02*
X386472305Y-304505752D01*
X386472305Y-304505752D02*
X386377067Y-304553371D01*
X386377067Y-304553371D02*
X386329448Y-304648609D01*
X386329448Y-304648609D02*
X386329448Y-305172419D01*
X386329448Y-304648609D02*
X386281829Y-304553371D01*
X386281829Y-304553371D02*
X386186591Y-304505752D01*
X386186591Y-304505752D02*
X386043734Y-304505752D01*
X386043734Y-304505752D02*
X385948495Y-304553371D01*
X385948495Y-304553371D02*
X385900876Y-304648609D01*
X385900876Y-304648609D02*
X385900876Y-305172419D01*
X384710401Y-304124800D02*
X385567543Y-305410514D01*
X384186591Y-304172419D02*
X384091353Y-304172419D01*
X384091353Y-304172419D02*
X383996115Y-304220038D01*
X383996115Y-304220038D02*
X383948496Y-304267657D01*
X383948496Y-304267657D02*
X383900877Y-304362895D01*
X383900877Y-304362895D02*
X383853258Y-304553371D01*
X383853258Y-304553371D02*
X383853258Y-304791466D01*
X383853258Y-304791466D02*
X383900877Y-304981942D01*
X383900877Y-304981942D02*
X383948496Y-305077180D01*
X383948496Y-305077180D02*
X383996115Y-305124800D01*
X383996115Y-305124800D02*
X384091353Y-305172419D01*
X384091353Y-305172419D02*
X384186591Y-305172419D01*
X384186591Y-305172419D02*
X384281829Y-305124800D01*
X384281829Y-305124800D02*
X384329448Y-305077180D01*
X384329448Y-305077180D02*
X384377067Y-304981942D01*
X384377067Y-304981942D02*
X384424686Y-304791466D01*
X384424686Y-304791466D02*
X384424686Y-304553371D01*
X384424686Y-304553371D02*
X384377067Y-304362895D01*
X384377067Y-304362895D02*
X384329448Y-304267657D01*
X384329448Y-304267657D02*
X384281829Y-304220038D01*
X384281829Y-304220038D02*
X384186591Y-304172419D01*
X383519924Y-305172419D02*
X382996115Y-304505752D01*
X383519924Y-304505752D02*
X382996115Y-305172419D01*
X382186591Y-304172419D02*
X382377067Y-304172419D01*
X382377067Y-304172419D02*
X382472305Y-304220038D01*
X382472305Y-304220038D02*
X382519924Y-304267657D01*
X382519924Y-304267657D02*
X382615162Y-304410514D01*
X382615162Y-304410514D02*
X382662781Y-304600990D01*
X382662781Y-304600990D02*
X382662781Y-304981942D01*
X382662781Y-304981942D02*
X382615162Y-305077180D01*
X382615162Y-305077180D02*
X382567543Y-305124800D01*
X382567543Y-305124800D02*
X382472305Y-305172419D01*
X382472305Y-305172419D02*
X382281829Y-305172419D01*
X382281829Y-305172419D02*
X382186591Y-305124800D01*
X382186591Y-305124800D02*
X382138972Y-305077180D01*
X382138972Y-305077180D02*
X382091353Y-304981942D01*
X382091353Y-304981942D02*
X382091353Y-304743847D01*
X382091353Y-304743847D02*
X382138972Y-304648609D01*
X382138972Y-304648609D02*
X382186591Y-304600990D01*
X382186591Y-304600990D02*
X382281829Y-304553371D01*
X382281829Y-304553371D02*
X382472305Y-304553371D01*
X382472305Y-304553371D02*
X382567543Y-304600990D01*
X382567543Y-304600990D02*
X382615162Y-304648609D01*
X382615162Y-304648609D02*
X382662781Y-304743847D01*
X381710400Y-304267657D02*
X381662781Y-304220038D01*
X381662781Y-304220038D02*
X381567543Y-304172419D01*
X381567543Y-304172419D02*
X381329448Y-304172419D01*
X381329448Y-304172419D02*
X381234210Y-304220038D01*
X381234210Y-304220038D02*
X381186591Y-304267657D01*
X381186591Y-304267657D02*
X381138972Y-304362895D01*
X381138972Y-304362895D02*
X381138972Y-304458133D01*
X381138972Y-304458133D02*
X381186591Y-304600990D01*
X381186591Y-304600990D02*
X381758019Y-305172419D01*
X381758019Y-305172419D02*
X381138972Y-305172419D01*
X380710400Y-305172419D02*
X380710400Y-304172419D01*
X380710400Y-304553371D02*
X380615162Y-304505752D01*
X380615162Y-304505752D02*
X380424686Y-304505752D01*
X380424686Y-304505752D02*
X380329448Y-304553371D01*
X380329448Y-304553371D02*
X380281829Y-304600990D01*
X380281829Y-304600990D02*
X380234210Y-304696228D01*
X380234210Y-304696228D02*
X380234210Y-304981942D01*
X380234210Y-304981942D02*
X380281829Y-305077180D01*
X380281829Y-305077180D02*
X380329448Y-305124800D01*
X380329448Y-305124800D02*
X380424686Y-305172419D01*
X380424686Y-305172419D02*
X380615162Y-305172419D01*
X380615162Y-305172419D02*
X380710400Y-305124800D01*
X379091353Y-304124800D02*
X379948495Y-305410514D01*
X378567543Y-304696228D02*
X378567543Y-305172419D01*
X378900876Y-304172419D02*
X378567543Y-304696228D01*
X378567543Y-304696228D02*
X378234210Y-304172419D01*
X377519924Y-305124800D02*
X377615162Y-305172419D01*
X377615162Y-305172419D02*
X377805638Y-305172419D01*
X377805638Y-305172419D02*
X377900876Y-305124800D01*
X377900876Y-305124800D02*
X377948495Y-305029561D01*
X377948495Y-305029561D02*
X377948495Y-304648609D01*
X377948495Y-304648609D02*
X377900876Y-304553371D01*
X377900876Y-304553371D02*
X377805638Y-304505752D01*
X377805638Y-304505752D02*
X377615162Y-304505752D01*
X377615162Y-304505752D02*
X377519924Y-304553371D01*
X377519924Y-304553371D02*
X377472305Y-304648609D01*
X377472305Y-304648609D02*
X377472305Y-304743847D01*
X377472305Y-304743847D02*
X377948495Y-304839085D01*
X377186590Y-304505752D02*
X376805638Y-304505752D01*
X377043733Y-304172419D02*
X377043733Y-305029561D01*
X377043733Y-305029561D02*
X376996114Y-305124800D01*
X376996114Y-305124800D02*
X376900876Y-305172419D01*
X376900876Y-305172419D02*
X376805638Y-305172419D01*
X376519923Y-304886704D02*
X376043733Y-304886704D01*
X376615161Y-305172419D02*
X376281828Y-304172419D01*
X376281828Y-304172419D02*
X375948495Y-305172419D01*
X375615161Y-304505752D02*
X375615161Y-305172419D01*
X375615161Y-304600990D02*
X375567542Y-304553371D01*
X375567542Y-304553371D02*
X375472304Y-304505752D01*
X375472304Y-304505752D02*
X375329447Y-304505752D01*
X375329447Y-304505752D02*
X375234209Y-304553371D01*
X375234209Y-304553371D02*
X375186590Y-304648609D01*
X375186590Y-304648609D02*
X375186590Y-305172419D01*
X374567542Y-305172419D02*
X374662780Y-305124800D01*
X374662780Y-305124800D02*
X374710399Y-305077180D01*
X374710399Y-305077180D02*
X374758018Y-304981942D01*
X374758018Y-304981942D02*
X374758018Y-304696228D01*
X374758018Y-304696228D02*
X374710399Y-304600990D01*
X374710399Y-304600990D02*
X374662780Y-304553371D01*
X374662780Y-304553371D02*
X374567542Y-304505752D01*
X374567542Y-304505752D02*
X374424685Y-304505752D01*
X374424685Y-304505752D02*
X374329447Y-304553371D01*
X374329447Y-304553371D02*
X374281828Y-304600990D01*
X374281828Y-304600990D02*
X374234209Y-304696228D01*
X374234209Y-304696228D02*
X374234209Y-304981942D01*
X374234209Y-304981942D02*
X374281828Y-305077180D01*
X374281828Y-305077180D02*
X374329447Y-305124800D01*
X374329447Y-305124800D02*
X374424685Y-305172419D01*
X374424685Y-305172419D02*
X374567542Y-305172419D01*
X373948494Y-304505752D02*
X373567542Y-304505752D01*
X373805637Y-304172419D02*
X373805637Y-305029561D01*
X373805637Y-305029561D02*
X373758018Y-305124800D01*
X373758018Y-305124800D02*
X373662780Y-305172419D01*
X373662780Y-305172419D02*
X373567542Y-305172419D01*
X373234208Y-305172419D02*
X373234208Y-304172419D01*
X372805637Y-305172419D02*
X372805637Y-304648609D01*
X372805637Y-304648609D02*
X372853256Y-304553371D01*
X372853256Y-304553371D02*
X372948494Y-304505752D01*
X372948494Y-304505752D02*
X373091351Y-304505752D01*
X373091351Y-304505752D02*
X373186589Y-304553371D01*
X373186589Y-304553371D02*
X373234208Y-304600990D01*
X371948494Y-305124800D02*
X372043732Y-305172419D01*
X372043732Y-305172419D02*
X372234208Y-305172419D01*
X372234208Y-305172419D02*
X372329446Y-305124800D01*
X372329446Y-305124800D02*
X372377065Y-305029561D01*
X372377065Y-305029561D02*
X372377065Y-304648609D01*
X372377065Y-304648609D02*
X372329446Y-304553371D01*
X372329446Y-304553371D02*
X372234208Y-304505752D01*
X372234208Y-304505752D02*
X372043732Y-304505752D01*
X372043732Y-304505752D02*
X371948494Y-304553371D01*
X371948494Y-304553371D02*
X371900875Y-304648609D01*
X371900875Y-304648609D02*
X371900875Y-304743847D01*
X371900875Y-304743847D02*
X372377065Y-304839085D01*
X371472303Y-305172419D02*
X371472303Y-304505752D01*
X371472303Y-304696228D02*
X371424684Y-304600990D01*
X371424684Y-304600990D02*
X371377065Y-304553371D01*
X371377065Y-304553371D02*
X371281827Y-304505752D01*
X371281827Y-304505752D02*
X371186589Y-304505752D01*
X370853255Y-305172419D02*
X370853255Y-304172419D01*
X370281827Y-305172419D02*
X370710398Y-304600990D01*
X370281827Y-304172419D02*
X370853255Y-304743847D01*
X369472303Y-305124800D02*
X369567541Y-305172419D01*
X369567541Y-305172419D02*
X369758017Y-305172419D01*
X369758017Y-305172419D02*
X369853255Y-305124800D01*
X369853255Y-305124800D02*
X369900874Y-305029561D01*
X369900874Y-305029561D02*
X369900874Y-304648609D01*
X369900874Y-304648609D02*
X369853255Y-304553371D01*
X369853255Y-304553371D02*
X369758017Y-304505752D01*
X369758017Y-304505752D02*
X369567541Y-304505752D01*
X369567541Y-304505752D02*
X369472303Y-304553371D01*
X369472303Y-304553371D02*
X369424684Y-304648609D01*
X369424684Y-304648609D02*
X369424684Y-304743847D01*
X369424684Y-304743847D02*
X369900874Y-304839085D01*
X369091350Y-304505752D02*
X368853255Y-305172419D01*
X368615160Y-304505752D02*
X368853255Y-305172419D01*
X368853255Y-305172419D02*
X368948493Y-305410514D01*
X368948493Y-305410514D02*
X368996112Y-305458133D01*
X368996112Y-305458133D02*
X369091350Y-305505752D01*
X368234207Y-305172419D02*
X368234207Y-304172419D01*
X368234207Y-304553371D02*
X368138969Y-304505752D01*
X368138969Y-304505752D02*
X367948493Y-304505752D01*
X367948493Y-304505752D02*
X367853255Y-304553371D01*
X367853255Y-304553371D02*
X367805636Y-304600990D01*
X367805636Y-304600990D02*
X367758017Y-304696228D01*
X367758017Y-304696228D02*
X367758017Y-304981942D01*
X367758017Y-304981942D02*
X367805636Y-305077180D01*
X367805636Y-305077180D02*
X367853255Y-305124800D01*
X367853255Y-305124800D02*
X367948493Y-305172419D01*
X367948493Y-305172419D02*
X368138969Y-305172419D01*
X368138969Y-305172419D02*
X368234207Y-305124800D01*
X367186588Y-305172419D02*
X367281826Y-305124800D01*
X367281826Y-305124800D02*
X367329445Y-305077180D01*
X367329445Y-305077180D02*
X367377064Y-304981942D01*
X367377064Y-304981942D02*
X367377064Y-304696228D01*
X367377064Y-304696228D02*
X367329445Y-304600990D01*
X367329445Y-304600990D02*
X367281826Y-304553371D01*
X367281826Y-304553371D02*
X367186588Y-304505752D01*
X367186588Y-304505752D02*
X367043731Y-304505752D01*
X367043731Y-304505752D02*
X366948493Y-304553371D01*
X366948493Y-304553371D02*
X366900874Y-304600990D01*
X366900874Y-304600990D02*
X366853255Y-304696228D01*
X366853255Y-304696228D02*
X366853255Y-304981942D01*
X366853255Y-304981942D02*
X366900874Y-305077180D01*
X366900874Y-305077180D02*
X366948493Y-305124800D01*
X366948493Y-305124800D02*
X367043731Y-305172419D01*
X367043731Y-305172419D02*
X367186588Y-305172419D01*
X365996112Y-305172419D02*
X365996112Y-304648609D01*
X365996112Y-304648609D02*
X366043731Y-304553371D01*
X366043731Y-304553371D02*
X366138969Y-304505752D01*
X366138969Y-304505752D02*
X366329445Y-304505752D01*
X366329445Y-304505752D02*
X366424683Y-304553371D01*
X365996112Y-305124800D02*
X366091350Y-305172419D01*
X366091350Y-305172419D02*
X366329445Y-305172419D01*
X366329445Y-305172419D02*
X366424683Y-305124800D01*
X366424683Y-305124800D02*
X366472302Y-305029561D01*
X366472302Y-305029561D02*
X366472302Y-304934323D01*
X366472302Y-304934323D02*
X366424683Y-304839085D01*
X366424683Y-304839085D02*
X366329445Y-304791466D01*
X366329445Y-304791466D02*
X366091350Y-304791466D01*
X366091350Y-304791466D02*
X365996112Y-304743847D01*
X365519921Y-305172419D02*
X365519921Y-304505752D01*
X365519921Y-304696228D02*
X365472302Y-304600990D01*
X365472302Y-304600990D02*
X365424683Y-304553371D01*
X365424683Y-304553371D02*
X365329445Y-304505752D01*
X365329445Y-304505752D02*
X365234207Y-304505752D01*
X364472302Y-305172419D02*
X364472302Y-304172419D01*
X364472302Y-305124800D02*
X364567540Y-305172419D01*
X364567540Y-305172419D02*
X364758016Y-305172419D01*
X364758016Y-305172419D02*
X364853254Y-305124800D01*
X364853254Y-305124800D02*
X364900873Y-305077180D01*
X364900873Y-305077180D02*
X364948492Y-304981942D01*
X364948492Y-304981942D02*
X364948492Y-304696228D01*
X364948492Y-304696228D02*
X364900873Y-304600990D01*
X364900873Y-304600990D02*
X364853254Y-304553371D01*
X364853254Y-304553371D02*
X364758016Y-304505752D01*
X364758016Y-304505752D02*
X364567540Y-304505752D01*
X364567540Y-304505752D02*
X364472302Y-304553371D01*
D11*
X306131785Y-223879819D02*
X306131785Y-222879819D01*
X306131785Y-222879819D02*
X305893690Y-222879819D01*
X305893690Y-222879819D02*
X305750833Y-222927438D01*
X305750833Y-222927438D02*
X305655595Y-223022676D01*
X305655595Y-223022676D02*
X305607976Y-223117914D01*
X305607976Y-223117914D02*
X305560357Y-223308390D01*
X305560357Y-223308390D02*
X305560357Y-223451247D01*
X305560357Y-223451247D02*
X305607976Y-223641723D01*
X305607976Y-223641723D02*
X305655595Y-223736961D01*
X305655595Y-223736961D02*
X305750833Y-223832200D01*
X305750833Y-223832200D02*
X305893690Y-223879819D01*
X305893690Y-223879819D02*
X306131785Y-223879819D01*
X305179404Y-222975057D02*
X305131785Y-222927438D01*
X305131785Y-222927438D02*
X305036547Y-222879819D01*
X305036547Y-222879819D02*
X304798452Y-222879819D01*
X304798452Y-222879819D02*
X304703214Y-222927438D01*
X304703214Y-222927438D02*
X304655595Y-222975057D01*
X304655595Y-222975057D02*
X304607976Y-223070295D01*
X304607976Y-223070295D02*
X304607976Y-223165533D01*
X304607976Y-223165533D02*
X304655595Y-223308390D01*
X304655595Y-223308390D02*
X305227023Y-223879819D01*
X305227023Y-223879819D02*
X304607976Y-223879819D01*
X304274642Y-222879819D02*
X303607976Y-222879819D01*
X303607976Y-222879819D02*
X304036547Y-223879819D01*
X77255594Y-223879819D02*
X77255594Y-222879819D01*
X77255594Y-222879819D02*
X77017499Y-222879819D01*
X77017499Y-222879819D02*
X76874642Y-222927438D01*
X76874642Y-222927438D02*
X76779404Y-223022676D01*
X76779404Y-223022676D02*
X76731785Y-223117914D01*
X76731785Y-223117914D02*
X76684166Y-223308390D01*
X76684166Y-223308390D02*
X76684166Y-223451247D01*
X76684166Y-223451247D02*
X76731785Y-223641723D01*
X76731785Y-223641723D02*
X76779404Y-223736961D01*
X76779404Y-223736961D02*
X76874642Y-223832200D01*
X76874642Y-223832200D02*
X77017499Y-223879819D01*
X77017499Y-223879819D02*
X77255594Y-223879819D01*
X76303213Y-222975057D02*
X76255594Y-222927438D01*
X76255594Y-222927438D02*
X76160356Y-222879819D01*
X76160356Y-222879819D02*
X75922261Y-222879819D01*
X75922261Y-222879819D02*
X75827023Y-222927438D01*
X75827023Y-222927438D02*
X75779404Y-222975057D01*
X75779404Y-222975057D02*
X75731785Y-223070295D01*
X75731785Y-223070295D02*
X75731785Y-223165533D01*
X75731785Y-223165533D02*
X75779404Y-223308390D01*
X75779404Y-223308390D02*
X76350832Y-223879819D01*
X76350832Y-223879819D02*
X75731785Y-223879819D01*
X96305594Y-223879819D02*
X96305594Y-222879819D01*
X96305594Y-222879819D02*
X96067499Y-222879819D01*
X96067499Y-222879819D02*
X95924642Y-222927438D01*
X95924642Y-222927438D02*
X95829404Y-223022676D01*
X95829404Y-223022676D02*
X95781785Y-223117914D01*
X95781785Y-223117914D02*
X95734166Y-223308390D01*
X95734166Y-223308390D02*
X95734166Y-223451247D01*
X95734166Y-223451247D02*
X95781785Y-223641723D01*
X95781785Y-223641723D02*
X95829404Y-223736961D01*
X95829404Y-223736961D02*
X95924642Y-223832200D01*
X95924642Y-223832200D02*
X96067499Y-223879819D01*
X96067499Y-223879819D02*
X96305594Y-223879819D01*
X95400832Y-222879819D02*
X94781785Y-222879819D01*
X94781785Y-222879819D02*
X95115118Y-223260771D01*
X95115118Y-223260771D02*
X94972261Y-223260771D01*
X94972261Y-223260771D02*
X94877023Y-223308390D01*
X94877023Y-223308390D02*
X94829404Y-223356009D01*
X94829404Y-223356009D02*
X94781785Y-223451247D01*
X94781785Y-223451247D02*
X94781785Y-223689342D01*
X94781785Y-223689342D02*
X94829404Y-223784580D01*
X94829404Y-223784580D02*
X94877023Y-223832200D01*
X94877023Y-223832200D02*
X94972261Y-223879819D01*
X94972261Y-223879819D02*
X95257975Y-223879819D01*
X95257975Y-223879819D02*
X95353213Y-223832200D01*
X95353213Y-223832200D02*
X95400832Y-223784580D01*
X115418094Y-223879819D02*
X115418094Y-222879819D01*
X115418094Y-222879819D02*
X115179999Y-222879819D01*
X115179999Y-222879819D02*
X115037142Y-222927438D01*
X115037142Y-222927438D02*
X114941904Y-223022676D01*
X114941904Y-223022676D02*
X114894285Y-223117914D01*
X114894285Y-223117914D02*
X114846666Y-223308390D01*
X114846666Y-223308390D02*
X114846666Y-223451247D01*
X114846666Y-223451247D02*
X114894285Y-223641723D01*
X114894285Y-223641723D02*
X114941904Y-223736961D01*
X114941904Y-223736961D02*
X115037142Y-223832200D01*
X115037142Y-223832200D02*
X115179999Y-223879819D01*
X115179999Y-223879819D02*
X115418094Y-223879819D01*
X113989523Y-223213152D02*
X113989523Y-223879819D01*
X114227618Y-222832200D02*
X114465713Y-223546485D01*
X114465713Y-223546485D02*
X113846666Y-223546485D01*
X149169285Y-300079819D02*
X149169285Y-299079819D01*
X149169285Y-299079819D02*
X148931190Y-299079819D01*
X148931190Y-299079819D02*
X148788333Y-299127438D01*
X148788333Y-299127438D02*
X148693095Y-299222676D01*
X148693095Y-299222676D02*
X148645476Y-299317914D01*
X148645476Y-299317914D02*
X148597857Y-299508390D01*
X148597857Y-299508390D02*
X148597857Y-299651247D01*
X148597857Y-299651247D02*
X148645476Y-299841723D01*
X148645476Y-299841723D02*
X148693095Y-299936961D01*
X148693095Y-299936961D02*
X148788333Y-300032200D01*
X148788333Y-300032200D02*
X148931190Y-300079819D01*
X148931190Y-300079819D02*
X149169285Y-300079819D01*
X147693095Y-299079819D02*
X148169285Y-299079819D01*
X148169285Y-299079819D02*
X148216904Y-299556009D01*
X148216904Y-299556009D02*
X148169285Y-299508390D01*
X148169285Y-299508390D02*
X148074047Y-299460771D01*
X148074047Y-299460771D02*
X147835952Y-299460771D01*
X147835952Y-299460771D02*
X147740714Y-299508390D01*
X147740714Y-299508390D02*
X147693095Y-299556009D01*
X147693095Y-299556009D02*
X147645476Y-299651247D01*
X147645476Y-299651247D02*
X147645476Y-299889342D01*
X147645476Y-299889342D02*
X147693095Y-299984580D01*
X147693095Y-299984580D02*
X147740714Y-300032200D01*
X147740714Y-300032200D02*
X147835952Y-300079819D01*
X147835952Y-300079819D02*
X148074047Y-300079819D01*
X148074047Y-300079819D02*
X148169285Y-300032200D01*
X148169285Y-300032200D02*
X148216904Y-299984580D01*
X147312142Y-299079819D02*
X146645476Y-299079819D01*
X146645476Y-299079819D02*
X147074047Y-300079819D01*
X311094285Y-281029819D02*
X311094285Y-280029819D01*
X311094285Y-280029819D02*
X310856190Y-280029819D01*
X310856190Y-280029819D02*
X310713333Y-280077438D01*
X310713333Y-280077438D02*
X310618095Y-280172676D01*
X310618095Y-280172676D02*
X310570476Y-280267914D01*
X310570476Y-280267914D02*
X310522857Y-280458390D01*
X310522857Y-280458390D02*
X310522857Y-280601247D01*
X310522857Y-280601247D02*
X310570476Y-280791723D01*
X310570476Y-280791723D02*
X310618095Y-280886961D01*
X310618095Y-280886961D02*
X310713333Y-280982200D01*
X310713333Y-280982200D02*
X310856190Y-281029819D01*
X310856190Y-281029819D02*
X311094285Y-281029819D01*
X309665714Y-280029819D02*
X309856190Y-280029819D01*
X309856190Y-280029819D02*
X309951428Y-280077438D01*
X309951428Y-280077438D02*
X309999047Y-280125057D01*
X309999047Y-280125057D02*
X310094285Y-280267914D01*
X310094285Y-280267914D02*
X310141904Y-280458390D01*
X310141904Y-280458390D02*
X310141904Y-280839342D01*
X310141904Y-280839342D02*
X310094285Y-280934580D01*
X310094285Y-280934580D02*
X310046666Y-280982200D01*
X310046666Y-280982200D02*
X309951428Y-281029819D01*
X309951428Y-281029819D02*
X309760952Y-281029819D01*
X309760952Y-281029819D02*
X309665714Y-280982200D01*
X309665714Y-280982200D02*
X309618095Y-280934580D01*
X309618095Y-280934580D02*
X309570476Y-280839342D01*
X309570476Y-280839342D02*
X309570476Y-280601247D01*
X309570476Y-280601247D02*
X309618095Y-280506009D01*
X309618095Y-280506009D02*
X309665714Y-280458390D01*
X309665714Y-280458390D02*
X309760952Y-280410771D01*
X309760952Y-280410771D02*
X309951428Y-280410771D01*
X309951428Y-280410771D02*
X310046666Y-280458390D01*
X310046666Y-280458390D02*
X310094285Y-280506009D01*
X310094285Y-280506009D02*
X310141904Y-280601247D01*
X309237142Y-280029819D02*
X308618095Y-280029819D01*
X308618095Y-280029819D02*
X308951428Y-280410771D01*
X308951428Y-280410771D02*
X308808571Y-280410771D01*
X308808571Y-280410771D02*
X308713333Y-280458390D01*
X308713333Y-280458390D02*
X308665714Y-280506009D01*
X308665714Y-280506009D02*
X308618095Y-280601247D01*
X308618095Y-280601247D02*
X308618095Y-280839342D01*
X308618095Y-280839342D02*
X308665714Y-280934580D01*
X308665714Y-280934580D02*
X308713333Y-280982200D01*
X308713333Y-280982200D02*
X308808571Y-281029819D01*
X308808571Y-281029819D02*
X309094285Y-281029819D01*
X309094285Y-281029819D02*
X309189523Y-280982200D01*
X309189523Y-280982200D02*
X309237142Y-280934580D01*
X292044285Y-300079819D02*
X292044285Y-299079819D01*
X292044285Y-299079819D02*
X291806190Y-299079819D01*
X291806190Y-299079819D02*
X291663333Y-299127438D01*
X291663333Y-299127438D02*
X291568095Y-299222676D01*
X291568095Y-299222676D02*
X291520476Y-299317914D01*
X291520476Y-299317914D02*
X291472857Y-299508390D01*
X291472857Y-299508390D02*
X291472857Y-299651247D01*
X291472857Y-299651247D02*
X291520476Y-299841723D01*
X291520476Y-299841723D02*
X291568095Y-299936961D01*
X291568095Y-299936961D02*
X291663333Y-300032200D01*
X291663333Y-300032200D02*
X291806190Y-300079819D01*
X291806190Y-300079819D02*
X292044285Y-300079819D01*
X290568095Y-299079819D02*
X291044285Y-299079819D01*
X291044285Y-299079819D02*
X291091904Y-299556009D01*
X291091904Y-299556009D02*
X291044285Y-299508390D01*
X291044285Y-299508390D02*
X290949047Y-299460771D01*
X290949047Y-299460771D02*
X290710952Y-299460771D01*
X290710952Y-299460771D02*
X290615714Y-299508390D01*
X290615714Y-299508390D02*
X290568095Y-299556009D01*
X290568095Y-299556009D02*
X290520476Y-299651247D01*
X290520476Y-299651247D02*
X290520476Y-299889342D01*
X290520476Y-299889342D02*
X290568095Y-299984580D01*
X290568095Y-299984580D02*
X290615714Y-300032200D01*
X290615714Y-300032200D02*
X290710952Y-300079819D01*
X290710952Y-300079819D02*
X290949047Y-300079819D01*
X290949047Y-300079819D02*
X291044285Y-300032200D01*
X291044285Y-300032200D02*
X291091904Y-299984580D01*
X290044285Y-300079819D02*
X289853809Y-300079819D01*
X289853809Y-300079819D02*
X289758571Y-300032200D01*
X289758571Y-300032200D02*
X289710952Y-299984580D01*
X289710952Y-299984580D02*
X289615714Y-299841723D01*
X289615714Y-299841723D02*
X289568095Y-299651247D01*
X289568095Y-299651247D02*
X289568095Y-299270295D01*
X289568095Y-299270295D02*
X289615714Y-299175057D01*
X289615714Y-299175057D02*
X289663333Y-299127438D01*
X289663333Y-299127438D02*
X289758571Y-299079819D01*
X289758571Y-299079819D02*
X289949047Y-299079819D01*
X289949047Y-299079819D02*
X290044285Y-299127438D01*
X290044285Y-299127438D02*
X290091904Y-299175057D01*
X290091904Y-299175057D02*
X290139523Y-299270295D01*
X290139523Y-299270295D02*
X290139523Y-299508390D01*
X290139523Y-299508390D02*
X290091904Y-299603628D01*
X290091904Y-299603628D02*
X290044285Y-299651247D01*
X290044285Y-299651247D02*
X289949047Y-299698866D01*
X289949047Y-299698866D02*
X289758571Y-299698866D01*
X289758571Y-299698866D02*
X289663333Y-299651247D01*
X289663333Y-299651247D02*
X289615714Y-299603628D01*
X289615714Y-299603628D02*
X289568095Y-299508390D01*
X292064285Y-281029819D02*
X292064285Y-280029819D01*
X292064285Y-280029819D02*
X291826190Y-280029819D01*
X291826190Y-280029819D02*
X291683333Y-280077438D01*
X291683333Y-280077438D02*
X291588095Y-280172676D01*
X291588095Y-280172676D02*
X291540476Y-280267914D01*
X291540476Y-280267914D02*
X291492857Y-280458390D01*
X291492857Y-280458390D02*
X291492857Y-280601247D01*
X291492857Y-280601247D02*
X291540476Y-280791723D01*
X291540476Y-280791723D02*
X291588095Y-280886961D01*
X291588095Y-280886961D02*
X291683333Y-280982200D01*
X291683333Y-280982200D02*
X291826190Y-281029819D01*
X291826190Y-281029819D02*
X292064285Y-281029819D01*
X290588095Y-280029819D02*
X291064285Y-280029819D01*
X291064285Y-280029819D02*
X291111904Y-280506009D01*
X291111904Y-280506009D02*
X291064285Y-280458390D01*
X291064285Y-280458390D02*
X290969047Y-280410771D01*
X290969047Y-280410771D02*
X290730952Y-280410771D01*
X290730952Y-280410771D02*
X290635714Y-280458390D01*
X290635714Y-280458390D02*
X290588095Y-280506009D01*
X290588095Y-280506009D02*
X290540476Y-280601247D01*
X290540476Y-280601247D02*
X290540476Y-280839342D01*
X290540476Y-280839342D02*
X290588095Y-280934580D01*
X290588095Y-280934580D02*
X290635714Y-280982200D01*
X290635714Y-280982200D02*
X290730952Y-281029819D01*
X290730952Y-281029819D02*
X290969047Y-281029819D01*
X290969047Y-281029819D02*
X291064285Y-280982200D01*
X291064285Y-280982200D02*
X291111904Y-280934580D01*
X289588095Y-281029819D02*
X290159523Y-281029819D01*
X289873809Y-281029819D02*
X289873809Y-280029819D01*
X289873809Y-280029819D02*
X289969047Y-280172676D01*
X289969047Y-280172676D02*
X290064285Y-280267914D01*
X290064285Y-280267914D02*
X290159523Y-280315533D01*
X77731785Y-281029819D02*
X77731785Y-280029819D01*
X77731785Y-280029819D02*
X77493690Y-280029819D01*
X77493690Y-280029819D02*
X77350833Y-280077438D01*
X77350833Y-280077438D02*
X77255595Y-280172676D01*
X77255595Y-280172676D02*
X77207976Y-280267914D01*
X77207976Y-280267914D02*
X77160357Y-280458390D01*
X77160357Y-280458390D02*
X77160357Y-280601247D01*
X77160357Y-280601247D02*
X77207976Y-280791723D01*
X77207976Y-280791723D02*
X77255595Y-280886961D01*
X77255595Y-280886961D02*
X77350833Y-280982200D01*
X77350833Y-280982200D02*
X77493690Y-281029819D01*
X77493690Y-281029819D02*
X77731785Y-281029819D01*
X76303214Y-280363152D02*
X76303214Y-281029819D01*
X76541309Y-279982200D02*
X76779404Y-280696485D01*
X76779404Y-280696485D02*
X76160357Y-280696485D01*
X75255595Y-281029819D02*
X75827023Y-281029819D01*
X75541309Y-281029819D02*
X75541309Y-280029819D01*
X75541309Y-280029819D02*
X75636547Y-280172676D01*
X75636547Y-280172676D02*
X75731785Y-280267914D01*
X75731785Y-280267914D02*
X75827023Y-280315533D01*
X111069285Y-261979819D02*
X111069285Y-260979819D01*
X111069285Y-260979819D02*
X110831190Y-260979819D01*
X110831190Y-260979819D02*
X110688333Y-261027438D01*
X110688333Y-261027438D02*
X110593095Y-261122676D01*
X110593095Y-261122676D02*
X110545476Y-261217914D01*
X110545476Y-261217914D02*
X110497857Y-261408390D01*
X110497857Y-261408390D02*
X110497857Y-261551247D01*
X110497857Y-261551247D02*
X110545476Y-261741723D01*
X110545476Y-261741723D02*
X110593095Y-261836961D01*
X110593095Y-261836961D02*
X110688333Y-261932200D01*
X110688333Y-261932200D02*
X110831190Y-261979819D01*
X110831190Y-261979819D02*
X111069285Y-261979819D01*
X110116904Y-261075057D02*
X110069285Y-261027438D01*
X110069285Y-261027438D02*
X109974047Y-260979819D01*
X109974047Y-260979819D02*
X109735952Y-260979819D01*
X109735952Y-260979819D02*
X109640714Y-261027438D01*
X109640714Y-261027438D02*
X109593095Y-261075057D01*
X109593095Y-261075057D02*
X109545476Y-261170295D01*
X109545476Y-261170295D02*
X109545476Y-261265533D01*
X109545476Y-261265533D02*
X109593095Y-261408390D01*
X109593095Y-261408390D02*
X110164523Y-261979819D01*
X110164523Y-261979819D02*
X109545476Y-261979819D01*
X109069285Y-261979819D02*
X108878809Y-261979819D01*
X108878809Y-261979819D02*
X108783571Y-261932200D01*
X108783571Y-261932200D02*
X108735952Y-261884580D01*
X108735952Y-261884580D02*
X108640714Y-261741723D01*
X108640714Y-261741723D02*
X108593095Y-261551247D01*
X108593095Y-261551247D02*
X108593095Y-261170295D01*
X108593095Y-261170295D02*
X108640714Y-261075057D01*
X108640714Y-261075057D02*
X108688333Y-261027438D01*
X108688333Y-261027438D02*
X108783571Y-260979819D01*
X108783571Y-260979819D02*
X108974047Y-260979819D01*
X108974047Y-260979819D02*
X109069285Y-261027438D01*
X109069285Y-261027438D02*
X109116904Y-261075057D01*
X109116904Y-261075057D02*
X109164523Y-261170295D01*
X109164523Y-261170295D02*
X109164523Y-261408390D01*
X109164523Y-261408390D02*
X109116904Y-261503628D01*
X109116904Y-261503628D02*
X109069285Y-261551247D01*
X109069285Y-261551247D02*
X108974047Y-261598866D01*
X108974047Y-261598866D02*
X108783571Y-261598866D01*
X108783571Y-261598866D02*
X108688333Y-261551247D01*
X108688333Y-261551247D02*
X108640714Y-261503628D01*
X108640714Y-261503628D02*
X108593095Y-261408390D01*
X244439285Y-261979819D02*
X244439285Y-260979819D01*
X244439285Y-260979819D02*
X244201190Y-260979819D01*
X244201190Y-260979819D02*
X244058333Y-261027438D01*
X244058333Y-261027438D02*
X243963095Y-261122676D01*
X243963095Y-261122676D02*
X243915476Y-261217914D01*
X243915476Y-261217914D02*
X243867857Y-261408390D01*
X243867857Y-261408390D02*
X243867857Y-261551247D01*
X243867857Y-261551247D02*
X243915476Y-261741723D01*
X243915476Y-261741723D02*
X243963095Y-261836961D01*
X243963095Y-261836961D02*
X244058333Y-261932200D01*
X244058333Y-261932200D02*
X244201190Y-261979819D01*
X244201190Y-261979819D02*
X244439285Y-261979819D01*
X243534523Y-260979819D02*
X242915476Y-260979819D01*
X242915476Y-260979819D02*
X243248809Y-261360771D01*
X243248809Y-261360771D02*
X243105952Y-261360771D01*
X243105952Y-261360771D02*
X243010714Y-261408390D01*
X243010714Y-261408390D02*
X242963095Y-261456009D01*
X242963095Y-261456009D02*
X242915476Y-261551247D01*
X242915476Y-261551247D02*
X242915476Y-261789342D01*
X242915476Y-261789342D02*
X242963095Y-261884580D01*
X242963095Y-261884580D02*
X243010714Y-261932200D01*
X243010714Y-261932200D02*
X243105952Y-261979819D01*
X243105952Y-261979819D02*
X243391666Y-261979819D01*
X243391666Y-261979819D02*
X243486904Y-261932200D01*
X243486904Y-261932200D02*
X243534523Y-261884580D01*
X242058333Y-260979819D02*
X242248809Y-260979819D01*
X242248809Y-260979819D02*
X242344047Y-261027438D01*
X242344047Y-261027438D02*
X242391666Y-261075057D01*
X242391666Y-261075057D02*
X242486904Y-261217914D01*
X242486904Y-261217914D02*
X242534523Y-261408390D01*
X242534523Y-261408390D02*
X242534523Y-261789342D01*
X242534523Y-261789342D02*
X242486904Y-261884580D01*
X242486904Y-261884580D02*
X242439285Y-261932200D01*
X242439285Y-261932200D02*
X242344047Y-261979819D01*
X242344047Y-261979819D02*
X242153571Y-261979819D01*
X242153571Y-261979819D02*
X242058333Y-261932200D01*
X242058333Y-261932200D02*
X242010714Y-261884580D01*
X242010714Y-261884580D02*
X241963095Y-261789342D01*
X241963095Y-261789342D02*
X241963095Y-261551247D01*
X241963095Y-261551247D02*
X242010714Y-261456009D01*
X242010714Y-261456009D02*
X242058333Y-261408390D01*
X242058333Y-261408390D02*
X242153571Y-261360771D01*
X242153571Y-261360771D02*
X242344047Y-261360771D01*
X242344047Y-261360771D02*
X242439285Y-261408390D01*
X242439285Y-261408390D02*
X242486904Y-261456009D01*
X242486904Y-261456009D02*
X242534523Y-261551247D01*
X77731785Y-261979819D02*
X77731785Y-260979819D01*
X77731785Y-260979819D02*
X77493690Y-260979819D01*
X77493690Y-260979819D02*
X77350833Y-261027438D01*
X77350833Y-261027438D02*
X77255595Y-261122676D01*
X77255595Y-261122676D02*
X77207976Y-261217914D01*
X77207976Y-261217914D02*
X77160357Y-261408390D01*
X77160357Y-261408390D02*
X77160357Y-261551247D01*
X77160357Y-261551247D02*
X77207976Y-261741723D01*
X77207976Y-261741723D02*
X77255595Y-261836961D01*
X77255595Y-261836961D02*
X77350833Y-261932200D01*
X77350833Y-261932200D02*
X77493690Y-261979819D01*
X77493690Y-261979819D02*
X77731785Y-261979819D01*
X76779404Y-261075057D02*
X76731785Y-261027438D01*
X76731785Y-261027438D02*
X76636547Y-260979819D01*
X76636547Y-260979819D02*
X76398452Y-260979819D01*
X76398452Y-260979819D02*
X76303214Y-261027438D01*
X76303214Y-261027438D02*
X76255595Y-261075057D01*
X76255595Y-261075057D02*
X76207976Y-261170295D01*
X76207976Y-261170295D02*
X76207976Y-261265533D01*
X76207976Y-261265533D02*
X76255595Y-261408390D01*
X76255595Y-261408390D02*
X76827023Y-261979819D01*
X76827023Y-261979819D02*
X76207976Y-261979819D01*
X75636547Y-261408390D02*
X75731785Y-261360771D01*
X75731785Y-261360771D02*
X75779404Y-261313152D01*
X75779404Y-261313152D02*
X75827023Y-261217914D01*
X75827023Y-261217914D02*
X75827023Y-261170295D01*
X75827023Y-261170295D02*
X75779404Y-261075057D01*
X75779404Y-261075057D02*
X75731785Y-261027438D01*
X75731785Y-261027438D02*
X75636547Y-260979819D01*
X75636547Y-260979819D02*
X75446071Y-260979819D01*
X75446071Y-260979819D02*
X75350833Y-261027438D01*
X75350833Y-261027438D02*
X75303214Y-261075057D01*
X75303214Y-261075057D02*
X75255595Y-261170295D01*
X75255595Y-261170295D02*
X75255595Y-261217914D01*
X75255595Y-261217914D02*
X75303214Y-261313152D01*
X75303214Y-261313152D02*
X75350833Y-261360771D01*
X75350833Y-261360771D02*
X75446071Y-261408390D01*
X75446071Y-261408390D02*
X75636547Y-261408390D01*
X75636547Y-261408390D02*
X75731785Y-261456009D01*
X75731785Y-261456009D02*
X75779404Y-261503628D01*
X75779404Y-261503628D02*
X75827023Y-261598866D01*
X75827023Y-261598866D02*
X75827023Y-261789342D01*
X75827023Y-261789342D02*
X75779404Y-261884580D01*
X75779404Y-261884580D02*
X75731785Y-261932200D01*
X75731785Y-261932200D02*
X75636547Y-261979819D01*
X75636547Y-261979819D02*
X75446071Y-261979819D01*
X75446071Y-261979819D02*
X75350833Y-261932200D01*
X75350833Y-261932200D02*
X75303214Y-261884580D01*
X75303214Y-261884580D02*
X75255595Y-261789342D01*
X75255595Y-261789342D02*
X75255595Y-261598866D01*
X75255595Y-261598866D02*
X75303214Y-261503628D01*
X75303214Y-261503628D02*
X75350833Y-261456009D01*
X75350833Y-261456009D02*
X75446071Y-261408390D01*
X77669285Y-242929819D02*
X77669285Y-241929819D01*
X77669285Y-241929819D02*
X77431190Y-241929819D01*
X77431190Y-241929819D02*
X77288333Y-241977438D01*
X77288333Y-241977438D02*
X77193095Y-242072676D01*
X77193095Y-242072676D02*
X77145476Y-242167914D01*
X77145476Y-242167914D02*
X77097857Y-242358390D01*
X77097857Y-242358390D02*
X77097857Y-242501247D01*
X77097857Y-242501247D02*
X77145476Y-242691723D01*
X77145476Y-242691723D02*
X77193095Y-242786961D01*
X77193095Y-242786961D02*
X77288333Y-242882200D01*
X77288333Y-242882200D02*
X77431190Y-242929819D01*
X77431190Y-242929819D02*
X77669285Y-242929819D01*
X76145476Y-242929819D02*
X76716904Y-242929819D01*
X76431190Y-242929819D02*
X76431190Y-241929819D01*
X76431190Y-241929819D02*
X76526428Y-242072676D01*
X76526428Y-242072676D02*
X76621666Y-242167914D01*
X76621666Y-242167914D02*
X76716904Y-242215533D01*
X75240714Y-241929819D02*
X75716904Y-241929819D01*
X75716904Y-241929819D02*
X75764523Y-242406009D01*
X75764523Y-242406009D02*
X75716904Y-242358390D01*
X75716904Y-242358390D02*
X75621666Y-242310771D01*
X75621666Y-242310771D02*
X75383571Y-242310771D01*
X75383571Y-242310771D02*
X75288333Y-242358390D01*
X75288333Y-242358390D02*
X75240714Y-242406009D01*
X75240714Y-242406009D02*
X75193095Y-242501247D01*
X75193095Y-242501247D02*
X75193095Y-242739342D01*
X75193095Y-242739342D02*
X75240714Y-242834580D01*
X75240714Y-242834580D02*
X75288333Y-242882200D01*
X75288333Y-242882200D02*
X75383571Y-242929819D01*
X75383571Y-242929819D02*
X75621666Y-242929819D01*
X75621666Y-242929819D02*
X75716904Y-242882200D01*
X75716904Y-242882200D02*
X75764523Y-242834580D01*
X201619285Y-242929819D02*
X201619285Y-241929819D01*
X201619285Y-241929819D02*
X201381190Y-241929819D01*
X201381190Y-241929819D02*
X201238333Y-241977438D01*
X201238333Y-241977438D02*
X201143095Y-242072676D01*
X201143095Y-242072676D02*
X201095476Y-242167914D01*
X201095476Y-242167914D02*
X201047857Y-242358390D01*
X201047857Y-242358390D02*
X201047857Y-242501247D01*
X201047857Y-242501247D02*
X201095476Y-242691723D01*
X201095476Y-242691723D02*
X201143095Y-242786961D01*
X201143095Y-242786961D02*
X201238333Y-242882200D01*
X201238333Y-242882200D02*
X201381190Y-242929819D01*
X201381190Y-242929819D02*
X201619285Y-242929819D01*
X200666904Y-242025057D02*
X200619285Y-241977438D01*
X200619285Y-241977438D02*
X200524047Y-241929819D01*
X200524047Y-241929819D02*
X200285952Y-241929819D01*
X200285952Y-241929819D02*
X200190714Y-241977438D01*
X200190714Y-241977438D02*
X200143095Y-242025057D01*
X200143095Y-242025057D02*
X200095476Y-242120295D01*
X200095476Y-242120295D02*
X200095476Y-242215533D01*
X200095476Y-242215533D02*
X200143095Y-242358390D01*
X200143095Y-242358390D02*
X200714523Y-242929819D01*
X200714523Y-242929819D02*
X200095476Y-242929819D01*
X199143095Y-242929819D02*
X199714523Y-242929819D01*
X199428809Y-242929819D02*
X199428809Y-241929819D01*
X199428809Y-241929819D02*
X199524047Y-242072676D01*
X199524047Y-242072676D02*
X199619285Y-242167914D01*
X199619285Y-242167914D02*
X199714523Y-242215533D01*
X182506785Y-242929819D02*
X182506785Y-241929819D01*
X182506785Y-241929819D02*
X182268690Y-241929819D01*
X182268690Y-241929819D02*
X182125833Y-241977438D01*
X182125833Y-241977438D02*
X182030595Y-242072676D01*
X182030595Y-242072676D02*
X181982976Y-242167914D01*
X181982976Y-242167914D02*
X181935357Y-242358390D01*
X181935357Y-242358390D02*
X181935357Y-242501247D01*
X181935357Y-242501247D02*
X181982976Y-242691723D01*
X181982976Y-242691723D02*
X182030595Y-242786961D01*
X182030595Y-242786961D02*
X182125833Y-242882200D01*
X182125833Y-242882200D02*
X182268690Y-242929819D01*
X182268690Y-242929819D02*
X182506785Y-242929819D01*
X181554404Y-242025057D02*
X181506785Y-241977438D01*
X181506785Y-241977438D02*
X181411547Y-241929819D01*
X181411547Y-241929819D02*
X181173452Y-241929819D01*
X181173452Y-241929819D02*
X181078214Y-241977438D01*
X181078214Y-241977438D02*
X181030595Y-242025057D01*
X181030595Y-242025057D02*
X180982976Y-242120295D01*
X180982976Y-242120295D02*
X180982976Y-242215533D01*
X180982976Y-242215533D02*
X181030595Y-242358390D01*
X181030595Y-242358390D02*
X181602023Y-242929819D01*
X181602023Y-242929819D02*
X180982976Y-242929819D01*
X180363928Y-241929819D02*
X180268690Y-241929819D01*
X180268690Y-241929819D02*
X180173452Y-241977438D01*
X180173452Y-241977438D02*
X180125833Y-242025057D01*
X180125833Y-242025057D02*
X180078214Y-242120295D01*
X180078214Y-242120295D02*
X180030595Y-242310771D01*
X180030595Y-242310771D02*
X180030595Y-242548866D01*
X180030595Y-242548866D02*
X180078214Y-242739342D01*
X180078214Y-242739342D02*
X180125833Y-242834580D01*
X180125833Y-242834580D02*
X180173452Y-242882200D01*
X180173452Y-242882200D02*
X180268690Y-242929819D01*
X180268690Y-242929819D02*
X180363928Y-242929819D01*
X180363928Y-242929819D02*
X180459166Y-242882200D01*
X180459166Y-242882200D02*
X180506785Y-242834580D01*
X180506785Y-242834580D02*
X180554404Y-242739342D01*
X180554404Y-242739342D02*
X180602023Y-242548866D01*
X180602023Y-242548866D02*
X180602023Y-242310771D01*
X180602023Y-242310771D02*
X180554404Y-242120295D01*
X180554404Y-242120295D02*
X180506785Y-242025057D01*
X180506785Y-242025057D02*
X180459166Y-241977438D01*
X180459166Y-241977438D02*
X180363928Y-241929819D01*
X296806785Y-242929819D02*
X296806785Y-241929819D01*
X296806785Y-241929819D02*
X296568690Y-241929819D01*
X296568690Y-241929819D02*
X296425833Y-241977438D01*
X296425833Y-241977438D02*
X296330595Y-242072676D01*
X296330595Y-242072676D02*
X296282976Y-242167914D01*
X296282976Y-242167914D02*
X296235357Y-242358390D01*
X296235357Y-242358390D02*
X296235357Y-242501247D01*
X296235357Y-242501247D02*
X296282976Y-242691723D01*
X296282976Y-242691723D02*
X296330595Y-242786961D01*
X296330595Y-242786961D02*
X296425833Y-242882200D01*
X296425833Y-242882200D02*
X296568690Y-242929819D01*
X296568690Y-242929819D02*
X296806785Y-242929819D01*
X295902023Y-241929819D02*
X295282976Y-241929819D01*
X295282976Y-241929819D02*
X295616309Y-242310771D01*
X295616309Y-242310771D02*
X295473452Y-242310771D01*
X295473452Y-242310771D02*
X295378214Y-242358390D01*
X295378214Y-242358390D02*
X295330595Y-242406009D01*
X295330595Y-242406009D02*
X295282976Y-242501247D01*
X295282976Y-242501247D02*
X295282976Y-242739342D01*
X295282976Y-242739342D02*
X295330595Y-242834580D01*
X295330595Y-242834580D02*
X295378214Y-242882200D01*
X295378214Y-242882200D02*
X295473452Y-242929819D01*
X295473452Y-242929819D02*
X295759166Y-242929819D01*
X295759166Y-242929819D02*
X295854404Y-242882200D01*
X295854404Y-242882200D02*
X295902023Y-242834580D01*
X294806785Y-242929819D02*
X294616309Y-242929819D01*
X294616309Y-242929819D02*
X294521071Y-242882200D01*
X294521071Y-242882200D02*
X294473452Y-242834580D01*
X294473452Y-242834580D02*
X294378214Y-242691723D01*
X294378214Y-242691723D02*
X294330595Y-242501247D01*
X294330595Y-242501247D02*
X294330595Y-242120295D01*
X294330595Y-242120295D02*
X294378214Y-242025057D01*
X294378214Y-242025057D02*
X294425833Y-241977438D01*
X294425833Y-241977438D02*
X294521071Y-241929819D01*
X294521071Y-241929819D02*
X294711547Y-241929819D01*
X294711547Y-241929819D02*
X294806785Y-241977438D01*
X294806785Y-241977438D02*
X294854404Y-242025057D01*
X294854404Y-242025057D02*
X294902023Y-242120295D01*
X294902023Y-242120295D02*
X294902023Y-242358390D01*
X294902023Y-242358390D02*
X294854404Y-242453628D01*
X294854404Y-242453628D02*
X294806785Y-242501247D01*
X294806785Y-242501247D02*
X294711547Y-242548866D01*
X294711547Y-242548866D02*
X294521071Y-242548866D01*
X294521071Y-242548866D02*
X294425833Y-242501247D01*
X294425833Y-242501247D02*
X294378214Y-242453628D01*
X294378214Y-242453628D02*
X294330595Y-242358390D01*
X191575594Y-223879819D02*
X191575594Y-222879819D01*
X191575594Y-222879819D02*
X191337499Y-222879819D01*
X191337499Y-222879819D02*
X191194642Y-222927438D01*
X191194642Y-222927438D02*
X191099404Y-223022676D01*
X191099404Y-223022676D02*
X191051785Y-223117914D01*
X191051785Y-223117914D02*
X191004166Y-223308390D01*
X191004166Y-223308390D02*
X191004166Y-223451247D01*
X191004166Y-223451247D02*
X191051785Y-223641723D01*
X191051785Y-223641723D02*
X191099404Y-223736961D01*
X191099404Y-223736961D02*
X191194642Y-223832200D01*
X191194642Y-223832200D02*
X191337499Y-223879819D01*
X191337499Y-223879819D02*
X191575594Y-223879819D01*
X190432737Y-223308390D02*
X190527975Y-223260771D01*
X190527975Y-223260771D02*
X190575594Y-223213152D01*
X190575594Y-223213152D02*
X190623213Y-223117914D01*
X190623213Y-223117914D02*
X190623213Y-223070295D01*
X190623213Y-223070295D02*
X190575594Y-222975057D01*
X190575594Y-222975057D02*
X190527975Y-222927438D01*
X190527975Y-222927438D02*
X190432737Y-222879819D01*
X190432737Y-222879819D02*
X190242261Y-222879819D01*
X190242261Y-222879819D02*
X190147023Y-222927438D01*
X190147023Y-222927438D02*
X190099404Y-222975057D01*
X190099404Y-222975057D02*
X190051785Y-223070295D01*
X190051785Y-223070295D02*
X190051785Y-223117914D01*
X190051785Y-223117914D02*
X190099404Y-223213152D01*
X190099404Y-223213152D02*
X190147023Y-223260771D01*
X190147023Y-223260771D02*
X190242261Y-223308390D01*
X190242261Y-223308390D02*
X190432737Y-223308390D01*
X190432737Y-223308390D02*
X190527975Y-223356009D01*
X190527975Y-223356009D02*
X190575594Y-223403628D01*
X190575594Y-223403628D02*
X190623213Y-223498866D01*
X190623213Y-223498866D02*
X190623213Y-223689342D01*
X190623213Y-223689342D02*
X190575594Y-223784580D01*
X190575594Y-223784580D02*
X190527975Y-223832200D01*
X190527975Y-223832200D02*
X190432737Y-223879819D01*
X190432737Y-223879819D02*
X190242261Y-223879819D01*
X190242261Y-223879819D02*
X190147023Y-223832200D01*
X190147023Y-223832200D02*
X190099404Y-223784580D01*
X190099404Y-223784580D02*
X190051785Y-223689342D01*
X190051785Y-223689342D02*
X190051785Y-223498866D01*
X190051785Y-223498866D02*
X190099404Y-223403628D01*
X190099404Y-223403628D02*
X190147023Y-223356009D01*
X190147023Y-223356009D02*
X190242261Y-223308390D01*
X168301785Y-261979819D02*
X168301785Y-260979819D01*
X168301785Y-260979819D02*
X168063690Y-260979819D01*
X168063690Y-260979819D02*
X167920833Y-261027438D01*
X167920833Y-261027438D02*
X167825595Y-261122676D01*
X167825595Y-261122676D02*
X167777976Y-261217914D01*
X167777976Y-261217914D02*
X167730357Y-261408390D01*
X167730357Y-261408390D02*
X167730357Y-261551247D01*
X167730357Y-261551247D02*
X167777976Y-261741723D01*
X167777976Y-261741723D02*
X167825595Y-261836961D01*
X167825595Y-261836961D02*
X167920833Y-261932200D01*
X167920833Y-261932200D02*
X168063690Y-261979819D01*
X168063690Y-261979819D02*
X168301785Y-261979819D01*
X167397023Y-260979819D02*
X166777976Y-260979819D01*
X166777976Y-260979819D02*
X167111309Y-261360771D01*
X167111309Y-261360771D02*
X166968452Y-261360771D01*
X166968452Y-261360771D02*
X166873214Y-261408390D01*
X166873214Y-261408390D02*
X166825595Y-261456009D01*
X166825595Y-261456009D02*
X166777976Y-261551247D01*
X166777976Y-261551247D02*
X166777976Y-261789342D01*
X166777976Y-261789342D02*
X166825595Y-261884580D01*
X166825595Y-261884580D02*
X166873214Y-261932200D01*
X166873214Y-261932200D02*
X166968452Y-261979819D01*
X166968452Y-261979819D02*
X167254166Y-261979819D01*
X167254166Y-261979819D02*
X167349404Y-261932200D01*
X167349404Y-261932200D02*
X167397023Y-261884580D01*
X166397023Y-261075057D02*
X166349404Y-261027438D01*
X166349404Y-261027438D02*
X166254166Y-260979819D01*
X166254166Y-260979819D02*
X166016071Y-260979819D01*
X166016071Y-260979819D02*
X165920833Y-261027438D01*
X165920833Y-261027438D02*
X165873214Y-261075057D01*
X165873214Y-261075057D02*
X165825595Y-261170295D01*
X165825595Y-261170295D02*
X165825595Y-261265533D01*
X165825595Y-261265533D02*
X165873214Y-261408390D01*
X165873214Y-261408390D02*
X166444642Y-261979819D01*
X166444642Y-261979819D02*
X165825595Y-261979819D01*
X239719285Y-242929819D02*
X239719285Y-241929819D01*
X239719285Y-241929819D02*
X239481190Y-241929819D01*
X239481190Y-241929819D02*
X239338333Y-241977438D01*
X239338333Y-241977438D02*
X239243095Y-242072676D01*
X239243095Y-242072676D02*
X239195476Y-242167914D01*
X239195476Y-242167914D02*
X239147857Y-242358390D01*
X239147857Y-242358390D02*
X239147857Y-242501247D01*
X239147857Y-242501247D02*
X239195476Y-242691723D01*
X239195476Y-242691723D02*
X239243095Y-242786961D01*
X239243095Y-242786961D02*
X239338333Y-242882200D01*
X239338333Y-242882200D02*
X239481190Y-242929819D01*
X239481190Y-242929819D02*
X239719285Y-242929819D01*
X238766904Y-242025057D02*
X238719285Y-241977438D01*
X238719285Y-241977438D02*
X238624047Y-241929819D01*
X238624047Y-241929819D02*
X238385952Y-241929819D01*
X238385952Y-241929819D02*
X238290714Y-241977438D01*
X238290714Y-241977438D02*
X238243095Y-242025057D01*
X238243095Y-242025057D02*
X238195476Y-242120295D01*
X238195476Y-242120295D02*
X238195476Y-242215533D01*
X238195476Y-242215533D02*
X238243095Y-242358390D01*
X238243095Y-242358390D02*
X238814523Y-242929819D01*
X238814523Y-242929819D02*
X238195476Y-242929819D01*
X237862142Y-241929819D02*
X237243095Y-241929819D01*
X237243095Y-241929819D02*
X237576428Y-242310771D01*
X237576428Y-242310771D02*
X237433571Y-242310771D01*
X237433571Y-242310771D02*
X237338333Y-242358390D01*
X237338333Y-242358390D02*
X237290714Y-242406009D01*
X237290714Y-242406009D02*
X237243095Y-242501247D01*
X237243095Y-242501247D02*
X237243095Y-242739342D01*
X237243095Y-242739342D02*
X237290714Y-242834580D01*
X237290714Y-242834580D02*
X237338333Y-242882200D01*
X237338333Y-242882200D02*
X237433571Y-242929819D01*
X237433571Y-242929819D02*
X237719285Y-242929819D01*
X237719285Y-242929819D02*
X237814523Y-242882200D01*
X237814523Y-242882200D02*
X237862142Y-242834580D01*
X287281785Y-223879819D02*
X287281785Y-222879819D01*
X287281785Y-222879819D02*
X287043690Y-222879819D01*
X287043690Y-222879819D02*
X286900833Y-222927438D01*
X286900833Y-222927438D02*
X286805595Y-223022676D01*
X286805595Y-223022676D02*
X286757976Y-223117914D01*
X286757976Y-223117914D02*
X286710357Y-223308390D01*
X286710357Y-223308390D02*
X286710357Y-223451247D01*
X286710357Y-223451247D02*
X286757976Y-223641723D01*
X286757976Y-223641723D02*
X286805595Y-223736961D01*
X286805595Y-223736961D02*
X286900833Y-223832200D01*
X286900833Y-223832200D02*
X287043690Y-223879819D01*
X287043690Y-223879819D02*
X287281785Y-223879819D01*
X286329404Y-222975057D02*
X286281785Y-222927438D01*
X286281785Y-222927438D02*
X286186547Y-222879819D01*
X286186547Y-222879819D02*
X285948452Y-222879819D01*
X285948452Y-222879819D02*
X285853214Y-222927438D01*
X285853214Y-222927438D02*
X285805595Y-222975057D01*
X285805595Y-222975057D02*
X285757976Y-223070295D01*
X285757976Y-223070295D02*
X285757976Y-223165533D01*
X285757976Y-223165533D02*
X285805595Y-223308390D01*
X285805595Y-223308390D02*
X286377023Y-223879819D01*
X286377023Y-223879819D02*
X285757976Y-223879819D01*
X284900833Y-222879819D02*
X285091309Y-222879819D01*
X285091309Y-222879819D02*
X285186547Y-222927438D01*
X285186547Y-222927438D02*
X285234166Y-222975057D01*
X285234166Y-222975057D02*
X285329404Y-223117914D01*
X285329404Y-223117914D02*
X285377023Y-223308390D01*
X285377023Y-223308390D02*
X285377023Y-223689342D01*
X285377023Y-223689342D02*
X285329404Y-223784580D01*
X285329404Y-223784580D02*
X285281785Y-223832200D01*
X285281785Y-223832200D02*
X285186547Y-223879819D01*
X285186547Y-223879819D02*
X284996071Y-223879819D01*
X284996071Y-223879819D02*
X284900833Y-223832200D01*
X284900833Y-223832200D02*
X284853214Y-223784580D01*
X284853214Y-223784580D02*
X284805595Y-223689342D01*
X284805595Y-223689342D02*
X284805595Y-223451247D01*
X284805595Y-223451247D02*
X284853214Y-223356009D01*
X284853214Y-223356009D02*
X284900833Y-223308390D01*
X284900833Y-223308390D02*
X284996071Y-223260771D01*
X284996071Y-223260771D02*
X285186547Y-223260771D01*
X285186547Y-223260771D02*
X285281785Y-223308390D01*
X285281785Y-223308390D02*
X285329404Y-223356009D01*
X285329404Y-223356009D02*
X285377023Y-223451247D01*
X149169285Y-261979819D02*
X149169285Y-260979819D01*
X149169285Y-260979819D02*
X148931190Y-260979819D01*
X148931190Y-260979819D02*
X148788333Y-261027438D01*
X148788333Y-261027438D02*
X148693095Y-261122676D01*
X148693095Y-261122676D02*
X148645476Y-261217914D01*
X148645476Y-261217914D02*
X148597857Y-261408390D01*
X148597857Y-261408390D02*
X148597857Y-261551247D01*
X148597857Y-261551247D02*
X148645476Y-261741723D01*
X148645476Y-261741723D02*
X148693095Y-261836961D01*
X148693095Y-261836961D02*
X148788333Y-261932200D01*
X148788333Y-261932200D02*
X148931190Y-261979819D01*
X148931190Y-261979819D02*
X149169285Y-261979819D01*
X148264523Y-260979819D02*
X147645476Y-260979819D01*
X147645476Y-260979819D02*
X147978809Y-261360771D01*
X147978809Y-261360771D02*
X147835952Y-261360771D01*
X147835952Y-261360771D02*
X147740714Y-261408390D01*
X147740714Y-261408390D02*
X147693095Y-261456009D01*
X147693095Y-261456009D02*
X147645476Y-261551247D01*
X147645476Y-261551247D02*
X147645476Y-261789342D01*
X147645476Y-261789342D02*
X147693095Y-261884580D01*
X147693095Y-261884580D02*
X147740714Y-261932200D01*
X147740714Y-261932200D02*
X147835952Y-261979819D01*
X147835952Y-261979819D02*
X148121666Y-261979819D01*
X148121666Y-261979819D02*
X148216904Y-261932200D01*
X148216904Y-261932200D02*
X148264523Y-261884580D01*
X146693095Y-261979819D02*
X147264523Y-261979819D01*
X146978809Y-261979819D02*
X146978809Y-260979819D01*
X146978809Y-260979819D02*
X147074047Y-261122676D01*
X147074047Y-261122676D02*
X147169285Y-261217914D01*
X147169285Y-261217914D02*
X147264523Y-261265533D01*
X225369285Y-261979819D02*
X225369285Y-260979819D01*
X225369285Y-260979819D02*
X225131190Y-260979819D01*
X225131190Y-260979819D02*
X224988333Y-261027438D01*
X224988333Y-261027438D02*
X224893095Y-261122676D01*
X224893095Y-261122676D02*
X224845476Y-261217914D01*
X224845476Y-261217914D02*
X224797857Y-261408390D01*
X224797857Y-261408390D02*
X224797857Y-261551247D01*
X224797857Y-261551247D02*
X224845476Y-261741723D01*
X224845476Y-261741723D02*
X224893095Y-261836961D01*
X224893095Y-261836961D02*
X224988333Y-261932200D01*
X224988333Y-261932200D02*
X225131190Y-261979819D01*
X225131190Y-261979819D02*
X225369285Y-261979819D01*
X224464523Y-260979819D02*
X223845476Y-260979819D01*
X223845476Y-260979819D02*
X224178809Y-261360771D01*
X224178809Y-261360771D02*
X224035952Y-261360771D01*
X224035952Y-261360771D02*
X223940714Y-261408390D01*
X223940714Y-261408390D02*
X223893095Y-261456009D01*
X223893095Y-261456009D02*
X223845476Y-261551247D01*
X223845476Y-261551247D02*
X223845476Y-261789342D01*
X223845476Y-261789342D02*
X223893095Y-261884580D01*
X223893095Y-261884580D02*
X223940714Y-261932200D01*
X223940714Y-261932200D02*
X224035952Y-261979819D01*
X224035952Y-261979819D02*
X224321666Y-261979819D01*
X224321666Y-261979819D02*
X224416904Y-261932200D01*
X224416904Y-261932200D02*
X224464523Y-261884580D01*
X222940714Y-260979819D02*
X223416904Y-260979819D01*
X223416904Y-260979819D02*
X223464523Y-261456009D01*
X223464523Y-261456009D02*
X223416904Y-261408390D01*
X223416904Y-261408390D02*
X223321666Y-261360771D01*
X223321666Y-261360771D02*
X223083571Y-261360771D01*
X223083571Y-261360771D02*
X222988333Y-261408390D01*
X222988333Y-261408390D02*
X222940714Y-261456009D01*
X222940714Y-261456009D02*
X222893095Y-261551247D01*
X222893095Y-261551247D02*
X222893095Y-261789342D01*
X222893095Y-261789342D02*
X222940714Y-261884580D01*
X222940714Y-261884580D02*
X222988333Y-261932200D01*
X222988333Y-261932200D02*
X223083571Y-261979819D01*
X223083571Y-261979819D02*
X223321666Y-261979819D01*
X223321666Y-261979819D02*
X223416904Y-261932200D01*
X223416904Y-261932200D02*
X223464523Y-261884580D01*
X334969285Y-242929819D02*
X334969285Y-241929819D01*
X334969285Y-241929819D02*
X334731190Y-241929819D01*
X334731190Y-241929819D02*
X334588333Y-241977438D01*
X334588333Y-241977438D02*
X334493095Y-242072676D01*
X334493095Y-242072676D02*
X334445476Y-242167914D01*
X334445476Y-242167914D02*
X334397857Y-242358390D01*
X334397857Y-242358390D02*
X334397857Y-242501247D01*
X334397857Y-242501247D02*
X334445476Y-242691723D01*
X334445476Y-242691723D02*
X334493095Y-242786961D01*
X334493095Y-242786961D02*
X334588333Y-242882200D01*
X334588333Y-242882200D02*
X334731190Y-242929819D01*
X334731190Y-242929819D02*
X334969285Y-242929819D01*
X333445476Y-242929819D02*
X334016904Y-242929819D01*
X333731190Y-242929819D02*
X333731190Y-241929819D01*
X333731190Y-241929819D02*
X333826428Y-242072676D01*
X333826428Y-242072676D02*
X333921666Y-242167914D01*
X333921666Y-242167914D02*
X334016904Y-242215533D01*
X333112142Y-241929819D02*
X332493095Y-241929819D01*
X332493095Y-241929819D02*
X332826428Y-242310771D01*
X332826428Y-242310771D02*
X332683571Y-242310771D01*
X332683571Y-242310771D02*
X332588333Y-242358390D01*
X332588333Y-242358390D02*
X332540714Y-242406009D01*
X332540714Y-242406009D02*
X332493095Y-242501247D01*
X332493095Y-242501247D02*
X332493095Y-242739342D01*
X332493095Y-242739342D02*
X332540714Y-242834580D01*
X332540714Y-242834580D02*
X332588333Y-242882200D01*
X332588333Y-242882200D02*
X332683571Y-242929819D01*
X332683571Y-242929819D02*
X332969285Y-242929819D01*
X332969285Y-242929819D02*
X333064523Y-242882200D01*
X333064523Y-242882200D02*
X333112142Y-242834580D01*
X139706785Y-281029819D02*
X139706785Y-280029819D01*
X139706785Y-280029819D02*
X139468690Y-280029819D01*
X139468690Y-280029819D02*
X139325833Y-280077438D01*
X139325833Y-280077438D02*
X139230595Y-280172676D01*
X139230595Y-280172676D02*
X139182976Y-280267914D01*
X139182976Y-280267914D02*
X139135357Y-280458390D01*
X139135357Y-280458390D02*
X139135357Y-280601247D01*
X139135357Y-280601247D02*
X139182976Y-280791723D01*
X139182976Y-280791723D02*
X139230595Y-280886961D01*
X139230595Y-280886961D02*
X139325833Y-280982200D01*
X139325833Y-280982200D02*
X139468690Y-281029819D01*
X139468690Y-281029819D02*
X139706785Y-281029819D01*
X138278214Y-280363152D02*
X138278214Y-281029819D01*
X138516309Y-279982200D02*
X138754404Y-280696485D01*
X138754404Y-280696485D02*
X138135357Y-280696485D01*
X137849642Y-280029819D02*
X137230595Y-280029819D01*
X137230595Y-280029819D02*
X137563928Y-280410771D01*
X137563928Y-280410771D02*
X137421071Y-280410771D01*
X137421071Y-280410771D02*
X137325833Y-280458390D01*
X137325833Y-280458390D02*
X137278214Y-280506009D01*
X137278214Y-280506009D02*
X137230595Y-280601247D01*
X137230595Y-280601247D02*
X137230595Y-280839342D01*
X137230595Y-280839342D02*
X137278214Y-280934580D01*
X137278214Y-280934580D02*
X137325833Y-280982200D01*
X137325833Y-280982200D02*
X137421071Y-281029819D01*
X137421071Y-281029819D02*
X137706785Y-281029819D01*
X137706785Y-281029819D02*
X137802023Y-280982200D01*
X137802023Y-280982200D02*
X137849642Y-280934580D01*
X106306785Y-242929819D02*
X106306785Y-241929819D01*
X106306785Y-241929819D02*
X106068690Y-241929819D01*
X106068690Y-241929819D02*
X105925833Y-241977438D01*
X105925833Y-241977438D02*
X105830595Y-242072676D01*
X105830595Y-242072676D02*
X105782976Y-242167914D01*
X105782976Y-242167914D02*
X105735357Y-242358390D01*
X105735357Y-242358390D02*
X105735357Y-242501247D01*
X105735357Y-242501247D02*
X105782976Y-242691723D01*
X105782976Y-242691723D02*
X105830595Y-242786961D01*
X105830595Y-242786961D02*
X105925833Y-242882200D01*
X105925833Y-242882200D02*
X106068690Y-242929819D01*
X106068690Y-242929819D02*
X106306785Y-242929819D01*
X104782976Y-242929819D02*
X105354404Y-242929819D01*
X105068690Y-242929819D02*
X105068690Y-241929819D01*
X105068690Y-241929819D02*
X105163928Y-242072676D01*
X105163928Y-242072676D02*
X105259166Y-242167914D01*
X105259166Y-242167914D02*
X105354404Y-242215533D01*
X103925833Y-241929819D02*
X104116309Y-241929819D01*
X104116309Y-241929819D02*
X104211547Y-241977438D01*
X104211547Y-241977438D02*
X104259166Y-242025057D01*
X104259166Y-242025057D02*
X104354404Y-242167914D01*
X104354404Y-242167914D02*
X104402023Y-242358390D01*
X104402023Y-242358390D02*
X104402023Y-242739342D01*
X104402023Y-242739342D02*
X104354404Y-242834580D01*
X104354404Y-242834580D02*
X104306785Y-242882200D01*
X104306785Y-242882200D02*
X104211547Y-242929819D01*
X104211547Y-242929819D02*
X104021071Y-242929819D01*
X104021071Y-242929819D02*
X103925833Y-242882200D01*
X103925833Y-242882200D02*
X103878214Y-242834580D01*
X103878214Y-242834580D02*
X103830595Y-242739342D01*
X103830595Y-242739342D02*
X103830595Y-242501247D01*
X103830595Y-242501247D02*
X103878214Y-242406009D01*
X103878214Y-242406009D02*
X103925833Y-242358390D01*
X103925833Y-242358390D02*
X104021071Y-242310771D01*
X104021071Y-242310771D02*
X104211547Y-242310771D01*
X104211547Y-242310771D02*
X104306785Y-242358390D01*
X104306785Y-242358390D02*
X104354404Y-242406009D01*
X104354404Y-242406009D02*
X104402023Y-242501247D01*
X344474285Y-281029819D02*
X344474285Y-280029819D01*
X344474285Y-280029819D02*
X344236190Y-280029819D01*
X344236190Y-280029819D02*
X344093333Y-280077438D01*
X344093333Y-280077438D02*
X343998095Y-280172676D01*
X343998095Y-280172676D02*
X343950476Y-280267914D01*
X343950476Y-280267914D02*
X343902857Y-280458390D01*
X343902857Y-280458390D02*
X343902857Y-280601247D01*
X343902857Y-280601247D02*
X343950476Y-280791723D01*
X343950476Y-280791723D02*
X343998095Y-280886961D01*
X343998095Y-280886961D02*
X344093333Y-280982200D01*
X344093333Y-280982200D02*
X344236190Y-281029819D01*
X344236190Y-281029819D02*
X344474285Y-281029819D01*
X343045714Y-280029819D02*
X343236190Y-280029819D01*
X343236190Y-280029819D02*
X343331428Y-280077438D01*
X343331428Y-280077438D02*
X343379047Y-280125057D01*
X343379047Y-280125057D02*
X343474285Y-280267914D01*
X343474285Y-280267914D02*
X343521904Y-280458390D01*
X343521904Y-280458390D02*
X343521904Y-280839342D01*
X343521904Y-280839342D02*
X343474285Y-280934580D01*
X343474285Y-280934580D02*
X343426666Y-280982200D01*
X343426666Y-280982200D02*
X343331428Y-281029819D01*
X343331428Y-281029819D02*
X343140952Y-281029819D01*
X343140952Y-281029819D02*
X343045714Y-280982200D01*
X343045714Y-280982200D02*
X342998095Y-280934580D01*
X342998095Y-280934580D02*
X342950476Y-280839342D01*
X342950476Y-280839342D02*
X342950476Y-280601247D01*
X342950476Y-280601247D02*
X342998095Y-280506009D01*
X342998095Y-280506009D02*
X343045714Y-280458390D01*
X343045714Y-280458390D02*
X343140952Y-280410771D01*
X343140952Y-280410771D02*
X343331428Y-280410771D01*
X343331428Y-280410771D02*
X343426666Y-280458390D01*
X343426666Y-280458390D02*
X343474285Y-280506009D01*
X343474285Y-280506009D02*
X343521904Y-280601247D01*
X342093333Y-280363152D02*
X342093333Y-281029819D01*
X342331428Y-279982200D02*
X342569523Y-280696485D01*
X342569523Y-280696485D02*
X341950476Y-280696485D01*
X258506785Y-242929819D02*
X258506785Y-241929819D01*
X258506785Y-241929819D02*
X258268690Y-241929819D01*
X258268690Y-241929819D02*
X258125833Y-241977438D01*
X258125833Y-241977438D02*
X258030595Y-242072676D01*
X258030595Y-242072676D02*
X257982976Y-242167914D01*
X257982976Y-242167914D02*
X257935357Y-242358390D01*
X257935357Y-242358390D02*
X257935357Y-242501247D01*
X257935357Y-242501247D02*
X257982976Y-242691723D01*
X257982976Y-242691723D02*
X258030595Y-242786961D01*
X258030595Y-242786961D02*
X258125833Y-242882200D01*
X258125833Y-242882200D02*
X258268690Y-242929819D01*
X258268690Y-242929819D02*
X258506785Y-242929819D01*
X257554404Y-242025057D02*
X257506785Y-241977438D01*
X257506785Y-241977438D02*
X257411547Y-241929819D01*
X257411547Y-241929819D02*
X257173452Y-241929819D01*
X257173452Y-241929819D02*
X257078214Y-241977438D01*
X257078214Y-241977438D02*
X257030595Y-242025057D01*
X257030595Y-242025057D02*
X256982976Y-242120295D01*
X256982976Y-242120295D02*
X256982976Y-242215533D01*
X256982976Y-242215533D02*
X257030595Y-242358390D01*
X257030595Y-242358390D02*
X257602023Y-242929819D01*
X257602023Y-242929819D02*
X256982976Y-242929819D01*
X256125833Y-242263152D02*
X256125833Y-242929819D01*
X256363928Y-241882200D02*
X256602023Y-242596485D01*
X256602023Y-242596485D02*
X255982976Y-242596485D01*
X120394285Y-281029819D02*
X120394285Y-280029819D01*
X120394285Y-280029819D02*
X120156190Y-280029819D01*
X120156190Y-280029819D02*
X120013333Y-280077438D01*
X120013333Y-280077438D02*
X119918095Y-280172676D01*
X119918095Y-280172676D02*
X119870476Y-280267914D01*
X119870476Y-280267914D02*
X119822857Y-280458390D01*
X119822857Y-280458390D02*
X119822857Y-280601247D01*
X119822857Y-280601247D02*
X119870476Y-280791723D01*
X119870476Y-280791723D02*
X119918095Y-280886961D01*
X119918095Y-280886961D02*
X120013333Y-280982200D01*
X120013333Y-280982200D02*
X120156190Y-281029819D01*
X120156190Y-281029819D02*
X120394285Y-281029819D01*
X118965714Y-280363152D02*
X118965714Y-281029819D01*
X119203809Y-279982200D02*
X119441904Y-280696485D01*
X119441904Y-280696485D02*
X118822857Y-280696485D01*
X118489523Y-280125057D02*
X118441904Y-280077438D01*
X118441904Y-280077438D02*
X118346666Y-280029819D01*
X118346666Y-280029819D02*
X118108571Y-280029819D01*
X118108571Y-280029819D02*
X118013333Y-280077438D01*
X118013333Y-280077438D02*
X117965714Y-280125057D01*
X117965714Y-280125057D02*
X117918095Y-280220295D01*
X117918095Y-280220295D02*
X117918095Y-280315533D01*
X117918095Y-280315533D02*
X117965714Y-280458390D01*
X117965714Y-280458390D02*
X118537142Y-281029819D01*
X118537142Y-281029819D02*
X117918095Y-281029819D01*
X301589285Y-261979819D02*
X301589285Y-260979819D01*
X301589285Y-260979819D02*
X301351190Y-260979819D01*
X301351190Y-260979819D02*
X301208333Y-261027438D01*
X301208333Y-261027438D02*
X301113095Y-261122676D01*
X301113095Y-261122676D02*
X301065476Y-261217914D01*
X301065476Y-261217914D02*
X301017857Y-261408390D01*
X301017857Y-261408390D02*
X301017857Y-261551247D01*
X301017857Y-261551247D02*
X301065476Y-261741723D01*
X301065476Y-261741723D02*
X301113095Y-261836961D01*
X301113095Y-261836961D02*
X301208333Y-261932200D01*
X301208333Y-261932200D02*
X301351190Y-261979819D01*
X301351190Y-261979819D02*
X301589285Y-261979819D01*
X300113095Y-260979819D02*
X300589285Y-260979819D01*
X300589285Y-260979819D02*
X300636904Y-261456009D01*
X300636904Y-261456009D02*
X300589285Y-261408390D01*
X300589285Y-261408390D02*
X300494047Y-261360771D01*
X300494047Y-261360771D02*
X300255952Y-261360771D01*
X300255952Y-261360771D02*
X300160714Y-261408390D01*
X300160714Y-261408390D02*
X300113095Y-261456009D01*
X300113095Y-261456009D02*
X300065476Y-261551247D01*
X300065476Y-261551247D02*
X300065476Y-261789342D01*
X300065476Y-261789342D02*
X300113095Y-261884580D01*
X300113095Y-261884580D02*
X300160714Y-261932200D01*
X300160714Y-261932200D02*
X300255952Y-261979819D01*
X300255952Y-261979819D02*
X300494047Y-261979819D01*
X300494047Y-261979819D02*
X300589285Y-261932200D01*
X300589285Y-261932200D02*
X300636904Y-261884580D01*
X299684523Y-261075057D02*
X299636904Y-261027438D01*
X299636904Y-261027438D02*
X299541666Y-260979819D01*
X299541666Y-260979819D02*
X299303571Y-260979819D01*
X299303571Y-260979819D02*
X299208333Y-261027438D01*
X299208333Y-261027438D02*
X299160714Y-261075057D01*
X299160714Y-261075057D02*
X299113095Y-261170295D01*
X299113095Y-261170295D02*
X299113095Y-261265533D01*
X299113095Y-261265533D02*
X299160714Y-261408390D01*
X299160714Y-261408390D02*
X299732142Y-261979819D01*
X299732142Y-261979819D02*
X299113095Y-261979819D01*
X324992797Y-223879819D02*
X324992797Y-222879819D01*
X324992797Y-222879819D02*
X324754702Y-222879819D01*
X324754702Y-222879819D02*
X324611845Y-222927438D01*
X324611845Y-222927438D02*
X324516607Y-223022676D01*
X324516607Y-223022676D02*
X324468988Y-223117914D01*
X324468988Y-223117914D02*
X324421369Y-223308390D01*
X324421369Y-223308390D02*
X324421369Y-223451247D01*
X324421369Y-223451247D02*
X324468988Y-223641723D01*
X324468988Y-223641723D02*
X324516607Y-223736961D01*
X324516607Y-223736961D02*
X324611845Y-223832200D01*
X324611845Y-223832200D02*
X324754702Y-223879819D01*
X324754702Y-223879819D02*
X324992797Y-223879819D01*
X323468988Y-223879819D02*
X324040416Y-223879819D01*
X323754702Y-223879819D02*
X323754702Y-222879819D01*
X323754702Y-222879819D02*
X323849940Y-223022676D01*
X323849940Y-223022676D02*
X323945178Y-223117914D01*
X323945178Y-223117914D02*
X324040416Y-223165533D01*
X322611845Y-223213152D02*
X322611845Y-223879819D01*
X322849940Y-222832200D02*
X323088035Y-223546485D01*
X323088035Y-223546485D02*
X322468988Y-223546485D01*
X249181785Y-223879819D02*
X249181785Y-222879819D01*
X249181785Y-222879819D02*
X248943690Y-222879819D01*
X248943690Y-222879819D02*
X248800833Y-222927438D01*
X248800833Y-222927438D02*
X248705595Y-223022676D01*
X248705595Y-223022676D02*
X248657976Y-223117914D01*
X248657976Y-223117914D02*
X248610357Y-223308390D01*
X248610357Y-223308390D02*
X248610357Y-223451247D01*
X248610357Y-223451247D02*
X248657976Y-223641723D01*
X248657976Y-223641723D02*
X248705595Y-223736961D01*
X248705595Y-223736961D02*
X248800833Y-223832200D01*
X248800833Y-223832200D02*
X248943690Y-223879819D01*
X248943690Y-223879819D02*
X249181785Y-223879819D01*
X247657976Y-223879819D02*
X248229404Y-223879819D01*
X247943690Y-223879819D02*
X247943690Y-222879819D01*
X247943690Y-222879819D02*
X248038928Y-223022676D01*
X248038928Y-223022676D02*
X248134166Y-223117914D01*
X248134166Y-223117914D02*
X248229404Y-223165533D01*
X246705595Y-223879819D02*
X247277023Y-223879819D01*
X246991309Y-223879819D02*
X246991309Y-222879819D01*
X246991309Y-222879819D02*
X247086547Y-223022676D01*
X247086547Y-223022676D02*
X247181785Y-223117914D01*
X247181785Y-223117914D02*
X247277023Y-223165533D01*
X234914285Y-281029819D02*
X234914285Y-280029819D01*
X234914285Y-280029819D02*
X234676190Y-280029819D01*
X234676190Y-280029819D02*
X234533333Y-280077438D01*
X234533333Y-280077438D02*
X234438095Y-280172676D01*
X234438095Y-280172676D02*
X234390476Y-280267914D01*
X234390476Y-280267914D02*
X234342857Y-280458390D01*
X234342857Y-280458390D02*
X234342857Y-280601247D01*
X234342857Y-280601247D02*
X234390476Y-280791723D01*
X234390476Y-280791723D02*
X234438095Y-280886961D01*
X234438095Y-280886961D02*
X234533333Y-280982200D01*
X234533333Y-280982200D02*
X234676190Y-281029819D01*
X234676190Y-281029819D02*
X234914285Y-281029819D01*
X233485714Y-280363152D02*
X233485714Y-281029819D01*
X233723809Y-279982200D02*
X233961904Y-280696485D01*
X233961904Y-280696485D02*
X233342857Y-280696485D01*
X232819047Y-280458390D02*
X232914285Y-280410771D01*
X232914285Y-280410771D02*
X232961904Y-280363152D01*
X232961904Y-280363152D02*
X233009523Y-280267914D01*
X233009523Y-280267914D02*
X233009523Y-280220295D01*
X233009523Y-280220295D02*
X232961904Y-280125057D01*
X232961904Y-280125057D02*
X232914285Y-280077438D01*
X232914285Y-280077438D02*
X232819047Y-280029819D01*
X232819047Y-280029819D02*
X232628571Y-280029819D01*
X232628571Y-280029819D02*
X232533333Y-280077438D01*
X232533333Y-280077438D02*
X232485714Y-280125057D01*
X232485714Y-280125057D02*
X232438095Y-280220295D01*
X232438095Y-280220295D02*
X232438095Y-280267914D01*
X232438095Y-280267914D02*
X232485714Y-280363152D01*
X232485714Y-280363152D02*
X232533333Y-280410771D01*
X232533333Y-280410771D02*
X232628571Y-280458390D01*
X232628571Y-280458390D02*
X232819047Y-280458390D01*
X232819047Y-280458390D02*
X232914285Y-280506009D01*
X232914285Y-280506009D02*
X232961904Y-280553628D01*
X232961904Y-280553628D02*
X233009523Y-280648866D01*
X233009523Y-280648866D02*
X233009523Y-280839342D01*
X233009523Y-280839342D02*
X232961904Y-280934580D01*
X232961904Y-280934580D02*
X232914285Y-280982200D01*
X232914285Y-280982200D02*
X232819047Y-281029819D01*
X232819047Y-281029819D02*
X232628571Y-281029819D01*
X232628571Y-281029819D02*
X232533333Y-280982200D01*
X232533333Y-280982200D02*
X232485714Y-280934580D01*
X232485714Y-280934580D02*
X232438095Y-280839342D01*
X232438095Y-280839342D02*
X232438095Y-280648866D01*
X232438095Y-280648866D02*
X232485714Y-280553628D01*
X232485714Y-280553628D02*
X232533333Y-280506009D01*
X232533333Y-280506009D02*
X232628571Y-280458390D01*
X130139285Y-261979819D02*
X130139285Y-260979819D01*
X130139285Y-260979819D02*
X129901190Y-260979819D01*
X129901190Y-260979819D02*
X129758333Y-261027438D01*
X129758333Y-261027438D02*
X129663095Y-261122676D01*
X129663095Y-261122676D02*
X129615476Y-261217914D01*
X129615476Y-261217914D02*
X129567857Y-261408390D01*
X129567857Y-261408390D02*
X129567857Y-261551247D01*
X129567857Y-261551247D02*
X129615476Y-261741723D01*
X129615476Y-261741723D02*
X129663095Y-261836961D01*
X129663095Y-261836961D02*
X129758333Y-261932200D01*
X129758333Y-261932200D02*
X129901190Y-261979819D01*
X129901190Y-261979819D02*
X130139285Y-261979819D01*
X129234523Y-260979819D02*
X128615476Y-260979819D01*
X128615476Y-260979819D02*
X128948809Y-261360771D01*
X128948809Y-261360771D02*
X128805952Y-261360771D01*
X128805952Y-261360771D02*
X128710714Y-261408390D01*
X128710714Y-261408390D02*
X128663095Y-261456009D01*
X128663095Y-261456009D02*
X128615476Y-261551247D01*
X128615476Y-261551247D02*
X128615476Y-261789342D01*
X128615476Y-261789342D02*
X128663095Y-261884580D01*
X128663095Y-261884580D02*
X128710714Y-261932200D01*
X128710714Y-261932200D02*
X128805952Y-261979819D01*
X128805952Y-261979819D02*
X129091666Y-261979819D01*
X129091666Y-261979819D02*
X129186904Y-261932200D01*
X129186904Y-261932200D02*
X129234523Y-261884580D01*
X127996428Y-260979819D02*
X127901190Y-260979819D01*
X127901190Y-260979819D02*
X127805952Y-261027438D01*
X127805952Y-261027438D02*
X127758333Y-261075057D01*
X127758333Y-261075057D02*
X127710714Y-261170295D01*
X127710714Y-261170295D02*
X127663095Y-261360771D01*
X127663095Y-261360771D02*
X127663095Y-261598866D01*
X127663095Y-261598866D02*
X127710714Y-261789342D01*
X127710714Y-261789342D02*
X127758333Y-261884580D01*
X127758333Y-261884580D02*
X127805952Y-261932200D01*
X127805952Y-261932200D02*
X127901190Y-261979819D01*
X127901190Y-261979819D02*
X127996428Y-261979819D01*
X127996428Y-261979819D02*
X128091666Y-261932200D01*
X128091666Y-261932200D02*
X128139285Y-261884580D01*
X128139285Y-261884580D02*
X128186904Y-261789342D01*
X128186904Y-261789342D02*
X128234523Y-261598866D01*
X128234523Y-261598866D02*
X128234523Y-261360771D01*
X128234523Y-261360771D02*
X128186904Y-261170295D01*
X128186904Y-261170295D02*
X128139285Y-261075057D01*
X128139285Y-261075057D02*
X128091666Y-261027438D01*
X128091666Y-261027438D02*
X127996428Y-260979819D01*
X153455594Y-223879819D02*
X153455594Y-222879819D01*
X153455594Y-222879819D02*
X153217499Y-222879819D01*
X153217499Y-222879819D02*
X153074642Y-222927438D01*
X153074642Y-222927438D02*
X152979404Y-223022676D01*
X152979404Y-223022676D02*
X152931785Y-223117914D01*
X152931785Y-223117914D02*
X152884166Y-223308390D01*
X152884166Y-223308390D02*
X152884166Y-223451247D01*
X152884166Y-223451247D02*
X152931785Y-223641723D01*
X152931785Y-223641723D02*
X152979404Y-223736961D01*
X152979404Y-223736961D02*
X153074642Y-223832200D01*
X153074642Y-223832200D02*
X153217499Y-223879819D01*
X153217499Y-223879819D02*
X153455594Y-223879819D01*
X152027023Y-222879819D02*
X152217499Y-222879819D01*
X152217499Y-222879819D02*
X152312737Y-222927438D01*
X152312737Y-222927438D02*
X152360356Y-222975057D01*
X152360356Y-222975057D02*
X152455594Y-223117914D01*
X152455594Y-223117914D02*
X152503213Y-223308390D01*
X152503213Y-223308390D02*
X152503213Y-223689342D01*
X152503213Y-223689342D02*
X152455594Y-223784580D01*
X152455594Y-223784580D02*
X152407975Y-223832200D01*
X152407975Y-223832200D02*
X152312737Y-223879819D01*
X152312737Y-223879819D02*
X152122261Y-223879819D01*
X152122261Y-223879819D02*
X152027023Y-223832200D01*
X152027023Y-223832200D02*
X151979404Y-223784580D01*
X151979404Y-223784580D02*
X151931785Y-223689342D01*
X151931785Y-223689342D02*
X151931785Y-223451247D01*
X151931785Y-223451247D02*
X151979404Y-223356009D01*
X151979404Y-223356009D02*
X152027023Y-223308390D01*
X152027023Y-223308390D02*
X152122261Y-223260771D01*
X152122261Y-223260771D02*
X152312737Y-223260771D01*
X152312737Y-223260771D02*
X152407975Y-223308390D01*
X152407975Y-223308390D02*
X152455594Y-223356009D01*
X152455594Y-223356009D02*
X152503213Y-223451247D01*
X163539285Y-242929819D02*
X163539285Y-241929819D01*
X163539285Y-241929819D02*
X163301190Y-241929819D01*
X163301190Y-241929819D02*
X163158333Y-241977438D01*
X163158333Y-241977438D02*
X163063095Y-242072676D01*
X163063095Y-242072676D02*
X163015476Y-242167914D01*
X163015476Y-242167914D02*
X162967857Y-242358390D01*
X162967857Y-242358390D02*
X162967857Y-242501247D01*
X162967857Y-242501247D02*
X163015476Y-242691723D01*
X163015476Y-242691723D02*
X163063095Y-242786961D01*
X163063095Y-242786961D02*
X163158333Y-242882200D01*
X163158333Y-242882200D02*
X163301190Y-242929819D01*
X163301190Y-242929819D02*
X163539285Y-242929819D01*
X162015476Y-242929819D02*
X162586904Y-242929819D01*
X162301190Y-242929819D02*
X162301190Y-241929819D01*
X162301190Y-241929819D02*
X162396428Y-242072676D01*
X162396428Y-242072676D02*
X162491666Y-242167914D01*
X162491666Y-242167914D02*
X162586904Y-242215533D01*
X161539285Y-242929819D02*
X161348809Y-242929819D01*
X161348809Y-242929819D02*
X161253571Y-242882200D01*
X161253571Y-242882200D02*
X161205952Y-242834580D01*
X161205952Y-242834580D02*
X161110714Y-242691723D01*
X161110714Y-242691723D02*
X161063095Y-242501247D01*
X161063095Y-242501247D02*
X161063095Y-242120295D01*
X161063095Y-242120295D02*
X161110714Y-242025057D01*
X161110714Y-242025057D02*
X161158333Y-241977438D01*
X161158333Y-241977438D02*
X161253571Y-241929819D01*
X161253571Y-241929819D02*
X161444047Y-241929819D01*
X161444047Y-241929819D02*
X161539285Y-241977438D01*
X161539285Y-241977438D02*
X161586904Y-242025057D01*
X161586904Y-242025057D02*
X161634523Y-242120295D01*
X161634523Y-242120295D02*
X161634523Y-242358390D01*
X161634523Y-242358390D02*
X161586904Y-242453628D01*
X161586904Y-242453628D02*
X161539285Y-242501247D01*
X161539285Y-242501247D02*
X161444047Y-242548866D01*
X161444047Y-242548866D02*
X161253571Y-242548866D01*
X161253571Y-242548866D02*
X161158333Y-242501247D01*
X161158333Y-242501247D02*
X161110714Y-242453628D01*
X161110714Y-242453628D02*
X161063095Y-242358390D01*
X196594285Y-281029819D02*
X196594285Y-280029819D01*
X196594285Y-280029819D02*
X196356190Y-280029819D01*
X196356190Y-280029819D02*
X196213333Y-280077438D01*
X196213333Y-280077438D02*
X196118095Y-280172676D01*
X196118095Y-280172676D02*
X196070476Y-280267914D01*
X196070476Y-280267914D02*
X196022857Y-280458390D01*
X196022857Y-280458390D02*
X196022857Y-280601247D01*
X196022857Y-280601247D02*
X196070476Y-280791723D01*
X196070476Y-280791723D02*
X196118095Y-280886961D01*
X196118095Y-280886961D02*
X196213333Y-280982200D01*
X196213333Y-280982200D02*
X196356190Y-281029819D01*
X196356190Y-281029819D02*
X196594285Y-281029819D01*
X195165714Y-280363152D02*
X195165714Y-281029819D01*
X195403809Y-279982200D02*
X195641904Y-280696485D01*
X195641904Y-280696485D02*
X195022857Y-280696485D01*
X194213333Y-280029819D02*
X194403809Y-280029819D01*
X194403809Y-280029819D02*
X194499047Y-280077438D01*
X194499047Y-280077438D02*
X194546666Y-280125057D01*
X194546666Y-280125057D02*
X194641904Y-280267914D01*
X194641904Y-280267914D02*
X194689523Y-280458390D01*
X194689523Y-280458390D02*
X194689523Y-280839342D01*
X194689523Y-280839342D02*
X194641904Y-280934580D01*
X194641904Y-280934580D02*
X194594285Y-280982200D01*
X194594285Y-280982200D02*
X194499047Y-281029819D01*
X194499047Y-281029819D02*
X194308571Y-281029819D01*
X194308571Y-281029819D02*
X194213333Y-280982200D01*
X194213333Y-280982200D02*
X194165714Y-280934580D01*
X194165714Y-280934580D02*
X194118095Y-280839342D01*
X194118095Y-280839342D02*
X194118095Y-280601247D01*
X194118095Y-280601247D02*
X194165714Y-280506009D01*
X194165714Y-280506009D02*
X194213333Y-280458390D01*
X194213333Y-280458390D02*
X194308571Y-280410771D01*
X194308571Y-280410771D02*
X194499047Y-280410771D01*
X194499047Y-280410771D02*
X194594285Y-280458390D01*
X194594285Y-280458390D02*
X194641904Y-280506009D01*
X194641904Y-280506009D02*
X194689523Y-280601247D01*
X172870356Y-223879819D02*
X172870356Y-222879819D01*
X172870356Y-222879819D02*
X172632261Y-222879819D01*
X172632261Y-222879819D02*
X172489404Y-222927438D01*
X172489404Y-222927438D02*
X172394166Y-223022676D01*
X172394166Y-223022676D02*
X172346547Y-223117914D01*
X172346547Y-223117914D02*
X172298928Y-223308390D01*
X172298928Y-223308390D02*
X172298928Y-223451247D01*
X172298928Y-223451247D02*
X172346547Y-223641723D01*
X172346547Y-223641723D02*
X172394166Y-223736961D01*
X172394166Y-223736961D02*
X172489404Y-223832200D01*
X172489404Y-223832200D02*
X172632261Y-223879819D01*
X172632261Y-223879819D02*
X172870356Y-223879819D01*
X171965594Y-222879819D02*
X171298928Y-222879819D01*
X171298928Y-222879819D02*
X171727499Y-223879819D01*
X268094285Y-300079819D02*
X268094285Y-299079819D01*
X268094285Y-299079819D02*
X267856190Y-299079819D01*
X267856190Y-299079819D02*
X267713333Y-299127438D01*
X267713333Y-299127438D02*
X267618095Y-299222676D01*
X267618095Y-299222676D02*
X267570476Y-299317914D01*
X267570476Y-299317914D02*
X267522857Y-299508390D01*
X267522857Y-299508390D02*
X267522857Y-299651247D01*
X267522857Y-299651247D02*
X267570476Y-299841723D01*
X267570476Y-299841723D02*
X267618095Y-299936961D01*
X267618095Y-299936961D02*
X267713333Y-300032200D01*
X267713333Y-300032200D02*
X267856190Y-300079819D01*
X267856190Y-300079819D02*
X268094285Y-300079819D01*
X266618095Y-299079819D02*
X267094285Y-299079819D01*
X267094285Y-299079819D02*
X267141904Y-299556009D01*
X267141904Y-299556009D02*
X267094285Y-299508390D01*
X267094285Y-299508390D02*
X266999047Y-299460771D01*
X266999047Y-299460771D02*
X266760952Y-299460771D01*
X266760952Y-299460771D02*
X266665714Y-299508390D01*
X266665714Y-299508390D02*
X266618095Y-299556009D01*
X266618095Y-299556009D02*
X266570476Y-299651247D01*
X266570476Y-299651247D02*
X266570476Y-299889342D01*
X266570476Y-299889342D02*
X266618095Y-299984580D01*
X266618095Y-299984580D02*
X266665714Y-300032200D01*
X266665714Y-300032200D02*
X266760952Y-300079819D01*
X266760952Y-300079819D02*
X266999047Y-300079819D01*
X266999047Y-300079819D02*
X267094285Y-300032200D01*
X267094285Y-300032200D02*
X267141904Y-299984580D01*
X265999047Y-299508390D02*
X266094285Y-299460771D01*
X266094285Y-299460771D02*
X266141904Y-299413152D01*
X266141904Y-299413152D02*
X266189523Y-299317914D01*
X266189523Y-299317914D02*
X266189523Y-299270295D01*
X266189523Y-299270295D02*
X266141904Y-299175057D01*
X266141904Y-299175057D02*
X266094285Y-299127438D01*
X266094285Y-299127438D02*
X265999047Y-299079819D01*
X265999047Y-299079819D02*
X265808571Y-299079819D01*
X265808571Y-299079819D02*
X265713333Y-299127438D01*
X265713333Y-299127438D02*
X265665714Y-299175057D01*
X265665714Y-299175057D02*
X265618095Y-299270295D01*
X265618095Y-299270295D02*
X265618095Y-299317914D01*
X265618095Y-299317914D02*
X265665714Y-299413152D01*
X265665714Y-299413152D02*
X265713333Y-299460771D01*
X265713333Y-299460771D02*
X265808571Y-299508390D01*
X265808571Y-299508390D02*
X265999047Y-299508390D01*
X265999047Y-299508390D02*
X266094285Y-299556009D01*
X266094285Y-299556009D02*
X266141904Y-299603628D01*
X266141904Y-299603628D02*
X266189523Y-299698866D01*
X266189523Y-299698866D02*
X266189523Y-299889342D01*
X266189523Y-299889342D02*
X266141904Y-299984580D01*
X266141904Y-299984580D02*
X266094285Y-300032200D01*
X266094285Y-300032200D02*
X265999047Y-300079819D01*
X265999047Y-300079819D02*
X265808571Y-300079819D01*
X265808571Y-300079819D02*
X265713333Y-300032200D01*
X265713333Y-300032200D02*
X265665714Y-299984580D01*
X265665714Y-299984580D02*
X265618095Y-299889342D01*
X265618095Y-299889342D02*
X265618095Y-299698866D01*
X265618095Y-299698866D02*
X265665714Y-299603628D01*
X265665714Y-299603628D02*
X265713333Y-299556009D01*
X265713333Y-299556009D02*
X265808571Y-299508390D01*
X125419285Y-300079819D02*
X125419285Y-299079819D01*
X125419285Y-299079819D02*
X125181190Y-299079819D01*
X125181190Y-299079819D02*
X125038333Y-299127438D01*
X125038333Y-299127438D02*
X124943095Y-299222676D01*
X124943095Y-299222676D02*
X124895476Y-299317914D01*
X124895476Y-299317914D02*
X124847857Y-299508390D01*
X124847857Y-299508390D02*
X124847857Y-299651247D01*
X124847857Y-299651247D02*
X124895476Y-299841723D01*
X124895476Y-299841723D02*
X124943095Y-299936961D01*
X124943095Y-299936961D02*
X125038333Y-300032200D01*
X125038333Y-300032200D02*
X125181190Y-300079819D01*
X125181190Y-300079819D02*
X125419285Y-300079819D01*
X123943095Y-299079819D02*
X124419285Y-299079819D01*
X124419285Y-299079819D02*
X124466904Y-299556009D01*
X124466904Y-299556009D02*
X124419285Y-299508390D01*
X124419285Y-299508390D02*
X124324047Y-299460771D01*
X124324047Y-299460771D02*
X124085952Y-299460771D01*
X124085952Y-299460771D02*
X123990714Y-299508390D01*
X123990714Y-299508390D02*
X123943095Y-299556009D01*
X123943095Y-299556009D02*
X123895476Y-299651247D01*
X123895476Y-299651247D02*
X123895476Y-299889342D01*
X123895476Y-299889342D02*
X123943095Y-299984580D01*
X123943095Y-299984580D02*
X123990714Y-300032200D01*
X123990714Y-300032200D02*
X124085952Y-300079819D01*
X124085952Y-300079819D02*
X124324047Y-300079819D01*
X124324047Y-300079819D02*
X124419285Y-300032200D01*
X124419285Y-300032200D02*
X124466904Y-299984580D01*
X123038333Y-299079819D02*
X123228809Y-299079819D01*
X123228809Y-299079819D02*
X123324047Y-299127438D01*
X123324047Y-299127438D02*
X123371666Y-299175057D01*
X123371666Y-299175057D02*
X123466904Y-299317914D01*
X123466904Y-299317914D02*
X123514523Y-299508390D01*
X123514523Y-299508390D02*
X123514523Y-299889342D01*
X123514523Y-299889342D02*
X123466904Y-299984580D01*
X123466904Y-299984580D02*
X123419285Y-300032200D01*
X123419285Y-300032200D02*
X123324047Y-300079819D01*
X123324047Y-300079819D02*
X123133571Y-300079819D01*
X123133571Y-300079819D02*
X123038333Y-300032200D01*
X123038333Y-300032200D02*
X122990714Y-299984580D01*
X122990714Y-299984580D02*
X122943095Y-299889342D01*
X122943095Y-299889342D02*
X122943095Y-299651247D01*
X122943095Y-299651247D02*
X122990714Y-299556009D01*
X122990714Y-299556009D02*
X123038333Y-299508390D01*
X123038333Y-299508390D02*
X123133571Y-299460771D01*
X123133571Y-299460771D02*
X123324047Y-299460771D01*
X123324047Y-299460771D02*
X123419285Y-299508390D01*
X123419285Y-299508390D02*
X123466904Y-299556009D01*
X123466904Y-299556009D02*
X123514523Y-299651247D01*
X206401785Y-261979819D02*
X206401785Y-260979819D01*
X206401785Y-260979819D02*
X206163690Y-260979819D01*
X206163690Y-260979819D02*
X206020833Y-261027438D01*
X206020833Y-261027438D02*
X205925595Y-261122676D01*
X205925595Y-261122676D02*
X205877976Y-261217914D01*
X205877976Y-261217914D02*
X205830357Y-261408390D01*
X205830357Y-261408390D02*
X205830357Y-261551247D01*
X205830357Y-261551247D02*
X205877976Y-261741723D01*
X205877976Y-261741723D02*
X205925595Y-261836961D01*
X205925595Y-261836961D02*
X206020833Y-261932200D01*
X206020833Y-261932200D02*
X206163690Y-261979819D01*
X206163690Y-261979819D02*
X206401785Y-261979819D01*
X205497023Y-260979819D02*
X204877976Y-260979819D01*
X204877976Y-260979819D02*
X205211309Y-261360771D01*
X205211309Y-261360771D02*
X205068452Y-261360771D01*
X205068452Y-261360771D02*
X204973214Y-261408390D01*
X204973214Y-261408390D02*
X204925595Y-261456009D01*
X204925595Y-261456009D02*
X204877976Y-261551247D01*
X204877976Y-261551247D02*
X204877976Y-261789342D01*
X204877976Y-261789342D02*
X204925595Y-261884580D01*
X204925595Y-261884580D02*
X204973214Y-261932200D01*
X204973214Y-261932200D02*
X205068452Y-261979819D01*
X205068452Y-261979819D02*
X205354166Y-261979819D01*
X205354166Y-261979819D02*
X205449404Y-261932200D01*
X205449404Y-261932200D02*
X205497023Y-261884580D01*
X204020833Y-261313152D02*
X204020833Y-261979819D01*
X204258928Y-260932200D02*
X204497023Y-261646485D01*
X204497023Y-261646485D02*
X203877976Y-261646485D01*
X215926785Y-281029819D02*
X215926785Y-280029819D01*
X215926785Y-280029819D02*
X215688690Y-280029819D01*
X215688690Y-280029819D02*
X215545833Y-280077438D01*
X215545833Y-280077438D02*
X215450595Y-280172676D01*
X215450595Y-280172676D02*
X215402976Y-280267914D01*
X215402976Y-280267914D02*
X215355357Y-280458390D01*
X215355357Y-280458390D02*
X215355357Y-280601247D01*
X215355357Y-280601247D02*
X215402976Y-280791723D01*
X215402976Y-280791723D02*
X215450595Y-280886961D01*
X215450595Y-280886961D02*
X215545833Y-280982200D01*
X215545833Y-280982200D02*
X215688690Y-281029819D01*
X215688690Y-281029819D02*
X215926785Y-281029819D01*
X214498214Y-280363152D02*
X214498214Y-281029819D01*
X214736309Y-279982200D02*
X214974404Y-280696485D01*
X214974404Y-280696485D02*
X214355357Y-280696485D01*
X214069642Y-280029819D02*
X213402976Y-280029819D01*
X213402976Y-280029819D02*
X213831547Y-281029819D01*
X230194285Y-223879819D02*
X230194285Y-222879819D01*
X230194285Y-222879819D02*
X229956190Y-222879819D01*
X229956190Y-222879819D02*
X229813333Y-222927438D01*
X229813333Y-222927438D02*
X229718095Y-223022676D01*
X229718095Y-223022676D02*
X229670476Y-223117914D01*
X229670476Y-223117914D02*
X229622857Y-223308390D01*
X229622857Y-223308390D02*
X229622857Y-223451247D01*
X229622857Y-223451247D02*
X229670476Y-223641723D01*
X229670476Y-223641723D02*
X229718095Y-223736961D01*
X229718095Y-223736961D02*
X229813333Y-223832200D01*
X229813333Y-223832200D02*
X229956190Y-223879819D01*
X229956190Y-223879819D02*
X230194285Y-223879819D01*
X228670476Y-223879819D02*
X229241904Y-223879819D01*
X228956190Y-223879819D02*
X228956190Y-222879819D01*
X228956190Y-222879819D02*
X229051428Y-223022676D01*
X229051428Y-223022676D02*
X229146666Y-223117914D01*
X229146666Y-223117914D02*
X229241904Y-223165533D01*
X228051428Y-222879819D02*
X227956190Y-222879819D01*
X227956190Y-222879819D02*
X227860952Y-222927438D01*
X227860952Y-222927438D02*
X227813333Y-222975057D01*
X227813333Y-222975057D02*
X227765714Y-223070295D01*
X227765714Y-223070295D02*
X227718095Y-223260771D01*
X227718095Y-223260771D02*
X227718095Y-223498866D01*
X227718095Y-223498866D02*
X227765714Y-223689342D01*
X227765714Y-223689342D02*
X227813333Y-223784580D01*
X227813333Y-223784580D02*
X227860952Y-223832200D01*
X227860952Y-223832200D02*
X227956190Y-223879819D01*
X227956190Y-223879819D02*
X228051428Y-223879819D01*
X228051428Y-223879819D02*
X228146666Y-223832200D01*
X228146666Y-223832200D02*
X228194285Y-223784580D01*
X228194285Y-223784580D02*
X228241904Y-223689342D01*
X228241904Y-223689342D02*
X228289523Y-223498866D01*
X228289523Y-223498866D02*
X228289523Y-223260771D01*
X228289523Y-223260771D02*
X228241904Y-223070295D01*
X228241904Y-223070295D02*
X228194285Y-222975057D01*
X228194285Y-222975057D02*
X228146666Y-222927438D01*
X228146666Y-222927438D02*
X228051428Y-222879819D01*
X263551785Y-261979819D02*
X263551785Y-260979819D01*
X263551785Y-260979819D02*
X263313690Y-260979819D01*
X263313690Y-260979819D02*
X263170833Y-261027438D01*
X263170833Y-261027438D02*
X263075595Y-261122676D01*
X263075595Y-261122676D02*
X263027976Y-261217914D01*
X263027976Y-261217914D02*
X262980357Y-261408390D01*
X262980357Y-261408390D02*
X262980357Y-261551247D01*
X262980357Y-261551247D02*
X263027976Y-261741723D01*
X263027976Y-261741723D02*
X263075595Y-261836961D01*
X263075595Y-261836961D02*
X263170833Y-261932200D01*
X263170833Y-261932200D02*
X263313690Y-261979819D01*
X263313690Y-261979819D02*
X263551785Y-261979819D01*
X262647023Y-260979819D02*
X262027976Y-260979819D01*
X262027976Y-260979819D02*
X262361309Y-261360771D01*
X262361309Y-261360771D02*
X262218452Y-261360771D01*
X262218452Y-261360771D02*
X262123214Y-261408390D01*
X262123214Y-261408390D02*
X262075595Y-261456009D01*
X262075595Y-261456009D02*
X262027976Y-261551247D01*
X262027976Y-261551247D02*
X262027976Y-261789342D01*
X262027976Y-261789342D02*
X262075595Y-261884580D01*
X262075595Y-261884580D02*
X262123214Y-261932200D01*
X262123214Y-261932200D02*
X262218452Y-261979819D01*
X262218452Y-261979819D02*
X262504166Y-261979819D01*
X262504166Y-261979819D02*
X262599404Y-261932200D01*
X262599404Y-261932200D02*
X262647023Y-261884580D01*
X261694642Y-260979819D02*
X261027976Y-260979819D01*
X261027976Y-260979819D02*
X261456547Y-261979819D01*
X77751785Y-300079819D02*
X77751785Y-299079819D01*
X77751785Y-299079819D02*
X77513690Y-299079819D01*
X77513690Y-299079819D02*
X77370833Y-299127438D01*
X77370833Y-299127438D02*
X77275595Y-299222676D01*
X77275595Y-299222676D02*
X77227976Y-299317914D01*
X77227976Y-299317914D02*
X77180357Y-299508390D01*
X77180357Y-299508390D02*
X77180357Y-299651247D01*
X77180357Y-299651247D02*
X77227976Y-299841723D01*
X77227976Y-299841723D02*
X77275595Y-299936961D01*
X77275595Y-299936961D02*
X77370833Y-300032200D01*
X77370833Y-300032200D02*
X77513690Y-300079819D01*
X77513690Y-300079819D02*
X77751785Y-300079819D01*
X76275595Y-299079819D02*
X76751785Y-299079819D01*
X76751785Y-299079819D02*
X76799404Y-299556009D01*
X76799404Y-299556009D02*
X76751785Y-299508390D01*
X76751785Y-299508390D02*
X76656547Y-299460771D01*
X76656547Y-299460771D02*
X76418452Y-299460771D01*
X76418452Y-299460771D02*
X76323214Y-299508390D01*
X76323214Y-299508390D02*
X76275595Y-299556009D01*
X76275595Y-299556009D02*
X76227976Y-299651247D01*
X76227976Y-299651247D02*
X76227976Y-299889342D01*
X76227976Y-299889342D02*
X76275595Y-299984580D01*
X76275595Y-299984580D02*
X76323214Y-300032200D01*
X76323214Y-300032200D02*
X76418452Y-300079819D01*
X76418452Y-300079819D02*
X76656547Y-300079819D01*
X76656547Y-300079819D02*
X76751785Y-300032200D01*
X76751785Y-300032200D02*
X76799404Y-299984580D01*
X75370833Y-299413152D02*
X75370833Y-300079819D01*
X75608928Y-299032200D02*
X75847023Y-299746485D01*
X75847023Y-299746485D02*
X75227976Y-299746485D01*
X177606785Y-281029819D02*
X177606785Y-280029819D01*
X177606785Y-280029819D02*
X177368690Y-280029819D01*
X177368690Y-280029819D02*
X177225833Y-280077438D01*
X177225833Y-280077438D02*
X177130595Y-280172676D01*
X177130595Y-280172676D02*
X177082976Y-280267914D01*
X177082976Y-280267914D02*
X177035357Y-280458390D01*
X177035357Y-280458390D02*
X177035357Y-280601247D01*
X177035357Y-280601247D02*
X177082976Y-280791723D01*
X177082976Y-280791723D02*
X177130595Y-280886961D01*
X177130595Y-280886961D02*
X177225833Y-280982200D01*
X177225833Y-280982200D02*
X177368690Y-281029819D01*
X177368690Y-281029819D02*
X177606785Y-281029819D01*
X176178214Y-280363152D02*
X176178214Y-281029819D01*
X176416309Y-279982200D02*
X176654404Y-280696485D01*
X176654404Y-280696485D02*
X176035357Y-280696485D01*
X175178214Y-280029819D02*
X175654404Y-280029819D01*
X175654404Y-280029819D02*
X175702023Y-280506009D01*
X175702023Y-280506009D02*
X175654404Y-280458390D01*
X175654404Y-280458390D02*
X175559166Y-280410771D01*
X175559166Y-280410771D02*
X175321071Y-280410771D01*
X175321071Y-280410771D02*
X175225833Y-280458390D01*
X175225833Y-280458390D02*
X175178214Y-280506009D01*
X175178214Y-280506009D02*
X175130595Y-280601247D01*
X175130595Y-280601247D02*
X175130595Y-280839342D01*
X175130595Y-280839342D02*
X175178214Y-280934580D01*
X175178214Y-280934580D02*
X175225833Y-280982200D01*
X175225833Y-280982200D02*
X175321071Y-281029819D01*
X175321071Y-281029819D02*
X175559166Y-281029819D01*
X175559166Y-281029819D02*
X175654404Y-280982200D01*
X175654404Y-280982200D02*
X175702023Y-280934580D01*
X315836785Y-242929819D02*
X315836785Y-241929819D01*
X315836785Y-241929819D02*
X315598690Y-241929819D01*
X315598690Y-241929819D02*
X315455833Y-241977438D01*
X315455833Y-241977438D02*
X315360595Y-242072676D01*
X315360595Y-242072676D02*
X315312976Y-242167914D01*
X315312976Y-242167914D02*
X315265357Y-242358390D01*
X315265357Y-242358390D02*
X315265357Y-242501247D01*
X315265357Y-242501247D02*
X315312976Y-242691723D01*
X315312976Y-242691723D02*
X315360595Y-242786961D01*
X315360595Y-242786961D02*
X315455833Y-242882200D01*
X315455833Y-242882200D02*
X315598690Y-242929819D01*
X315598690Y-242929819D02*
X315836785Y-242929819D01*
X314408214Y-242263152D02*
X314408214Y-242929819D01*
X314646309Y-241882200D02*
X314884404Y-242596485D01*
X314884404Y-242596485D02*
X314265357Y-242596485D01*
X313693928Y-241929819D02*
X313598690Y-241929819D01*
X313598690Y-241929819D02*
X313503452Y-241977438D01*
X313503452Y-241977438D02*
X313455833Y-242025057D01*
X313455833Y-242025057D02*
X313408214Y-242120295D01*
X313408214Y-242120295D02*
X313360595Y-242310771D01*
X313360595Y-242310771D02*
X313360595Y-242548866D01*
X313360595Y-242548866D02*
X313408214Y-242739342D01*
X313408214Y-242739342D02*
X313455833Y-242834580D01*
X313455833Y-242834580D02*
X313503452Y-242882200D01*
X313503452Y-242882200D02*
X313598690Y-242929819D01*
X313598690Y-242929819D02*
X313693928Y-242929819D01*
X313693928Y-242929819D02*
X313789166Y-242882200D01*
X313789166Y-242882200D02*
X313836785Y-242834580D01*
X313836785Y-242834580D02*
X313884404Y-242739342D01*
X313884404Y-242739342D02*
X313932023Y-242548866D01*
X313932023Y-242548866D02*
X313932023Y-242310771D01*
X313932023Y-242310771D02*
X313884404Y-242120295D01*
X313884404Y-242120295D02*
X313836785Y-242025057D01*
X313836785Y-242025057D02*
X313789166Y-241977438D01*
X313789166Y-241977438D02*
X313693928Y-241929819D01*
X268251785Y-223879819D02*
X268251785Y-222879819D01*
X268251785Y-222879819D02*
X268013690Y-222879819D01*
X268013690Y-222879819D02*
X267870833Y-222927438D01*
X267870833Y-222927438D02*
X267775595Y-223022676D01*
X267775595Y-223022676D02*
X267727976Y-223117914D01*
X267727976Y-223117914D02*
X267680357Y-223308390D01*
X267680357Y-223308390D02*
X267680357Y-223451247D01*
X267680357Y-223451247D02*
X267727976Y-223641723D01*
X267727976Y-223641723D02*
X267775595Y-223736961D01*
X267775595Y-223736961D02*
X267870833Y-223832200D01*
X267870833Y-223832200D02*
X268013690Y-223879819D01*
X268013690Y-223879819D02*
X268251785Y-223879819D01*
X266727976Y-223879819D02*
X267299404Y-223879819D01*
X267013690Y-223879819D02*
X267013690Y-222879819D01*
X267013690Y-222879819D02*
X267108928Y-223022676D01*
X267108928Y-223022676D02*
X267204166Y-223117914D01*
X267204166Y-223117914D02*
X267299404Y-223165533D01*
X266347023Y-222975057D02*
X266299404Y-222927438D01*
X266299404Y-222927438D02*
X266204166Y-222879819D01*
X266204166Y-222879819D02*
X265966071Y-222879819D01*
X265966071Y-222879819D02*
X265870833Y-222927438D01*
X265870833Y-222927438D02*
X265823214Y-222975057D01*
X265823214Y-222975057D02*
X265775595Y-223070295D01*
X265775595Y-223070295D02*
X265775595Y-223165533D01*
X265775595Y-223165533D02*
X265823214Y-223308390D01*
X265823214Y-223308390D02*
X266394642Y-223879819D01*
X266394642Y-223879819D02*
X265775595Y-223879819D01*
X282539285Y-261979819D02*
X282539285Y-260979819D01*
X282539285Y-260979819D02*
X282301190Y-260979819D01*
X282301190Y-260979819D02*
X282158333Y-261027438D01*
X282158333Y-261027438D02*
X282063095Y-261122676D01*
X282063095Y-261122676D02*
X282015476Y-261217914D01*
X282015476Y-261217914D02*
X281967857Y-261408390D01*
X281967857Y-261408390D02*
X281967857Y-261551247D01*
X281967857Y-261551247D02*
X282015476Y-261741723D01*
X282015476Y-261741723D02*
X282063095Y-261836961D01*
X282063095Y-261836961D02*
X282158333Y-261932200D01*
X282158333Y-261932200D02*
X282301190Y-261979819D01*
X282301190Y-261979819D02*
X282539285Y-261979819D01*
X281634523Y-260979819D02*
X281015476Y-260979819D01*
X281015476Y-260979819D02*
X281348809Y-261360771D01*
X281348809Y-261360771D02*
X281205952Y-261360771D01*
X281205952Y-261360771D02*
X281110714Y-261408390D01*
X281110714Y-261408390D02*
X281063095Y-261456009D01*
X281063095Y-261456009D02*
X281015476Y-261551247D01*
X281015476Y-261551247D02*
X281015476Y-261789342D01*
X281015476Y-261789342D02*
X281063095Y-261884580D01*
X281063095Y-261884580D02*
X281110714Y-261932200D01*
X281110714Y-261932200D02*
X281205952Y-261979819D01*
X281205952Y-261979819D02*
X281491666Y-261979819D01*
X281491666Y-261979819D02*
X281586904Y-261932200D01*
X281586904Y-261932200D02*
X281634523Y-261884580D01*
X280444047Y-261408390D02*
X280539285Y-261360771D01*
X280539285Y-261360771D02*
X280586904Y-261313152D01*
X280586904Y-261313152D02*
X280634523Y-261217914D01*
X280634523Y-261217914D02*
X280634523Y-261170295D01*
X280634523Y-261170295D02*
X280586904Y-261075057D01*
X280586904Y-261075057D02*
X280539285Y-261027438D01*
X280539285Y-261027438D02*
X280444047Y-260979819D01*
X280444047Y-260979819D02*
X280253571Y-260979819D01*
X280253571Y-260979819D02*
X280158333Y-261027438D01*
X280158333Y-261027438D02*
X280110714Y-261075057D01*
X280110714Y-261075057D02*
X280063095Y-261170295D01*
X280063095Y-261170295D02*
X280063095Y-261217914D01*
X280063095Y-261217914D02*
X280110714Y-261313152D01*
X280110714Y-261313152D02*
X280158333Y-261360771D01*
X280158333Y-261360771D02*
X280253571Y-261408390D01*
X280253571Y-261408390D02*
X280444047Y-261408390D01*
X280444047Y-261408390D02*
X280539285Y-261456009D01*
X280539285Y-261456009D02*
X280586904Y-261503628D01*
X280586904Y-261503628D02*
X280634523Y-261598866D01*
X280634523Y-261598866D02*
X280634523Y-261789342D01*
X280634523Y-261789342D02*
X280586904Y-261884580D01*
X280586904Y-261884580D02*
X280539285Y-261932200D01*
X280539285Y-261932200D02*
X280444047Y-261979819D01*
X280444047Y-261979819D02*
X280253571Y-261979819D01*
X280253571Y-261979819D02*
X280158333Y-261932200D01*
X280158333Y-261932200D02*
X280110714Y-261884580D01*
X280110714Y-261884580D02*
X280063095Y-261789342D01*
X280063095Y-261789342D02*
X280063095Y-261598866D01*
X280063095Y-261598866D02*
X280110714Y-261503628D01*
X280110714Y-261503628D02*
X280158333Y-261456009D01*
X280158333Y-261456009D02*
X280253571Y-261408390D01*
X344474285Y-300079819D02*
X344474285Y-299079819D01*
X344474285Y-299079819D02*
X344236190Y-299079819D01*
X344236190Y-299079819D02*
X344093333Y-299127438D01*
X344093333Y-299127438D02*
X343998095Y-299222676D01*
X343998095Y-299222676D02*
X343950476Y-299317914D01*
X343950476Y-299317914D02*
X343902857Y-299508390D01*
X343902857Y-299508390D02*
X343902857Y-299651247D01*
X343902857Y-299651247D02*
X343950476Y-299841723D01*
X343950476Y-299841723D02*
X343998095Y-299936961D01*
X343998095Y-299936961D02*
X344093333Y-300032200D01*
X344093333Y-300032200D02*
X344236190Y-300079819D01*
X344236190Y-300079819D02*
X344474285Y-300079819D01*
X343045714Y-299079819D02*
X343236190Y-299079819D01*
X343236190Y-299079819D02*
X343331428Y-299127438D01*
X343331428Y-299127438D02*
X343379047Y-299175057D01*
X343379047Y-299175057D02*
X343474285Y-299317914D01*
X343474285Y-299317914D02*
X343521904Y-299508390D01*
X343521904Y-299508390D02*
X343521904Y-299889342D01*
X343521904Y-299889342D02*
X343474285Y-299984580D01*
X343474285Y-299984580D02*
X343426666Y-300032200D01*
X343426666Y-300032200D02*
X343331428Y-300079819D01*
X343331428Y-300079819D02*
X343140952Y-300079819D01*
X343140952Y-300079819D02*
X343045714Y-300032200D01*
X343045714Y-300032200D02*
X342998095Y-299984580D01*
X342998095Y-299984580D02*
X342950476Y-299889342D01*
X342950476Y-299889342D02*
X342950476Y-299651247D01*
X342950476Y-299651247D02*
X342998095Y-299556009D01*
X342998095Y-299556009D02*
X343045714Y-299508390D01*
X343045714Y-299508390D02*
X343140952Y-299460771D01*
X343140952Y-299460771D02*
X343331428Y-299460771D01*
X343331428Y-299460771D02*
X343426666Y-299508390D01*
X343426666Y-299508390D02*
X343474285Y-299556009D01*
X343474285Y-299556009D02*
X343521904Y-299651247D01*
X341998095Y-300079819D02*
X342569523Y-300079819D01*
X342283809Y-300079819D02*
X342283809Y-299079819D01*
X342283809Y-299079819D02*
X342379047Y-299222676D01*
X342379047Y-299222676D02*
X342474285Y-299317914D01*
X342474285Y-299317914D02*
X342569523Y-299365533D01*
X384676559Y-211176045D02*
X384600369Y-211176045D01*
X384600369Y-211176045D02*
X384524178Y-211214140D01*
X384524178Y-211214140D02*
X384486083Y-211252235D01*
X384486083Y-211252235D02*
X384447988Y-211328426D01*
X384447988Y-211328426D02*
X384409893Y-211480807D01*
X384409893Y-211480807D02*
X384409893Y-211671283D01*
X384409893Y-211671283D02*
X384447988Y-211823664D01*
X384447988Y-211823664D02*
X384486083Y-211899854D01*
X384486083Y-211899854D02*
X384524178Y-211937950D01*
X384524178Y-211937950D02*
X384600369Y-211976045D01*
X384600369Y-211976045D02*
X384676559Y-211976045D01*
X384676559Y-211976045D02*
X384752750Y-211937950D01*
X384752750Y-211937950D02*
X384790845Y-211899854D01*
X384790845Y-211899854D02*
X384828940Y-211823664D01*
X384828940Y-211823664D02*
X384867036Y-211671283D01*
X384867036Y-211671283D02*
X384867036Y-211480807D01*
X384867036Y-211480807D02*
X384828940Y-211328426D01*
X384828940Y-211328426D02*
X384790845Y-211252235D01*
X384790845Y-211252235D02*
X384752750Y-211214140D01*
X384752750Y-211214140D02*
X384676559Y-211176045D01*
X383914654Y-211176045D02*
X383838464Y-211176045D01*
X383838464Y-211176045D02*
X383762273Y-211214140D01*
X383762273Y-211214140D02*
X383724178Y-211252235D01*
X383724178Y-211252235D02*
X383686083Y-211328426D01*
X383686083Y-211328426D02*
X383647988Y-211480807D01*
X383647988Y-211480807D02*
X383647988Y-211671283D01*
X383647988Y-211671283D02*
X383686083Y-211823664D01*
X383686083Y-211823664D02*
X383724178Y-211899854D01*
X383724178Y-211899854D02*
X383762273Y-211937950D01*
X383762273Y-211937950D02*
X383838464Y-211976045D01*
X383838464Y-211976045D02*
X383914654Y-211976045D01*
X383914654Y-211976045D02*
X383990845Y-211937950D01*
X383990845Y-211937950D02*
X384028940Y-211899854D01*
X384028940Y-211899854D02*
X384067035Y-211823664D01*
X384067035Y-211823664D02*
X384105131Y-211671283D01*
X384105131Y-211671283D02*
X384105131Y-211480807D01*
X384105131Y-211480807D02*
X384067035Y-211328426D01*
X384067035Y-211328426D02*
X384028940Y-211252235D01*
X384028940Y-211252235D02*
X383990845Y-211214140D01*
X383990845Y-211214140D02*
X383914654Y-211176045D01*
X382962273Y-211176045D02*
X383114654Y-211176045D01*
X383114654Y-211176045D02*
X383190845Y-211214140D01*
X383190845Y-211214140D02*
X383228940Y-211252235D01*
X383228940Y-211252235D02*
X383305130Y-211366521D01*
X383305130Y-211366521D02*
X383343226Y-211518902D01*
X383343226Y-211518902D02*
X383343226Y-211823664D01*
X383343226Y-211823664D02*
X383305130Y-211899854D01*
X383305130Y-211899854D02*
X383267035Y-211937950D01*
X383267035Y-211937950D02*
X383190845Y-211976045D01*
X383190845Y-211976045D02*
X383038464Y-211976045D01*
X383038464Y-211976045D02*
X382962273Y-211937950D01*
X382962273Y-211937950D02*
X382924178Y-211899854D01*
X382924178Y-211899854D02*
X382886083Y-211823664D01*
X382886083Y-211823664D02*
X382886083Y-211633188D01*
X382886083Y-211633188D02*
X382924178Y-211556997D01*
X382924178Y-211556997D02*
X382962273Y-211518902D01*
X382962273Y-211518902D02*
X383038464Y-211480807D01*
X383038464Y-211480807D02*
X383190845Y-211480807D01*
X383190845Y-211480807D02*
X383267035Y-211518902D01*
X383267035Y-211518902D02*
X383305130Y-211556997D01*
X383305130Y-211556997D02*
X383343226Y-211633188D01*
X384676559Y-213646045D02*
X384600369Y-213646045D01*
X384600369Y-213646045D02*
X384524178Y-213684140D01*
X384524178Y-213684140D02*
X384486083Y-213722235D01*
X384486083Y-213722235D02*
X384447988Y-213798426D01*
X384447988Y-213798426D02*
X384409893Y-213950807D01*
X384409893Y-213950807D02*
X384409893Y-214141283D01*
X384409893Y-214141283D02*
X384447988Y-214293664D01*
X384447988Y-214293664D02*
X384486083Y-214369854D01*
X384486083Y-214369854D02*
X384524178Y-214407950D01*
X384524178Y-214407950D02*
X384600369Y-214446045D01*
X384600369Y-214446045D02*
X384676559Y-214446045D01*
X384676559Y-214446045D02*
X384752750Y-214407950D01*
X384752750Y-214407950D02*
X384790845Y-214369854D01*
X384790845Y-214369854D02*
X384828940Y-214293664D01*
X384828940Y-214293664D02*
X384867036Y-214141283D01*
X384867036Y-214141283D02*
X384867036Y-213950807D01*
X384867036Y-213950807D02*
X384828940Y-213798426D01*
X384828940Y-213798426D02*
X384790845Y-213722235D01*
X384790845Y-213722235D02*
X384752750Y-213684140D01*
X384752750Y-213684140D02*
X384676559Y-213646045D01*
X383914654Y-213646045D02*
X383838464Y-213646045D01*
X383838464Y-213646045D02*
X383762273Y-213684140D01*
X383762273Y-213684140D02*
X383724178Y-213722235D01*
X383724178Y-213722235D02*
X383686083Y-213798426D01*
X383686083Y-213798426D02*
X383647988Y-213950807D01*
X383647988Y-213950807D02*
X383647988Y-214141283D01*
X383647988Y-214141283D02*
X383686083Y-214293664D01*
X383686083Y-214293664D02*
X383724178Y-214369854D01*
X383724178Y-214369854D02*
X383762273Y-214407950D01*
X383762273Y-214407950D02*
X383838464Y-214446045D01*
X383838464Y-214446045D02*
X383914654Y-214446045D01*
X383914654Y-214446045D02*
X383990845Y-214407950D01*
X383990845Y-214407950D02*
X384028940Y-214369854D01*
X384028940Y-214369854D02*
X384067035Y-214293664D01*
X384067035Y-214293664D02*
X384105131Y-214141283D01*
X384105131Y-214141283D02*
X384105131Y-213950807D01*
X384105131Y-213950807D02*
X384067035Y-213798426D01*
X384067035Y-213798426D02*
X384028940Y-213722235D01*
X384028940Y-213722235D02*
X383990845Y-213684140D01*
X383990845Y-213684140D02*
X383914654Y-213646045D01*
X383190845Y-213988902D02*
X383267035Y-213950807D01*
X383267035Y-213950807D02*
X383305130Y-213912711D01*
X383305130Y-213912711D02*
X383343226Y-213836521D01*
X383343226Y-213836521D02*
X383343226Y-213798426D01*
X383343226Y-213798426D02*
X383305130Y-213722235D01*
X383305130Y-213722235D02*
X383267035Y-213684140D01*
X383267035Y-213684140D02*
X383190845Y-213646045D01*
X383190845Y-213646045D02*
X383038464Y-213646045D01*
X383038464Y-213646045D02*
X382962273Y-213684140D01*
X382962273Y-213684140D02*
X382924178Y-213722235D01*
X382924178Y-213722235D02*
X382886083Y-213798426D01*
X382886083Y-213798426D02*
X382886083Y-213836521D01*
X382886083Y-213836521D02*
X382924178Y-213912711D01*
X382924178Y-213912711D02*
X382962273Y-213950807D01*
X382962273Y-213950807D02*
X383038464Y-213988902D01*
X383038464Y-213988902D02*
X383190845Y-213988902D01*
X383190845Y-213988902D02*
X383267035Y-214026997D01*
X383267035Y-214026997D02*
X383305130Y-214065092D01*
X383305130Y-214065092D02*
X383343226Y-214141283D01*
X383343226Y-214141283D02*
X383343226Y-214293664D01*
X383343226Y-214293664D02*
X383305130Y-214369854D01*
X383305130Y-214369854D02*
X383267035Y-214407950D01*
X383267035Y-214407950D02*
X383190845Y-214446045D01*
X383190845Y-214446045D02*
X383038464Y-214446045D01*
X383038464Y-214446045D02*
X382962273Y-214407950D01*
X382962273Y-214407950D02*
X382924178Y-214369854D01*
X382924178Y-214369854D02*
X382886083Y-214293664D01*
X382886083Y-214293664D02*
X382886083Y-214141283D01*
X382886083Y-214141283D02*
X382924178Y-214065092D01*
X382924178Y-214065092D02*
X382962273Y-214026997D01*
X382962273Y-214026997D02*
X383038464Y-213988902D01*
X384676559Y-221336045D02*
X384600369Y-221336045D01*
X384600369Y-221336045D02*
X384524178Y-221374140D01*
X384524178Y-221374140D02*
X384486083Y-221412235D01*
X384486083Y-221412235D02*
X384447988Y-221488426D01*
X384447988Y-221488426D02*
X384409893Y-221640807D01*
X384409893Y-221640807D02*
X384409893Y-221831283D01*
X384409893Y-221831283D02*
X384447988Y-221983664D01*
X384447988Y-221983664D02*
X384486083Y-222059854D01*
X384486083Y-222059854D02*
X384524178Y-222097950D01*
X384524178Y-222097950D02*
X384600369Y-222136045D01*
X384600369Y-222136045D02*
X384676559Y-222136045D01*
X384676559Y-222136045D02*
X384752750Y-222097950D01*
X384752750Y-222097950D02*
X384790845Y-222059854D01*
X384790845Y-222059854D02*
X384828940Y-221983664D01*
X384828940Y-221983664D02*
X384867036Y-221831283D01*
X384867036Y-221831283D02*
X384867036Y-221640807D01*
X384867036Y-221640807D02*
X384828940Y-221488426D01*
X384828940Y-221488426D02*
X384790845Y-221412235D01*
X384790845Y-221412235D02*
X384752750Y-221374140D01*
X384752750Y-221374140D02*
X384676559Y-221336045D01*
X383647988Y-222136045D02*
X384105131Y-222136045D01*
X383876559Y-222136045D02*
X383876559Y-221336045D01*
X383876559Y-221336045D02*
X383952750Y-221450330D01*
X383952750Y-221450330D02*
X384028940Y-221526521D01*
X384028940Y-221526521D02*
X384105131Y-221564616D01*
X383381321Y-221336045D02*
X382847987Y-221336045D01*
X382847987Y-221336045D02*
X383190845Y-222136045D01*
X384676559Y-223946045D02*
X384600369Y-223946045D01*
X384600369Y-223946045D02*
X384524178Y-223984140D01*
X384524178Y-223984140D02*
X384486083Y-224022235D01*
X384486083Y-224022235D02*
X384447988Y-224098426D01*
X384447988Y-224098426D02*
X384409893Y-224250807D01*
X384409893Y-224250807D02*
X384409893Y-224441283D01*
X384409893Y-224441283D02*
X384447988Y-224593664D01*
X384447988Y-224593664D02*
X384486083Y-224669854D01*
X384486083Y-224669854D02*
X384524178Y-224707950D01*
X384524178Y-224707950D02*
X384600369Y-224746045D01*
X384600369Y-224746045D02*
X384676559Y-224746045D01*
X384676559Y-224746045D02*
X384752750Y-224707950D01*
X384752750Y-224707950D02*
X384790845Y-224669854D01*
X384790845Y-224669854D02*
X384828940Y-224593664D01*
X384828940Y-224593664D02*
X384867036Y-224441283D01*
X384867036Y-224441283D02*
X384867036Y-224250807D01*
X384867036Y-224250807D02*
X384828940Y-224098426D01*
X384828940Y-224098426D02*
X384790845Y-224022235D01*
X384790845Y-224022235D02*
X384752750Y-223984140D01*
X384752750Y-223984140D02*
X384676559Y-223946045D01*
X384105131Y-224022235D02*
X384067035Y-223984140D01*
X384067035Y-223984140D02*
X383990845Y-223946045D01*
X383990845Y-223946045D02*
X383800369Y-223946045D01*
X383800369Y-223946045D02*
X383724178Y-223984140D01*
X383724178Y-223984140D02*
X383686083Y-224022235D01*
X383686083Y-224022235D02*
X383647988Y-224098426D01*
X383647988Y-224098426D02*
X383647988Y-224174616D01*
X383647988Y-224174616D02*
X383686083Y-224288902D01*
X383686083Y-224288902D02*
X384143226Y-224746045D01*
X384143226Y-224746045D02*
X383647988Y-224746045D01*
X383152749Y-223946045D02*
X383076559Y-223946045D01*
X383076559Y-223946045D02*
X383000368Y-223984140D01*
X383000368Y-223984140D02*
X382962273Y-224022235D01*
X382962273Y-224022235D02*
X382924178Y-224098426D01*
X382924178Y-224098426D02*
X382886083Y-224250807D01*
X382886083Y-224250807D02*
X382886083Y-224441283D01*
X382886083Y-224441283D02*
X382924178Y-224593664D01*
X382924178Y-224593664D02*
X382962273Y-224669854D01*
X382962273Y-224669854D02*
X383000368Y-224707950D01*
X383000368Y-224707950D02*
X383076559Y-224746045D01*
X383076559Y-224746045D02*
X383152749Y-224746045D01*
X383152749Y-224746045D02*
X383228940Y-224707950D01*
X383228940Y-224707950D02*
X383267035Y-224669854D01*
X383267035Y-224669854D02*
X383305130Y-224593664D01*
X383305130Y-224593664D02*
X383343226Y-224441283D01*
X383343226Y-224441283D02*
X383343226Y-224250807D01*
X383343226Y-224250807D02*
X383305130Y-224098426D01*
X383305130Y-224098426D02*
X383267035Y-224022235D01*
X383267035Y-224022235D02*
X383228940Y-223984140D01*
X383228940Y-223984140D02*
X383152749Y-223946045D01*
X384676559Y-226446045D02*
X384600369Y-226446045D01*
X384600369Y-226446045D02*
X384524178Y-226484140D01*
X384524178Y-226484140D02*
X384486083Y-226522235D01*
X384486083Y-226522235D02*
X384447988Y-226598426D01*
X384447988Y-226598426D02*
X384409893Y-226750807D01*
X384409893Y-226750807D02*
X384409893Y-226941283D01*
X384409893Y-226941283D02*
X384447988Y-227093664D01*
X384447988Y-227093664D02*
X384486083Y-227169854D01*
X384486083Y-227169854D02*
X384524178Y-227207950D01*
X384524178Y-227207950D02*
X384600369Y-227246045D01*
X384600369Y-227246045D02*
X384676559Y-227246045D01*
X384676559Y-227246045D02*
X384752750Y-227207950D01*
X384752750Y-227207950D02*
X384790845Y-227169854D01*
X384790845Y-227169854D02*
X384828940Y-227093664D01*
X384828940Y-227093664D02*
X384867036Y-226941283D01*
X384867036Y-226941283D02*
X384867036Y-226750807D01*
X384867036Y-226750807D02*
X384828940Y-226598426D01*
X384828940Y-226598426D02*
X384790845Y-226522235D01*
X384790845Y-226522235D02*
X384752750Y-226484140D01*
X384752750Y-226484140D02*
X384676559Y-226446045D01*
X384105131Y-226522235D02*
X384067035Y-226484140D01*
X384067035Y-226484140D02*
X383990845Y-226446045D01*
X383990845Y-226446045D02*
X383800369Y-226446045D01*
X383800369Y-226446045D02*
X383724178Y-226484140D01*
X383724178Y-226484140D02*
X383686083Y-226522235D01*
X383686083Y-226522235D02*
X383647988Y-226598426D01*
X383647988Y-226598426D02*
X383647988Y-226674616D01*
X383647988Y-226674616D02*
X383686083Y-226788902D01*
X383686083Y-226788902D02*
X384143226Y-227246045D01*
X384143226Y-227246045D02*
X383647988Y-227246045D01*
X383343226Y-226522235D02*
X383305130Y-226484140D01*
X383305130Y-226484140D02*
X383228940Y-226446045D01*
X383228940Y-226446045D02*
X383038464Y-226446045D01*
X383038464Y-226446045D02*
X382962273Y-226484140D01*
X382962273Y-226484140D02*
X382924178Y-226522235D01*
X382924178Y-226522235D02*
X382886083Y-226598426D01*
X382886083Y-226598426D02*
X382886083Y-226674616D01*
X382886083Y-226674616D02*
X382924178Y-226788902D01*
X382924178Y-226788902D02*
X383381321Y-227246045D01*
X383381321Y-227246045D02*
X382886083Y-227246045D01*
X384676559Y-228946045D02*
X384600369Y-228946045D01*
X384600369Y-228946045D02*
X384524178Y-228984140D01*
X384524178Y-228984140D02*
X384486083Y-229022235D01*
X384486083Y-229022235D02*
X384447988Y-229098426D01*
X384447988Y-229098426D02*
X384409893Y-229250807D01*
X384409893Y-229250807D02*
X384409893Y-229441283D01*
X384409893Y-229441283D02*
X384447988Y-229593664D01*
X384447988Y-229593664D02*
X384486083Y-229669854D01*
X384486083Y-229669854D02*
X384524178Y-229707950D01*
X384524178Y-229707950D02*
X384600369Y-229746045D01*
X384600369Y-229746045D02*
X384676559Y-229746045D01*
X384676559Y-229746045D02*
X384752750Y-229707950D01*
X384752750Y-229707950D02*
X384790845Y-229669854D01*
X384790845Y-229669854D02*
X384828940Y-229593664D01*
X384828940Y-229593664D02*
X384867036Y-229441283D01*
X384867036Y-229441283D02*
X384867036Y-229250807D01*
X384867036Y-229250807D02*
X384828940Y-229098426D01*
X384828940Y-229098426D02*
X384790845Y-229022235D01*
X384790845Y-229022235D02*
X384752750Y-228984140D01*
X384752750Y-228984140D02*
X384676559Y-228946045D01*
X384105131Y-229022235D02*
X384067035Y-228984140D01*
X384067035Y-228984140D02*
X383990845Y-228946045D01*
X383990845Y-228946045D02*
X383800369Y-228946045D01*
X383800369Y-228946045D02*
X383724178Y-228984140D01*
X383724178Y-228984140D02*
X383686083Y-229022235D01*
X383686083Y-229022235D02*
X383647988Y-229098426D01*
X383647988Y-229098426D02*
X383647988Y-229174616D01*
X383647988Y-229174616D02*
X383686083Y-229288902D01*
X383686083Y-229288902D02*
X384143226Y-229746045D01*
X384143226Y-229746045D02*
X383647988Y-229746045D01*
X382962273Y-229212711D02*
X382962273Y-229746045D01*
X383152749Y-228907950D02*
X383343226Y-229479378D01*
X383343226Y-229479378D02*
X382847987Y-229479378D01*
X384409893Y-232296045D02*
X384867036Y-232296045D01*
X384638464Y-232296045D02*
X384638464Y-231496045D01*
X384638464Y-231496045D02*
X384714655Y-231610330D01*
X384714655Y-231610330D02*
X384790845Y-231686521D01*
X384790845Y-231686521D02*
X384867036Y-231724616D01*
X383914654Y-231496045D02*
X383838464Y-231496045D01*
X383838464Y-231496045D02*
X383762273Y-231534140D01*
X383762273Y-231534140D02*
X383724178Y-231572235D01*
X383724178Y-231572235D02*
X383686083Y-231648426D01*
X383686083Y-231648426D02*
X383647988Y-231800807D01*
X383647988Y-231800807D02*
X383647988Y-231991283D01*
X383647988Y-231991283D02*
X383686083Y-232143664D01*
X383686083Y-232143664D02*
X383724178Y-232219854D01*
X383724178Y-232219854D02*
X383762273Y-232257950D01*
X383762273Y-232257950D02*
X383838464Y-232296045D01*
X383838464Y-232296045D02*
X383914654Y-232296045D01*
X383914654Y-232296045D02*
X383990845Y-232257950D01*
X383990845Y-232257950D02*
X384028940Y-232219854D01*
X384028940Y-232219854D02*
X384067035Y-232143664D01*
X384067035Y-232143664D02*
X384105131Y-231991283D01*
X384105131Y-231991283D02*
X384105131Y-231800807D01*
X384105131Y-231800807D02*
X384067035Y-231648426D01*
X384067035Y-231648426D02*
X384028940Y-231572235D01*
X384028940Y-231572235D02*
X383990845Y-231534140D01*
X383990845Y-231534140D02*
X383914654Y-231496045D01*
X383152749Y-231496045D02*
X383076559Y-231496045D01*
X383076559Y-231496045D02*
X383000368Y-231534140D01*
X383000368Y-231534140D02*
X382962273Y-231572235D01*
X382962273Y-231572235D02*
X382924178Y-231648426D01*
X382924178Y-231648426D02*
X382886083Y-231800807D01*
X382886083Y-231800807D02*
X382886083Y-231991283D01*
X382886083Y-231991283D02*
X382924178Y-232143664D01*
X382924178Y-232143664D02*
X382962273Y-232219854D01*
X382962273Y-232219854D02*
X383000368Y-232257950D01*
X383000368Y-232257950D02*
X383076559Y-232296045D01*
X383076559Y-232296045D02*
X383152749Y-232296045D01*
X383152749Y-232296045D02*
X383228940Y-232257950D01*
X383228940Y-232257950D02*
X383267035Y-232219854D01*
X383267035Y-232219854D02*
X383305130Y-232143664D01*
X383305130Y-232143664D02*
X383343226Y-231991283D01*
X383343226Y-231991283D02*
X383343226Y-231800807D01*
X383343226Y-231800807D02*
X383305130Y-231648426D01*
X383305130Y-231648426D02*
X383267035Y-231572235D01*
X383267035Y-231572235D02*
X383228940Y-231534140D01*
X383228940Y-231534140D02*
X383152749Y-231496045D01*
X384409893Y-237376045D02*
X384867036Y-237376045D01*
X384638464Y-237376045D02*
X384638464Y-236576045D01*
X384638464Y-236576045D02*
X384714655Y-236690330D01*
X384714655Y-236690330D02*
X384790845Y-236766521D01*
X384790845Y-236766521D02*
X384867036Y-236804616D01*
X383914654Y-236576045D02*
X383838464Y-236576045D01*
X383838464Y-236576045D02*
X383762273Y-236614140D01*
X383762273Y-236614140D02*
X383724178Y-236652235D01*
X383724178Y-236652235D02*
X383686083Y-236728426D01*
X383686083Y-236728426D02*
X383647988Y-236880807D01*
X383647988Y-236880807D02*
X383647988Y-237071283D01*
X383647988Y-237071283D02*
X383686083Y-237223664D01*
X383686083Y-237223664D02*
X383724178Y-237299854D01*
X383724178Y-237299854D02*
X383762273Y-237337950D01*
X383762273Y-237337950D02*
X383838464Y-237376045D01*
X383838464Y-237376045D02*
X383914654Y-237376045D01*
X383914654Y-237376045D02*
X383990845Y-237337950D01*
X383990845Y-237337950D02*
X384028940Y-237299854D01*
X384028940Y-237299854D02*
X384067035Y-237223664D01*
X384067035Y-237223664D02*
X384105131Y-237071283D01*
X384105131Y-237071283D02*
X384105131Y-236880807D01*
X384105131Y-236880807D02*
X384067035Y-236728426D01*
X384067035Y-236728426D02*
X384028940Y-236652235D01*
X384028940Y-236652235D02*
X383990845Y-236614140D01*
X383990845Y-236614140D02*
X383914654Y-236576045D01*
X382962273Y-236842711D02*
X382962273Y-237376045D01*
X383152749Y-236537950D02*
X383343226Y-237109378D01*
X383343226Y-237109378D02*
X382847987Y-237109378D01*
X384562273Y-216294140D02*
X384638463Y-216256045D01*
X384638463Y-216256045D02*
X384752749Y-216256045D01*
X384752749Y-216256045D02*
X384867035Y-216294140D01*
X384867035Y-216294140D02*
X384943225Y-216370330D01*
X384943225Y-216370330D02*
X384981320Y-216446521D01*
X384981320Y-216446521D02*
X385019416Y-216598902D01*
X385019416Y-216598902D02*
X385019416Y-216713188D01*
X385019416Y-216713188D02*
X384981320Y-216865569D01*
X384981320Y-216865569D02*
X384943225Y-216941759D01*
X384943225Y-216941759D02*
X384867035Y-217017950D01*
X384867035Y-217017950D02*
X384752749Y-217056045D01*
X384752749Y-217056045D02*
X384676558Y-217056045D01*
X384676558Y-217056045D02*
X384562273Y-217017950D01*
X384562273Y-217017950D02*
X384524177Y-216979854D01*
X384524177Y-216979854D02*
X384524177Y-216713188D01*
X384524177Y-216713188D02*
X384676558Y-216713188D01*
X384181320Y-217056045D02*
X384181320Y-216256045D01*
X384181320Y-216256045D02*
X383724177Y-217056045D01*
X383724177Y-217056045D02*
X383724177Y-216256045D01*
X383343225Y-217056045D02*
X383343225Y-216256045D01*
X383343225Y-216256045D02*
X383152749Y-216256045D01*
X383152749Y-216256045D02*
X383038463Y-216294140D01*
X383038463Y-216294140D02*
X382962273Y-216370330D01*
X382962273Y-216370330D02*
X382924178Y-216446521D01*
X382924178Y-216446521D02*
X382886082Y-216598902D01*
X382886082Y-216598902D02*
X382886082Y-216713188D01*
X382886082Y-216713188D02*
X382924178Y-216865569D01*
X382924178Y-216865569D02*
X382962273Y-216941759D01*
X382962273Y-216941759D02*
X383038463Y-217017950D01*
X383038463Y-217017950D02*
X383152749Y-217056045D01*
X383152749Y-217056045D02*
X383343225Y-217056045D01*
X384562273Y-218834140D02*
X384638463Y-218796045D01*
X384638463Y-218796045D02*
X384752749Y-218796045D01*
X384752749Y-218796045D02*
X384867035Y-218834140D01*
X384867035Y-218834140D02*
X384943225Y-218910330D01*
X384943225Y-218910330D02*
X384981320Y-218986521D01*
X384981320Y-218986521D02*
X385019416Y-219138902D01*
X385019416Y-219138902D02*
X385019416Y-219253188D01*
X385019416Y-219253188D02*
X384981320Y-219405569D01*
X384981320Y-219405569D02*
X384943225Y-219481759D01*
X384943225Y-219481759D02*
X384867035Y-219557950D01*
X384867035Y-219557950D02*
X384752749Y-219596045D01*
X384752749Y-219596045D02*
X384676558Y-219596045D01*
X384676558Y-219596045D02*
X384562273Y-219557950D01*
X384562273Y-219557950D02*
X384524177Y-219519854D01*
X384524177Y-219519854D02*
X384524177Y-219253188D01*
X384524177Y-219253188D02*
X384676558Y-219253188D01*
X384181320Y-219596045D02*
X384181320Y-218796045D01*
X384181320Y-218796045D02*
X383724177Y-219596045D01*
X383724177Y-219596045D02*
X383724177Y-218796045D01*
X383343225Y-219596045D02*
X383343225Y-218796045D01*
X383343225Y-218796045D02*
X383152749Y-218796045D01*
X383152749Y-218796045D02*
X383038463Y-218834140D01*
X383038463Y-218834140D02*
X382962273Y-218910330D01*
X382962273Y-218910330D02*
X382924178Y-218986521D01*
X382924178Y-218986521D02*
X382886082Y-219138902D01*
X382886082Y-219138902D02*
X382886082Y-219253188D01*
X382886082Y-219253188D02*
X382924178Y-219405569D01*
X382924178Y-219405569D02*
X382962273Y-219481759D01*
X382962273Y-219481759D02*
X383038463Y-219557950D01*
X383038463Y-219557950D02*
X383152749Y-219596045D01*
X383152749Y-219596045D02*
X383343225Y-219596045D01*
X395477940Y-213754140D02*
X395554130Y-213716045D01*
X395554130Y-213716045D02*
X395668416Y-213716045D01*
X395668416Y-213716045D02*
X395782702Y-213754140D01*
X395782702Y-213754140D02*
X395858892Y-213830330D01*
X395858892Y-213830330D02*
X395896987Y-213906521D01*
X395896987Y-213906521D02*
X395935083Y-214058902D01*
X395935083Y-214058902D02*
X395935083Y-214173188D01*
X395935083Y-214173188D02*
X395896987Y-214325569D01*
X395896987Y-214325569D02*
X395858892Y-214401759D01*
X395858892Y-214401759D02*
X395782702Y-214477950D01*
X395782702Y-214477950D02*
X395668416Y-214516045D01*
X395668416Y-214516045D02*
X395592225Y-214516045D01*
X395592225Y-214516045D02*
X395477940Y-214477950D01*
X395477940Y-214477950D02*
X395439844Y-214439854D01*
X395439844Y-214439854D02*
X395439844Y-214173188D01*
X395439844Y-214173188D02*
X395592225Y-214173188D01*
X395096987Y-214516045D02*
X395096987Y-213716045D01*
X395096987Y-213716045D02*
X394639844Y-214516045D01*
X394639844Y-214516045D02*
X394639844Y-213716045D01*
X394258892Y-214516045D02*
X394258892Y-213716045D01*
X394258892Y-213716045D02*
X394068416Y-213716045D01*
X394068416Y-213716045D02*
X393954130Y-213754140D01*
X393954130Y-213754140D02*
X393877940Y-213830330D01*
X393877940Y-213830330D02*
X393839845Y-213906521D01*
X393839845Y-213906521D02*
X393801749Y-214058902D01*
X393801749Y-214058902D02*
X393801749Y-214173188D01*
X393801749Y-214173188D02*
X393839845Y-214325569D01*
X393839845Y-214325569D02*
X393877940Y-214401759D01*
X393877940Y-214401759D02*
X393954130Y-214477950D01*
X393954130Y-214477950D02*
X394068416Y-214516045D01*
X394068416Y-214516045D02*
X394258892Y-214516045D01*
X395439845Y-211976045D02*
X395706512Y-211595092D01*
X395896988Y-211976045D02*
X395896988Y-211176045D01*
X395896988Y-211176045D02*
X395592226Y-211176045D01*
X395592226Y-211176045D02*
X395516036Y-211214140D01*
X395516036Y-211214140D02*
X395477941Y-211252235D01*
X395477941Y-211252235D02*
X395439845Y-211328426D01*
X395439845Y-211328426D02*
X395439845Y-211442711D01*
X395439845Y-211442711D02*
X395477941Y-211518902D01*
X395477941Y-211518902D02*
X395516036Y-211556997D01*
X395516036Y-211556997D02*
X395592226Y-211595092D01*
X395592226Y-211595092D02*
X395896988Y-211595092D01*
X395135084Y-211747473D02*
X394754131Y-211747473D01*
X395211274Y-211976045D02*
X394944607Y-211176045D01*
X394944607Y-211176045D02*
X394677941Y-211976045D01*
X394487465Y-211176045D02*
X394296989Y-211976045D01*
X394296989Y-211976045D02*
X394144608Y-211404616D01*
X394144608Y-211404616D02*
X393992227Y-211976045D01*
X393992227Y-211976045D02*
X393801751Y-211176045D01*
X396017607Y-218796045D02*
X395750940Y-219596045D01*
X395750940Y-219596045D02*
X395484274Y-218796045D01*
X394760464Y-219519854D02*
X394798560Y-219557950D01*
X394798560Y-219557950D02*
X394912845Y-219596045D01*
X394912845Y-219596045D02*
X394989036Y-219596045D01*
X394989036Y-219596045D02*
X395103322Y-219557950D01*
X395103322Y-219557950D02*
X395179512Y-219481759D01*
X395179512Y-219481759D02*
X395217607Y-219405569D01*
X395217607Y-219405569D02*
X395255703Y-219253188D01*
X395255703Y-219253188D02*
X395255703Y-219138902D01*
X395255703Y-219138902D02*
X395217607Y-218986521D01*
X395217607Y-218986521D02*
X395179512Y-218910330D01*
X395179512Y-218910330D02*
X395103322Y-218834140D01*
X395103322Y-218834140D02*
X394989036Y-218796045D01*
X394989036Y-218796045D02*
X394912845Y-218796045D01*
X394912845Y-218796045D02*
X394798560Y-218834140D01*
X394798560Y-218834140D02*
X394760464Y-218872235D01*
X393960464Y-219519854D02*
X393998560Y-219557950D01*
X393998560Y-219557950D02*
X394112845Y-219596045D01*
X394112845Y-219596045D02*
X394189036Y-219596045D01*
X394189036Y-219596045D02*
X394303322Y-219557950D01*
X394303322Y-219557950D02*
X394379512Y-219481759D01*
X394379512Y-219481759D02*
X394417607Y-219405569D01*
X394417607Y-219405569D02*
X394455703Y-219253188D01*
X394455703Y-219253188D02*
X394455703Y-219138902D01*
X394455703Y-219138902D02*
X394417607Y-218986521D01*
X394417607Y-218986521D02*
X394379512Y-218910330D01*
X394379512Y-218910330D02*
X394303322Y-218834140D01*
X394303322Y-218834140D02*
X394189036Y-218796045D01*
X394189036Y-218796045D02*
X394112845Y-218796045D01*
X394112845Y-218796045D02*
X393998560Y-218834140D01*
X393998560Y-218834140D02*
X393960464Y-218872235D01*
X395750940Y-221336045D02*
X395674750Y-221336045D01*
X395674750Y-221336045D02*
X395598559Y-221374140D01*
X395598559Y-221374140D02*
X395560464Y-221412235D01*
X395560464Y-221412235D02*
X395522369Y-221488426D01*
X395522369Y-221488426D02*
X395484274Y-221640807D01*
X395484274Y-221640807D02*
X395484274Y-221831283D01*
X395484274Y-221831283D02*
X395522369Y-221983664D01*
X395522369Y-221983664D02*
X395560464Y-222059854D01*
X395560464Y-222059854D02*
X395598559Y-222097950D01*
X395598559Y-222097950D02*
X395674750Y-222136045D01*
X395674750Y-222136045D02*
X395750940Y-222136045D01*
X395750940Y-222136045D02*
X395827131Y-222097950D01*
X395827131Y-222097950D02*
X395865226Y-222059854D01*
X395865226Y-222059854D02*
X395903321Y-221983664D01*
X395903321Y-221983664D02*
X395941417Y-221831283D01*
X395941417Y-221831283D02*
X395941417Y-221640807D01*
X395941417Y-221640807D02*
X395903321Y-221488426D01*
X395903321Y-221488426D02*
X395865226Y-221412235D01*
X395865226Y-221412235D02*
X395827131Y-221374140D01*
X395827131Y-221374140D02*
X395750940Y-221336045D01*
X395217607Y-221336045D02*
X394722369Y-221336045D01*
X394722369Y-221336045D02*
X394989035Y-221640807D01*
X394989035Y-221640807D02*
X394874750Y-221640807D01*
X394874750Y-221640807D02*
X394798559Y-221678902D01*
X394798559Y-221678902D02*
X394760464Y-221716997D01*
X394760464Y-221716997D02*
X394722369Y-221793188D01*
X394722369Y-221793188D02*
X394722369Y-221983664D01*
X394722369Y-221983664D02*
X394760464Y-222059854D01*
X394760464Y-222059854D02*
X394798559Y-222097950D01*
X394798559Y-222097950D02*
X394874750Y-222136045D01*
X394874750Y-222136045D02*
X395103321Y-222136045D01*
X395103321Y-222136045D02*
X395179512Y-222097950D01*
X395179512Y-222097950D02*
X395217607Y-222059854D01*
X393960464Y-222136045D02*
X394417607Y-222136045D01*
X394189035Y-222136045D02*
X394189035Y-221336045D01*
X394189035Y-221336045D02*
X394265226Y-221450330D01*
X394265226Y-221450330D02*
X394341416Y-221526521D01*
X394341416Y-221526521D02*
X394417607Y-221564616D01*
X395750940Y-223876045D02*
X395674750Y-223876045D01*
X395674750Y-223876045D02*
X395598559Y-223914140D01*
X395598559Y-223914140D02*
X395560464Y-223952235D01*
X395560464Y-223952235D02*
X395522369Y-224028426D01*
X395522369Y-224028426D02*
X395484274Y-224180807D01*
X395484274Y-224180807D02*
X395484274Y-224371283D01*
X395484274Y-224371283D02*
X395522369Y-224523664D01*
X395522369Y-224523664D02*
X395560464Y-224599854D01*
X395560464Y-224599854D02*
X395598559Y-224637950D01*
X395598559Y-224637950D02*
X395674750Y-224676045D01*
X395674750Y-224676045D02*
X395750940Y-224676045D01*
X395750940Y-224676045D02*
X395827131Y-224637950D01*
X395827131Y-224637950D02*
X395865226Y-224599854D01*
X395865226Y-224599854D02*
X395903321Y-224523664D01*
X395903321Y-224523664D02*
X395941417Y-224371283D01*
X395941417Y-224371283D02*
X395941417Y-224180807D01*
X395941417Y-224180807D02*
X395903321Y-224028426D01*
X395903321Y-224028426D02*
X395865226Y-223952235D01*
X395865226Y-223952235D02*
X395827131Y-223914140D01*
X395827131Y-223914140D02*
X395750940Y-223876045D01*
X395179512Y-223952235D02*
X395141416Y-223914140D01*
X395141416Y-223914140D02*
X395065226Y-223876045D01*
X395065226Y-223876045D02*
X394874750Y-223876045D01*
X394874750Y-223876045D02*
X394798559Y-223914140D01*
X394798559Y-223914140D02*
X394760464Y-223952235D01*
X394760464Y-223952235D02*
X394722369Y-224028426D01*
X394722369Y-224028426D02*
X394722369Y-224104616D01*
X394722369Y-224104616D02*
X394760464Y-224218902D01*
X394760464Y-224218902D02*
X395217607Y-224676045D01*
X395217607Y-224676045D02*
X394722369Y-224676045D01*
X394341416Y-224676045D02*
X394189035Y-224676045D01*
X394189035Y-224676045D02*
X394112845Y-224637950D01*
X394112845Y-224637950D02*
X394074749Y-224599854D01*
X394074749Y-224599854D02*
X393998559Y-224485569D01*
X393998559Y-224485569D02*
X393960464Y-224333188D01*
X393960464Y-224333188D02*
X393960464Y-224028426D01*
X393960464Y-224028426D02*
X393998559Y-223952235D01*
X393998559Y-223952235D02*
X394036654Y-223914140D01*
X394036654Y-223914140D02*
X394112845Y-223876045D01*
X394112845Y-223876045D02*
X394265226Y-223876045D01*
X394265226Y-223876045D02*
X394341416Y-223914140D01*
X394341416Y-223914140D02*
X394379511Y-223952235D01*
X394379511Y-223952235D02*
X394417607Y-224028426D01*
X394417607Y-224028426D02*
X394417607Y-224218902D01*
X394417607Y-224218902D02*
X394379511Y-224295092D01*
X394379511Y-224295092D02*
X394341416Y-224333188D01*
X394341416Y-224333188D02*
X394265226Y-224371283D01*
X394265226Y-224371283D02*
X394112845Y-224371283D01*
X394112845Y-224371283D02*
X394036654Y-224333188D01*
X394036654Y-224333188D02*
X393998559Y-224295092D01*
X393998559Y-224295092D02*
X393960464Y-224218902D01*
X395750940Y-226416045D02*
X395674750Y-226416045D01*
X395674750Y-226416045D02*
X395598559Y-226454140D01*
X395598559Y-226454140D02*
X395560464Y-226492235D01*
X395560464Y-226492235D02*
X395522369Y-226568426D01*
X395522369Y-226568426D02*
X395484274Y-226720807D01*
X395484274Y-226720807D02*
X395484274Y-226911283D01*
X395484274Y-226911283D02*
X395522369Y-227063664D01*
X395522369Y-227063664D02*
X395560464Y-227139854D01*
X395560464Y-227139854D02*
X395598559Y-227177950D01*
X395598559Y-227177950D02*
X395674750Y-227216045D01*
X395674750Y-227216045D02*
X395750940Y-227216045D01*
X395750940Y-227216045D02*
X395827131Y-227177950D01*
X395827131Y-227177950D02*
X395865226Y-227139854D01*
X395865226Y-227139854D02*
X395903321Y-227063664D01*
X395903321Y-227063664D02*
X395941417Y-226911283D01*
X395941417Y-226911283D02*
X395941417Y-226720807D01*
X395941417Y-226720807D02*
X395903321Y-226568426D01*
X395903321Y-226568426D02*
X395865226Y-226492235D01*
X395865226Y-226492235D02*
X395827131Y-226454140D01*
X395827131Y-226454140D02*
X395750940Y-226416045D01*
X394989035Y-226416045D02*
X394912845Y-226416045D01*
X394912845Y-226416045D02*
X394836654Y-226454140D01*
X394836654Y-226454140D02*
X394798559Y-226492235D01*
X394798559Y-226492235D02*
X394760464Y-226568426D01*
X394760464Y-226568426D02*
X394722369Y-226720807D01*
X394722369Y-226720807D02*
X394722369Y-226911283D01*
X394722369Y-226911283D02*
X394760464Y-227063664D01*
X394760464Y-227063664D02*
X394798559Y-227139854D01*
X394798559Y-227139854D02*
X394836654Y-227177950D01*
X394836654Y-227177950D02*
X394912845Y-227216045D01*
X394912845Y-227216045D02*
X394989035Y-227216045D01*
X394989035Y-227216045D02*
X395065226Y-227177950D01*
X395065226Y-227177950D02*
X395103321Y-227139854D01*
X395103321Y-227139854D02*
X395141416Y-227063664D01*
X395141416Y-227063664D02*
X395179512Y-226911283D01*
X395179512Y-226911283D02*
X395179512Y-226720807D01*
X395179512Y-226720807D02*
X395141416Y-226568426D01*
X395141416Y-226568426D02*
X395103321Y-226492235D01*
X395103321Y-226492235D02*
X395065226Y-226454140D01*
X395065226Y-226454140D02*
X394989035Y-226416045D01*
X394417607Y-226492235D02*
X394379511Y-226454140D01*
X394379511Y-226454140D02*
X394303321Y-226416045D01*
X394303321Y-226416045D02*
X394112845Y-226416045D01*
X394112845Y-226416045D02*
X394036654Y-226454140D01*
X394036654Y-226454140D02*
X393998559Y-226492235D01*
X393998559Y-226492235D02*
X393960464Y-226568426D01*
X393960464Y-226568426D02*
X393960464Y-226644616D01*
X393960464Y-226644616D02*
X393998559Y-226758902D01*
X393998559Y-226758902D02*
X394455702Y-227216045D01*
X394455702Y-227216045D02*
X393960464Y-227216045D01*
X395484274Y-229756045D02*
X395941417Y-229756045D01*
X395712845Y-229756045D02*
X395712845Y-228956045D01*
X395712845Y-228956045D02*
X395789036Y-229070330D01*
X395789036Y-229070330D02*
X395865226Y-229146521D01*
X395865226Y-229146521D02*
X395941417Y-229184616D01*
X394722369Y-229756045D02*
X395179512Y-229756045D01*
X394950940Y-229756045D02*
X394950940Y-228956045D01*
X394950940Y-228956045D02*
X395027131Y-229070330D01*
X395027131Y-229070330D02*
X395103321Y-229146521D01*
X395103321Y-229146521D02*
X395179512Y-229184616D01*
X393998559Y-228956045D02*
X394379511Y-228956045D01*
X394379511Y-228956045D02*
X394417607Y-229336997D01*
X394417607Y-229336997D02*
X394379511Y-229298902D01*
X394379511Y-229298902D02*
X394303321Y-229260807D01*
X394303321Y-229260807D02*
X394112845Y-229260807D01*
X394112845Y-229260807D02*
X394036654Y-229298902D01*
X394036654Y-229298902D02*
X393998559Y-229336997D01*
X393998559Y-229336997D02*
X393960464Y-229413188D01*
X393960464Y-229413188D02*
X393960464Y-229603664D01*
X393960464Y-229603664D02*
X393998559Y-229679854D01*
X393998559Y-229679854D02*
X394036654Y-229717950D01*
X394036654Y-229717950D02*
X394112845Y-229756045D01*
X394112845Y-229756045D02*
X394303321Y-229756045D01*
X394303321Y-229756045D02*
X394379511Y-229717950D01*
X394379511Y-229717950D02*
X394417607Y-229679854D01*
X395484274Y-232296045D02*
X395941417Y-232296045D01*
X395712845Y-232296045D02*
X395712845Y-231496045D01*
X395712845Y-231496045D02*
X395789036Y-231610330D01*
X395789036Y-231610330D02*
X395865226Y-231686521D01*
X395865226Y-231686521D02*
X395941417Y-231724616D01*
X394722369Y-232296045D02*
X395179512Y-232296045D01*
X394950940Y-232296045D02*
X394950940Y-231496045D01*
X394950940Y-231496045D02*
X395027131Y-231610330D01*
X395027131Y-231610330D02*
X395103321Y-231686521D01*
X395103321Y-231686521D02*
X395179512Y-231724616D01*
X394455702Y-231496045D02*
X393960464Y-231496045D01*
X393960464Y-231496045D02*
X394227130Y-231800807D01*
X394227130Y-231800807D02*
X394112845Y-231800807D01*
X394112845Y-231800807D02*
X394036654Y-231838902D01*
X394036654Y-231838902D02*
X393998559Y-231876997D01*
X393998559Y-231876997D02*
X393960464Y-231953188D01*
X393960464Y-231953188D02*
X393960464Y-232143664D01*
X393960464Y-232143664D02*
X393998559Y-232219854D01*
X393998559Y-232219854D02*
X394036654Y-232257950D01*
X394036654Y-232257950D02*
X394112845Y-232296045D01*
X394112845Y-232296045D02*
X394341416Y-232296045D01*
X394341416Y-232296045D02*
X394417607Y-232257950D01*
X394417607Y-232257950D02*
X394455702Y-232219854D01*
X395484274Y-234836045D02*
X395941417Y-234836045D01*
X395712845Y-234836045D02*
X395712845Y-234036045D01*
X395712845Y-234036045D02*
X395789036Y-234150330D01*
X395789036Y-234150330D02*
X395865226Y-234226521D01*
X395865226Y-234226521D02*
X395941417Y-234264616D01*
X394722369Y-234836045D02*
X395179512Y-234836045D01*
X394950940Y-234836045D02*
X394950940Y-234036045D01*
X394950940Y-234036045D02*
X395027131Y-234150330D01*
X395027131Y-234150330D02*
X395103321Y-234226521D01*
X395103321Y-234226521D02*
X395179512Y-234264616D01*
X393960464Y-234836045D02*
X394417607Y-234836045D01*
X394189035Y-234836045D02*
X394189035Y-234036045D01*
X394189035Y-234036045D02*
X394265226Y-234150330D01*
X394265226Y-234150330D02*
X394341416Y-234226521D01*
X394341416Y-234226521D02*
X394417607Y-234264616D01*
X395750940Y-236576045D02*
X395674750Y-236576045D01*
X395674750Y-236576045D02*
X395598559Y-236614140D01*
X395598559Y-236614140D02*
X395560464Y-236652235D01*
X395560464Y-236652235D02*
X395522369Y-236728426D01*
X395522369Y-236728426D02*
X395484274Y-236880807D01*
X395484274Y-236880807D02*
X395484274Y-237071283D01*
X395484274Y-237071283D02*
X395522369Y-237223664D01*
X395522369Y-237223664D02*
X395560464Y-237299854D01*
X395560464Y-237299854D02*
X395598559Y-237337950D01*
X395598559Y-237337950D02*
X395674750Y-237376045D01*
X395674750Y-237376045D02*
X395750940Y-237376045D01*
X395750940Y-237376045D02*
X395827131Y-237337950D01*
X395827131Y-237337950D02*
X395865226Y-237299854D01*
X395865226Y-237299854D02*
X395903321Y-237223664D01*
X395903321Y-237223664D02*
X395941417Y-237071283D01*
X395941417Y-237071283D02*
X395941417Y-236880807D01*
X395941417Y-236880807D02*
X395903321Y-236728426D01*
X395903321Y-236728426D02*
X395865226Y-236652235D01*
X395865226Y-236652235D02*
X395827131Y-236614140D01*
X395827131Y-236614140D02*
X395750940Y-236576045D01*
X394722369Y-237376045D02*
X395179512Y-237376045D01*
X394950940Y-237376045D02*
X394950940Y-236576045D01*
X394950940Y-236576045D02*
X395027131Y-236690330D01*
X395027131Y-236690330D02*
X395103321Y-236766521D01*
X395103321Y-236766521D02*
X395179512Y-236804616D01*
X394227130Y-236576045D02*
X394150940Y-236576045D01*
X394150940Y-236576045D02*
X394074749Y-236614140D01*
X394074749Y-236614140D02*
X394036654Y-236652235D01*
X394036654Y-236652235D02*
X393998559Y-236728426D01*
X393998559Y-236728426D02*
X393960464Y-236880807D01*
X393960464Y-236880807D02*
X393960464Y-237071283D01*
X393960464Y-237071283D02*
X393998559Y-237223664D01*
X393998559Y-237223664D02*
X394036654Y-237299854D01*
X394036654Y-237299854D02*
X394074749Y-237337950D01*
X394074749Y-237337950D02*
X394150940Y-237376045D01*
X394150940Y-237376045D02*
X394227130Y-237376045D01*
X394227130Y-237376045D02*
X394303321Y-237337950D01*
X394303321Y-237337950D02*
X394341416Y-237299854D01*
X394341416Y-237299854D02*
X394379511Y-237223664D01*
X394379511Y-237223664D02*
X394417607Y-237071283D01*
X394417607Y-237071283D02*
X394417607Y-236880807D01*
X394417607Y-236880807D02*
X394379511Y-236728426D01*
X394379511Y-236728426D02*
X394341416Y-236652235D01*
X394341416Y-236652235D02*
X394303321Y-236614140D01*
X394303321Y-236614140D02*
X394227130Y-236576045D01*
X395439844Y-217056045D02*
X395706511Y-216675092D01*
X395896987Y-217056045D02*
X395896987Y-216256045D01*
X395896987Y-216256045D02*
X395592225Y-216256045D01*
X395592225Y-216256045D02*
X395516035Y-216294140D01*
X395516035Y-216294140D02*
X395477940Y-216332235D01*
X395477940Y-216332235D02*
X395439844Y-216408426D01*
X395439844Y-216408426D02*
X395439844Y-216522711D01*
X395439844Y-216522711D02*
X395477940Y-216598902D01*
X395477940Y-216598902D02*
X395516035Y-216636997D01*
X395516035Y-216636997D02*
X395592225Y-216675092D01*
X395592225Y-216675092D02*
X395896987Y-216675092D01*
X395135083Y-217017950D02*
X395020797Y-217056045D01*
X395020797Y-217056045D02*
X394830321Y-217056045D01*
X394830321Y-217056045D02*
X394754130Y-217017950D01*
X394754130Y-217017950D02*
X394716035Y-216979854D01*
X394716035Y-216979854D02*
X394677940Y-216903664D01*
X394677940Y-216903664D02*
X394677940Y-216827473D01*
X394677940Y-216827473D02*
X394716035Y-216751283D01*
X394716035Y-216751283D02*
X394754130Y-216713188D01*
X394754130Y-216713188D02*
X394830321Y-216675092D01*
X394830321Y-216675092D02*
X394982702Y-216636997D01*
X394982702Y-216636997D02*
X395058892Y-216598902D01*
X395058892Y-216598902D02*
X395096987Y-216560807D01*
X395096987Y-216560807D02*
X395135083Y-216484616D01*
X395135083Y-216484616D02*
X395135083Y-216408426D01*
X395135083Y-216408426D02*
X395096987Y-216332235D01*
X395096987Y-216332235D02*
X395058892Y-216294140D01*
X395058892Y-216294140D02*
X394982702Y-216256045D01*
X394982702Y-216256045D02*
X394792225Y-216256045D01*
X394792225Y-216256045D02*
X394677940Y-216294140D01*
X394449368Y-216256045D02*
X393992225Y-216256045D01*
X394220797Y-217056045D02*
X394220797Y-216256045D01*
X101544285Y-300079819D02*
X101544285Y-299079819D01*
X101544285Y-299079819D02*
X101306190Y-299079819D01*
X101306190Y-299079819D02*
X101163333Y-299127438D01*
X101163333Y-299127438D02*
X101068095Y-299222676D01*
X101068095Y-299222676D02*
X101020476Y-299317914D01*
X101020476Y-299317914D02*
X100972857Y-299508390D01*
X100972857Y-299508390D02*
X100972857Y-299651247D01*
X100972857Y-299651247D02*
X101020476Y-299841723D01*
X101020476Y-299841723D02*
X101068095Y-299936961D01*
X101068095Y-299936961D02*
X101163333Y-300032200D01*
X101163333Y-300032200D02*
X101306190Y-300079819D01*
X101306190Y-300079819D02*
X101544285Y-300079819D01*
X100068095Y-299079819D02*
X100544285Y-299079819D01*
X100544285Y-299079819D02*
X100591904Y-299556009D01*
X100591904Y-299556009D02*
X100544285Y-299508390D01*
X100544285Y-299508390D02*
X100449047Y-299460771D01*
X100449047Y-299460771D02*
X100210952Y-299460771D01*
X100210952Y-299460771D02*
X100115714Y-299508390D01*
X100115714Y-299508390D02*
X100068095Y-299556009D01*
X100068095Y-299556009D02*
X100020476Y-299651247D01*
X100020476Y-299651247D02*
X100020476Y-299889342D01*
X100020476Y-299889342D02*
X100068095Y-299984580D01*
X100068095Y-299984580D02*
X100115714Y-300032200D01*
X100115714Y-300032200D02*
X100210952Y-300079819D01*
X100210952Y-300079819D02*
X100449047Y-300079819D01*
X100449047Y-300079819D02*
X100544285Y-300032200D01*
X100544285Y-300032200D02*
X100591904Y-299984580D01*
X99115714Y-299079819D02*
X99591904Y-299079819D01*
X99591904Y-299079819D02*
X99639523Y-299556009D01*
X99639523Y-299556009D02*
X99591904Y-299508390D01*
X99591904Y-299508390D02*
X99496666Y-299460771D01*
X99496666Y-299460771D02*
X99258571Y-299460771D01*
X99258571Y-299460771D02*
X99163333Y-299508390D01*
X99163333Y-299508390D02*
X99115714Y-299556009D01*
X99115714Y-299556009D02*
X99068095Y-299651247D01*
X99068095Y-299651247D02*
X99068095Y-299889342D01*
X99068095Y-299889342D02*
X99115714Y-299984580D01*
X99115714Y-299984580D02*
X99163333Y-300032200D01*
X99163333Y-300032200D02*
X99258571Y-300079819D01*
X99258571Y-300079819D02*
X99496666Y-300079819D01*
X99496666Y-300079819D02*
X99591904Y-300032200D01*
X99591904Y-300032200D02*
X99639523Y-299984580D01*
X125376785Y-242929819D02*
X125376785Y-241929819D01*
X125376785Y-241929819D02*
X125138690Y-241929819D01*
X125138690Y-241929819D02*
X124995833Y-241977438D01*
X124995833Y-241977438D02*
X124900595Y-242072676D01*
X124900595Y-242072676D02*
X124852976Y-242167914D01*
X124852976Y-242167914D02*
X124805357Y-242358390D01*
X124805357Y-242358390D02*
X124805357Y-242501247D01*
X124805357Y-242501247D02*
X124852976Y-242691723D01*
X124852976Y-242691723D02*
X124900595Y-242786961D01*
X124900595Y-242786961D02*
X124995833Y-242882200D01*
X124995833Y-242882200D02*
X125138690Y-242929819D01*
X125138690Y-242929819D02*
X125376785Y-242929819D01*
X123852976Y-242929819D02*
X124424404Y-242929819D01*
X124138690Y-242929819D02*
X124138690Y-241929819D01*
X124138690Y-241929819D02*
X124233928Y-242072676D01*
X124233928Y-242072676D02*
X124329166Y-242167914D01*
X124329166Y-242167914D02*
X124424404Y-242215533D01*
X123519642Y-241929819D02*
X122852976Y-241929819D01*
X122852976Y-241929819D02*
X123281547Y-242929819D01*
X187331785Y-261979819D02*
X187331785Y-260979819D01*
X187331785Y-260979819D02*
X187093690Y-260979819D01*
X187093690Y-260979819D02*
X186950833Y-261027438D01*
X186950833Y-261027438D02*
X186855595Y-261122676D01*
X186855595Y-261122676D02*
X186807976Y-261217914D01*
X186807976Y-261217914D02*
X186760357Y-261408390D01*
X186760357Y-261408390D02*
X186760357Y-261551247D01*
X186760357Y-261551247D02*
X186807976Y-261741723D01*
X186807976Y-261741723D02*
X186855595Y-261836961D01*
X186855595Y-261836961D02*
X186950833Y-261932200D01*
X186950833Y-261932200D02*
X187093690Y-261979819D01*
X187093690Y-261979819D02*
X187331785Y-261979819D01*
X186427023Y-260979819D02*
X185807976Y-260979819D01*
X185807976Y-260979819D02*
X186141309Y-261360771D01*
X186141309Y-261360771D02*
X185998452Y-261360771D01*
X185998452Y-261360771D02*
X185903214Y-261408390D01*
X185903214Y-261408390D02*
X185855595Y-261456009D01*
X185855595Y-261456009D02*
X185807976Y-261551247D01*
X185807976Y-261551247D02*
X185807976Y-261789342D01*
X185807976Y-261789342D02*
X185855595Y-261884580D01*
X185855595Y-261884580D02*
X185903214Y-261932200D01*
X185903214Y-261932200D02*
X185998452Y-261979819D01*
X185998452Y-261979819D02*
X186284166Y-261979819D01*
X186284166Y-261979819D02*
X186379404Y-261932200D01*
X186379404Y-261932200D02*
X186427023Y-261884580D01*
X185474642Y-260979819D02*
X184855595Y-260979819D01*
X184855595Y-260979819D02*
X185188928Y-261360771D01*
X185188928Y-261360771D02*
X185046071Y-261360771D01*
X185046071Y-261360771D02*
X184950833Y-261408390D01*
X184950833Y-261408390D02*
X184903214Y-261456009D01*
X184903214Y-261456009D02*
X184855595Y-261551247D01*
X184855595Y-261551247D02*
X184855595Y-261789342D01*
X184855595Y-261789342D02*
X184903214Y-261884580D01*
X184903214Y-261884580D02*
X184950833Y-261932200D01*
X184950833Y-261932200D02*
X185046071Y-261979819D01*
X185046071Y-261979819D02*
X185331785Y-261979819D01*
X185331785Y-261979819D02*
X185427023Y-261932200D01*
X185427023Y-261932200D02*
X185474642Y-261884580D01*
X363524285Y-300079819D02*
X363524285Y-299079819D01*
X363524285Y-299079819D02*
X363286190Y-299079819D01*
X363286190Y-299079819D02*
X363143333Y-299127438D01*
X363143333Y-299127438D02*
X363048095Y-299222676D01*
X363048095Y-299222676D02*
X363000476Y-299317914D01*
X363000476Y-299317914D02*
X362952857Y-299508390D01*
X362952857Y-299508390D02*
X362952857Y-299651247D01*
X362952857Y-299651247D02*
X363000476Y-299841723D01*
X363000476Y-299841723D02*
X363048095Y-299936961D01*
X363048095Y-299936961D02*
X363143333Y-300032200D01*
X363143333Y-300032200D02*
X363286190Y-300079819D01*
X363286190Y-300079819D02*
X363524285Y-300079819D01*
X362095714Y-299079819D02*
X362286190Y-299079819D01*
X362286190Y-299079819D02*
X362381428Y-299127438D01*
X362381428Y-299127438D02*
X362429047Y-299175057D01*
X362429047Y-299175057D02*
X362524285Y-299317914D01*
X362524285Y-299317914D02*
X362571904Y-299508390D01*
X362571904Y-299508390D02*
X362571904Y-299889342D01*
X362571904Y-299889342D02*
X362524285Y-299984580D01*
X362524285Y-299984580D02*
X362476666Y-300032200D01*
X362476666Y-300032200D02*
X362381428Y-300079819D01*
X362381428Y-300079819D02*
X362190952Y-300079819D01*
X362190952Y-300079819D02*
X362095714Y-300032200D01*
X362095714Y-300032200D02*
X362048095Y-299984580D01*
X362048095Y-299984580D02*
X362000476Y-299889342D01*
X362000476Y-299889342D02*
X362000476Y-299651247D01*
X362000476Y-299651247D02*
X362048095Y-299556009D01*
X362048095Y-299556009D02*
X362095714Y-299508390D01*
X362095714Y-299508390D02*
X362190952Y-299460771D01*
X362190952Y-299460771D02*
X362381428Y-299460771D01*
X362381428Y-299460771D02*
X362476666Y-299508390D01*
X362476666Y-299508390D02*
X362524285Y-299556009D01*
X362524285Y-299556009D02*
X362571904Y-299651247D01*
X361619523Y-299175057D02*
X361571904Y-299127438D01*
X361571904Y-299127438D02*
X361476666Y-299079819D01*
X361476666Y-299079819D02*
X361238571Y-299079819D01*
X361238571Y-299079819D02*
X361143333Y-299127438D01*
X361143333Y-299127438D02*
X361095714Y-299175057D01*
X361095714Y-299175057D02*
X361048095Y-299270295D01*
X361048095Y-299270295D02*
X361048095Y-299365533D01*
X361048095Y-299365533D02*
X361095714Y-299508390D01*
X361095714Y-299508390D02*
X361667142Y-300079819D01*
X361667142Y-300079819D02*
X361048095Y-300079819D01*
X320661785Y-261979819D02*
X320661785Y-260979819D01*
X320661785Y-260979819D02*
X320423690Y-260979819D01*
X320423690Y-260979819D02*
X320280833Y-261027438D01*
X320280833Y-261027438D02*
X320185595Y-261122676D01*
X320185595Y-261122676D02*
X320137976Y-261217914D01*
X320137976Y-261217914D02*
X320090357Y-261408390D01*
X320090357Y-261408390D02*
X320090357Y-261551247D01*
X320090357Y-261551247D02*
X320137976Y-261741723D01*
X320137976Y-261741723D02*
X320185595Y-261836961D01*
X320185595Y-261836961D02*
X320280833Y-261932200D01*
X320280833Y-261932200D02*
X320423690Y-261979819D01*
X320423690Y-261979819D02*
X320661785Y-261979819D01*
X319185595Y-260979819D02*
X319661785Y-260979819D01*
X319661785Y-260979819D02*
X319709404Y-261456009D01*
X319709404Y-261456009D02*
X319661785Y-261408390D01*
X319661785Y-261408390D02*
X319566547Y-261360771D01*
X319566547Y-261360771D02*
X319328452Y-261360771D01*
X319328452Y-261360771D02*
X319233214Y-261408390D01*
X319233214Y-261408390D02*
X319185595Y-261456009D01*
X319185595Y-261456009D02*
X319137976Y-261551247D01*
X319137976Y-261551247D02*
X319137976Y-261789342D01*
X319137976Y-261789342D02*
X319185595Y-261884580D01*
X319185595Y-261884580D02*
X319233214Y-261932200D01*
X319233214Y-261932200D02*
X319328452Y-261979819D01*
X319328452Y-261979819D02*
X319566547Y-261979819D01*
X319566547Y-261979819D02*
X319661785Y-261932200D01*
X319661785Y-261932200D02*
X319709404Y-261884580D01*
X318804642Y-260979819D02*
X318185595Y-260979819D01*
X318185595Y-260979819D02*
X318518928Y-261360771D01*
X318518928Y-261360771D02*
X318376071Y-261360771D01*
X318376071Y-261360771D02*
X318280833Y-261408390D01*
X318280833Y-261408390D02*
X318233214Y-261456009D01*
X318233214Y-261456009D02*
X318185595Y-261551247D01*
X318185595Y-261551247D02*
X318185595Y-261789342D01*
X318185595Y-261789342D02*
X318233214Y-261884580D01*
X318233214Y-261884580D02*
X318280833Y-261932200D01*
X318280833Y-261932200D02*
X318376071Y-261979819D01*
X318376071Y-261979819D02*
X318661785Y-261979819D01*
X318661785Y-261979819D02*
X318757023Y-261932200D01*
X318757023Y-261932200D02*
X318804642Y-261884580D01*
X144489285Y-242929819D02*
X144489285Y-241929819D01*
X144489285Y-241929819D02*
X144251190Y-241929819D01*
X144251190Y-241929819D02*
X144108333Y-241977438D01*
X144108333Y-241977438D02*
X144013095Y-242072676D01*
X144013095Y-242072676D02*
X143965476Y-242167914D01*
X143965476Y-242167914D02*
X143917857Y-242358390D01*
X143917857Y-242358390D02*
X143917857Y-242501247D01*
X143917857Y-242501247D02*
X143965476Y-242691723D01*
X143965476Y-242691723D02*
X144013095Y-242786961D01*
X144013095Y-242786961D02*
X144108333Y-242882200D01*
X144108333Y-242882200D02*
X144251190Y-242929819D01*
X144251190Y-242929819D02*
X144489285Y-242929819D01*
X142965476Y-242929819D02*
X143536904Y-242929819D01*
X143251190Y-242929819D02*
X143251190Y-241929819D01*
X143251190Y-241929819D02*
X143346428Y-242072676D01*
X143346428Y-242072676D02*
X143441666Y-242167914D01*
X143441666Y-242167914D02*
X143536904Y-242215533D01*
X142394047Y-242358390D02*
X142489285Y-242310771D01*
X142489285Y-242310771D02*
X142536904Y-242263152D01*
X142536904Y-242263152D02*
X142584523Y-242167914D01*
X142584523Y-242167914D02*
X142584523Y-242120295D01*
X142584523Y-242120295D02*
X142536904Y-242025057D01*
X142536904Y-242025057D02*
X142489285Y-241977438D01*
X142489285Y-241977438D02*
X142394047Y-241929819D01*
X142394047Y-241929819D02*
X142203571Y-241929819D01*
X142203571Y-241929819D02*
X142108333Y-241977438D01*
X142108333Y-241977438D02*
X142060714Y-242025057D01*
X142060714Y-242025057D02*
X142013095Y-242120295D01*
X142013095Y-242120295D02*
X142013095Y-242167914D01*
X142013095Y-242167914D02*
X142060714Y-242263152D01*
X142060714Y-242263152D02*
X142108333Y-242310771D01*
X142108333Y-242310771D02*
X142203571Y-242358390D01*
X142203571Y-242358390D02*
X142394047Y-242358390D01*
X142394047Y-242358390D02*
X142489285Y-242406009D01*
X142489285Y-242406009D02*
X142536904Y-242453628D01*
X142536904Y-242453628D02*
X142584523Y-242548866D01*
X142584523Y-242548866D02*
X142584523Y-242739342D01*
X142584523Y-242739342D02*
X142536904Y-242834580D01*
X142536904Y-242834580D02*
X142489285Y-242882200D01*
X142489285Y-242882200D02*
X142394047Y-242929819D01*
X142394047Y-242929819D02*
X142203571Y-242929819D01*
X142203571Y-242929819D02*
X142108333Y-242882200D01*
X142108333Y-242882200D02*
X142060714Y-242834580D01*
X142060714Y-242834580D02*
X142013095Y-242739342D01*
X142013095Y-242739342D02*
X142013095Y-242548866D01*
X142013095Y-242548866D02*
X142060714Y-242453628D01*
X142060714Y-242453628D02*
X142108333Y-242406009D01*
X142108333Y-242406009D02*
X142203571Y-242358390D01*
X273056785Y-281029819D02*
X273056785Y-280029819D01*
X273056785Y-280029819D02*
X272818690Y-280029819D01*
X272818690Y-280029819D02*
X272675833Y-280077438D01*
X272675833Y-280077438D02*
X272580595Y-280172676D01*
X272580595Y-280172676D02*
X272532976Y-280267914D01*
X272532976Y-280267914D02*
X272485357Y-280458390D01*
X272485357Y-280458390D02*
X272485357Y-280601247D01*
X272485357Y-280601247D02*
X272532976Y-280791723D01*
X272532976Y-280791723D02*
X272580595Y-280886961D01*
X272580595Y-280886961D02*
X272675833Y-280982200D01*
X272675833Y-280982200D02*
X272818690Y-281029819D01*
X272818690Y-281029819D02*
X273056785Y-281029819D01*
X271580595Y-280029819D02*
X272056785Y-280029819D01*
X272056785Y-280029819D02*
X272104404Y-280506009D01*
X272104404Y-280506009D02*
X272056785Y-280458390D01*
X272056785Y-280458390D02*
X271961547Y-280410771D01*
X271961547Y-280410771D02*
X271723452Y-280410771D01*
X271723452Y-280410771D02*
X271628214Y-280458390D01*
X271628214Y-280458390D02*
X271580595Y-280506009D01*
X271580595Y-280506009D02*
X271532976Y-280601247D01*
X271532976Y-280601247D02*
X271532976Y-280839342D01*
X271532976Y-280839342D02*
X271580595Y-280934580D01*
X271580595Y-280934580D02*
X271628214Y-280982200D01*
X271628214Y-280982200D02*
X271723452Y-281029819D01*
X271723452Y-281029819D02*
X271961547Y-281029819D01*
X271961547Y-281029819D02*
X272056785Y-280982200D01*
X272056785Y-280982200D02*
X272104404Y-280934580D01*
X270913928Y-280029819D02*
X270818690Y-280029819D01*
X270818690Y-280029819D02*
X270723452Y-280077438D01*
X270723452Y-280077438D02*
X270675833Y-280125057D01*
X270675833Y-280125057D02*
X270628214Y-280220295D01*
X270628214Y-280220295D02*
X270580595Y-280410771D01*
X270580595Y-280410771D02*
X270580595Y-280648866D01*
X270580595Y-280648866D02*
X270628214Y-280839342D01*
X270628214Y-280839342D02*
X270675833Y-280934580D01*
X270675833Y-280934580D02*
X270723452Y-280982200D01*
X270723452Y-280982200D02*
X270818690Y-281029819D01*
X270818690Y-281029819D02*
X270913928Y-281029819D01*
X270913928Y-281029819D02*
X271009166Y-280982200D01*
X271009166Y-280982200D02*
X271056785Y-280934580D01*
X271056785Y-280934580D02*
X271104404Y-280839342D01*
X271104404Y-280839342D02*
X271152023Y-280648866D01*
X271152023Y-280648866D02*
X271152023Y-280410771D01*
X271152023Y-280410771D02*
X271104404Y-280220295D01*
X271104404Y-280220295D02*
X271056785Y-280125057D01*
X271056785Y-280125057D02*
X271009166Y-280077438D01*
X271009166Y-280077438D02*
X270913928Y-280029819D01*
X210668094Y-223879819D02*
X210668094Y-222879819D01*
X210668094Y-222879819D02*
X210429999Y-222879819D01*
X210429999Y-222879819D02*
X210287142Y-222927438D01*
X210287142Y-222927438D02*
X210191904Y-223022676D01*
X210191904Y-223022676D02*
X210144285Y-223117914D01*
X210144285Y-223117914D02*
X210096666Y-223308390D01*
X210096666Y-223308390D02*
X210096666Y-223451247D01*
X210096666Y-223451247D02*
X210144285Y-223641723D01*
X210144285Y-223641723D02*
X210191904Y-223736961D01*
X210191904Y-223736961D02*
X210287142Y-223832200D01*
X210287142Y-223832200D02*
X210429999Y-223879819D01*
X210429999Y-223879819D02*
X210668094Y-223879819D01*
X209620475Y-223879819D02*
X209429999Y-223879819D01*
X209429999Y-223879819D02*
X209334761Y-223832200D01*
X209334761Y-223832200D02*
X209287142Y-223784580D01*
X209287142Y-223784580D02*
X209191904Y-223641723D01*
X209191904Y-223641723D02*
X209144285Y-223451247D01*
X209144285Y-223451247D02*
X209144285Y-223070295D01*
X209144285Y-223070295D02*
X209191904Y-222975057D01*
X209191904Y-222975057D02*
X209239523Y-222927438D01*
X209239523Y-222927438D02*
X209334761Y-222879819D01*
X209334761Y-222879819D02*
X209525237Y-222879819D01*
X209525237Y-222879819D02*
X209620475Y-222927438D01*
X209620475Y-222927438D02*
X209668094Y-222975057D01*
X209668094Y-222975057D02*
X209715713Y-223070295D01*
X209715713Y-223070295D02*
X209715713Y-223308390D01*
X209715713Y-223308390D02*
X209668094Y-223403628D01*
X209668094Y-223403628D02*
X209620475Y-223451247D01*
X209620475Y-223451247D02*
X209525237Y-223498866D01*
X209525237Y-223498866D02*
X209334761Y-223498866D01*
X209334761Y-223498866D02*
X209239523Y-223451247D01*
X209239523Y-223451247D02*
X209191904Y-223403628D01*
X209191904Y-223403628D02*
X209144285Y-223308390D01*
X220606785Y-242929819D02*
X220606785Y-241929819D01*
X220606785Y-241929819D02*
X220368690Y-241929819D01*
X220368690Y-241929819D02*
X220225833Y-241977438D01*
X220225833Y-241977438D02*
X220130595Y-242072676D01*
X220130595Y-242072676D02*
X220082976Y-242167914D01*
X220082976Y-242167914D02*
X220035357Y-242358390D01*
X220035357Y-242358390D02*
X220035357Y-242501247D01*
X220035357Y-242501247D02*
X220082976Y-242691723D01*
X220082976Y-242691723D02*
X220130595Y-242786961D01*
X220130595Y-242786961D02*
X220225833Y-242882200D01*
X220225833Y-242882200D02*
X220368690Y-242929819D01*
X220368690Y-242929819D02*
X220606785Y-242929819D01*
X219654404Y-242025057D02*
X219606785Y-241977438D01*
X219606785Y-241977438D02*
X219511547Y-241929819D01*
X219511547Y-241929819D02*
X219273452Y-241929819D01*
X219273452Y-241929819D02*
X219178214Y-241977438D01*
X219178214Y-241977438D02*
X219130595Y-242025057D01*
X219130595Y-242025057D02*
X219082976Y-242120295D01*
X219082976Y-242120295D02*
X219082976Y-242215533D01*
X219082976Y-242215533D02*
X219130595Y-242358390D01*
X219130595Y-242358390D02*
X219702023Y-242929819D01*
X219702023Y-242929819D02*
X219082976Y-242929819D01*
X218702023Y-242025057D02*
X218654404Y-241977438D01*
X218654404Y-241977438D02*
X218559166Y-241929819D01*
X218559166Y-241929819D02*
X218321071Y-241929819D01*
X218321071Y-241929819D02*
X218225833Y-241977438D01*
X218225833Y-241977438D02*
X218178214Y-242025057D01*
X218178214Y-242025057D02*
X218130595Y-242120295D01*
X218130595Y-242120295D02*
X218130595Y-242215533D01*
X218130595Y-242215533D02*
X218178214Y-242358390D01*
X218178214Y-242358390D02*
X218749642Y-242929819D01*
X218749642Y-242929819D02*
X218130595Y-242929819D01*
X254006785Y-281029819D02*
X254006785Y-280029819D01*
X254006785Y-280029819D02*
X253768690Y-280029819D01*
X253768690Y-280029819D02*
X253625833Y-280077438D01*
X253625833Y-280077438D02*
X253530595Y-280172676D01*
X253530595Y-280172676D02*
X253482976Y-280267914D01*
X253482976Y-280267914D02*
X253435357Y-280458390D01*
X253435357Y-280458390D02*
X253435357Y-280601247D01*
X253435357Y-280601247D02*
X253482976Y-280791723D01*
X253482976Y-280791723D02*
X253530595Y-280886961D01*
X253530595Y-280886961D02*
X253625833Y-280982200D01*
X253625833Y-280982200D02*
X253768690Y-281029819D01*
X253768690Y-281029819D02*
X254006785Y-281029819D01*
X252578214Y-280363152D02*
X252578214Y-281029819D01*
X252816309Y-279982200D02*
X253054404Y-280696485D01*
X253054404Y-280696485D02*
X252435357Y-280696485D01*
X252006785Y-281029819D02*
X251816309Y-281029819D01*
X251816309Y-281029819D02*
X251721071Y-280982200D01*
X251721071Y-280982200D02*
X251673452Y-280934580D01*
X251673452Y-280934580D02*
X251578214Y-280791723D01*
X251578214Y-280791723D02*
X251530595Y-280601247D01*
X251530595Y-280601247D02*
X251530595Y-280220295D01*
X251530595Y-280220295D02*
X251578214Y-280125057D01*
X251578214Y-280125057D02*
X251625833Y-280077438D01*
X251625833Y-280077438D02*
X251721071Y-280029819D01*
X251721071Y-280029819D02*
X251911547Y-280029819D01*
X251911547Y-280029819D02*
X252006785Y-280077438D01*
X252006785Y-280077438D02*
X252054404Y-280125057D01*
X252054404Y-280125057D02*
X252102023Y-280220295D01*
X252102023Y-280220295D02*
X252102023Y-280458390D01*
X252102023Y-280458390D02*
X252054404Y-280553628D01*
X252054404Y-280553628D02*
X252006785Y-280601247D01*
X252006785Y-280601247D02*
X251911547Y-280648866D01*
X251911547Y-280648866D02*
X251721071Y-280648866D01*
X251721071Y-280648866D02*
X251625833Y-280601247D01*
X251625833Y-280601247D02*
X251578214Y-280553628D01*
X251578214Y-280553628D02*
X251530595Y-280458390D01*
X277819285Y-242929819D02*
X277819285Y-241929819D01*
X277819285Y-241929819D02*
X277581190Y-241929819D01*
X277581190Y-241929819D02*
X277438333Y-241977438D01*
X277438333Y-241977438D02*
X277343095Y-242072676D01*
X277343095Y-242072676D02*
X277295476Y-242167914D01*
X277295476Y-242167914D02*
X277247857Y-242358390D01*
X277247857Y-242358390D02*
X277247857Y-242501247D01*
X277247857Y-242501247D02*
X277295476Y-242691723D01*
X277295476Y-242691723D02*
X277343095Y-242786961D01*
X277343095Y-242786961D02*
X277438333Y-242882200D01*
X277438333Y-242882200D02*
X277581190Y-242929819D01*
X277581190Y-242929819D02*
X277819285Y-242929819D01*
X276866904Y-242025057D02*
X276819285Y-241977438D01*
X276819285Y-241977438D02*
X276724047Y-241929819D01*
X276724047Y-241929819D02*
X276485952Y-241929819D01*
X276485952Y-241929819D02*
X276390714Y-241977438D01*
X276390714Y-241977438D02*
X276343095Y-242025057D01*
X276343095Y-242025057D02*
X276295476Y-242120295D01*
X276295476Y-242120295D02*
X276295476Y-242215533D01*
X276295476Y-242215533D02*
X276343095Y-242358390D01*
X276343095Y-242358390D02*
X276914523Y-242929819D01*
X276914523Y-242929819D02*
X276295476Y-242929819D01*
X275390714Y-241929819D02*
X275866904Y-241929819D01*
X275866904Y-241929819D02*
X275914523Y-242406009D01*
X275914523Y-242406009D02*
X275866904Y-242358390D01*
X275866904Y-242358390D02*
X275771666Y-242310771D01*
X275771666Y-242310771D02*
X275533571Y-242310771D01*
X275533571Y-242310771D02*
X275438333Y-242358390D01*
X275438333Y-242358390D02*
X275390714Y-242406009D01*
X275390714Y-242406009D02*
X275343095Y-242501247D01*
X275343095Y-242501247D02*
X275343095Y-242739342D01*
X275343095Y-242739342D02*
X275390714Y-242834580D01*
X275390714Y-242834580D02*
X275438333Y-242882200D01*
X275438333Y-242882200D02*
X275533571Y-242929819D01*
X275533571Y-242929819D02*
X275771666Y-242929819D01*
X275771666Y-242929819D02*
X275866904Y-242882200D01*
X275866904Y-242882200D02*
X275914523Y-242834580D01*
X363461785Y-223879819D02*
X363461785Y-222879819D01*
X363461785Y-222879819D02*
X363223690Y-222879819D01*
X363223690Y-222879819D02*
X363080833Y-222927438D01*
X363080833Y-222927438D02*
X362985595Y-223022676D01*
X362985595Y-223022676D02*
X362937976Y-223117914D01*
X362937976Y-223117914D02*
X362890357Y-223308390D01*
X362890357Y-223308390D02*
X362890357Y-223451247D01*
X362890357Y-223451247D02*
X362937976Y-223641723D01*
X362937976Y-223641723D02*
X362985595Y-223736961D01*
X362985595Y-223736961D02*
X363080833Y-223832200D01*
X363080833Y-223832200D02*
X363223690Y-223879819D01*
X363223690Y-223879819D02*
X363461785Y-223879819D01*
X362033214Y-222879819D02*
X362223690Y-222879819D01*
X362223690Y-222879819D02*
X362318928Y-222927438D01*
X362318928Y-222927438D02*
X362366547Y-222975057D01*
X362366547Y-222975057D02*
X362461785Y-223117914D01*
X362461785Y-223117914D02*
X362509404Y-223308390D01*
X362509404Y-223308390D02*
X362509404Y-223689342D01*
X362509404Y-223689342D02*
X362461785Y-223784580D01*
X362461785Y-223784580D02*
X362414166Y-223832200D01*
X362414166Y-223832200D02*
X362318928Y-223879819D01*
X362318928Y-223879819D02*
X362128452Y-223879819D01*
X362128452Y-223879819D02*
X362033214Y-223832200D01*
X362033214Y-223832200D02*
X361985595Y-223784580D01*
X361985595Y-223784580D02*
X361937976Y-223689342D01*
X361937976Y-223689342D02*
X361937976Y-223451247D01*
X361937976Y-223451247D02*
X361985595Y-223356009D01*
X361985595Y-223356009D02*
X362033214Y-223308390D01*
X362033214Y-223308390D02*
X362128452Y-223260771D01*
X362128452Y-223260771D02*
X362318928Y-223260771D01*
X362318928Y-223260771D02*
X362414166Y-223308390D01*
X362414166Y-223308390D02*
X362461785Y-223356009D01*
X362461785Y-223356009D02*
X362509404Y-223451247D01*
X361033214Y-222879819D02*
X361509404Y-222879819D01*
X361509404Y-222879819D02*
X361557023Y-223356009D01*
X361557023Y-223356009D02*
X361509404Y-223308390D01*
X361509404Y-223308390D02*
X361414166Y-223260771D01*
X361414166Y-223260771D02*
X361176071Y-223260771D01*
X361176071Y-223260771D02*
X361080833Y-223308390D01*
X361080833Y-223308390D02*
X361033214Y-223356009D01*
X361033214Y-223356009D02*
X360985595Y-223451247D01*
X360985595Y-223451247D02*
X360985595Y-223689342D01*
X360985595Y-223689342D02*
X361033214Y-223784580D01*
X361033214Y-223784580D02*
X361080833Y-223832200D01*
X361080833Y-223832200D02*
X361176071Y-223879819D01*
X361176071Y-223879819D02*
X361414166Y-223879819D01*
X361414166Y-223879819D02*
X361509404Y-223832200D01*
X361509404Y-223832200D02*
X361557023Y-223784580D01*
X325381785Y-300079819D02*
X325381785Y-299079819D01*
X325381785Y-299079819D02*
X325143690Y-299079819D01*
X325143690Y-299079819D02*
X325000833Y-299127438D01*
X325000833Y-299127438D02*
X324905595Y-299222676D01*
X324905595Y-299222676D02*
X324857976Y-299317914D01*
X324857976Y-299317914D02*
X324810357Y-299508390D01*
X324810357Y-299508390D02*
X324810357Y-299651247D01*
X324810357Y-299651247D02*
X324857976Y-299841723D01*
X324857976Y-299841723D02*
X324905595Y-299936961D01*
X324905595Y-299936961D02*
X325000833Y-300032200D01*
X325000833Y-300032200D02*
X325143690Y-300079819D01*
X325143690Y-300079819D02*
X325381785Y-300079819D01*
X323953214Y-299079819D02*
X324143690Y-299079819D01*
X324143690Y-299079819D02*
X324238928Y-299127438D01*
X324238928Y-299127438D02*
X324286547Y-299175057D01*
X324286547Y-299175057D02*
X324381785Y-299317914D01*
X324381785Y-299317914D02*
X324429404Y-299508390D01*
X324429404Y-299508390D02*
X324429404Y-299889342D01*
X324429404Y-299889342D02*
X324381785Y-299984580D01*
X324381785Y-299984580D02*
X324334166Y-300032200D01*
X324334166Y-300032200D02*
X324238928Y-300079819D01*
X324238928Y-300079819D02*
X324048452Y-300079819D01*
X324048452Y-300079819D02*
X323953214Y-300032200D01*
X323953214Y-300032200D02*
X323905595Y-299984580D01*
X323905595Y-299984580D02*
X323857976Y-299889342D01*
X323857976Y-299889342D02*
X323857976Y-299651247D01*
X323857976Y-299651247D02*
X323905595Y-299556009D01*
X323905595Y-299556009D02*
X323953214Y-299508390D01*
X323953214Y-299508390D02*
X324048452Y-299460771D01*
X324048452Y-299460771D02*
X324238928Y-299460771D01*
X324238928Y-299460771D02*
X324334166Y-299508390D01*
X324334166Y-299508390D02*
X324381785Y-299556009D01*
X324381785Y-299556009D02*
X324429404Y-299651247D01*
X323238928Y-299079819D02*
X323143690Y-299079819D01*
X323143690Y-299079819D02*
X323048452Y-299127438D01*
X323048452Y-299127438D02*
X323000833Y-299175057D01*
X323000833Y-299175057D02*
X322953214Y-299270295D01*
X322953214Y-299270295D02*
X322905595Y-299460771D01*
X322905595Y-299460771D02*
X322905595Y-299698866D01*
X322905595Y-299698866D02*
X322953214Y-299889342D01*
X322953214Y-299889342D02*
X323000833Y-299984580D01*
X323000833Y-299984580D02*
X323048452Y-300032200D01*
X323048452Y-300032200D02*
X323143690Y-300079819D01*
X323143690Y-300079819D02*
X323238928Y-300079819D01*
X323238928Y-300079819D02*
X323334166Y-300032200D01*
X323334166Y-300032200D02*
X323381785Y-299984580D01*
X323381785Y-299984580D02*
X323429404Y-299889342D01*
X323429404Y-299889342D02*
X323477023Y-299698866D01*
X323477023Y-299698866D02*
X323477023Y-299460771D01*
X323477023Y-299460771D02*
X323429404Y-299270295D01*
X323429404Y-299270295D02*
X323381785Y-299175057D01*
X323381785Y-299175057D02*
X323334166Y-299127438D01*
X323334166Y-299127438D02*
X323238928Y-299079819D01*
X158494285Y-281029819D02*
X158494285Y-280029819D01*
X158494285Y-280029819D02*
X158256190Y-280029819D01*
X158256190Y-280029819D02*
X158113333Y-280077438D01*
X158113333Y-280077438D02*
X158018095Y-280172676D01*
X158018095Y-280172676D02*
X157970476Y-280267914D01*
X157970476Y-280267914D02*
X157922857Y-280458390D01*
X157922857Y-280458390D02*
X157922857Y-280601247D01*
X157922857Y-280601247D02*
X157970476Y-280791723D01*
X157970476Y-280791723D02*
X158018095Y-280886961D01*
X158018095Y-280886961D02*
X158113333Y-280982200D01*
X158113333Y-280982200D02*
X158256190Y-281029819D01*
X158256190Y-281029819D02*
X158494285Y-281029819D01*
X157065714Y-280363152D02*
X157065714Y-281029819D01*
X157303809Y-279982200D02*
X157541904Y-280696485D01*
X157541904Y-280696485D02*
X156922857Y-280696485D01*
X156113333Y-280363152D02*
X156113333Y-281029819D01*
X156351428Y-279982200D02*
X156589523Y-280696485D01*
X156589523Y-280696485D02*
X155970476Y-280696485D01*
X363461785Y-242929819D02*
X363461785Y-241929819D01*
X363461785Y-241929819D02*
X363223690Y-241929819D01*
X363223690Y-241929819D02*
X363080833Y-241977438D01*
X363080833Y-241977438D02*
X362985595Y-242072676D01*
X362985595Y-242072676D02*
X362937976Y-242167914D01*
X362937976Y-242167914D02*
X362890357Y-242358390D01*
X362890357Y-242358390D02*
X362890357Y-242501247D01*
X362890357Y-242501247D02*
X362937976Y-242691723D01*
X362937976Y-242691723D02*
X362985595Y-242786961D01*
X362985595Y-242786961D02*
X363080833Y-242882200D01*
X363080833Y-242882200D02*
X363223690Y-242929819D01*
X363223690Y-242929819D02*
X363461785Y-242929819D01*
X362033214Y-241929819D02*
X362223690Y-241929819D01*
X362223690Y-241929819D02*
X362318928Y-241977438D01*
X362318928Y-241977438D02*
X362366547Y-242025057D01*
X362366547Y-242025057D02*
X362461785Y-242167914D01*
X362461785Y-242167914D02*
X362509404Y-242358390D01*
X362509404Y-242358390D02*
X362509404Y-242739342D01*
X362509404Y-242739342D02*
X362461785Y-242834580D01*
X362461785Y-242834580D02*
X362414166Y-242882200D01*
X362414166Y-242882200D02*
X362318928Y-242929819D01*
X362318928Y-242929819D02*
X362128452Y-242929819D01*
X362128452Y-242929819D02*
X362033214Y-242882200D01*
X362033214Y-242882200D02*
X361985595Y-242834580D01*
X361985595Y-242834580D02*
X361937976Y-242739342D01*
X361937976Y-242739342D02*
X361937976Y-242501247D01*
X361937976Y-242501247D02*
X361985595Y-242406009D01*
X361985595Y-242406009D02*
X362033214Y-242358390D01*
X362033214Y-242358390D02*
X362128452Y-242310771D01*
X362128452Y-242310771D02*
X362318928Y-242310771D01*
X362318928Y-242310771D02*
X362414166Y-242358390D01*
X362414166Y-242358390D02*
X362461785Y-242406009D01*
X362461785Y-242406009D02*
X362509404Y-242501247D01*
X361080833Y-241929819D02*
X361271309Y-241929819D01*
X361271309Y-241929819D02*
X361366547Y-241977438D01*
X361366547Y-241977438D02*
X361414166Y-242025057D01*
X361414166Y-242025057D02*
X361509404Y-242167914D01*
X361509404Y-242167914D02*
X361557023Y-242358390D01*
X361557023Y-242358390D02*
X361557023Y-242739342D01*
X361557023Y-242739342D02*
X361509404Y-242834580D01*
X361509404Y-242834580D02*
X361461785Y-242882200D01*
X361461785Y-242882200D02*
X361366547Y-242929819D01*
X361366547Y-242929819D02*
X361176071Y-242929819D01*
X361176071Y-242929819D02*
X361080833Y-242882200D01*
X361080833Y-242882200D02*
X361033214Y-242834580D01*
X361033214Y-242834580D02*
X360985595Y-242739342D01*
X360985595Y-242739342D02*
X360985595Y-242501247D01*
X360985595Y-242501247D02*
X361033214Y-242406009D01*
X361033214Y-242406009D02*
X361080833Y-242358390D01*
X361080833Y-242358390D02*
X361176071Y-242310771D01*
X361176071Y-242310771D02*
X361366547Y-242310771D01*
X361366547Y-242310771D02*
X361461785Y-242358390D01*
X361461785Y-242358390D02*
X361509404Y-242406009D01*
X361509404Y-242406009D02*
X361557023Y-242501247D01*
X134405594Y-223879819D02*
X134405594Y-222879819D01*
X134405594Y-222879819D02*
X134167499Y-222879819D01*
X134167499Y-222879819D02*
X134024642Y-222927438D01*
X134024642Y-222927438D02*
X133929404Y-223022676D01*
X133929404Y-223022676D02*
X133881785Y-223117914D01*
X133881785Y-223117914D02*
X133834166Y-223308390D01*
X133834166Y-223308390D02*
X133834166Y-223451247D01*
X133834166Y-223451247D02*
X133881785Y-223641723D01*
X133881785Y-223641723D02*
X133929404Y-223736961D01*
X133929404Y-223736961D02*
X134024642Y-223832200D01*
X134024642Y-223832200D02*
X134167499Y-223879819D01*
X134167499Y-223879819D02*
X134405594Y-223879819D01*
X132929404Y-222879819D02*
X133405594Y-222879819D01*
X133405594Y-222879819D02*
X133453213Y-223356009D01*
X133453213Y-223356009D02*
X133405594Y-223308390D01*
X133405594Y-223308390D02*
X133310356Y-223260771D01*
X133310356Y-223260771D02*
X133072261Y-223260771D01*
X133072261Y-223260771D02*
X132977023Y-223308390D01*
X132977023Y-223308390D02*
X132929404Y-223356009D01*
X132929404Y-223356009D02*
X132881785Y-223451247D01*
X132881785Y-223451247D02*
X132881785Y-223689342D01*
X132881785Y-223689342D02*
X132929404Y-223784580D01*
X132929404Y-223784580D02*
X132977023Y-223832200D01*
X132977023Y-223832200D02*
X133072261Y-223879819D01*
X133072261Y-223879819D02*
X133310356Y-223879819D01*
X133310356Y-223879819D02*
X133405594Y-223832200D01*
X133405594Y-223832200D02*
X133453213Y-223784580D01*
%TO.C,D27*%
D12*
X307277500Y-224425000D02*
X307277500Y-226425000D01*
X307277500Y-224425000D02*
X303267500Y-224425000D01*
X307277500Y-226425000D02*
X303267500Y-226425000D01*
%TO.C,D2*%
X78877500Y-226425000D02*
X74867500Y-226425000D01*
X78877500Y-224425000D02*
X74867500Y-224425000D01*
X78877500Y-224425000D02*
X78877500Y-226425000D01*
%TO.C,D3*%
X97927500Y-226425000D02*
X93917500Y-226425000D01*
X97927500Y-224425000D02*
X93917500Y-224425000D01*
X97927500Y-224425000D02*
X97927500Y-226425000D01*
%TO.C,D4*%
X117040000Y-226425000D02*
X113030000Y-226425000D01*
X117040000Y-224425000D02*
X113030000Y-224425000D01*
X117040000Y-224425000D02*
X117040000Y-226425000D01*
%TO.C,D57*%
X150315000Y-302625000D02*
X146305000Y-302625000D01*
X150315000Y-300625000D02*
X146305000Y-300625000D01*
X150315000Y-300625000D02*
X150315000Y-302625000D01*
%TO.C,D63*%
X312240000Y-283575000D02*
X308230000Y-283575000D01*
X312240000Y-281575000D02*
X308230000Y-281575000D01*
X312240000Y-281575000D02*
X312240000Y-283575000D01*
%TO.C,D59*%
X293190000Y-302625000D02*
X289180000Y-302625000D01*
X293190000Y-300625000D02*
X289180000Y-300625000D01*
X293190000Y-300625000D02*
X293190000Y-302625000D01*
%TO.C,D51*%
X293210000Y-281575000D02*
X293210000Y-283575000D01*
X293210000Y-281575000D02*
X289200000Y-281575000D01*
X293210000Y-283575000D02*
X289200000Y-283575000D01*
%TO.C,D41*%
X78877500Y-283575000D02*
X74867500Y-283575000D01*
X78877500Y-281575000D02*
X74867500Y-281575000D01*
X78877500Y-281575000D02*
X78877500Y-283575000D01*
%TO.C,D29*%
X112215000Y-264525000D02*
X108205000Y-264525000D01*
X112215000Y-262525000D02*
X108205000Y-262525000D01*
X112215000Y-262525000D02*
X112215000Y-264525000D01*
%TO.C,D36*%
X245585000Y-264525000D02*
X241575000Y-264525000D01*
X245585000Y-262525000D02*
X241575000Y-262525000D01*
X245585000Y-262525000D02*
X245585000Y-264525000D01*
%TO.C,D28*%
X78877500Y-264525000D02*
X74867500Y-264525000D01*
X78877500Y-262525000D02*
X74867500Y-262525000D01*
X78877500Y-262525000D02*
X78877500Y-264525000D01*
%TO.C,D15*%
X78815000Y-245475000D02*
X74805000Y-245475000D01*
X78815000Y-243475000D02*
X74805000Y-243475000D01*
X78815000Y-243475000D02*
X78815000Y-245475000D01*
%TO.C,D21*%
X202765000Y-245475000D02*
X198755000Y-245475000D01*
X202765000Y-243475000D02*
X198755000Y-243475000D01*
X202765000Y-243475000D02*
X202765000Y-245475000D01*
%TO.C,D20*%
X183652500Y-245475000D02*
X179642500Y-245475000D01*
X183652500Y-243475000D02*
X179642500Y-243475000D01*
X183652500Y-243475000D02*
X183652500Y-245475000D01*
%TO.C,D39*%
X297952500Y-245475000D02*
X293942500Y-245475000D01*
X297952500Y-243475000D02*
X293942500Y-243475000D01*
X297952500Y-243475000D02*
X297952500Y-245475000D01*
%TO.C,D8*%
X193197500Y-226425000D02*
X189187500Y-226425000D01*
X193197500Y-224425000D02*
X189187500Y-224425000D01*
X193197500Y-224425000D02*
X193197500Y-226425000D01*
%TO.C,D32*%
X169447500Y-262525000D02*
X169447500Y-264525000D01*
X169447500Y-262525000D02*
X165437500Y-262525000D01*
X169447500Y-264525000D02*
X165437500Y-264525000D01*
%TO.C,D23*%
X240865000Y-243475000D02*
X240865000Y-245475000D01*
X240865000Y-243475000D02*
X236855000Y-243475000D01*
X240865000Y-245475000D02*
X236855000Y-245475000D01*
%TO.C,D26*%
X288427500Y-224425000D02*
X288427500Y-226425000D01*
X288427500Y-224425000D02*
X284417500Y-224425000D01*
X288427500Y-226425000D02*
X284417500Y-226425000D01*
%TO.C,D31*%
X150315000Y-262525000D02*
X150315000Y-264525000D01*
X150315000Y-262525000D02*
X146305000Y-262525000D01*
X150315000Y-264525000D02*
X146305000Y-264525000D01*
%TO.C,D35*%
X226515000Y-262525000D02*
X226515000Y-264525000D01*
X226515000Y-262525000D02*
X222505000Y-262525000D01*
X226515000Y-264525000D02*
X222505000Y-264525000D01*
%TO.C,D13*%
X336115000Y-243475000D02*
X336115000Y-245475000D01*
X336115000Y-243475000D02*
X332105000Y-243475000D01*
X336115000Y-245475000D02*
X332105000Y-245475000D01*
%TO.C,D43*%
X140852500Y-281575000D02*
X140852500Y-283575000D01*
X140852500Y-281575000D02*
X136842500Y-281575000D01*
X140852500Y-283575000D02*
X136842500Y-283575000D01*
%TO.C,D16*%
X107452500Y-243475000D02*
X107452500Y-245475000D01*
X107452500Y-243475000D02*
X103442500Y-243475000D01*
X107452500Y-245475000D02*
X103442500Y-245475000D01*
%TO.C,D64*%
X345620000Y-281575000D02*
X345620000Y-283575000D01*
X345620000Y-281575000D02*
X341610000Y-281575000D01*
X345620000Y-283575000D02*
X341610000Y-283575000D01*
%TO.C,D24*%
X259652500Y-243475000D02*
X259652500Y-245475000D01*
X259652500Y-243475000D02*
X255642500Y-243475000D01*
X259652500Y-245475000D02*
X255642500Y-245475000D01*
%TO.C,D42*%
X121540000Y-281575000D02*
X121540000Y-283575000D01*
X121540000Y-281575000D02*
X117530000Y-281575000D01*
X121540000Y-283575000D02*
X117530000Y-283575000D01*
%TO.C,D52*%
X302735000Y-262525000D02*
X302735000Y-264525000D01*
X302735000Y-262525000D02*
X298725000Y-262525000D01*
X302735000Y-264525000D02*
X298725000Y-264525000D01*
%TO.C,D14*%
X326138512Y-224425000D02*
X326138512Y-226425000D01*
X326138512Y-224425000D02*
X322128512Y-224425000D01*
X326138512Y-226425000D02*
X322128512Y-226425000D01*
%TO.C,D11*%
X250327500Y-224425000D02*
X250327500Y-226425000D01*
X250327500Y-224425000D02*
X246317500Y-224425000D01*
X250327500Y-226425000D02*
X246317500Y-226425000D01*
%TO.C,D48*%
X236060000Y-281575000D02*
X236060000Y-283575000D01*
X236060000Y-281575000D02*
X232050000Y-281575000D01*
X236060000Y-283575000D02*
X232050000Y-283575000D01*
%TO.C,D30*%
X131285000Y-262525000D02*
X131285000Y-264525000D01*
X131285000Y-262525000D02*
X127275000Y-262525000D01*
X131285000Y-264525000D02*
X127275000Y-264525000D01*
%TO.C,D6*%
X155077500Y-224425000D02*
X155077500Y-226425000D01*
X155077500Y-224425000D02*
X151067500Y-224425000D01*
X155077500Y-226425000D02*
X151067500Y-226425000D01*
%TO.C,D19*%
X164685000Y-243475000D02*
X164685000Y-245475000D01*
X164685000Y-243475000D02*
X160675000Y-243475000D01*
X164685000Y-245475000D02*
X160675000Y-245475000D01*
%TO.C,D46*%
X197740000Y-281575000D02*
X197740000Y-283575000D01*
X197740000Y-281575000D02*
X193730000Y-281575000D01*
X197740000Y-283575000D02*
X193730000Y-283575000D01*
%TO.C,D7*%
X174492262Y-224425000D02*
X174492262Y-226425000D01*
X174492262Y-224425000D02*
X170482262Y-224425000D01*
X174492262Y-226425000D02*
X170482262Y-226425000D01*
%TO.C,D58*%
X269240000Y-300625000D02*
X269240000Y-302625000D01*
X269240000Y-300625000D02*
X265230000Y-300625000D01*
X269240000Y-302625000D02*
X265230000Y-302625000D01*
%TO.C,D56*%
X126565000Y-300625000D02*
X126565000Y-302625000D01*
X126565000Y-300625000D02*
X122555000Y-300625000D01*
X126565000Y-302625000D02*
X122555000Y-302625000D01*
%TO.C,D34*%
X207547500Y-262525000D02*
X207547500Y-264525000D01*
X207547500Y-262525000D02*
X203537500Y-262525000D01*
X207547500Y-264525000D02*
X203537500Y-264525000D01*
%TO.C,D47*%
X217072500Y-281575000D02*
X217072500Y-283575000D01*
X217072500Y-281575000D02*
X213062500Y-281575000D01*
X217072500Y-283575000D02*
X213062500Y-283575000D01*
%TO.C,D10*%
X231340000Y-224425000D02*
X231340000Y-226425000D01*
X231340000Y-224425000D02*
X227330000Y-224425000D01*
X231340000Y-226425000D02*
X227330000Y-226425000D01*
%TO.C,D37*%
X264697500Y-262525000D02*
X264697500Y-264525000D01*
X264697500Y-262525000D02*
X260687500Y-262525000D01*
X264697500Y-264525000D02*
X260687500Y-264525000D01*
%TO.C,D54*%
X78897500Y-300625000D02*
X78897500Y-302625000D01*
X78897500Y-300625000D02*
X74887500Y-300625000D01*
X78897500Y-302625000D02*
X74887500Y-302625000D01*
%TO.C,D45*%
X178752500Y-281575000D02*
X178752500Y-283575000D01*
X178752500Y-281575000D02*
X174742500Y-281575000D01*
X178752500Y-283575000D02*
X174742500Y-283575000D01*
%TO.C,D40*%
X316982500Y-243475000D02*
X316982500Y-245475000D01*
X316982500Y-243475000D02*
X312972500Y-243475000D01*
X316982500Y-245475000D02*
X312972500Y-245475000D01*
%TO.C,D12*%
X269397500Y-224425000D02*
X269397500Y-226425000D01*
X269397500Y-224425000D02*
X265387500Y-224425000D01*
X269397500Y-226425000D02*
X265387500Y-226425000D01*
%TO.C,D38*%
X283685000Y-262525000D02*
X283685000Y-264525000D01*
X283685000Y-262525000D02*
X279675000Y-262525000D01*
X283685000Y-264525000D02*
X279675000Y-264525000D01*
%TO.C,D61*%
X345620000Y-300625000D02*
X345620000Y-302625000D01*
X345620000Y-300625000D02*
X341610000Y-300625000D01*
X345620000Y-302625000D02*
X341610000Y-302625000D01*
%TO.C,U1*%
D13*
X380523750Y-207803750D02*
X380523750Y-240823750D01*
X380523750Y-240823750D02*
X398303750Y-240823750D01*
X398303750Y-207803750D02*
X380523750Y-207803750D01*
X398303750Y-240823750D02*
X398303750Y-207803750D01*
%TO.C,D55*%
D12*
X102690000Y-300625000D02*
X102690000Y-302625000D01*
X102690000Y-300625000D02*
X98680000Y-300625000D01*
X102690000Y-302625000D02*
X98680000Y-302625000D01*
%TO.C,D17*%
X126522500Y-243475000D02*
X126522500Y-245475000D01*
X126522500Y-243475000D02*
X122512500Y-243475000D01*
X126522500Y-245475000D02*
X122512500Y-245475000D01*
%TO.C,D33*%
X188477500Y-262525000D02*
X188477500Y-264525000D01*
X188477500Y-262525000D02*
X184467500Y-262525000D01*
X188477500Y-264525000D02*
X184467500Y-264525000D01*
%TO.C,D62*%
X364670000Y-300625000D02*
X364670000Y-302625000D01*
X364670000Y-300625000D02*
X360660000Y-300625000D01*
X364670000Y-302625000D02*
X360660000Y-302625000D01*
%TO.C,D53*%
X321807500Y-262525000D02*
X321807500Y-264525000D01*
X321807500Y-262525000D02*
X317797500Y-262525000D01*
X321807500Y-264525000D02*
X317797500Y-264525000D01*
%TO.C,D18*%
X145635000Y-243475000D02*
X145635000Y-245475000D01*
X145635000Y-243475000D02*
X141625000Y-243475000D01*
X145635000Y-245475000D02*
X141625000Y-245475000D01*
%TO.C,D50*%
X274202500Y-281575000D02*
X274202500Y-283575000D01*
X274202500Y-281575000D02*
X270192500Y-281575000D01*
X274202500Y-283575000D02*
X270192500Y-283575000D01*
%TO.C,D9*%
X212290000Y-224425000D02*
X212290000Y-226425000D01*
X212290000Y-224425000D02*
X208280000Y-224425000D01*
X212290000Y-226425000D02*
X208280000Y-226425000D01*
%TO.C,D22*%
X221752500Y-243475000D02*
X221752500Y-245475000D01*
X221752500Y-243475000D02*
X217742500Y-243475000D01*
X221752500Y-245475000D02*
X217742500Y-245475000D01*
%TO.C,D49*%
X255152500Y-281575000D02*
X255152500Y-283575000D01*
X255152500Y-281575000D02*
X251142500Y-281575000D01*
X255152500Y-283575000D02*
X251142500Y-283575000D01*
%TO.C,D25*%
X278965000Y-243475000D02*
X278965000Y-245475000D01*
X278965000Y-243475000D02*
X274955000Y-243475000D01*
X278965000Y-245475000D02*
X274955000Y-245475000D01*
%TO.C,D65*%
X364607500Y-224425000D02*
X364607500Y-226425000D01*
X364607500Y-224425000D02*
X360597500Y-224425000D01*
X364607500Y-226425000D02*
X360597500Y-226425000D01*
%TO.C,D60*%
X326527500Y-300625000D02*
X326527500Y-302625000D01*
X326527500Y-300625000D02*
X322517500Y-300625000D01*
X326527500Y-302625000D02*
X322517500Y-302625000D01*
%TO.C,D44*%
X159640000Y-281575000D02*
X159640000Y-283575000D01*
X159640000Y-281575000D02*
X155630000Y-281575000D01*
X159640000Y-283575000D02*
X155630000Y-283575000D01*
%TO.C,D66*%
X364607500Y-243475000D02*
X364607500Y-245475000D01*
X364607500Y-243475000D02*
X360597500Y-243475000D01*
X364607500Y-245475000D02*
X360597500Y-245475000D01*
%TO.C,D5*%
X136027500Y-224425000D02*
X136027500Y-226425000D01*
X136027500Y-224425000D02*
X132017500Y-224425000D01*
X136027500Y-226425000D02*
X132017500Y-226425000D01*
%TD*%
D14*
%TO.C,U1*%
X381793750Y-211613750D03*
X381793750Y-214153750D03*
X381793750Y-216693750D03*
X381793750Y-219233750D03*
X381793750Y-221773750D03*
X381793750Y-224313750D03*
X381793750Y-226853750D03*
X381793750Y-229393750D03*
X381793750Y-231933750D03*
X381793750Y-234473750D03*
X381793750Y-237013750D03*
X381793750Y-239553750D03*
X397033750Y-239553750D03*
X397033750Y-237013750D03*
X397033750Y-234473750D03*
X397033750Y-231933750D03*
X397033750Y-229393750D03*
X397033750Y-226853750D03*
X397033750Y-224313750D03*
X397033750Y-221773750D03*
X397033750Y-219233750D03*
X397033750Y-216693750D03*
X397033750Y-214153750D03*
X397033750Y-211613750D03*
X384333750Y-234473750D03*
X386873750Y-234473750D03*
X389413750Y-234473750D03*
%TD*%
M02*
