%TF.GenerationSoftware,KiCad,Pcbnew,10.0.0*%
%TF.CreationDate,2026-04-21T08:27:56+10:00*%
%TF.ProjectId,YetAnotherKeyboard,59657441-6e6f-4746-9865-724b6579626f,rev?*%
%TF.SameCoordinates,Original*%
%TF.FileFunction,Copper,L2,Bot*%
%TF.FilePolarity,Positive*%
%FSLAX46Y46*%
G04 Gerber Fmt 4.6, Leading zero omitted, Abs format (unit mm)*
G04 Created by KiCad (PCBNEW 10.0.0) date 2026-04-21 08:27:56*
%MOMM*%
%LPD*%
G01*
G04 APERTURE LIST*
%TA.AperFunction,ComponentPad*%
%ADD10R,1.000000X1.000000*%
%TD*%
%TA.AperFunction,ComponentPad*%
%ADD11C,1.000000*%
%TD*%
%TA.AperFunction,ComponentPad*%
%ADD12C,1.752600*%
%TD*%
%TA.AperFunction,ViaPad*%
%ADD13C,0.600000*%
%TD*%
%TA.AperFunction,Conductor*%
%ADD14C,0.200000*%
%TD*%
G04 APERTURE END LIST*
D10*
%TO.P,J1,1,Pin_1_1*%
%TO.N,/CS*%
X373856250Y-263207500D03*
D11*
%TO.P,J1,2,Pin_2_2*%
%TO.N,GND*%
X373856250Y-264477500D03*
%TO.P,J1,3,Pin_3_3*%
%TO.N,/VCC*%
X373856250Y-265747500D03*
%TO.P,J1,4,Pin_4_4*%
%TO.N,/SCK*%
X373856250Y-267017500D03*
%TO.P,J1,5,Pin_5_5*%
%TO.N,/MOSI*%
X373856250Y-268287500D03*
%TD*%
D12*
%TO.P,U1,1,TX0/P0.06_1*%
%TO.N,/CS*%
X381793750Y-211613750D03*
%TO.P,U1,2,RX1/P0.08_2*%
%TO.N,COL1*%
X381793750Y-214153750D03*
%TO.P,U1,3,GND_3*%
%TO.N,GND*%
X381793750Y-216693750D03*
%TO.P,U1,4,GND_4*%
X381793750Y-219233750D03*
%TO.P,U1,5,P0.17_5*%
%TO.N,/MOSI*%
X381793750Y-221773750D03*
%TO.P,U1,6,P0.20_6*%
%TO.N,/SCK*%
X381793750Y-224313750D03*
%TO.P,U1,7,P0.22_7*%
%TO.N,COL2*%
X381793750Y-226853750D03*
%TO.P,U1,8,P0.24_8*%
%TO.N,COL3*%
X381793750Y-229393750D03*
%TO.P,U1,9,P1.00_9*%
%TO.N,COL4*%
X381793750Y-231933750D03*
%TO.P,U1,10,P0.11_10*%
%TO.N,COL5*%
X381793750Y-234473750D03*
%TO.P,U1,11,P1.04_11*%
%TO.N,COL6*%
X381793750Y-237013750D03*
%TO.P,U1,12,P1.06_12*%
%TO.N,COL7*%
X381793750Y-239553750D03*
%TO.P,U1,13,NFC1/P0.09_13*%
%TO.N,COL11*%
X397033750Y-239553750D03*
%TO.P,U1,14,NFC2/P0.10_14*%
%TO.N,COL12*%
X397033750Y-237013750D03*
%TO.P,U1,15,P1.11_15*%
%TO.N,COL13*%
X397033750Y-234473750D03*
%TO.P,U1,16,P1.13_16*%
%TO.N,ROW5*%
X397033750Y-231933750D03*
%TO.P,U1,17,P1.15_17*%
%TO.N,ROW4*%
X397033750Y-229393750D03*
%TO.P,U1,18,AIN0/P0.02_18*%
%TO.N,ROW3*%
X397033750Y-226853750D03*
%TO.P,U1,19,AIN5/P0.29_19*%
%TO.N,ROW2*%
X397033750Y-224313750D03*
%TO.P,U1,20,AIN7/P0.31_20*%
%TO.N,ROW1*%
X397033750Y-221773750D03*
%TO.P,U1,21,VCC_21*%
%TO.N,/VCC*%
X397033750Y-219233750D03*
%TO.P,U1,22,RST_22*%
%TO.N,Net-(U1-RST)*%
X397033750Y-216693750D03*
%TO.P,U1,23,GND_23*%
%TO.N,GND*%
X397033750Y-214153750D03*
%TO.P,U1,24,BATIN/P0.04_24*%
%TO.N,Net-(U1-BATIN{slash}P0.04)*%
X397033750Y-211613750D03*
%TO.P,U1,31,P1.01_31*%
%TO.N,COL8*%
X384333750Y-234473750D03*
%TO.P,U1,32,P1.02_32*%
%TO.N,COL9*%
X386873750Y-234473750D03*
%TO.P,U1,33,P1.07_33*%
%TO.N,COL10*%
X389413750Y-234473750D03*
%TD*%
D13*
%TO.N,COL4*%
X195262500Y-289718750D03*
X157956250Y-272256250D03*
X143668750Y-234156250D03*
X134143750Y-215106250D03*
X149225000Y-253206250D03*
%TO.N,COL9*%
X360362500Y-287337500D03*
X242887500Y-254000000D03*
X251618750Y-273050000D03*
X365918750Y-286543750D03*
X237331250Y-234156250D03*
X228600000Y-215900000D03*
%TO.N,COL12*%
X310356250Y-239712500D03*
X285750000Y-215900000D03*
X361156250Y-226218750D03*
X361156250Y-216693750D03*
X295275000Y-234950000D03*
X302418750Y-247650000D03*
%TO.N,COL11*%
X276225000Y-234156250D03*
X290512500Y-272256250D03*
X363537500Y-268287500D03*
X280987500Y-253206250D03*
X267493750Y-215900000D03*
X289718750Y-261937500D03*
X340518750Y-269081250D03*
X370681250Y-272256250D03*
%TO.N,COL10*%
X314325000Y-269875000D03*
X247650000Y-215106250D03*
X271462500Y-272256250D03*
X257175000Y-234950000D03*
X260350000Y-254793750D03*
%TO.N,ROW1*%
X374650000Y-222250000D03*
X389731250Y-220662500D03*
%TO.N,ROW5*%
X379412500Y-248443750D03*
X354012500Y-279400000D03*
X373550102Y-247704644D03*
%TO.N,COL7*%
X204787500Y-253206250D03*
X200818750Y-234950000D03*
X191293750Y-215106250D03*
X321468750Y-288131250D03*
X213518750Y-273050000D03*
%TO.N,COL5*%
X381000000Y-251618750D03*
X166687500Y-253206250D03*
X153193750Y-215106250D03*
X175418750Y-272256250D03*
X268287500Y-291306250D03*
X161925000Y-234950000D03*
%TO.N,ROW2*%
X317500000Y-223837500D03*
X306545691Y-225442805D03*
X295275000Y-225425000D03*
X293687500Y-228600000D03*
%TO.N,COL8*%
X233362500Y-273050000D03*
X219075000Y-234156250D03*
X209550000Y-215900000D03*
X317500000Y-285750000D03*
X317500000Y-282575000D03*
X273050000Y-277812500D03*
X223837500Y-253206250D03*
X384175000Y-245268750D03*
X365125000Y-277812500D03*
X342900000Y-286543750D03*
%TO.N,ROW3*%
X371475000Y-242887500D03*
X380206250Y-235743750D03*
%TO.N,COL6*%
X172243750Y-215900000D03*
X180181250Y-234156250D03*
X185737500Y-253206250D03*
X329406250Y-280987500D03*
X195262500Y-273050000D03*
X292100000Y-291306250D03*
%TO.N,COL13*%
X313531250Y-229393750D03*
X332500000Y-246750000D03*
X304006250Y-215900000D03*
X331787500Y-215106250D03*
X360325000Y-236575000D03*
X386556250Y-225425000D03*
X329000000Y-247250000D03*
X362743750Y-229393750D03*
%TO.N,COL2*%
X393672610Y-229366360D03*
X110331250Y-253206250D03*
X96043750Y-215106250D03*
X105568750Y-233362500D03*
X119856250Y-272256250D03*
X101600000Y-292100000D03*
%TO.N,COL3*%
X138112500Y-272256250D03*
X128665231Y-253138752D03*
X126206250Y-292100000D03*
X123825000Y-234156250D03*
X114300000Y-215900000D03*
%TO.N,/SCK*%
X374305110Y-251273860D03*
%TO.N,GND*%
X389250000Y-221750000D03*
X393250000Y-218250000D03*
X381793750Y-259556250D03*
X391250000Y-247000000D03*
X390000000Y-213250000D03*
X383500000Y-216693750D03*
%TO.N,/VCC*%
X392112500Y-257968750D03*
%TO.N,/CS*%
X373856250Y-248443750D03*
%TO.N,/MOSI*%
X373035110Y-250797610D03*
%TO.N,Net-(U1-BATIN{slash}P0.04)*%
X388089831Y-265204651D03*
X387500000Y-250675000D03*
X391512500Y-237731250D03*
%TD*%
%TO.N,COL4*%
D14*
X383370050Y-235484365D02*
X383370050Y-267218965D01*
X175178975Y-289718750D02*
X195262500Y-289718750D01*
X204304171Y-290616250D02*
X196160000Y-290616250D01*
X149225000Y-254139775D02*
X157956250Y-262871025D01*
X143668750Y-234280825D02*
X149225000Y-239837075D01*
X382970050Y-235084365D02*
X383370050Y-235484365D01*
X149225000Y-239837075D02*
X149225000Y-253206250D01*
X149225000Y-253206250D02*
X149225000Y-254139775D01*
X157956250Y-272496025D02*
X175178975Y-289718750D01*
X157956250Y-262871025D02*
X157956250Y-272256250D01*
X134143750Y-215106250D02*
X134143750Y-215246025D01*
X196160000Y-290616250D02*
X195262500Y-289718750D01*
X143668750Y-234156250D02*
X143668750Y-234280825D01*
X134143750Y-215246025D02*
X143668750Y-224771025D01*
X353998864Y-296590150D02*
X210278071Y-296590150D01*
X382970050Y-233110050D02*
X382970050Y-235084365D01*
X383370050Y-267218965D02*
X353998864Y-296590150D01*
X157956250Y-272256250D02*
X157956250Y-272496025D01*
X381793750Y-231933750D02*
X382970050Y-233110050D01*
X210278071Y-296590150D02*
X204304171Y-290616250D01*
X143668750Y-224771025D02*
X143668750Y-234156250D01*
%TO.N,COL9*%
X242887500Y-238331671D02*
X238712079Y-234156250D01*
X229980829Y-215900000D02*
X228600000Y-215900000D01*
X242887500Y-254000000D02*
X242887500Y-238331671D01*
X253860225Y-273050000D02*
X251618750Y-273050000D01*
X264966475Y-284156250D02*
X253860225Y-273050000D01*
X237331250Y-223250421D02*
X229980829Y-215900000D01*
X237331250Y-234156250D02*
X237331250Y-223250421D01*
X238712079Y-234156250D02*
X237331250Y-234156250D01*
X357181250Y-284156250D02*
X264966475Y-284156250D01*
X365918750Y-286543750D02*
X386873750Y-265588750D01*
X251618750Y-273050000D02*
X242887500Y-264318750D01*
X242887500Y-264318750D02*
X242887500Y-254000000D01*
X386873750Y-265588750D02*
X386873750Y-234473750D01*
X360362500Y-287337500D02*
X357181250Y-284156250D01*
%TO.N,COL12*%
X328861029Y-251425000D02*
X333536029Y-246750000D01*
X350998529Y-246750000D02*
X361156250Y-236592279D01*
X307431495Y-247650000D02*
X311206495Y-251425000D01*
X295275000Y-240506250D02*
X302418750Y-247650000D01*
X302418750Y-247650000D02*
X307431495Y-247650000D01*
X333536029Y-246750000D02*
X350998529Y-246750000D01*
X310356250Y-239712500D02*
X302418750Y-247650000D01*
X285750000Y-225425000D02*
X295275000Y-234950000D01*
X285750000Y-215900000D02*
X285750000Y-225425000D01*
X295275000Y-234950000D02*
X295275000Y-240506250D01*
X311206495Y-251425000D02*
X328861029Y-251425000D01*
X361156250Y-236592279D02*
X361156250Y-216693750D01*
%TO.N,COL11*%
X276225000Y-234156250D02*
X276225000Y-224028971D01*
X280987500Y-253206250D02*
X276225000Y-248443750D01*
X276225000Y-248443750D02*
X276225000Y-234156250D01*
X276225000Y-224028971D02*
X268096029Y-215900000D01*
X363537500Y-268287500D02*
X367506250Y-272256250D01*
X290512500Y-268515565D02*
X291567015Y-267461050D01*
X367506250Y-272256250D02*
X370681250Y-272256250D01*
X338898550Y-267461050D02*
X340518750Y-269081250D01*
X290512500Y-262731250D02*
X289884070Y-262102820D01*
X268096029Y-215900000D02*
X267493750Y-215900000D01*
X291567015Y-267461050D02*
X338898550Y-267461050D01*
X290512500Y-272256250D02*
X290512500Y-262731250D01*
X290512500Y-272256250D02*
X290512500Y-268515565D01*
%TO.N,COL10*%
X341118750Y-268832721D02*
X341118750Y-269329779D01*
X381306510Y-230757450D02*
X350406610Y-261657350D01*
X282547545Y-270406250D02*
X277357545Y-270406250D01*
X389413750Y-234473750D02*
X385697450Y-230757450D01*
X312311050Y-267861050D02*
X291732700Y-267861050D01*
X291732700Y-267861050D02*
X291732700Y-271884579D01*
X290761029Y-272856250D02*
X284997545Y-272856250D01*
X260350000Y-254793750D02*
X256381250Y-250825000D01*
X257175000Y-234950000D02*
X246062500Y-223837500D01*
X246062500Y-223837500D02*
X246062500Y-216693750D01*
X256381250Y-235743750D02*
X257175000Y-234950000D01*
X269875000Y-264318750D02*
X269875000Y-270668750D01*
X341118750Y-269329779D02*
X340767279Y-269681250D01*
X246062500Y-216693750D02*
X247650000Y-215106250D01*
X272256250Y-273050000D02*
X271462500Y-272256250D01*
X314325000Y-269875000D02*
X312311050Y-267861050D01*
X284997545Y-272856250D02*
X282547545Y-270406250D01*
X291732700Y-271884579D02*
X290761029Y-272856250D01*
X256381250Y-250825000D02*
X256381250Y-235743750D01*
X277357545Y-270406250D02*
X274713795Y-273050000D01*
X340767279Y-269681250D02*
X323321095Y-269681250D01*
X274713795Y-273050000D02*
X272256250Y-273050000D01*
X269875000Y-270668750D02*
X271462500Y-272256250D01*
X316011050Y-271561050D02*
X314325000Y-269875000D01*
X350406610Y-261657350D02*
X348294121Y-261657350D01*
X321441295Y-271561050D02*
X316011050Y-271561050D01*
X323321095Y-269681250D02*
X321441295Y-271561050D01*
X260350000Y-254793750D02*
X269875000Y-264318750D01*
X385697450Y-230757450D02*
X381306510Y-230757450D01*
X348294121Y-261657350D02*
X341118750Y-268832721D01*
%TO.N,ROW1*%
X389731250Y-220662500D02*
X389666200Y-220597450D01*
X376302550Y-220597450D02*
X389666200Y-220597450D01*
X374650000Y-222250000D02*
X376302550Y-220597450D01*
%TO.N,ROW5*%
X355679650Y-274557850D02*
X355679650Y-275293679D01*
X373550102Y-247704644D02*
X373104176Y-248150570D01*
X366712500Y-254793750D02*
X366712500Y-263525000D01*
X366712500Y-263525000D02*
X355679650Y-274557850D01*
X373550102Y-247704644D02*
X373550102Y-247786131D01*
X378812500Y-247843750D02*
X379412500Y-248443750D01*
X354976179Y-275997150D02*
X354240350Y-275997150D01*
X373607721Y-247843750D02*
X378812500Y-247843750D01*
X373550102Y-247786131D02*
X373607721Y-247843750D01*
X354012500Y-276225000D02*
X354012500Y-279400000D01*
X373104176Y-248402074D02*
X366712500Y-254793750D01*
X355679650Y-275293679D02*
X354976179Y-275997150D01*
X354240350Y-275997150D02*
X354012500Y-276225000D01*
X373104176Y-248150570D02*
X373104176Y-248402074D01*
%TO.N,COL7*%
X204787500Y-238331671D02*
X204787500Y-253206250D01*
X193139650Y-227270900D02*
X200818750Y-234950000D01*
X213518750Y-261335221D02*
X213518750Y-273050000D01*
X201405829Y-234950000D02*
X204787500Y-238331671D01*
X380400000Y-269623329D02*
X380400000Y-240947500D01*
X321468750Y-288265825D02*
X329393075Y-296190150D01*
X380400000Y-240947500D02*
X381793750Y-239553750D01*
X200818750Y-234950000D02*
X201405829Y-234950000D01*
X193139650Y-216952150D02*
X193139650Y-227270900D01*
X214121600Y-272447150D02*
X221802125Y-272447150D01*
X321468750Y-288131250D02*
X321468750Y-288265825D01*
X221802125Y-272447150D02*
X233911225Y-284556250D01*
X313925000Y-284556250D02*
X317500000Y-288131250D01*
X233911225Y-284556250D02*
X313925000Y-284556250D01*
X317500000Y-288131250D02*
X321468750Y-288131250D01*
X353833179Y-296190150D02*
X380400000Y-269623329D01*
X205389779Y-253206250D02*
X213518750Y-261335221D01*
X329393075Y-296190150D02*
X353833179Y-296190150D01*
X191293750Y-215106250D02*
X193139650Y-216952150D01*
X213518750Y-273050000D02*
X214121600Y-272447150D01*
X204787500Y-253206250D02*
X205389779Y-253206250D01*
%TO.N,COL5*%
X237137500Y-286350000D02*
X187396671Y-286350000D01*
X382970050Y-249648700D02*
X382970050Y-235650050D01*
X175418750Y-261335221D02*
X167289779Y-253206250D01*
X187396671Y-286350000D02*
X175418750Y-274372079D01*
X161925000Y-234950000D02*
X161925000Y-248443750D01*
X382970050Y-235650050D02*
X381793750Y-234473750D01*
X156564850Y-229589850D02*
X156564850Y-218477350D01*
X161925000Y-234950000D02*
X156564850Y-229589850D01*
X175418750Y-274372079D02*
X175418750Y-272256250D01*
X167289779Y-253206250D02*
X166687500Y-253206250D01*
X268287500Y-291306250D02*
X242093750Y-291306250D01*
X381000000Y-251618750D02*
X382970050Y-249648700D01*
X161925000Y-248443750D02*
X166687500Y-253206250D01*
X175418750Y-272256250D02*
X175418750Y-261335221D01*
X242093750Y-291306250D02*
X237137500Y-286350000D01*
X156564850Y-218477350D02*
X153193750Y-215106250D01*
%TO.N,ROW2*%
X340467455Y-214506250D02*
X341717455Y-213256250D01*
X295275000Y-225425000D02*
X297462500Y-223237500D01*
X317500000Y-223837500D02*
X326831250Y-214506250D01*
X397520990Y-210437450D02*
X398210050Y-211126510D01*
X398210050Y-211126510D02*
X398210050Y-223137450D01*
X362602455Y-213256250D02*
X365421255Y-210437450D01*
X341717455Y-213256250D02*
X362602455Y-213256250D01*
X326831250Y-214506250D02*
X340467455Y-214506250D01*
X304200000Y-223237500D02*
X306387500Y-225425000D01*
X365421255Y-210437450D02*
X397520990Y-210437450D01*
X398210050Y-223137450D02*
X397033750Y-224313750D01*
X297462500Y-223237500D02*
X304200000Y-223237500D01*
X293687500Y-227012500D02*
X295275000Y-225425000D01*
X293687500Y-228600000D02*
X293687500Y-227012500D01*
%TO.N,COL8*%
X384175000Y-245268750D02*
X384333750Y-245110000D01*
X210930829Y-215900000D02*
X209550000Y-215900000D01*
X273050000Y-277812500D02*
X274647867Y-279410367D01*
X314335367Y-279410367D02*
X317500000Y-282575000D01*
X219075000Y-248443750D02*
X219075000Y-234156250D01*
X223837500Y-253206250D02*
X219075000Y-248443750D01*
X365125000Y-283423529D02*
X365125000Y-277812500D01*
X360611029Y-287937500D02*
X365125000Y-283423529D01*
X360113971Y-287937500D02*
X360611029Y-287937500D01*
X384333750Y-245110000D02*
X384333750Y-234473750D01*
X233362500Y-273050000D02*
X223837500Y-263525000D01*
X219075000Y-234156250D02*
X219075000Y-224044171D01*
X358720221Y-286543750D02*
X360113971Y-287937500D01*
X318293750Y-286543750D02*
X317500000Y-285750000D01*
X274647867Y-279410367D02*
X314335367Y-279410367D01*
X342900000Y-286543750D02*
X358720221Y-286543750D01*
X342900000Y-286543750D02*
X318293750Y-286543750D01*
X223837500Y-263525000D02*
X223837500Y-253206250D01*
X219075000Y-224044171D02*
X210930829Y-215900000D01*
%TO.N,ROW3*%
X373062500Y-242887500D02*
X371475000Y-242887500D01*
X380206250Y-235743750D02*
X373062500Y-242887500D01*
%TO.N,COL6*%
X336798400Y-273595350D02*
X329406250Y-280987500D01*
X195262500Y-273050000D02*
X185737500Y-263525000D01*
X205052921Y-284956250D02*
X195262500Y-275165829D01*
X185737500Y-253206250D02*
X180181250Y-247650000D01*
X285750000Y-284956250D02*
X205052921Y-284956250D01*
X292100000Y-291306250D02*
X285750000Y-284956250D01*
X185737500Y-263525000D02*
X185737500Y-253206250D01*
X381793750Y-237013750D02*
X381793750Y-237397545D01*
X180181250Y-247650000D02*
X180181250Y-234156250D01*
X195262500Y-275165829D02*
X195262500Y-273050000D01*
X169862500Y-218281250D02*
X172243750Y-215900000D01*
X345595945Y-273595350D02*
X336798400Y-273595350D01*
X169862500Y-223837500D02*
X169862500Y-218281250D01*
X180181250Y-234156250D02*
X169862500Y-223837500D01*
X381793750Y-237397545D02*
X345595945Y-273595350D01*
%TO.N,COL13*%
X316500000Y-235687275D02*
X328062725Y-247250000D01*
X313531250Y-229393750D02*
X312977745Y-229393750D01*
X383763800Y-228217450D02*
X363920050Y-228217450D01*
X313531250Y-232531250D02*
X316500000Y-235500000D01*
X333000000Y-246250000D02*
X332500000Y-246750000D01*
X350650000Y-246250000D02*
X333000000Y-246250000D01*
X386556250Y-225425000D02*
X383763800Y-228217450D01*
X328062725Y-247250000D02*
X329000000Y-247250000D01*
X312977745Y-229393750D02*
X304006250Y-220422255D01*
X313531250Y-229393750D02*
X313531250Y-232531250D01*
X363920050Y-228217450D02*
X362743750Y-229393750D01*
X331787500Y-215106250D02*
X317500000Y-229393750D01*
X304006250Y-220422255D02*
X304006250Y-215900000D01*
X316500000Y-235500000D02*
X316500000Y-235687275D01*
X317500000Y-229393750D02*
X313531250Y-229393750D01*
X360325000Y-236575000D02*
X350650000Y-246250000D01*
%TO.N,COL2*%
X119856250Y-272496025D02*
X119856250Y-272256250D01*
X126454779Y-292700000D02*
X125957721Y-292700000D01*
X125606250Y-278246025D02*
X119856250Y-272496025D01*
X125606250Y-292348529D02*
X125606250Y-278246025D01*
X360704136Y-291016250D02*
X354330236Y-297390150D01*
X101600000Y-290912455D02*
X107117305Y-285395150D01*
X178821136Y-297390150D02*
X165759172Y-284328186D01*
X105568750Y-233362500D02*
X105002850Y-233928400D01*
X126806250Y-292348529D02*
X126454779Y-292700000D01*
X95477850Y-223271600D02*
X105568750Y-233362500D01*
X107117305Y-285395150D02*
X107523875Y-285395150D01*
X105002850Y-247877850D02*
X110331250Y-253206250D01*
X110331250Y-253206250D02*
X109765350Y-253772150D01*
X96043750Y-215106250D02*
X95477850Y-215672150D01*
X366840730Y-291016250D02*
X360704136Y-291016250D01*
X105002850Y-233928400D02*
X105002850Y-247877850D01*
X107523875Y-285395150D02*
X119856250Y-273062775D01*
X393700000Y-264156980D02*
X366840730Y-291016250D01*
X109765350Y-253772150D02*
X109765350Y-262165350D01*
X126606250Y-291651471D02*
X126806250Y-291851471D01*
X119856250Y-273062775D02*
X119856250Y-272256250D01*
X125957721Y-292700000D02*
X125606250Y-292348529D01*
X165759172Y-284328186D02*
X126606250Y-284328186D01*
X354330236Y-297390150D02*
X178821136Y-297390150D01*
X126806250Y-291851471D02*
X126806250Y-292348529D01*
X393672610Y-229366360D02*
X393700000Y-229393750D01*
X126606250Y-284328186D02*
X126606250Y-291651471D01*
X95477850Y-215672150D02*
X95477850Y-223271600D01*
X393700000Y-229393750D02*
X393700000Y-264156980D01*
X109765350Y-262165350D02*
X119856250Y-272256250D01*
X101600000Y-292100000D02*
X101600000Y-290912455D01*
%TO.N,COL3*%
X126206250Y-292100000D02*
X126206250Y-284162500D01*
X123825000Y-234156250D02*
X114300000Y-224631250D01*
X366675045Y-290616250D02*
X390500000Y-266791295D01*
X138112500Y-272256250D02*
X128665231Y-262808981D01*
X123825000Y-248298521D02*
X123825000Y-234156250D01*
X390500000Y-266791295D02*
X390500000Y-235051040D01*
X138112500Y-263470221D02*
X145466892Y-263470221D01*
X128665231Y-253138752D02*
X123825000Y-248298521D01*
X354164550Y-296990150D02*
X360538450Y-290616250D01*
X390500000Y-235051040D02*
X390590050Y-234960990D01*
X114300000Y-224631250D02*
X114300000Y-215900000D01*
X178986821Y-296990150D02*
X354164550Y-296990150D01*
X138112500Y-272256250D02*
X138112500Y-263470221D01*
X360538450Y-290616250D02*
X366675045Y-290616250D01*
X390590050Y-233986510D02*
X385997290Y-229393750D01*
X126206250Y-284162500D02*
X138112500Y-272256250D01*
X390590050Y-234960990D02*
X390590050Y-233986510D01*
X128665231Y-262808981D02*
X128665231Y-253138752D01*
X385997290Y-229393750D02*
X381793750Y-229393750D01*
X145466892Y-263470221D02*
X178986821Y-296990150D01*
%TO.N,/SCK*%
X376237500Y-264636250D02*
X373856250Y-267017500D01*
X376237500Y-253206250D02*
X376237500Y-264636250D01*
X374305110Y-251273860D02*
X376237500Y-253206250D01*
%TO.N,GND*%
X397033750Y-214153750D02*
X393250000Y-217937500D01*
X391263971Y-223763971D02*
X391263971Y-237131250D01*
X391263971Y-237131250D02*
X390900000Y-237495221D01*
X390900000Y-237495221D02*
X390900000Y-246650000D01*
X389250000Y-221750000D02*
X391263971Y-223763971D01*
X393250000Y-217937500D02*
X393250000Y-218250000D01*
X390900000Y-246650000D02*
X391250000Y-247000000D01*
%TO.N,/VCC*%
X392112500Y-224155000D02*
X392112500Y-257968750D01*
X397033750Y-219233750D02*
X392112500Y-224155000D01*
%TO.N,/CS*%
X373635110Y-248664890D02*
X373856250Y-248443750D01*
X373856250Y-263207500D02*
X373635110Y-262986360D01*
X373635110Y-262986360D02*
X373635110Y-248664890D01*
%TO.N,/MOSI*%
X373035110Y-267466360D02*
X373856250Y-268287500D01*
X373035110Y-250797610D02*
X373035110Y-267466360D01*
%TO.N,Net-(U1-BATIN{slash}P0.04)*%
X391512500Y-237731250D02*
X391712500Y-237531250D01*
X387675000Y-250675000D02*
X387500000Y-250675000D01*
X391712500Y-237531250D02*
X391712500Y-223989314D01*
X388089831Y-265204651D02*
X388089831Y-251089831D01*
X391750000Y-216897500D02*
X397033750Y-211613750D01*
X388089831Y-251089831D02*
X387675000Y-250675000D01*
X391712500Y-223989314D02*
X391750000Y-223951815D01*
X391750000Y-223951815D02*
X391750000Y-216897500D01*
%TD*%
%TA.AperFunction,Conductor*%
%TO.N,GND*%
G36*
X382688884Y-250881615D02*
G01*
X382744817Y-250923487D01*
X382769234Y-250988951D01*
X382769550Y-250997797D01*
X382769550Y-266918867D01*
X382749865Y-266985906D01*
X382733231Y-267006548D01*
X381212181Y-268527598D01*
X381150858Y-268561083D01*
X381081166Y-268556099D01*
X381025233Y-268514227D01*
X381000816Y-268448763D01*
X381000500Y-268439917D01*
X381000500Y-252536597D01*
X381020185Y-252469558D01*
X381072989Y-252423803D01*
X381100309Y-252414980D01*
X381116291Y-252411800D01*
X381233497Y-252388487D01*
X381379179Y-252328144D01*
X381510289Y-252240539D01*
X381621789Y-252129039D01*
X381709394Y-251997929D01*
X381769737Y-251852247D01*
X381800500Y-251697592D01*
X381800638Y-251696900D01*
X381833023Y-251634989D01*
X381834518Y-251633466D01*
X382557869Y-250910116D01*
X382619192Y-250876631D01*
X382688884Y-250881615D01*
G37*
%TD.AperFunction*%
%TA.AperFunction,Conductor*%
G36*
X391271953Y-238498067D02*
G01*
X391279003Y-238500987D01*
X391389487Y-238522963D01*
X391412191Y-238527480D01*
X391474102Y-238559865D01*
X391508676Y-238620580D01*
X391504937Y-238690350D01*
X391464071Y-238747022D01*
X391399052Y-238772603D01*
X391361004Y-238770123D01*
X391349854Y-238767635D01*
X391511995Y-257387904D01*
X391492895Y-257455113D01*
X391491102Y-257457875D01*
X391403109Y-257589564D01*
X391403102Y-257589577D01*
X391340432Y-257740880D01*
X391339003Y-257740288D01*
X391304860Y-257792384D01*
X391241047Y-257820838D01*
X391171980Y-257810275D01*
X391119588Y-257764049D01*
X391100500Y-257697947D01*
X391100500Y-238612627D01*
X391120185Y-238545588D01*
X391172989Y-238499833D01*
X391242147Y-238489889D01*
X391271953Y-238498067D01*
G37*
%TD.AperFunction*%
%TA.AperFunction,Conductor*%
G36*
X380429553Y-211057635D02*
G01*
X380475308Y-211110439D01*
X380485252Y-211179597D01*
X380480445Y-211200268D01*
X380450852Y-211291344D01*
X380450852Y-211291347D01*
X380416950Y-211505394D01*
X380416950Y-211722105D01*
X380450852Y-211936152D01*
X380450852Y-211936155D01*
X380517818Y-212142255D01*
X380616205Y-212335350D01*
X380743586Y-212510675D01*
X380896825Y-212663914D01*
X381005351Y-212742763D01*
X381061327Y-212783432D01*
X381103992Y-212838762D01*
X381109971Y-212908376D01*
X381077365Y-212970171D01*
X381061327Y-212984068D01*
X381005724Y-213024466D01*
X380896825Y-213103586D01*
X380896823Y-213103588D01*
X380896822Y-213103588D01*
X380743588Y-213256822D01*
X380616205Y-213432149D01*
X380517818Y-213625244D01*
X380450852Y-213831344D01*
X380450852Y-213831347D01*
X380416950Y-214045394D01*
X380416950Y-214262105D01*
X380450852Y-214476152D01*
X380450852Y-214476155D01*
X380517818Y-214682255D01*
X380616074Y-214875092D01*
X380616205Y-214875350D01*
X380743586Y-215050675D01*
X380896825Y-215203914D01*
X380957126Y-215247725D01*
X381061751Y-215323740D01*
X381104417Y-215379070D01*
X381110396Y-215448683D01*
X381077790Y-215510478D01*
X381061751Y-215524376D01*
X381013203Y-215559647D01*
X381013203Y-215559649D01*
X381626700Y-216173146D01*
X381582963Y-216184866D01*
X381458437Y-216256761D01*
X381356761Y-216358437D01*
X381284866Y-216482963D01*
X381273146Y-216526700D01*
X380659649Y-215913203D01*
X380659648Y-215913203D01*
X380616634Y-215972409D01*
X380518284Y-216165429D01*
X380451338Y-216371465D01*
X380417450Y-216585427D01*
X380417450Y-216802072D01*
X380451338Y-217016034D01*
X380518284Y-217222070D01*
X380616635Y-217415092D01*
X380659648Y-217474295D01*
X380659649Y-217474295D01*
X381273146Y-216860799D01*
X381284866Y-216904537D01*
X381356761Y-217029063D01*
X381458437Y-217130739D01*
X381582963Y-217202634D01*
X381626700Y-217214353D01*
X381039617Y-217801434D01*
X381097073Y-217902438D01*
X381099195Y-217911440D01*
X381104842Y-217918762D01*
X381107087Y-217944902D01*
X381113110Y-217970442D01*
X381110029Y-217979161D01*
X381110821Y-217988375D01*
X381098576Y-218011580D01*
X381089836Y-218036322D01*
X381082529Y-218041992D01*
X381078215Y-218050170D01*
X381062175Y-218064069D01*
X381013203Y-218099648D01*
X381013203Y-218099649D01*
X381626700Y-218713146D01*
X381582963Y-218724866D01*
X381458437Y-218796761D01*
X381356761Y-218898437D01*
X381284866Y-219022963D01*
X381273146Y-219066700D01*
X380659649Y-218453203D01*
X380659648Y-218453203D01*
X380616634Y-218512409D01*
X380518284Y-218705429D01*
X380451338Y-218911465D01*
X380417450Y-219125427D01*
X380417450Y-219342072D01*
X380451338Y-219556034D01*
X380518285Y-219762073D01*
X380546097Y-219816656D01*
X380558993Y-219885325D01*
X380532716Y-219950065D01*
X380475610Y-219990322D01*
X380435612Y-219996950D01*
X376389220Y-219996950D01*
X376389204Y-219996949D01*
X376381608Y-219996949D01*
X376223493Y-219996949D01*
X376147129Y-220017411D01*
X376070764Y-220037873D01*
X376070759Y-220037876D01*
X375933840Y-220116925D01*
X375933832Y-220116931D01*
X374635339Y-221415425D01*
X374574016Y-221448910D01*
X374571850Y-221449361D01*
X374416508Y-221480261D01*
X374416498Y-221480264D01*
X374270827Y-221540602D01*
X374270814Y-221540609D01*
X374139711Y-221628210D01*
X374139707Y-221628213D01*
X374028213Y-221739707D01*
X374028210Y-221739711D01*
X373940609Y-221870814D01*
X373940602Y-221870827D01*
X373880264Y-222016498D01*
X373880261Y-222016510D01*
X373849500Y-222171153D01*
X373849500Y-222328846D01*
X373880261Y-222483489D01*
X373880264Y-222483501D01*
X373940602Y-222629172D01*
X373940609Y-222629185D01*
X374028210Y-222760288D01*
X374028213Y-222760292D01*
X374139707Y-222871786D01*
X374139711Y-222871789D01*
X374270814Y-222959390D01*
X374270827Y-222959397D01*
X374365864Y-222998762D01*
X374416503Y-223019737D01*
X374537224Y-223043750D01*
X374571153Y-223050499D01*
X374571156Y-223050500D01*
X374571158Y-223050500D01*
X374728844Y-223050500D01*
X374728845Y-223050499D01*
X374883497Y-223019737D01*
X375029179Y-222959394D01*
X375160289Y-222871789D01*
X375271789Y-222760289D01*
X375359394Y-222629179D01*
X375419737Y-222483497D01*
X375439113Y-222386085D01*
X375450638Y-222328150D01*
X375483023Y-222266239D01*
X375484516Y-222264718D01*
X376514967Y-221234269D01*
X376576290Y-221200784D01*
X376602648Y-221197950D01*
X380362514Y-221197950D01*
X380429553Y-221217635D01*
X380475308Y-221270439D01*
X380485252Y-221339597D01*
X380480445Y-221360268D01*
X380450852Y-221451344D01*
X380450852Y-221451347D01*
X380416950Y-221665394D01*
X380416950Y-221882105D01*
X380450852Y-222096152D01*
X380450852Y-222096155D01*
X380517818Y-222302255D01*
X380531365Y-222328842D01*
X380616205Y-222495350D01*
X380743586Y-222670675D01*
X380896825Y-222823914D01*
X380980330Y-222884584D01*
X381061327Y-222943432D01*
X381103992Y-222998762D01*
X381109971Y-223068376D01*
X381077365Y-223130171D01*
X381061327Y-223144068D01*
X380995425Y-223191948D01*
X380896825Y-223263586D01*
X380896823Y-223263588D01*
X380896822Y-223263588D01*
X380743588Y-223416822D01*
X380616205Y-223592149D01*
X380517818Y-223785244D01*
X380450852Y-223991344D01*
X380450852Y-223991347D01*
X380416950Y-224205394D01*
X380416950Y-224422105D01*
X380450852Y-224636152D01*
X380450852Y-224636155D01*
X380517818Y-224842255D01*
X380616205Y-225035350D01*
X380743586Y-225210675D01*
X380896825Y-225363914D01*
X380958549Y-225408759D01*
X381061327Y-225483432D01*
X381103992Y-225538762D01*
X381109971Y-225608376D01*
X381077365Y-225670171D01*
X381061327Y-225684068D01*
X381057055Y-225687172D01*
X380896825Y-225803586D01*
X380896823Y-225803588D01*
X380896822Y-225803588D01*
X380743588Y-225956822D01*
X380616205Y-226132149D01*
X380517818Y-226325244D01*
X380450852Y-226531344D01*
X380450852Y-226531347D01*
X380416950Y-226745394D01*
X380416950Y-226962105D01*
X380450852Y-227176152D01*
X380450852Y-227176155D01*
X380517819Y-227382257D01*
X380545536Y-227436654D01*
X380558433Y-227505324D01*
X380532157Y-227570064D01*
X380475051Y-227610322D01*
X380435052Y-227616950D01*
X363840990Y-227616950D01*
X363800069Y-227627914D01*
X363800069Y-227627915D01*
X363762801Y-227637901D01*
X363688264Y-227657873D01*
X363688259Y-227657876D01*
X363551340Y-227736925D01*
X363551332Y-227736931D01*
X362729089Y-228559175D01*
X362667766Y-228592660D01*
X362665600Y-228593111D01*
X362510258Y-228624011D01*
X362510248Y-228624014D01*
X362364577Y-228684352D01*
X362364564Y-228684359D01*
X362233461Y-228771960D01*
X362233457Y-228771963D01*
X362121963Y-228883457D01*
X362121960Y-228883461D01*
X362034359Y-229014564D01*
X362034354Y-229014573D01*
X361995311Y-229108834D01*
X361951470Y-229163237D01*
X361885176Y-229185302D01*
X361817477Y-229168023D01*
X361769866Y-229116886D01*
X361756750Y-229061381D01*
X361756750Y-226798515D01*
X361776435Y-226731476D01*
X361777648Y-226729624D01*
X361865640Y-226597935D01*
X361865640Y-226597934D01*
X361865644Y-226597929D01*
X361925987Y-226452247D01*
X361956750Y-226297592D01*
X361956750Y-226139908D01*
X361956750Y-226139905D01*
X361956749Y-226139903D01*
X361925988Y-225985260D01*
X361925987Y-225985253D01*
X361905293Y-225935292D01*
X361865647Y-225839577D01*
X361865640Y-225839564D01*
X361777648Y-225707875D01*
X361756770Y-225641197D01*
X361756750Y-225638984D01*
X361756750Y-217559562D01*
X362267350Y-217559562D01*
X362267350Y-217732937D01*
X362294470Y-217904163D01*
X362348040Y-218069038D01*
X362348041Y-218069041D01*
X362426748Y-218223510D01*
X362528649Y-218363764D01*
X362651236Y-218486351D01*
X362791490Y-218588252D01*
X362867252Y-218626854D01*
X362945958Y-218666958D01*
X362945961Y-218666959D01*
X363009643Y-218687650D01*
X363110838Y-218720530D01*
X363190141Y-218733090D01*
X363282063Y-218747650D01*
X363282068Y-218747650D01*
X363455437Y-218747650D01*
X363538445Y-218734502D01*
X363626662Y-218720530D01*
X363791541Y-218666958D01*
X363946010Y-218588252D01*
X364086264Y-218486351D01*
X364208851Y-218363764D01*
X364310752Y-218223510D01*
X364389458Y-218069041D01*
X364443030Y-217904162D01*
X364457002Y-217815945D01*
X364470150Y-217732937D01*
X364470150Y-217559562D01*
X364463010Y-217514483D01*
X364460581Y-217499150D01*
X366204350Y-217499150D01*
X366204350Y-217793349D01*
X366204351Y-217793366D01*
X366239989Y-218064069D01*
X366242752Y-218085050D01*
X366310214Y-218336822D01*
X366318902Y-218369244D01*
X366431484Y-218641044D01*
X366431492Y-218641060D01*
X366578590Y-218895839D01*
X366578601Y-218895855D01*
X366757698Y-219129259D01*
X366757704Y-219129266D01*
X366965732Y-219337294D01*
X366965740Y-219337301D01*
X367105493Y-219444537D01*
X367199153Y-219516405D01*
X367199160Y-219516409D01*
X367453939Y-219663507D01*
X367453955Y-219663515D01*
X367725755Y-219776097D01*
X367725757Y-219776097D01*
X367725763Y-219776100D01*
X368009950Y-219852248D01*
X368301644Y-219890650D01*
X368301651Y-219890650D01*
X368595849Y-219890650D01*
X368595856Y-219890650D01*
X368887550Y-219852248D01*
X369171737Y-219776100D01*
X369260960Y-219739143D01*
X369443544Y-219663515D01*
X369443547Y-219663513D01*
X369443553Y-219663511D01*
X369698347Y-219516405D01*
X369931761Y-219337300D01*
X369931763Y-219337297D01*
X369931768Y-219337294D01*
X370139795Y-219129266D01*
X370139800Y-219129261D01*
X370318905Y-218895847D01*
X370466011Y-218641053D01*
X370578600Y-218369237D01*
X370654748Y-218085050D01*
X370693150Y-217793356D01*
X370693150Y-217499144D01*
X370654748Y-217207450D01*
X370578600Y-216923263D01*
X370578597Y-216923255D01*
X370466015Y-216651455D01*
X370466007Y-216651439D01*
X370318909Y-216396660D01*
X370318905Y-216396653D01*
X370155314Y-216183457D01*
X370139801Y-216163240D01*
X370139795Y-216163233D01*
X369931766Y-215955204D01*
X369931759Y-215955198D01*
X369698355Y-215776101D01*
X369698353Y-215776099D01*
X369698347Y-215776095D01*
X369698342Y-215776092D01*
X369698339Y-215776090D01*
X369443560Y-215628992D01*
X369443544Y-215628984D01*
X369171744Y-215516402D01*
X369149635Y-215510478D01*
X368887550Y-215440252D01*
X368887549Y-215440251D01*
X368887546Y-215440251D01*
X368595866Y-215401851D01*
X368595861Y-215401850D01*
X368595856Y-215401850D01*
X368301644Y-215401850D01*
X368301638Y-215401850D01*
X368301633Y-215401851D01*
X368009953Y-215440251D01*
X367725755Y-215516402D01*
X367453955Y-215628984D01*
X367453939Y-215628992D01*
X367199160Y-215776090D01*
X367199144Y-215776101D01*
X366965740Y-215955198D01*
X366965733Y-215955204D01*
X366757704Y-216163233D01*
X366757698Y-216163240D01*
X366578601Y-216396644D01*
X366578590Y-216396660D01*
X366431492Y-216651439D01*
X366431484Y-216651455D01*
X366318902Y-216923255D01*
X366242751Y-217207453D01*
X366204351Y-217499133D01*
X366204350Y-217499150D01*
X364460581Y-217499150D01*
X364447308Y-217415350D01*
X364443030Y-217388338D01*
X364394784Y-217239850D01*
X364389459Y-217223461D01*
X364389458Y-217223458D01*
X364310751Y-217068989D01*
X364294996Y-217047304D01*
X364208851Y-216928736D01*
X364086264Y-216806149D01*
X363946010Y-216704248D01*
X363897624Y-216679594D01*
X363791541Y-216625541D01*
X363791538Y-216625540D01*
X363626663Y-216571970D01*
X363455437Y-216544850D01*
X363455432Y-216544850D01*
X363282068Y-216544850D01*
X363282063Y-216544850D01*
X363110836Y-216571970D01*
X362945961Y-216625540D01*
X362945958Y-216625541D01*
X362791489Y-216704248D01*
X362760155Y-216727014D01*
X362651236Y-216806149D01*
X362651234Y-216806151D01*
X362651233Y-216806151D01*
X362528651Y-216928733D01*
X362528651Y-216928734D01*
X362528649Y-216928736D01*
X362502054Y-216965341D01*
X362426748Y-217068989D01*
X362348041Y-217223458D01*
X362348040Y-217223461D01*
X362294470Y-217388336D01*
X362267350Y-217559562D01*
X361756750Y-217559562D01*
X361756750Y-217273515D01*
X361776435Y-217206476D01*
X361777648Y-217204624D01*
X361865640Y-217072935D01*
X361865640Y-217072934D01*
X361865644Y-217072929D01*
X361925987Y-216927247D01*
X361956750Y-216772592D01*
X361956750Y-216614908D01*
X361956750Y-216614905D01*
X361956749Y-216614903D01*
X361950879Y-216585394D01*
X361925987Y-216460253D01*
X361911455Y-216425169D01*
X361865647Y-216314577D01*
X361865640Y-216314564D01*
X361778039Y-216183461D01*
X361778036Y-216183457D01*
X361666542Y-216071963D01*
X361666538Y-216071960D01*
X361535435Y-215984359D01*
X361535422Y-215984352D01*
X361389751Y-215924014D01*
X361389739Y-215924011D01*
X361235095Y-215893250D01*
X361235092Y-215893250D01*
X361077408Y-215893250D01*
X361077405Y-215893250D01*
X360922760Y-215924011D01*
X360922748Y-215924014D01*
X360777077Y-215984352D01*
X360777064Y-215984359D01*
X360645961Y-216071960D01*
X360645957Y-216071963D01*
X360534463Y-216183457D01*
X360534460Y-216183461D01*
X360446859Y-216314564D01*
X360446852Y-216314577D01*
X360386514Y-216460248D01*
X360386511Y-216460260D01*
X360355750Y-216614903D01*
X360355750Y-216772596D01*
X360386511Y-216927239D01*
X360386514Y-216927251D01*
X360446852Y-217072922D01*
X360446859Y-217072935D01*
X360534852Y-217204624D01*
X360555730Y-217271301D01*
X360555750Y-217273515D01*
X360555750Y-225638984D01*
X360536065Y-225706023D01*
X360534852Y-225707875D01*
X360446859Y-225839564D01*
X360446852Y-225839577D01*
X360386514Y-225985248D01*
X360386511Y-225985260D01*
X360355750Y-226139903D01*
X360355750Y-226297596D01*
X360386511Y-226452239D01*
X360386514Y-226452251D01*
X360446852Y-226597922D01*
X360446859Y-226597935D01*
X360534852Y-226729624D01*
X360555730Y-226796301D01*
X360555750Y-226798515D01*
X360555750Y-235653621D01*
X360536065Y-235720660D01*
X360483261Y-235766415D01*
X360414103Y-235776359D01*
X360407569Y-235775240D01*
X360403851Y-235774500D01*
X360403842Y-235774500D01*
X360246158Y-235774500D01*
X360246155Y-235774500D01*
X360091510Y-235805261D01*
X360091498Y-235805264D01*
X359945827Y-235865602D01*
X359945814Y-235865609D01*
X359814711Y-235953210D01*
X359814707Y-235953213D01*
X359703213Y-236064707D01*
X359703210Y-236064711D01*
X359615609Y-236195814D01*
X359615602Y-236195827D01*
X359555264Y-236341498D01*
X359555261Y-236341508D01*
X359524361Y-236496850D01*
X359491976Y-236558761D01*
X359490425Y-236560339D01*
X358986681Y-237064084D01*
X358925358Y-237097569D01*
X358855667Y-237092585D01*
X358799733Y-237050714D01*
X358775316Y-236985249D01*
X358775000Y-236976403D01*
X358775000Y-214991508D01*
X370508250Y-214991508D01*
X370508250Y-215220991D01*
X370529063Y-215379070D01*
X370538202Y-215448488D01*
X370560190Y-215530550D01*
X370597592Y-215670137D01*
X370685400Y-215882126D01*
X370685407Y-215882140D01*
X370737374Y-215972149D01*
X370794999Y-216071960D01*
X370800142Y-216080867D01*
X370939831Y-216262911D01*
X370939839Y-216262920D01*
X371102080Y-216425161D01*
X371102088Y-216425168D01*
X371284132Y-216564857D01*
X371284135Y-216564858D01*
X371284138Y-216564861D01*
X371482862Y-216679594D01*
X371482867Y-216679596D01*
X371482873Y-216679599D01*
X371574230Y-216717440D01*
X371694863Y-216767408D01*
X371916512Y-216826798D01*
X372144016Y-216856750D01*
X372144023Y-216856750D01*
X372373477Y-216856750D01*
X372373484Y-216856750D01*
X372493667Y-216840927D01*
X372562701Y-216851692D01*
X372614957Y-216898072D01*
X372633843Y-216965341D01*
X372613363Y-217032141D01*
X372610171Y-217036751D01*
X372586747Y-217068990D01*
X372508041Y-217223458D01*
X372508040Y-217223461D01*
X372454470Y-217388336D01*
X372427350Y-217559562D01*
X372427350Y-217732937D01*
X372454470Y-217904163D01*
X372508040Y-218069038D01*
X372508041Y-218069041D01*
X372586748Y-218223510D01*
X372688649Y-218363764D01*
X372811236Y-218486351D01*
X372951490Y-218588252D01*
X373027252Y-218626854D01*
X373105958Y-218666958D01*
X373105961Y-218666959D01*
X373169643Y-218687650D01*
X373270838Y-218720530D01*
X373350141Y-218733090D01*
X373442063Y-218747650D01*
X373442068Y-218747650D01*
X373615437Y-218747650D01*
X373698445Y-218734502D01*
X373786662Y-218720530D01*
X373951541Y-218666958D01*
X374106010Y-218588252D01*
X374246264Y-218486351D01*
X374368851Y-218363764D01*
X374470752Y-218223510D01*
X374549458Y-218069041D01*
X374549459Y-218069038D01*
X374603030Y-217904163D01*
X374625675Y-217761192D01*
X374630150Y-217732937D01*
X374630150Y-217559562D01*
X374607308Y-217415350D01*
X374603030Y-217388338D01*
X374554784Y-217239850D01*
X374549459Y-217223461D01*
X374549458Y-217223458D01*
X374470751Y-217068989D01*
X374454996Y-217047304D01*
X374368851Y-216928736D01*
X374246264Y-216806149D01*
X374137345Y-216727014D01*
X374106008Y-216704246D01*
X374080100Y-216691046D01*
X374030381Y-216665713D01*
X373951541Y-216625541D01*
X373951538Y-216625540D01*
X373786663Y-216571970D01*
X373615437Y-216544850D01*
X373615432Y-216544850D01*
X373595093Y-216544850D01*
X373528054Y-216525165D01*
X373482299Y-216472361D01*
X373472355Y-216403203D01*
X373501380Y-216339647D01*
X373507412Y-216333169D01*
X373577661Y-216262920D01*
X373577664Y-216262915D01*
X373577669Y-216262911D01*
X373717361Y-216080862D01*
X373832094Y-215882138D01*
X373919908Y-215670137D01*
X373979298Y-215448488D01*
X374009250Y-215220984D01*
X374009250Y-214991516D01*
X373979298Y-214764012D01*
X373919908Y-214542363D01*
X373832094Y-214330362D01*
X373717361Y-214131638D01*
X373717358Y-214131635D01*
X373717357Y-214131632D01*
X373577668Y-213949588D01*
X373577661Y-213949580D01*
X373415420Y-213787339D01*
X373415411Y-213787331D01*
X373233367Y-213647642D01*
X373194572Y-213625244D01*
X373034638Y-213532906D01*
X373034626Y-213532900D01*
X372822637Y-213445092D01*
X372774336Y-213432150D01*
X372600988Y-213385702D01*
X372562965Y-213380696D01*
X372373491Y-213355750D01*
X372373484Y-213355750D01*
X372144016Y-213355750D01*
X372144008Y-213355750D01*
X371927465Y-213384259D01*
X371916512Y-213385702D01*
X371822826Y-213410804D01*
X371694862Y-213445092D01*
X371482873Y-213532900D01*
X371482859Y-213532907D01*
X371284132Y-213647642D01*
X371102088Y-213787331D01*
X370939831Y-213949588D01*
X370800142Y-214131632D01*
X370685407Y-214330359D01*
X370685400Y-214330373D01*
X370597592Y-214542362D01*
X370538203Y-214764009D01*
X370538201Y-214764020D01*
X370508250Y-214991508D01*
X358775000Y-214991508D01*
X358775000Y-213980750D01*
X358794685Y-213913711D01*
X358847489Y-213867956D01*
X358899000Y-213856750D01*
X362515786Y-213856750D01*
X362515802Y-213856751D01*
X362523398Y-213856751D01*
X362681509Y-213856751D01*
X362681512Y-213856751D01*
X362834240Y-213815827D01*
X362884359Y-213786889D01*
X362971171Y-213736770D01*
X363082975Y-213624966D01*
X363082975Y-213624964D01*
X363093183Y-213614757D01*
X363093184Y-213614754D01*
X363965177Y-212742762D01*
X364026499Y-212709278D01*
X364096191Y-212714262D01*
X364152124Y-212756134D01*
X364175796Y-212814258D01*
X364188202Y-212908488D01*
X364210190Y-212990550D01*
X364247592Y-213130137D01*
X364335400Y-213342126D01*
X364335407Y-213342140D01*
X364450142Y-213540867D01*
X364589831Y-213722911D01*
X364589839Y-213722920D01*
X364752080Y-213885161D01*
X364752088Y-213885168D01*
X364752089Y-213885169D01*
X364802712Y-213924014D01*
X364934132Y-214024857D01*
X364934135Y-214024858D01*
X364934138Y-214024861D01*
X365132862Y-214139594D01*
X365132867Y-214139596D01*
X365132873Y-214139599D01*
X365224230Y-214177440D01*
X365344863Y-214227408D01*
X365566512Y-214286798D01*
X365794016Y-214316750D01*
X365794023Y-214316750D01*
X366023477Y-214316750D01*
X366023484Y-214316750D01*
X366250988Y-214286798D01*
X366472637Y-214227408D01*
X366684638Y-214139594D01*
X366883362Y-214024861D01*
X367065411Y-213885169D01*
X367065415Y-213885164D01*
X367065420Y-213885161D01*
X367227661Y-213722920D01*
X367227664Y-213722915D01*
X367227669Y-213722911D01*
X367367361Y-213540862D01*
X367482094Y-213342138D01*
X367569908Y-213130137D01*
X367629298Y-212908488D01*
X367659250Y-212680984D01*
X367659250Y-212451516D01*
X367629298Y-212224012D01*
X367569908Y-212002363D01*
X367482094Y-211790362D01*
X367367361Y-211591638D01*
X367367358Y-211591635D01*
X367367357Y-211591632D01*
X367227668Y-211409588D01*
X367227661Y-211409580D01*
X367067712Y-211249631D01*
X367034227Y-211188308D01*
X367039211Y-211118616D01*
X367081083Y-211062683D01*
X367146547Y-211038266D01*
X367155393Y-211037950D01*
X380362514Y-211037950D01*
X380429553Y-211057635D01*
G37*
%TD.AperFunction*%
%TA.AperFunction,Conductor*%
G36*
X395669553Y-211057635D02*
G01*
X395715308Y-211110439D01*
X395725252Y-211179597D01*
X395720445Y-211200268D01*
X395690852Y-211291344D01*
X395690852Y-211291347D01*
X395656950Y-211505394D01*
X395656950Y-211722105D01*
X395690851Y-211936151D01*
X395709370Y-211993144D01*
X395711365Y-212062985D01*
X395679120Y-212119143D01*
X391384433Y-216413830D01*
X391384426Y-216413837D01*
X391381286Y-216416978D01*
X391381284Y-216416980D01*
X391269480Y-216528784D01*
X391244547Y-216571970D01*
X391190423Y-216665715D01*
X391149499Y-216818443D01*
X391149499Y-216818445D01*
X391149499Y-216986546D01*
X391149500Y-216986559D01*
X391149500Y-223753977D01*
X391145275Y-223786070D01*
X391136720Y-223817999D01*
X391112001Y-223910249D01*
X391112000Y-223910253D01*
X391112000Y-223910257D01*
X391112000Y-223945034D01*
X391111998Y-224068363D01*
X391112000Y-224068370D01*
X391112000Y-233359863D01*
X391092315Y-233426902D01*
X391039511Y-233472657D01*
X390970353Y-233482601D01*
X390906797Y-233453576D01*
X390900319Y-233447544D01*
X386484880Y-229032105D01*
X386484878Y-229032102D01*
X386366007Y-228913231D01*
X386366006Y-228913230D01*
X386267003Y-228856071D01*
X386229075Y-228834173D01*
X386076347Y-228793249D01*
X385918233Y-228793249D01*
X385910637Y-228793249D01*
X385910621Y-228793250D01*
X384336598Y-228793250D01*
X384269559Y-228773565D01*
X384223804Y-228720761D01*
X384213860Y-228651603D01*
X384224918Y-228627388D01*
X384231301Y-228608184D01*
X384231304Y-228608178D01*
X384237820Y-228599137D01*
X384242885Y-228588047D01*
X384248893Y-228581592D01*
X384250754Y-228579729D01*
X384254512Y-228575971D01*
X384254520Y-228575967D01*
X384254528Y-228575955D01*
X386570914Y-226259571D01*
X386632235Y-226226088D01*
X386634402Y-226225637D01*
X386635091Y-226225500D01*
X386635092Y-226225500D01*
X386789747Y-226194737D01*
X386935429Y-226134394D01*
X387066539Y-226046789D01*
X387178039Y-225935289D01*
X387265644Y-225804179D01*
X387325987Y-225658497D01*
X387356750Y-225503842D01*
X387356750Y-225346158D01*
X387356750Y-225346155D01*
X387356749Y-225346153D01*
X387329801Y-225210677D01*
X387325987Y-225191503D01*
X387325985Y-225191498D01*
X387265647Y-225045827D01*
X387265640Y-225045814D01*
X387178039Y-224914711D01*
X387178036Y-224914707D01*
X387066542Y-224803213D01*
X387066538Y-224803210D01*
X386935435Y-224715609D01*
X386935422Y-224715602D01*
X386789751Y-224655264D01*
X386789739Y-224655261D01*
X386635095Y-224624500D01*
X386635092Y-224624500D01*
X386477408Y-224624500D01*
X386477405Y-224624500D01*
X386322760Y-224655261D01*
X386322748Y-224655264D01*
X386177077Y-224715602D01*
X386177064Y-224715609D01*
X386045961Y-224803210D01*
X386045957Y-224803213D01*
X385934463Y-224914707D01*
X385934460Y-224914711D01*
X385846859Y-225045814D01*
X385846852Y-225045827D01*
X385786514Y-225191498D01*
X385786511Y-225191508D01*
X385755612Y-225346848D01*
X385723227Y-225408759D01*
X385721676Y-225410337D01*
X383551384Y-227580631D01*
X383490061Y-227614116D01*
X383463703Y-227616950D01*
X383152448Y-227616950D01*
X383085409Y-227597265D01*
X383039654Y-227544461D01*
X383029710Y-227475303D01*
X383041964Y-227436654D01*
X383045107Y-227430483D01*
X383069680Y-227382258D01*
X383136648Y-227176151D01*
X383170550Y-226962106D01*
X383170550Y-226745394D01*
X383136648Y-226531349D01*
X383136647Y-226531345D01*
X383136647Y-226531344D01*
X383069681Y-226325244D01*
X383036220Y-226259573D01*
X382971295Y-226132150D01*
X382843914Y-225956825D01*
X382690675Y-225803586D01*
X382530445Y-225687172D01*
X382526173Y-225684068D01*
X382483507Y-225628738D01*
X382477528Y-225559125D01*
X382510134Y-225497330D01*
X382526173Y-225483432D01*
X382628951Y-225408759D01*
X382690675Y-225363914D01*
X382843914Y-225210675D01*
X382971295Y-225035350D01*
X383069680Y-224842258D01*
X383069681Y-224842255D01*
X383136647Y-224636155D01*
X383136647Y-224636154D01*
X383136648Y-224636151D01*
X383170550Y-224422106D01*
X383170550Y-224205394D01*
X383136648Y-223991349D01*
X383136647Y-223991345D01*
X383136647Y-223991344D01*
X383069681Y-223785244D01*
X382984451Y-223617971D01*
X382971295Y-223592150D01*
X382843914Y-223416825D01*
X382690675Y-223263586D01*
X382690671Y-223263583D01*
X382526173Y-223144068D01*
X382483507Y-223088738D01*
X382477528Y-223019125D01*
X382510134Y-222957330D01*
X382526173Y-222943432D01*
X382607170Y-222884584D01*
X382690675Y-222823914D01*
X382843914Y-222670675D01*
X382971295Y-222495350D01*
X383069680Y-222302258D01*
X383112277Y-222171158D01*
X383136647Y-222096155D01*
X383136647Y-222096154D01*
X383136648Y-222096151D01*
X383170550Y-221882106D01*
X383170550Y-221665394D01*
X383136648Y-221451349D01*
X383136647Y-221451345D01*
X383136647Y-221451344D01*
X383107055Y-221360268D01*
X383105060Y-221290427D01*
X383141141Y-221230594D01*
X383203842Y-221199766D01*
X383224986Y-221197950D01*
X389083260Y-221197950D01*
X389150299Y-221217635D01*
X389170942Y-221234270D01*
X389220957Y-221284286D01*
X389220961Y-221284289D01*
X389352064Y-221371890D01*
X389352077Y-221371897D01*
X389497748Y-221432235D01*
X389497753Y-221432237D01*
X389652403Y-221462999D01*
X389652406Y-221463000D01*
X389652408Y-221463000D01*
X389810094Y-221463000D01*
X389810095Y-221462999D01*
X389964747Y-221432237D01*
X390110429Y-221371894D01*
X390241539Y-221284289D01*
X390353039Y-221172789D01*
X390440644Y-221041679D01*
X390500987Y-220895997D01*
X390531750Y-220741342D01*
X390531750Y-220583658D01*
X390531750Y-220583655D01*
X390531749Y-220583653D01*
X390515855Y-220503750D01*
X390500987Y-220429003D01*
X390500985Y-220428998D01*
X390440647Y-220283327D01*
X390440640Y-220283314D01*
X390353039Y-220152211D01*
X390353036Y-220152207D01*
X390241542Y-220040713D01*
X390241538Y-220040710D01*
X390110435Y-219953109D01*
X390110422Y-219953102D01*
X389964751Y-219892764D01*
X389964739Y-219892761D01*
X389810095Y-219862000D01*
X389810092Y-219862000D01*
X389652408Y-219862000D01*
X389652405Y-219862000D01*
X389497760Y-219892761D01*
X389497748Y-219892764D01*
X389352077Y-219953102D01*
X389352062Y-219953110D01*
X389317731Y-219976051D01*
X389251054Y-219996930D01*
X389248839Y-219996950D01*
X383151888Y-219996950D01*
X383084849Y-219977265D01*
X383039094Y-219924461D01*
X383029150Y-219855303D01*
X383041403Y-219816656D01*
X383069214Y-219762073D01*
X383136161Y-219556034D01*
X383170050Y-219342072D01*
X383170050Y-219125427D01*
X383136161Y-218911465D01*
X383069215Y-218705429D01*
X382970864Y-218512407D01*
X382927850Y-218453203D01*
X382927849Y-218453202D01*
X382314352Y-219066698D01*
X382302634Y-219022963D01*
X382230739Y-218898437D01*
X382129063Y-218796761D01*
X382004537Y-218724866D01*
X381960799Y-218713146D01*
X382574295Y-218099649D01*
X382574295Y-218099648D01*
X382525322Y-218064067D01*
X382482656Y-218008737D01*
X382476677Y-217939124D01*
X382509283Y-217877329D01*
X382525322Y-217863430D01*
X382574295Y-217827848D01*
X381960799Y-217214353D01*
X382004537Y-217202634D01*
X382129063Y-217130739D01*
X382230739Y-217029063D01*
X382302634Y-216904537D01*
X382314353Y-216860800D01*
X382927849Y-217474296D01*
X382927850Y-217474295D01*
X382970862Y-217415094D01*
X382970870Y-217415081D01*
X383069215Y-217222070D01*
X383136161Y-217016034D01*
X383170050Y-216802072D01*
X383170050Y-216585427D01*
X383136161Y-216371465D01*
X383069215Y-216165429D01*
X382970864Y-215972407D01*
X382927850Y-215913203D01*
X382927849Y-215913202D01*
X382314353Y-216526699D01*
X382302634Y-216482963D01*
X382230739Y-216358437D01*
X382129063Y-216256761D01*
X382004537Y-216184866D01*
X381960799Y-216173146D01*
X382574295Y-215559649D01*
X382525748Y-215524378D01*
X382483081Y-215469048D01*
X382477102Y-215399435D01*
X382509707Y-215337640D01*
X382525747Y-215323741D01*
X382690675Y-215203914D01*
X382843914Y-215050675D01*
X382971295Y-214875350D01*
X383069680Y-214682258D01*
X383099416Y-214590739D01*
X383136647Y-214476155D01*
X383136647Y-214476154D01*
X383136648Y-214476151D01*
X383170550Y-214262106D01*
X383170550Y-214045394D01*
X383136648Y-213831349D01*
X383136647Y-213831345D01*
X383136647Y-213831344D01*
X383069681Y-213625244D01*
X383022633Y-213532907D01*
X382971295Y-213432150D01*
X382843914Y-213256825D01*
X382690675Y-213103586D01*
X382581776Y-213024466D01*
X382526173Y-212984068D01*
X382483507Y-212928738D01*
X382477528Y-212859125D01*
X382510134Y-212797330D01*
X382526173Y-212783432D01*
X382582149Y-212742763D01*
X382690675Y-212663914D01*
X382843914Y-212510675D01*
X382971295Y-212335350D01*
X383069680Y-212142258D01*
X383069681Y-212142255D01*
X383136647Y-211936155D01*
X383136647Y-211936154D01*
X383136648Y-211936151D01*
X383170550Y-211722106D01*
X383170550Y-211505394D01*
X383136648Y-211291349D01*
X383136647Y-211291345D01*
X383136647Y-211291344D01*
X383107055Y-211200268D01*
X383105060Y-211130427D01*
X383141141Y-211070594D01*
X383203842Y-211039766D01*
X383224986Y-211037950D01*
X395602514Y-211037950D01*
X395669553Y-211057635D01*
G37*
%TD.AperFunction*%
%TA.AperFunction,Conductor*%
G36*
X395563348Y-214021503D02*
G01*
X395576784Y-214022464D01*
X395594510Y-214035734D01*
X395614653Y-214044933D01*
X395621935Y-214056264D01*
X395632717Y-214064336D01*
X395640454Y-214085081D01*
X395652427Y-214103711D01*
X395655680Y-214125902D01*
X395657134Y-214129800D01*
X395657418Y-214137757D01*
X395657448Y-214137960D01*
X395658159Y-214266554D01*
X395691338Y-214476034D01*
X395758284Y-214682070D01*
X395856635Y-214875092D01*
X395899648Y-214934295D01*
X395899649Y-214934295D01*
X396513146Y-214320797D01*
X396524866Y-214364537D01*
X396596761Y-214489063D01*
X396698437Y-214590739D01*
X396822963Y-214662634D01*
X396866698Y-214674352D01*
X396253202Y-215287849D01*
X396253203Y-215287851D01*
X396301751Y-215323123D01*
X396344417Y-215378453D01*
X396350396Y-215448066D01*
X396317791Y-215509861D01*
X396301752Y-215523759D01*
X396252357Y-215559647D01*
X396136825Y-215643586D01*
X396136823Y-215643588D01*
X396136822Y-215643588D01*
X395983588Y-215796822D01*
X395856205Y-215972149D01*
X395757818Y-216165244D01*
X395690852Y-216371344D01*
X395690852Y-216371347D01*
X395665916Y-216528784D01*
X395656950Y-216585394D01*
X395656950Y-216802106D01*
X395657591Y-216806151D01*
X395690852Y-217016152D01*
X395690852Y-217016155D01*
X395757818Y-217222255D01*
X395842441Y-217388336D01*
X395856205Y-217415350D01*
X395983586Y-217590675D01*
X396136825Y-217743914D01*
X396204890Y-217793366D01*
X396301327Y-217863432D01*
X396343992Y-217918762D01*
X396349971Y-217988376D01*
X396317365Y-218050171D01*
X396301327Y-218064068D01*
X396272448Y-218085050D01*
X396136825Y-218183586D01*
X396136823Y-218183588D01*
X396136822Y-218183588D01*
X395983588Y-218336822D01*
X395856205Y-218512149D01*
X395757818Y-218705244D01*
X395690852Y-218911344D01*
X395690852Y-218911347D01*
X395673174Y-219022963D01*
X395656950Y-219125394D01*
X395656950Y-219342106D01*
X395658414Y-219351347D01*
X395690851Y-219556151D01*
X395709370Y-219613144D01*
X395711365Y-219682985D01*
X395679120Y-219739143D01*
X392562181Y-222856083D01*
X392500858Y-222889568D01*
X392431166Y-222884584D01*
X392375233Y-222842712D01*
X392350816Y-222777248D01*
X392350500Y-222768402D01*
X392350500Y-217197596D01*
X392370185Y-217130557D01*
X392386814Y-217109920D01*
X395445769Y-214050964D01*
X395465205Y-214040352D01*
X395481939Y-214025852D01*
X395495270Y-214023935D01*
X395507092Y-214017480D01*
X395529178Y-214019059D01*
X395551097Y-214015908D01*
X395563348Y-214021503D01*
G37*
%TD.AperFunction*%
%TD*%
M02*
