%TF.GenerationSoftware,KiCad,Pcbnew,10.0.0*%
%TF.CreationDate,2026-04-27T22:06:30+10:00*%
%TF.ProjectId,YetAnotherKeyboard,59657441-6e6f-4746-9865-724b6579626f,rev?*%
%TF.SameCoordinates,Original*%
%TF.FileFunction,Copper,L2,Bot*%
%TF.FilePolarity,Positive*%
%FSLAX46Y46*%
G04 Gerber Fmt 4.6, Leading zero omitted, Abs format (unit mm)*
G04 Created by KiCad (PCBNEW 10.0.0) date 2026-04-27 22:06:30*
%MOMM*%
%LPD*%
G01*
G04 APERTURE LIST*
G04 Aperture macros list*
%AMRoundRect*
0 Rectangle with rounded corners*
0 $1 Rounding radius*
0 $2 $3 $4 $5 $6 $7 $8 $9 X,Y pos of 4 corners*
0 Add a 4 corners polygon primitive as box body*
4,1,4,$2,$3,$4,$5,$6,$7,$8,$9,$2,$3,0*
0 Add four circle primitives for the rounded corners*
1,1,$1+$1,$2,$3*
1,1,$1+$1,$4,$5*
1,1,$1+$1,$6,$7*
1,1,$1+$1,$8,$9*
0 Add four rect primitives between the rounded corners*
20,1,$1+$1,$2,$3,$4,$5,0*
20,1,$1+$1,$4,$5,$6,$7,0*
20,1,$1+$1,$6,$7,$8,$9,0*
20,1,$1+$1,$8,$9,$2,$3,0*%
G04 Aperture macros list end*
%TA.AperFunction,SMDPad,CuDef*%
%ADD10RoundRect,0.225000X0.225000X0.375000X-0.225000X0.375000X-0.225000X-0.375000X0.225000X-0.375000X0*%
%TD*%
%TA.AperFunction,SMDPad,CuDef*%
%ADD11RoundRect,0.200000X1.075000X1.050000X-1.075000X1.050000X-1.075000X-1.050000X1.075000X-1.050000X0*%
%TD*%
%TA.AperFunction,ComponentPad*%
%ADD12R,1.000000X1.000000*%
%TD*%
%TA.AperFunction,ComponentPad*%
%ADD13C,1.000000*%
%TD*%
%TA.AperFunction,ComponentPad*%
%ADD14C,1.752600*%
%TD*%
%TA.AperFunction,ViaPad*%
%ADD15C,0.600000*%
%TD*%
%TA.AperFunction,Conductor*%
%ADD16C,0.200000*%
%TD*%
G04 APERTURE END LIST*
D10*
%TO.P,D27,1,K_1*%
%TO.N,ROW2*%
X306567500Y-225425000D03*
%TO.P,D27,2,A_2*%
%TO.N,Net-(D27-A)*%
X303267500Y-225425000D03*
%TD*%
D11*
%TO.P,SW2,2,2_2*%
%TO.N,COL1*%
X88550750Y-212566250D03*
%TO.P,SW2,1,1_1*%
%TO.N,Net-(D2-A)*%
X75623750Y-215106250D03*
%TD*%
D10*
%TO.P,D2,2,A_2*%
%TO.N,Net-(D2-A)*%
X74867500Y-225425000D03*
%TO.P,D2,1,K_1*%
%TO.N,ROW1*%
X78167500Y-225425000D03*
%TD*%
%TO.P,D3,2,A_2*%
%TO.N,Net-(D3-A)*%
X93917500Y-225425000D03*
%TO.P,D3,1,K_1*%
%TO.N,ROW1*%
X97217500Y-225425000D03*
%TD*%
D11*
%TO.P,SW3,2,2_2*%
%TO.N,COL2*%
X107600750Y-212566250D03*
%TO.P,SW3,1,1_1*%
%TO.N,Net-(D3-A)*%
X94673750Y-215106250D03*
%TD*%
D10*
%TO.P,D4,2,A_2*%
%TO.N,Net-(D4-A)*%
X113030000Y-225425000D03*
%TO.P,D4,1,K_1*%
%TO.N,ROW1*%
X116330000Y-225425000D03*
%TD*%
D11*
%TO.P,SW4,2,2_2*%
%TO.N,COL3*%
X126650750Y-212566250D03*
%TO.P,SW4,1,1_1*%
%TO.N,Net-(D4-A)*%
X113723750Y-215106250D03*
%TD*%
D10*
%TO.P,D57,2,A_2*%
%TO.N,Net-(D57-A)*%
X146305000Y-301625000D03*
%TO.P,D57,1,K_1*%
%TO.N,ROW5*%
X149605000Y-301625000D03*
%TD*%
D11*
%TO.P,SW57,2,2_2*%
%TO.N,COL4*%
X209994500Y-288766250D03*
%TO.P,SW57,1,1_1*%
%TO.N,Net-(D57-A)*%
X197067500Y-291306250D03*
%TD*%
D10*
%TO.P,D63,2,A_2*%
%TO.N,Net-(D63-A)*%
X308230000Y-282575000D03*
%TO.P,D63,1,K_1*%
%TO.N,ROW5*%
X311530000Y-282575000D03*
%TD*%
D11*
%TO.P,SW59,2,2_2*%
%TO.N,COL6*%
X305244500Y-288766250D03*
%TO.P,SW59,1,1_1*%
%TO.N,Net-(D59-A)*%
X292317500Y-291306250D03*
%TD*%
D10*
%TO.P,D59,2,A_2*%
%TO.N,Net-(D59-A)*%
X289180000Y-301625000D03*
%TO.P,D59,1,K_1*%
%TO.N,ROW5*%
X292480000Y-301625000D03*
%TD*%
%TO.P,D51,1,K_1*%
%TO.N,ROW4*%
X292500000Y-282575000D03*
%TO.P,D51,2,A_2*%
%TO.N,Net-(D51-A)*%
X289200000Y-282575000D03*
%TD*%
D11*
%TO.P,SW51,2,2_2*%
%TO.N,COL11*%
X302873250Y-269711050D03*
%TO.P,SW51,1,1_1*%
%TO.N,Net-(D51-A)*%
X289946250Y-272251050D03*
%TD*%
%TO.P,SW41,2,2_2*%
%TO.N,COL1*%
X100457000Y-269716250D03*
%TO.P,SW41,1,1_1*%
%TO.N,Net-(D41-A)*%
X87530000Y-272256250D03*
%TD*%
D10*
%TO.P,D41,2,A_2*%
%TO.N,Net-(D41-A)*%
X74867500Y-282575000D03*
%TO.P,D41,1,K_1*%
%TO.N,ROW4*%
X78167500Y-282575000D03*
%TD*%
%TO.P,D29,2,A_2*%
%TO.N,Net-(D29-A)*%
X108205000Y-263525000D03*
%TO.P,D29,1,K_1*%
%TO.N,ROW3*%
X111505000Y-263525000D03*
%TD*%
%TO.P,D36,2,A_2*%
%TO.N,Net-(D36-A)*%
X241575000Y-263525000D03*
%TO.P,D36,1,K_1*%
%TO.N,ROW3*%
X244875000Y-263525000D03*
%TD*%
D11*
%TO.P,SW36,2,2_2*%
%TO.N,COL9*%
X255248250Y-250661050D03*
%TO.P,SW36,1,1_1*%
%TO.N,Net-(D36-A)*%
X242321250Y-253201050D03*
%TD*%
D10*
%TO.P,D28,2,A_2*%
%TO.N,Net-(D28-A)*%
X74867500Y-263525000D03*
%TO.P,D28,1,K_1*%
%TO.N,ROW3*%
X78167500Y-263525000D03*
%TD*%
D11*
%TO.P,SW28,2,2_2*%
%TO.N,COL1*%
X95694500Y-250666250D03*
%TO.P,SW28,1,1_1*%
%TO.N,Net-(D28-A)*%
X82767500Y-253206250D03*
%TD*%
%TO.P,SW15,2,2_2*%
%TO.N,COL1*%
X93313250Y-231616250D03*
%TO.P,SW15,1,1_1*%
%TO.N,Net-(D15-A)*%
X80386250Y-234156250D03*
%TD*%
D10*
%TO.P,D15,2,A_2*%
%TO.N,Net-(D15-A)*%
X74805000Y-244475000D03*
%TO.P,D15,1,K_1*%
%TO.N,ROW2*%
X78105000Y-244475000D03*
%TD*%
D11*
%TO.P,SW21,2,2_2*%
%TO.N,COL7*%
X212375750Y-231616250D03*
%TO.P,SW21,1,1_1*%
%TO.N,Net-(D21-A)*%
X199448750Y-234156250D03*
%TD*%
D10*
%TO.P,D21,2,A_2*%
%TO.N,Net-(D21-A)*%
X198755000Y-244475000D03*
%TO.P,D21,1,K_1*%
%TO.N,ROW2*%
X202055000Y-244475000D03*
%TD*%
%TO.P,D20,2,A_2*%
%TO.N,Net-(D20-A)*%
X179642500Y-244475000D03*
%TO.P,D20,1,K_1*%
%TO.N,ROW2*%
X182942500Y-244475000D03*
%TD*%
D11*
%TO.P,SW20,2,2_2*%
%TO.N,COL6*%
X193325750Y-231775000D03*
%TO.P,SW20,1,1_1*%
%TO.N,Net-(D20-A)*%
X180398750Y-234315000D03*
%TD*%
D10*
%TO.P,D39,2,A_2*%
%TO.N,Net-(D39-A)*%
X293942500Y-244475000D03*
%TO.P,D39,1,K_1*%
%TO.N,ROW3*%
X297242500Y-244475000D03*
%TD*%
D11*
%TO.P,SW39,2,2_2*%
%TO.N,COL12*%
X307625750Y-231611050D03*
%TO.P,SW39,1,1_1*%
%TO.N,Net-(D39-A)*%
X294698750Y-234151050D03*
%TD*%
D10*
%TO.P,D8,2,A_2*%
%TO.N,Net-(D8-A)*%
X189187500Y-225425000D03*
%TO.P,D8,1,K_1*%
%TO.N,ROW1*%
X192487500Y-225425000D03*
%TD*%
D11*
%TO.P,SW8,2,2_2*%
%TO.N,COL7*%
X202860750Y-212561050D03*
%TO.P,SW8,1,1_1*%
%TO.N,Net-(D8-A)*%
X189933750Y-215101050D03*
%TD*%
%TO.P,SW5,1,1_1*%
%TO.N,Net-(D5-A)*%
X132773750Y-215106250D03*
%TO.P,SW5,2,2_2*%
%TO.N,COL4*%
X145700750Y-212566250D03*
%TD*%
%TO.P,SW38,1,1_1*%
%TO.N,Net-(D38-A)*%
X280421250Y-253201050D03*
%TO.P,SW38,2,2_2*%
%TO.N,COL11*%
X293348250Y-250661050D03*
%TD*%
%TO.P,SW7,1,1_1*%
%TO.N,Net-(D7-A)*%
X171248512Y-215111450D03*
%TO.P,SW7,2,2_2*%
%TO.N,COL6*%
X184175512Y-212571450D03*
%TD*%
D10*
%TO.P,D32,1,K_1*%
%TO.N,ROW3*%
X168737500Y-263525000D03*
%TO.P,D32,2,A_2*%
%TO.N,Net-(D32-A)*%
X165437500Y-263525000D03*
%TD*%
%TO.P,D23,1,K_1*%
%TO.N,ROW2*%
X240155000Y-244475000D03*
%TO.P,D23,2,A_2*%
%TO.N,Net-(D23-A)*%
X236855000Y-244475000D03*
%TD*%
D11*
%TO.P,SW18,1,1_1*%
%TO.N,Net-(D18-A)*%
X142308750Y-234151050D03*
%TO.P,SW18,2,2_2*%
%TO.N,COL4*%
X155235750Y-231611050D03*
%TD*%
%TO.P,SW60,1,1_1*%
%TO.N,Net-(D60-A)*%
X323273750Y-291301050D03*
%TO.P,SW60,2,2_2*%
%TO.N,COL7*%
X336200750Y-288761050D03*
%TD*%
%TO.P,SW19,1,1_1*%
%TO.N,Net-(D19-A)*%
X161358750Y-234151050D03*
%TO.P,SW19,2,2_2*%
%TO.N,COL5*%
X174285750Y-231611050D03*
%TD*%
D10*
%TO.P,D26,1,K_1*%
%TO.N,ROW2*%
X287717500Y-225425000D03*
%TO.P,D26,2,A_2*%
%TO.N,Net-(D26-A)*%
X284417500Y-225425000D03*
%TD*%
D11*
%TO.P,SW63,1,1_1*%
%TO.N,Net-(D63-A)*%
X316130000Y-272251050D03*
%TO.P,SW63,2,2_2*%
%TO.N,COL10*%
X329057000Y-269711050D03*
%TD*%
D10*
%TO.P,D31,1,K_1*%
%TO.N,ROW3*%
X149605000Y-263525000D03*
%TO.P,D31,2,A_2*%
%TO.N,Net-(D31-A)*%
X146305000Y-263525000D03*
%TD*%
D11*
%TO.P,SW10,1,1_1*%
%TO.N,Net-(D10-A)*%
X228023750Y-215106250D03*
%TO.P,SW10,2,2_2*%
%TO.N,COL9*%
X240950750Y-212566250D03*
%TD*%
D10*
%TO.P,D35,1,K_1*%
%TO.N,ROW3*%
X225805000Y-263525000D03*
%TO.P,D35,2,A_2*%
%TO.N,Net-(D35-A)*%
X222505000Y-263525000D03*
%TD*%
%TO.P,D13,1,K_1*%
%TO.N,ROW1*%
X335405000Y-244475000D03*
%TO.P,D13,2,A_2*%
%TO.N,Net-(D13-A)*%
X332105000Y-244475000D03*
%TD*%
%TO.P,D43,1,K_1*%
%TO.N,ROW4*%
X140142500Y-282575000D03*
%TO.P,D43,2,A_2*%
%TO.N,Net-(D43-A)*%
X136842500Y-282575000D03*
%TD*%
D11*
%TO.P,SW40,1,1_1*%
%TO.N,Net-(D40-A)*%
X313738750Y-234156250D03*
%TO.P,SW40,2,2_2*%
%TO.N,COL13*%
X326665750Y-231616250D03*
%TD*%
D12*
%TO.P,J1,1,Pin_1_1*%
%TO.N,/CS*%
X373856250Y-263207500D03*
D13*
%TO.P,J1,2,Pin_2_2*%
%TO.N,GND*%
X373856250Y-264477500D03*
%TO.P,J1,3,Pin_3_3*%
%TO.N,/VCC*%
X373856250Y-265747500D03*
%TO.P,J1,4,Pin_4_4*%
%TO.N,/SCK*%
X373856250Y-267017500D03*
%TO.P,J1,5,Pin_5_5*%
%TO.N,/MOSI*%
X373856250Y-268287500D03*
%TD*%
D11*
%TO.P,SW52,1,1_1*%
%TO.N,Net-(D52-A)*%
X299471250Y-253201050D03*
%TO.P,SW52,2,2_2*%
%TO.N,COL12*%
X312398250Y-250661050D03*
%TD*%
%TO.P,SW16,1,1_1*%
%TO.N,Net-(D16-A)*%
X104198750Y-234156250D03*
%TO.P,SW16,2,2_2*%
%TO.N,COL2*%
X117125750Y-231616250D03*
%TD*%
%TO.P,SW34,1,1_1*%
%TO.N,Net-(D34-A)*%
X204221250Y-253201050D03*
%TO.P,SW34,2,2_2*%
%TO.N,COL7*%
X217148250Y-250661050D03*
%TD*%
%TO.P,SW24,1,1_1*%
%TO.N,Net-(D24-A)*%
X256498750Y-234156250D03*
%TO.P,SW24,2,2_2*%
%TO.N,COL10*%
X269425750Y-231616250D03*
%TD*%
D10*
%TO.P,D16,1,K_1*%
%TO.N,ROW2*%
X106742500Y-244475000D03*
%TO.P,D16,2,A_2*%
%TO.N,Net-(D16-A)*%
X103442500Y-244475000D03*
%TD*%
%TO.P,D64,1,K_1*%
%TO.N,ROW5*%
X344910000Y-282575000D03*
%TO.P,D64,2,A_2*%
%TO.N,Net-(D64-A)*%
X341610000Y-282575000D03*
%TD*%
%TO.P,D24,1,K_1*%
%TO.N,ROW2*%
X258942500Y-244475000D03*
%TO.P,D24,2,A_2*%
%TO.N,Net-(D24-A)*%
X255642500Y-244475000D03*
%TD*%
%TO.P,D42,1,K_1*%
%TO.N,ROW4*%
X120830000Y-282575000D03*
%TO.P,D42,2,A_2*%
%TO.N,Net-(D42-A)*%
X117530000Y-282575000D03*
%TD*%
%TO.P,D52,1,K_1*%
%TO.N,ROW4*%
X302025000Y-263525000D03*
%TO.P,D52,2,A_2*%
%TO.N,Net-(D52-A)*%
X298725000Y-263525000D03*
%TD*%
%TO.P,D14,1,K_1*%
%TO.N,ROW1*%
X325428512Y-225425000D03*
%TO.P,D14,2,A_2*%
%TO.N,Net-(D14-A)*%
X322128512Y-225425000D03*
%TD*%
D11*
%TO.P,SW23,1,1_1*%
%TO.N,Net-(D23-A)*%
X237548750Y-234156250D03*
%TO.P,SW23,2,2_2*%
%TO.N,COL9*%
X250475750Y-231616250D03*
%TD*%
%TO.P,SW22,1,1_1*%
%TO.N,Net-(D22-A)*%
X218498750Y-234156250D03*
%TO.P,SW22,2,2_2*%
%TO.N,COL8*%
X231425750Y-231616250D03*
%TD*%
%TO.P,SW9,1,1_1*%
%TO.N,Net-(D9-A)*%
X208973750Y-215106250D03*
%TO.P,SW9,2,2_2*%
%TO.N,COL8*%
X221900750Y-212566250D03*
%TD*%
D10*
%TO.P,D11,1,K_1*%
%TO.N,ROW1*%
X249617500Y-225425000D03*
%TO.P,D11,2,A_2*%
%TO.N,Net-(D11-A)*%
X246317500Y-225425000D03*
%TD*%
%TO.P,D48,1,K_1*%
%TO.N,ROW4*%
X235350000Y-282575000D03*
%TO.P,D48,2,A_2*%
%TO.N,Net-(D48-A)*%
X232050000Y-282575000D03*
%TD*%
%TO.P,D30,1,K_1*%
%TO.N,ROW3*%
X130575000Y-263525000D03*
%TO.P,D30,2,A_2*%
%TO.N,Net-(D30-A)*%
X127275000Y-263525000D03*
%TD*%
%TO.P,D6,1,K_1*%
%TO.N,ROW1*%
X154367500Y-225425000D03*
%TO.P,D6,2,A_2*%
%TO.N,Net-(D6-A)*%
X151067500Y-225425000D03*
%TD*%
D11*
%TO.P,SW62,1,1_1*%
%TO.N,Net-(D62-A)*%
X361363750Y-291306250D03*
%TO.P,SW62,2,2_2*%
%TO.N,COL9*%
X374290750Y-288766250D03*
%TD*%
%TO.P,SW54,1,1_1*%
%TO.N,Net-(D54-A)*%
X78015000Y-291301050D03*
%TO.P,SW54,2,2_2*%
%TO.N,COL1*%
X90942000Y-288761050D03*
%TD*%
%TO.P,SW49,1,1_1*%
%TO.N,Net-(D49-A)*%
X251836250Y-272256250D03*
%TO.P,SW49,2,2_2*%
%TO.N,COL9*%
X264763250Y-269716250D03*
%TD*%
D10*
%TO.P,D19,1,K_1*%
%TO.N,ROW2*%
X163975000Y-244475000D03*
%TO.P,D19,2,A_2*%
%TO.N,Net-(D19-A)*%
X160675000Y-244475000D03*
%TD*%
%TO.P,D46,1,K_1*%
%TO.N,ROW4*%
X197030000Y-282575000D03*
%TO.P,D46,2,A_2*%
%TO.N,Net-(D46-A)*%
X193730000Y-282575000D03*
%TD*%
D11*
%TO.P,SW35,1,1_1*%
%TO.N,Net-(D35-A)*%
X223261250Y-253206250D03*
%TO.P,SW35,2,2_2*%
%TO.N,COL8*%
X236188250Y-250666250D03*
%TD*%
D10*
%TO.P,D7,1,K_1*%
%TO.N,ROW1*%
X173782262Y-225425000D03*
%TO.P,D7,2,A_2*%
%TO.N,Net-(D7-A)*%
X170482262Y-225425000D03*
%TD*%
%TO.P,D58,1,K_1*%
%TO.N,ROW5*%
X268530000Y-301625000D03*
%TO.P,D58,2,A_2*%
%TO.N,Net-(D58-A)*%
X265230000Y-301625000D03*
%TD*%
D11*
%TO.P,SW26,1,1_1*%
%TO.N,Net-(D26-A)*%
X285173750Y-215101050D03*
%TO.P,SW26,2,2_2*%
%TO.N,COL12*%
X298100750Y-212561050D03*
%TD*%
%TO.P,SW27,1,1_1*%
%TO.N,Net-(D27-A)*%
X304123750Y-215106250D03*
%TO.P,SW27,2,2_2*%
%TO.N,COL13*%
X317050750Y-212566250D03*
%TD*%
D10*
%TO.P,D56,1,K_1*%
%TO.N,ROW5*%
X125855000Y-301625000D03*
%TO.P,D56,2,A_2*%
%TO.N,Net-(D56-A)*%
X122555000Y-301625000D03*
%TD*%
D11*
%TO.P,SW29,1,1_1*%
%TO.N,Net-(D29-A)*%
X108961250Y-253206250D03*
%TO.P,SW29,2,2_2*%
%TO.N,COL2*%
X121888250Y-250666250D03*
%TD*%
%TO.P,SW44,1,1_1*%
%TO.N,Net-(D44-A)*%
X156486250Y-272256250D03*
%TO.P,SW44,2,2_2*%
%TO.N,COL4*%
X169413250Y-269716250D03*
%TD*%
%TO.P,SW25,1,1_1*%
%TO.N,Net-(D25-A)*%
X275648750Y-234315000D03*
%TO.P,SW25,2,2_2*%
%TO.N,COL11*%
X288575750Y-231775000D03*
%TD*%
%TO.P,SW55,1,1_1*%
%TO.N,Net-(D55-A)*%
X101817500Y-291306250D03*
%TO.P,SW55,2,2_2*%
%TO.N,COL2*%
X114744500Y-288766250D03*
%TD*%
%TO.P,SW46,1,1_1*%
%TO.N,Net-(D46-A)*%
X194586250Y-272256250D03*
%TO.P,SW46,2,2_2*%
%TO.N,COL6*%
X207513250Y-269716250D03*
%TD*%
D10*
%TO.P,D34,1,K_1*%
%TO.N,ROW3*%
X206837500Y-263525000D03*
%TO.P,D34,2,A_2*%
%TO.N,Net-(D34-A)*%
X203537500Y-263525000D03*
%TD*%
D11*
%TO.P,SW11,1,1_1*%
%TO.N,Net-(D11-A)*%
X247073750Y-215106250D03*
%TO.P,SW11,2,2_2*%
%TO.N,COL10*%
X260000750Y-212566250D03*
%TD*%
%TO.P,SW31,1,1_1*%
%TO.N,Net-(D31-A)*%
X147061250Y-253206250D03*
%TO.P,SW31,2,2_2*%
%TO.N,COL4*%
X159988250Y-250666250D03*
%TD*%
D10*
%TO.P,D47,1,K_1*%
%TO.N,ROW4*%
X216362500Y-282575000D03*
%TO.P,D47,2,A_2*%
%TO.N,Net-(D47-A)*%
X213062500Y-282575000D03*
%TD*%
%TO.P,D10,1,K_1*%
%TO.N,ROW1*%
X230630000Y-225425000D03*
%TO.P,D10,2,A_2*%
%TO.N,Net-(D10-A)*%
X227330000Y-225425000D03*
%TD*%
D11*
%TO.P,SW64,1,1_1*%
%TO.N,Net-(D64-A)*%
X342313750Y-272256250D03*
%TO.P,SW64,2,2_2*%
%TO.N,COL11*%
X355240750Y-269716250D03*
%TD*%
D10*
%TO.P,D37,1,K_1*%
%TO.N,ROW3*%
X263987500Y-263525000D03*
%TO.P,D37,2,A_2*%
%TO.N,Net-(D37-A)*%
X260687500Y-263525000D03*
%TD*%
D11*
%TO.P,SW61,1,1_1*%
%TO.N,Net-(D61-A)*%
X342313750Y-291306250D03*
%TO.P,SW61,2,2_2*%
%TO.N,COL8*%
X355240750Y-288766250D03*
%TD*%
%TO.P,SW45,1,1_1*%
%TO.N,Net-(D45-A)*%
X175536250Y-272256250D03*
%TO.P,SW45,2,2_2*%
%TO.N,COL5*%
X188463250Y-269716250D03*
%TD*%
D10*
%TO.P,D54,1,K_1*%
%TO.N,ROW5*%
X78187500Y-301625000D03*
%TO.P,D54,2,A_2*%
%TO.N,Net-(D54-A)*%
X74887500Y-301625000D03*
%TD*%
D11*
%TO.P,SW12,1,1_1*%
%TO.N,Net-(D12-A)*%
X266133750Y-215101050D03*
%TO.P,SW12,2,2_2*%
%TO.N,COL11*%
X279060750Y-212561050D03*
%TD*%
%TO.P,SW58,1,1_1*%
%TO.N,Net-(D58-A)*%
X268405000Y-291306250D03*
%TO.P,SW58,2,2_2*%
%TO.N,COL5*%
X281332000Y-288766250D03*
%TD*%
D10*
%TO.P,D45,1,K_1*%
%TO.N,ROW4*%
X178042500Y-282575000D03*
%TO.P,D45,2,A_2*%
%TO.N,Net-(D45-A)*%
X174742500Y-282575000D03*
%TD*%
D11*
%TO.P,SW66,1,1_1*%
%TO.N,Net-(D66-A)*%
X361363750Y-234156250D03*
%TO.P,SW66,2,2_2*%
%TO.N,COL13*%
X374290750Y-231616250D03*
%TD*%
D10*
%TO.P,D40,1,K_1*%
%TO.N,ROW3*%
X316272500Y-244475000D03*
%TO.P,D40,2,A_2*%
%TO.N,Net-(D40-A)*%
X312972500Y-244475000D03*
%TD*%
%TO.P,D12,1,K_1*%
%TO.N,ROW1*%
X268687500Y-225425000D03*
%TO.P,D12,2,A_2*%
%TO.N,Net-(D12-A)*%
X265387500Y-225425000D03*
%TD*%
D11*
%TO.P,SW43,1,1_1*%
%TO.N,Net-(D43-A)*%
X137536250Y-272256250D03*
%TO.P,SW43,2,2_2*%
%TO.N,COL3*%
X150463250Y-269716250D03*
%TD*%
D10*
%TO.P,D38,1,K_1*%
%TO.N,ROW3*%
X282975000Y-263525000D03*
%TO.P,D38,2,A_2*%
%TO.N,Net-(D38-A)*%
X279675000Y-263525000D03*
%TD*%
D11*
%TO.P,SW14,1,1_1*%
%TO.N,Net-(D14-A)*%
X333151012Y-215106250D03*
%TO.P,SW14,2,2_2*%
%TO.N,COL13*%
X346078012Y-212566250D03*
%TD*%
%TO.P,SW6,1,1_1*%
%TO.N,Net-(D6-A)*%
X151823750Y-215106250D03*
%TO.P,SW6,2,2_2*%
%TO.N,COL5*%
X164750750Y-212566250D03*
%TD*%
D10*
%TO.P,D61,1,K_1*%
%TO.N,ROW5*%
X344910000Y-301625000D03*
%TO.P,D61,2,A_2*%
%TO.N,Net-(D61-A)*%
X341610000Y-301625000D03*
%TD*%
D14*
%TO.P,U1,1,TX0/P0.06_1*%
%TO.N,/CS*%
X381793750Y-211613750D03*
%TO.P,U1,2,RX1/P0.08_2*%
%TO.N,COL1*%
X381793750Y-214153750D03*
%TO.P,U1,3,GND_3*%
%TO.N,GND*%
X381793750Y-216693750D03*
%TO.P,U1,4,GND_4*%
X381793750Y-219233750D03*
%TO.P,U1,5,P0.17_5*%
%TO.N,/MOSI*%
X381793750Y-221773750D03*
%TO.P,U1,6,P0.20_6*%
%TO.N,/SCK*%
X381793750Y-224313750D03*
%TO.P,U1,7,P0.22_7*%
%TO.N,COL2*%
X381793750Y-226853750D03*
%TO.P,U1,8,P0.24_8*%
%TO.N,COL3*%
X381793750Y-229393750D03*
%TO.P,U1,9,P1.00_9*%
%TO.N,COL4*%
X381793750Y-231933750D03*
%TO.P,U1,10,P0.11_10*%
%TO.N,COL5*%
X381793750Y-234473750D03*
%TO.P,U1,11,P1.04_11*%
%TO.N,COL6*%
X381793750Y-237013750D03*
%TO.P,U1,12,P1.06_12*%
%TO.N,COL7*%
X381793750Y-239553750D03*
%TO.P,U1,13,NFC1/P0.09_13*%
%TO.N,COL11*%
X397033750Y-239553750D03*
%TO.P,U1,14,NFC2/P0.10_14*%
%TO.N,COL12*%
X397033750Y-237013750D03*
%TO.P,U1,15,P1.11_15*%
%TO.N,COL13*%
X397033750Y-234473750D03*
%TO.P,U1,16,P1.13_16*%
%TO.N,ROW5*%
X397033750Y-231933750D03*
%TO.P,U1,17,P1.15_17*%
%TO.N,ROW4*%
X397033750Y-229393750D03*
%TO.P,U1,18,AIN0/P0.02_18*%
%TO.N,ROW3*%
X397033750Y-226853750D03*
%TO.P,U1,19,AIN5/P0.29_19*%
%TO.N,ROW2*%
X397033750Y-224313750D03*
%TO.P,U1,20,AIN7/P0.31_20*%
%TO.N,ROW1*%
X397033750Y-221773750D03*
%TO.P,U1,21,VCC_21*%
%TO.N,/VCC*%
X397033750Y-219233750D03*
%TO.P,U1,22,RST_22*%
%TO.N,Net-(U1-RST)*%
X397033750Y-216693750D03*
%TO.P,U1,23,GND_23*%
%TO.N,GND*%
X397033750Y-214153750D03*
%TO.P,U1,24,BATIN/P0.04_24*%
%TO.N,Net-(U1-BATIN{slash}P0.04)*%
X397033750Y-211613750D03*
%TO.P,U1,31,P1.01_31*%
%TO.N,COL8*%
X384333750Y-234473750D03*
%TO.P,U1,32,P1.02_32*%
%TO.N,COL9*%
X386873750Y-234473750D03*
%TO.P,U1,33,P1.07_33*%
%TO.N,COL10*%
X389413750Y-234473750D03*
%TD*%
D10*
%TO.P,D55,1,K_1*%
%TO.N,ROW5*%
X101980000Y-301625000D03*
%TO.P,D55,2,A_2*%
%TO.N,Net-(D55-A)*%
X98680000Y-301625000D03*
%TD*%
%TO.P,D17,1,K_1*%
%TO.N,ROW2*%
X125812500Y-244475000D03*
%TO.P,D17,2,A_2*%
%TO.N,Net-(D17-A)*%
X122512500Y-244475000D03*
%TD*%
D11*
%TO.P,SW17,1,1_1*%
%TO.N,Net-(D17-A)*%
X123258750Y-234151050D03*
%TO.P,SW17,2,2_2*%
%TO.N,COL3*%
X136185750Y-231611050D03*
%TD*%
D10*
%TO.P,D33,1,K_1*%
%TO.N,ROW3*%
X187767500Y-263525000D03*
%TO.P,D33,2,A_2*%
%TO.N,Net-(D33-A)*%
X184467500Y-263525000D03*
%TD*%
%TO.P,D62,1,K_1*%
%TO.N,ROW5*%
X363960000Y-301625000D03*
%TO.P,D62,2,A_2*%
%TO.N,Net-(D62-A)*%
X360660000Y-301625000D03*
%TD*%
D11*
%TO.P,SW37,1,1_1*%
%TO.N,Net-(D37-A)*%
X261371250Y-253201050D03*
%TO.P,SW37,2,2_2*%
%TO.N,COL10*%
X274298250Y-250661050D03*
%TD*%
%TO.P,SW65,1,1_1*%
%TO.N,Net-(D65-A)*%
X361363750Y-215106250D03*
%TO.P,SW65,2,2_2*%
%TO.N,COL12*%
X374290750Y-212566250D03*
%TD*%
%TO.P,SW32,1,1_1*%
%TO.N,Net-(D32-A)*%
X166121250Y-253201050D03*
%TO.P,SW32,2,2_2*%
%TO.N,COL5*%
X179048250Y-250661050D03*
%TD*%
D10*
%TO.P,D53,1,K_1*%
%TO.N,ROW4*%
X321097500Y-263525000D03*
%TO.P,D53,2,A_2*%
%TO.N,Net-(D53-A)*%
X317797500Y-263525000D03*
%TD*%
D11*
%TO.P,SW56,1,1_1*%
%TO.N,Net-(D56-A)*%
X125630000Y-291306250D03*
%TO.P,SW56,2,2_2*%
%TO.N,COL3*%
X138557000Y-288766250D03*
%TD*%
%TO.P,SW13,1,1_1*%
%TO.N,Net-(D13-A)*%
X337561250Y-234151050D03*
%TO.P,SW13,2,2_2*%
%TO.N,COL12*%
X350488250Y-231611050D03*
%TD*%
D10*
%TO.P,D18,1,K_1*%
%TO.N,ROW2*%
X144925000Y-244475000D03*
%TO.P,D18,2,A_2*%
%TO.N,Net-(D18-A)*%
X141625000Y-244475000D03*
%TD*%
D11*
%TO.P,SW48,1,1_1*%
%TO.N,Net-(D48-A)*%
X232796250Y-272251050D03*
%TO.P,SW48,2,2_2*%
%TO.N,COL8*%
X245723250Y-269711050D03*
%TD*%
D10*
%TO.P,D50,1,K_1*%
%TO.N,ROW4*%
X273492500Y-282575000D03*
%TO.P,D50,2,A_2*%
%TO.N,Net-(D50-A)*%
X270192500Y-282575000D03*
%TD*%
D11*
%TO.P,SW47,1,1_1*%
%TO.N,Net-(D47-A)*%
X213746250Y-272251050D03*
%TO.P,SW47,2,2_2*%
%TO.N,COL7*%
X226673250Y-269711050D03*
%TD*%
%TO.P,SW50,1,1_1*%
%TO.N,Net-(D50-A)*%
X270886250Y-272256250D03*
%TO.P,SW50,2,2_2*%
%TO.N,COL10*%
X283813250Y-269716250D03*
%TD*%
D10*
%TO.P,D9,1,K_1*%
%TO.N,ROW1*%
X211580000Y-225425000D03*
%TO.P,D9,2,A_2*%
%TO.N,Net-(D9-A)*%
X208280000Y-225425000D03*
%TD*%
%TO.P,D22,1,K_1*%
%TO.N,ROW2*%
X221042500Y-244475000D03*
%TO.P,D22,2,A_2*%
%TO.N,Net-(D22-A)*%
X217742500Y-244475000D03*
%TD*%
%TO.P,D49,1,K_1*%
%TO.N,ROW4*%
X254442500Y-282575000D03*
%TO.P,D49,2,A_2*%
%TO.N,Net-(D49-A)*%
X251142500Y-282575000D03*
%TD*%
%TO.P,D25,1,K_1*%
%TO.N,ROW2*%
X278255000Y-244475000D03*
%TO.P,D25,2,A_2*%
%TO.N,Net-(D25-A)*%
X274955000Y-244475000D03*
%TD*%
%TO.P,D65,1,K_1*%
%TO.N,ROW5*%
X363897500Y-225425000D03*
%TO.P,D65,2,A_2*%
%TO.N,Net-(D65-A)*%
X360597500Y-225425000D03*
%TD*%
%TO.P,D60,1,K_1*%
%TO.N,ROW5*%
X325817500Y-301625000D03*
%TO.P,D60,2,A_2*%
%TO.N,Net-(D60-A)*%
X322517500Y-301625000D03*
%TD*%
D11*
%TO.P,SW53,1,1_1*%
%TO.N,Net-(D53-A)*%
X330407500Y-253206250D03*
%TO.P,SW53,2,2_2*%
%TO.N,COL13*%
X343334500Y-250666250D03*
%TD*%
D10*
%TO.P,D44,1,K_1*%
%TO.N,ROW4*%
X158930000Y-282575000D03*
%TO.P,D44,2,A_2*%
%TO.N,Net-(D44-A)*%
X155630000Y-282575000D03*
%TD*%
%TO.P,D66,1,K_1*%
%TO.N,ROW5*%
X363897500Y-244475000D03*
%TO.P,D66,2,A_2*%
%TO.N,Net-(D66-A)*%
X360597500Y-244475000D03*
%TD*%
D11*
%TO.P,SW30,1,1_1*%
%TO.N,Net-(D30-A)*%
X128021250Y-253201050D03*
%TO.P,SW30,2,2_2*%
%TO.N,COL3*%
X140948250Y-250661050D03*
%TD*%
D10*
%TO.P,D5,1,K_1*%
%TO.N,ROW1*%
X135317500Y-225425000D03*
%TO.P,D5,2,A_2*%
%TO.N,Net-(D5-A)*%
X132017500Y-225425000D03*
%TD*%
D11*
%TO.P,SW33,1,1_1*%
%TO.N,Net-(D33-A)*%
X185161250Y-253206250D03*
%TO.P,SW33,2,2_2*%
%TO.N,COL6*%
X198088250Y-250666250D03*
%TD*%
%TO.P,SW42,1,1_1*%
%TO.N,Net-(D42-A)*%
X118386250Y-272256250D03*
%TO.P,SW42,2,2_2*%
%TO.N,COL2*%
X131313250Y-269716250D03*
%TD*%
D15*
%TO.N,GND*%
X394800000Y-238300000D03*
X398900000Y-255000000D03*
X399100000Y-216400000D03*
X390200000Y-248000000D03*
X385500000Y-218600000D03*
X394100000Y-244600000D03*
%TO.N,COL11*%
X306000000Y-269800000D03*
X350700000Y-271500000D03*
%TO.N,GND*%
X374800000Y-274100000D03*
X371400000Y-272900000D03*
X394000000Y-248500000D03*
X379300000Y-265200000D03*
%TO.N,/SCK*%
X389575735Y-232500000D03*
%TO.N,Net-(U1-RST)*%
X397400000Y-242000000D03*
X399300000Y-240900000D03*
%TO.N,/CS*%
X385800000Y-265100000D03*
%TO.N,/MOSI*%
X388600000Y-253700000D03*
%TO.N,/SCK*%
X392100000Y-248900000D03*
%TO.N,/MOSI*%
X392900000Y-248700000D03*
X390517752Y-232500000D03*
X389800000Y-226900000D03*
%TO.N,/SCK*%
X388300000Y-227100000D03*
%TO.N,/VCC*%
X384800000Y-264200000D03*
%TO.N,GND*%
X377700000Y-261700000D03*
%TO.N,COL3*%
X355700000Y-245700000D03*
%TO.N,COL11*%
X388600000Y-243600000D03*
X362100000Y-263500000D03*
%TO.N,COL7*%
X361900000Y-259900000D03*
%TO.N,COL6*%
X361500000Y-258100000D03*
%TO.N,COL5*%
X362300000Y-254000000D03*
X338200000Y-271200000D03*
%TO.N,COL6*%
X284300000Y-287400000D03*
X295600000Y-287700000D03*
%TO.N,COL5*%
X298000000Y-282400000D03*
%TO.N,COL13*%
X328300000Y-242800000D03*
%TO.N,COL12*%
X330300000Y-229600000D03*
%TO.N,COL2*%
X372000000Y-221300000D03*
%TO.N,COL12*%
X375200000Y-222200000D03*
X376600000Y-228700000D03*
X387300000Y-231900000D03*
%TO.N,COL9*%
X361000000Y-284400000D03*
%TO.N,COL8*%
X353700000Y-285500000D03*
%TO.N,COL10*%
X329100000Y-267200000D03*
%TO.N,COL13*%
X338700000Y-248000000D03*
X355700000Y-224400000D03*
X319900000Y-224200000D03*
%TO.N,COL12*%
X311900000Y-248000000D03*
X299700000Y-227100000D03*
%TO.N,COL11*%
X285200000Y-227700000D03*
%TO.N,ROW2*%
X289200000Y-225400000D03*
%TO.N,COL11*%
X301800000Y-266500000D03*
X292600000Y-247500000D03*
%TO.N,COL10*%
X282700000Y-267200000D03*
X273300000Y-247400000D03*
%TO.N,COL9*%
X263100000Y-266200000D03*
X254500000Y-247900000D03*
X250300000Y-229100000D03*
%TO.N,COL10*%
X268800000Y-228900000D03*
%TO.N,COL11*%
X288575750Y-229124250D03*
%TO.N,COL12*%
X304300000Y-228500000D03*
%TO.N,COL13*%
X323300000Y-229400000D03*
X366400000Y-225700000D03*
%TO.N,COL12*%
X357500000Y-228600000D03*
X299700000Y-215200000D03*
%TO.N,COL11*%
X280300000Y-215300000D03*
%TO.N,COL10*%
X261300000Y-215500000D03*
%TO.N,COL9*%
X242200000Y-214700000D03*
%TO.N,COL8*%
X248400000Y-272000000D03*
X238200000Y-253400000D03*
X233200000Y-234700000D03*
X223500000Y-215100000D03*
%TO.N,COL7*%
X315500000Y-286300000D03*
X228300000Y-271700000D03*
X218800000Y-252600000D03*
X214200000Y-234300000D03*
X204416493Y-215381500D03*
%TO.N,COL6*%
X220600000Y-287300000D03*
%TO.N,COL5*%
X217200000Y-287100000D03*
%TO.N,COL6*%
X208900000Y-272200000D03*
X199450000Y-253850000D03*
X194700000Y-234200000D03*
X185700000Y-215100000D03*
%TO.N,COL5*%
X166400000Y-215700000D03*
X173600000Y-229700000D03*
X178300000Y-247600000D03*
X187500000Y-266800000D03*
%TO.N,COL4*%
X209300000Y-286500000D03*
X168200000Y-267600000D03*
X159200000Y-247600000D03*
X154800000Y-229100000D03*
X147000000Y-215400000D03*
%TO.N,COL3*%
X138400000Y-286400000D03*
X149600000Y-266800000D03*
X140400000Y-248100000D03*
X135900000Y-229100000D03*
X127900000Y-214900000D03*
%TO.N,COL2*%
X108900000Y-215200000D03*
X116600000Y-229300000D03*
X122300000Y-248100000D03*
X131100000Y-267600000D03*
X115600000Y-286600000D03*
%TO.N,COL1*%
X91500000Y-286300000D03*
X100700000Y-267000000D03*
X95500000Y-248400000D03*
X93350000Y-228950000D03*
X89500000Y-214800000D03*
%TO.N,ROW3*%
X356100000Y-242000000D03*
%TO.N,ROW2*%
X278400000Y-242600000D03*
X308800000Y-225500000D03*
%TO.N,/SCK*%
X388600000Y-251900000D03*
%TD*%
%TO.N,GND*%
D16*
X397900000Y-238300000D02*
X398900000Y-239300000D01*
X394800000Y-238300000D02*
X397900000Y-238300000D01*
%TO.N,COL11*%
X355240750Y-269716250D02*
X353390750Y-271566250D01*
X353390750Y-271566250D02*
X350766250Y-271566250D01*
X350766250Y-271566250D02*
X350700000Y-271500000D01*
X302873250Y-269711050D02*
X305911050Y-269711050D01*
X305911050Y-269711050D02*
X306000000Y-269800000D01*
%TO.N,COL13*%
X397033750Y-234473750D02*
X398210050Y-233297450D01*
X398210050Y-233297450D02*
X398210050Y-231259110D01*
X398210050Y-231259110D02*
X397520990Y-230570050D01*
X397520990Y-230570050D02*
X396546510Y-230570050D01*
X396546510Y-230570050D02*
X392053910Y-226077450D01*
X392053910Y-226077450D02*
X384420990Y-226077450D01*
X384420990Y-226077450D02*
X382398440Y-228100000D01*
X382398440Y-228100000D02*
X375800000Y-228100000D01*
X375800000Y-228100000D02*
X374290750Y-229609250D01*
%TO.N,/MOSI*%
X390000000Y-230964265D02*
X389800000Y-230764265D01*
X389800000Y-230764265D02*
X389800000Y-226900000D01*
X390000000Y-232000000D02*
X390000000Y-230964265D01*
X390500000Y-232500000D02*
X390000000Y-232000000D01*
X390517752Y-232500000D02*
X390500000Y-232500000D01*
%TO.N,/SCK*%
X389000000Y-231300000D02*
X388300000Y-230600000D01*
X389000000Y-231848528D02*
X389000000Y-231300000D01*
X389575735Y-232424263D02*
X389000000Y-231848528D01*
X388300000Y-230600000D02*
X388300000Y-227100000D01*
X389575735Y-232500000D02*
X389575735Y-232424263D01*
%TO.N,ROW5*%
X387360990Y-233297450D02*
X387363540Y-233300000D01*
X388926510Y-233297450D02*
X389900990Y-233297450D01*
X386383960Y-233300000D02*
X386386510Y-233297450D01*
X384823540Y-233300000D02*
X386383960Y-233300000D01*
X384820990Y-233297450D02*
X384823540Y-233300000D01*
X389903540Y-233300000D02*
X395667500Y-233300000D01*
X383846510Y-233297450D02*
X384820990Y-233297450D01*
X382283540Y-233300000D02*
X383843960Y-233300000D01*
X383843960Y-233300000D02*
X383846510Y-233297450D01*
X381306510Y-233297450D02*
X382280990Y-233297450D01*
X381137710Y-233466250D02*
X381306510Y-233297450D01*
X368297079Y-233466250D02*
X381137710Y-233466250D01*
X386386510Y-233297450D02*
X387360990Y-233297450D01*
X382280990Y-233297450D02*
X382283540Y-233300000D01*
X366488750Y-235274579D02*
X368297079Y-233466250D01*
X387363540Y-233300000D02*
X388923960Y-233300000D01*
X388923960Y-233300000D02*
X388926510Y-233297450D01*
X389900990Y-233297450D02*
X389903540Y-233300000D01*
X395667500Y-233300000D02*
X397033750Y-231933750D01*
%TO.N,Net-(U1-RST)*%
X397400000Y-242000000D02*
X398500000Y-240900000D01*
X398500000Y-240900000D02*
X399300000Y-240900000D01*
%TO.N,/CS*%
X385800000Y-265100000D02*
X385800000Y-264351471D01*
X385800000Y-264351471D02*
X384548529Y-263100000D01*
X379300000Y-261100000D02*
X375963750Y-261100000D01*
X375963750Y-261100000D02*
X373856250Y-263207500D01*
X384548529Y-263100000D02*
X381300000Y-263100000D01*
X381300000Y-263100000D02*
X379300000Y-261100000D01*
X385800000Y-265100000D02*
X385700000Y-265000000D01*
%TO.N,/MOSI*%
X392900000Y-249400000D02*
X388600000Y-253700000D01*
X392900000Y-248700000D02*
X392900000Y-249400000D01*
%TO.N,/SCK*%
X389100000Y-251900000D02*
X388600000Y-251900000D01*
X392100000Y-248900000D02*
X389100000Y-251900000D01*
%TO.N,ROW1*%
X335405000Y-244475000D02*
X348425000Y-244475000D01*
X348425000Y-244475000D02*
X359388750Y-233511250D01*
X359388750Y-233511250D02*
X359388750Y-228019368D01*
X359388750Y-228019368D02*
X364608118Y-222800000D01*
X364608118Y-222800000D02*
X379103960Y-222800000D01*
X379103960Y-222800000D02*
X381306510Y-220597450D01*
X381306510Y-220597450D02*
X382280990Y-220597450D01*
X382280990Y-220597450D02*
X382778440Y-220100000D01*
X382778440Y-220100000D02*
X395360000Y-220100000D01*
X395360000Y-220100000D02*
X397033750Y-221773750D01*
%TO.N,/VCC*%
X384800000Y-264200000D02*
X376048529Y-264200000D01*
X376048529Y-264200000D02*
X374501029Y-265747500D01*
X374501029Y-265747500D02*
X373856250Y-265747500D01*
%TO.N,COL9*%
X374290750Y-288766250D02*
X386873750Y-276183250D01*
X386873750Y-276183250D02*
X386873750Y-234473750D01*
%TO.N,GND*%
X373856250Y-264477500D02*
X374922500Y-264477500D01*
X374922500Y-264477500D02*
X377700000Y-261700000D01*
%TO.N,COL3*%
X355200000Y-246200000D02*
X355700000Y-245700000D01*
X334556814Y-246200000D02*
X355200000Y-246200000D01*
X322156814Y-258600000D02*
X334556814Y-246200000D01*
X304998696Y-258600000D02*
X322156814Y-258600000D01*
X297698696Y-265900000D02*
X304998696Y-258600000D01*
X265796815Y-265900000D02*
X297698696Y-265900000D01*
X265396815Y-265500000D02*
X265796815Y-265900000D01*
X150900000Y-265500000D02*
X265396815Y-265500000D01*
X149600000Y-266800000D02*
X150900000Y-265500000D01*
%TO.N,COL11*%
X388600000Y-243600000D02*
X392987500Y-243600000D01*
X392987500Y-243600000D02*
X397033750Y-239553750D01*
X355883750Y-269716250D02*
X362100000Y-263500000D01*
X355240750Y-269716250D02*
X355883750Y-269716250D01*
%TO.N,COL7*%
X354654850Y-267145150D02*
X361900000Y-259900000D01*
X351893555Y-267145150D02*
X354654850Y-267145150D01*
X350088750Y-268949955D02*
X351893555Y-267145150D01*
X350088750Y-270482545D02*
X350088750Y-268949955D01*
X347054850Y-273516445D02*
X350088750Y-270482545D01*
X347054850Y-279081454D02*
X347054850Y-273516445D01*
X337375254Y-288761050D02*
X347054850Y-279081454D01*
X336200750Y-288761050D02*
X337375254Y-288761050D01*
%TO.N,COL6*%
X343503379Y-266745150D02*
X352854850Y-266745150D01*
X333113579Y-277134950D02*
X343503379Y-266745150D01*
X315621354Y-277134950D02*
X333113579Y-277134950D01*
X305244500Y-287511804D02*
X315621354Y-277134950D01*
X352854850Y-266745150D02*
X361500000Y-258100000D01*
X305244500Y-288766250D02*
X305244500Y-287511804D01*
%TO.N,COL5*%
X362300000Y-254000000D02*
X362100000Y-254200000D01*
X362100000Y-254200000D02*
X362100000Y-254646525D01*
X362100000Y-254646525D02*
X350401375Y-266345150D01*
X350401375Y-266345150D02*
X343054850Y-266345150D01*
X343054850Y-266345150D02*
X338200000Y-271200000D01*
%TO.N,COL6*%
X220600000Y-287300000D02*
X222300000Y-289000000D01*
X222300000Y-289000000D02*
X254663986Y-289000000D01*
X254663986Y-289000000D02*
X256763986Y-286900000D01*
X256763986Y-286900000D02*
X283800000Y-286900000D01*
X283800000Y-286900000D02*
X284300000Y-287400000D01*
X296383750Y-286916250D02*
X295600000Y-287700000D01*
X303394500Y-286916250D02*
X296383750Y-286916250D01*
X305244500Y-288766250D02*
X303394500Y-286916250D01*
%TO.N,COL5*%
X291633750Y-288766250D02*
X298000000Y-282400000D01*
X281332000Y-288766250D02*
X291633750Y-288766250D01*
%TO.N,COL13*%
X326665750Y-231616250D02*
X327200000Y-232150500D01*
X327200000Y-232150500D02*
X327200000Y-241700000D01*
X327200000Y-241700000D02*
X328300000Y-242800000D01*
%TO.N,COL12*%
X348477200Y-229600000D02*
X330300000Y-229600000D01*
X350488250Y-231611050D02*
X348477200Y-229600000D01*
%TO.N,COL2*%
X371800000Y-219200000D02*
X371800000Y-221100000D01*
X371800000Y-221100000D02*
X372000000Y-221300000D01*
%TO.N,COL12*%
X375200000Y-216500000D02*
X375200000Y-222200000D01*
%TO.N,COL2*%
X371800000Y-217615829D02*
X371800000Y-219200000D01*
X367440421Y-213256250D02*
X371800000Y-217615829D01*
%TO.N,COL12*%
X387300000Y-231900000D02*
X386157450Y-230757450D01*
X386157450Y-230757450D02*
X378657450Y-230757450D01*
X378657450Y-230757450D02*
X376600000Y-228700000D01*
X357500000Y-228600000D02*
X352200000Y-228600000D01*
X352200000Y-228600000D02*
X350488250Y-230311750D01*
X350488250Y-230311750D02*
X350488250Y-231611050D01*
%TO.N,COL2*%
X352118776Y-213256250D02*
X347962526Y-209100000D01*
X367440421Y-213256250D02*
X352118776Y-213256250D01*
X347962526Y-209100000D02*
X332509498Y-209100000D01*
X332509498Y-209100000D02*
X329074248Y-212535250D01*
X329074248Y-212535250D02*
X327521776Y-212535250D01*
X327521776Y-212535250D02*
X325697576Y-210711050D01*
X325697576Y-210711050D02*
X113388950Y-210711050D01*
X113388950Y-210711050D02*
X108900000Y-215200000D01*
%TO.N,COL1*%
X381793750Y-214153750D02*
X376340000Y-208700000D01*
X376340000Y-208700000D02*
X95600000Y-208700000D01*
X95600000Y-208700000D02*
X89500000Y-214800000D01*
%TO.N,COL8*%
X353700000Y-285500000D02*
X364297500Y-274902500D01*
X364297500Y-274902500D02*
X364297500Y-258713540D01*
X364297500Y-258713540D02*
X384333750Y-238677290D01*
X384333750Y-238677290D02*
X384333750Y-234473750D01*
%TO.N,COL9*%
X361000000Y-284400000D02*
X369924500Y-284400000D01*
X369924500Y-284400000D02*
X374290750Y-288766250D01*
%TO.N,COL8*%
X355240750Y-286940750D02*
X353700000Y-285400000D01*
X355240750Y-288766250D02*
X355240750Y-286940750D01*
%TO.N,COL10*%
X329057000Y-267243000D02*
X329100000Y-267200000D01*
X329057000Y-269711050D02*
X329057000Y-267243000D01*
%TO.N,COL13*%
X340668250Y-248000000D02*
X338700000Y-248000000D01*
X343334500Y-250666250D02*
X340668250Y-248000000D01*
X349100000Y-215700000D02*
X349100000Y-217800000D01*
X349100000Y-217800000D02*
X355700000Y-224400000D01*
X366400000Y-225700000D02*
X370381500Y-225700000D01*
X370381500Y-225700000D02*
X374290750Y-229609250D01*
X374290750Y-229609250D02*
X374290750Y-231616250D01*
X319900000Y-216800000D02*
X323300000Y-213400000D01*
X323300000Y-213400000D02*
X335515967Y-213400000D01*
X335515967Y-213400000D02*
X338199717Y-210716250D01*
X344228012Y-210716250D02*
X346078012Y-212566250D01*
X338199717Y-210716250D02*
X344228012Y-210716250D01*
X317050750Y-212566250D02*
X317050750Y-213950750D01*
X317050750Y-213950750D02*
X319900000Y-216800000D01*
X319900000Y-216800000D02*
X319900000Y-224200000D01*
X326665750Y-231616250D02*
X324449500Y-229400000D01*
X324449500Y-229400000D02*
X323300000Y-229400000D01*
%TO.N,COL12*%
X312398250Y-248498250D02*
X311900000Y-248000000D01*
X312398250Y-250661050D02*
X312398250Y-248498250D01*
X299700000Y-227100000D02*
X301100000Y-228500000D01*
X301100000Y-228500000D02*
X304300000Y-228500000D01*
%TO.N,ROW1*%
X268687500Y-225425000D02*
X269662500Y-226400000D01*
X269662500Y-226400000D02*
X324453512Y-226400000D01*
X324453512Y-226400000D02*
X325428512Y-225425000D01*
%TO.N,COL11*%
X285200000Y-227700000D02*
X287151500Y-227700000D01*
X287151500Y-227700000D02*
X288575750Y-229124250D01*
X302873250Y-267573250D02*
X301800000Y-266500000D01*
X302873250Y-269711050D02*
X302873250Y-267573250D01*
X293348250Y-248248250D02*
X292600000Y-247500000D01*
X293348250Y-250661050D02*
X293348250Y-248248250D01*
%TO.N,COL10*%
X283813250Y-268313250D02*
X282700000Y-267200000D01*
X283813250Y-269716250D02*
X283813250Y-268313250D01*
X274298250Y-248498250D02*
X273200000Y-247400000D01*
X274298250Y-250661050D02*
X274298250Y-248498250D01*
%TO.N,COL9*%
X264763250Y-267863250D02*
X263100000Y-266200000D01*
X264763250Y-269716250D02*
X264763250Y-267863250D01*
X255248250Y-248648250D02*
X254500000Y-247900000D01*
X255248250Y-250661050D02*
X255248250Y-248648250D01*
X250475750Y-229275750D02*
X250300000Y-229100000D01*
X250475750Y-231616250D02*
X250475750Y-229275750D01*
%TO.N,COL10*%
X269425750Y-229525750D02*
X268800000Y-228900000D01*
X269425750Y-231616250D02*
X269425750Y-229525750D01*
%TO.N,COL11*%
X288575750Y-229124250D02*
X288600000Y-229100000D01*
X288575750Y-231775000D02*
X288575750Y-229124250D01*
%TO.N,COL12*%
X307411050Y-231611050D02*
X304300000Y-228500000D01*
X307625750Y-231611050D02*
X307411050Y-231611050D01*
X374290750Y-215590750D02*
X375200000Y-216500000D01*
X374290750Y-212566250D02*
X374290750Y-215590750D01*
%TO.N,COL13*%
X346078012Y-212678012D02*
X349100000Y-215700000D01*
X346078012Y-212566250D02*
X346078012Y-212678012D01*
%TO.N,COL12*%
X298100750Y-213600750D02*
X299700000Y-215200000D01*
X298100750Y-212561050D02*
X298100750Y-213600750D01*
%TO.N,COL11*%
X279060750Y-214060750D02*
X280300000Y-215300000D01*
X279060750Y-212561050D02*
X279060750Y-214060750D01*
%TO.N,COL10*%
X260000750Y-214200750D02*
X261300000Y-215500000D01*
X260000750Y-212566250D02*
X260000750Y-214200750D01*
%TO.N,COL9*%
X242200000Y-213815500D02*
X242200000Y-214700000D01*
X240950750Y-212566250D02*
X242200000Y-213815500D01*
%TO.N,COL8*%
X246111050Y-269711050D02*
X248400000Y-272000000D01*
X245723250Y-269711050D02*
X246111050Y-269711050D01*
X236188250Y-251388250D02*
X238200000Y-253400000D01*
X236188250Y-250666250D02*
X236188250Y-251388250D01*
X231425750Y-232925750D02*
X233200000Y-234700000D01*
X231425750Y-231616250D02*
X231425750Y-232925750D01*
X221900750Y-213500750D02*
X223500000Y-215100000D01*
X221900750Y-212566250D02*
X221900750Y-213500750D01*
%TO.N,COL7*%
X333739700Y-286300000D02*
X315500000Y-286300000D01*
X336200750Y-288761050D02*
X333739700Y-286300000D01*
X228300000Y-271337800D02*
X228300000Y-271700000D01*
X226673250Y-269711050D02*
X228300000Y-271337800D01*
X218800000Y-252312800D02*
X218800000Y-252600000D01*
X217148250Y-250661050D02*
X218800000Y-252312800D01*
X214200000Y-233440500D02*
X214200000Y-234300000D01*
X212375750Y-231616250D02*
X214200000Y-233440500D01*
X202860750Y-213960750D02*
X204600000Y-215700000D01*
X202860750Y-212561050D02*
X202860750Y-213960750D01*
%TO.N,COL5*%
X281332000Y-288766250D02*
X279482000Y-290616250D01*
X219500000Y-289400000D02*
X217200000Y-287100000D01*
X279482000Y-290616250D02*
X277263705Y-290616250D01*
X277263705Y-290616250D02*
X276047455Y-289400000D01*
X276047455Y-289400000D02*
X219500000Y-289400000D01*
%TO.N,COL6*%
X208900000Y-272200000D02*
X209000000Y-272300000D01*
X207513250Y-270813250D02*
X208900000Y-272200000D01*
X207513250Y-269716250D02*
X207513250Y-270813250D01*
X199450000Y-253850000D02*
X199500000Y-253900000D01*
X198088250Y-252488250D02*
X199450000Y-253850000D01*
X198088250Y-250666250D02*
X198088250Y-252488250D01*
X194700000Y-233149250D02*
X194700000Y-234200000D01*
X193325750Y-231775000D02*
X194700000Y-233149250D01*
X184175512Y-213575512D02*
X185700000Y-215100000D01*
X184175512Y-212571450D02*
X184175512Y-213575512D01*
%TO.N,COL5*%
X164750750Y-214050750D02*
X166400000Y-215700000D01*
X164750750Y-212566250D02*
X164750750Y-214050750D01*
X173600000Y-230925300D02*
X173600000Y-229700000D01*
X174285750Y-231611050D02*
X173600000Y-230925300D01*
X179048250Y-248348250D02*
X178300000Y-247600000D01*
X179048250Y-250661050D02*
X179048250Y-248348250D01*
X188463250Y-267763250D02*
X187500000Y-266800000D01*
X188463250Y-269716250D02*
X188463250Y-267763250D01*
%TO.N,COL4*%
X209994500Y-287194500D02*
X209300000Y-286500000D01*
X209994500Y-288766250D02*
X209994500Y-287194500D01*
X169413250Y-268813250D02*
X168200000Y-267600000D01*
X169413250Y-269716250D02*
X169413250Y-268813250D01*
X159988250Y-248388250D02*
X159200000Y-247600000D01*
X159988250Y-250666250D02*
X159988250Y-248388250D01*
X155235750Y-229535750D02*
X154800000Y-229100000D01*
X155235750Y-231611050D02*
X155235750Y-229535750D01*
X145700750Y-214100750D02*
X147000000Y-215400000D01*
X145700750Y-212566250D02*
X145700750Y-214100750D01*
%TO.N,COL3*%
X138557000Y-286557000D02*
X138400000Y-286400000D01*
X138557000Y-288766250D02*
X138557000Y-286557000D01*
X150463250Y-267663250D02*
X149600000Y-266800000D01*
X150463250Y-269716250D02*
X150463250Y-267663250D01*
X140948250Y-248648250D02*
X140400000Y-248100000D01*
X140948250Y-250661050D02*
X140948250Y-248648250D01*
X136185750Y-229385750D02*
X135900000Y-229100000D01*
X136185750Y-231611050D02*
X136185750Y-229385750D01*
X126650750Y-213650750D02*
X127900000Y-214900000D01*
X126650750Y-212566250D02*
X126650750Y-213650750D01*
%TO.N,COL1*%
X89500000Y-214800000D02*
X89500000Y-213515500D01*
X89500000Y-213515500D02*
X88550750Y-212566250D01*
%TO.N,COL2*%
X107600750Y-213900750D02*
X108900000Y-215200000D01*
X107600750Y-212566250D02*
X107600750Y-213900750D01*
X117125750Y-229825750D02*
X116600000Y-229300000D01*
X117125750Y-231616250D02*
X117125750Y-229825750D01*
X121888250Y-248511750D02*
X122300000Y-248100000D01*
X121888250Y-250666250D02*
X121888250Y-248511750D01*
X131313250Y-267813250D02*
X131100000Y-267600000D01*
X131313250Y-269716250D02*
X131313250Y-267813250D01*
X114744500Y-287455500D02*
X115600000Y-286600000D01*
X114744500Y-288766250D02*
X114744500Y-287455500D01*
%TO.N,COL1*%
X90942000Y-286858000D02*
X91500000Y-286300000D01*
X90942000Y-288761050D02*
X90942000Y-286858000D01*
X100457000Y-267243000D02*
X100700000Y-267000000D01*
X100457000Y-269716250D02*
X100457000Y-267243000D01*
X95694500Y-248594500D02*
X95500000Y-248400000D01*
X95694500Y-250666250D02*
X95694500Y-248594500D01*
X93350000Y-228950000D02*
X93400000Y-228900000D01*
X93313250Y-228986750D02*
X93350000Y-228950000D01*
X93313250Y-231616250D02*
X93313250Y-228986750D01*
%TO.N,ROW3*%
X352300000Y-245800000D02*
X356100000Y-242000000D01*
X317597500Y-245800000D02*
X352300000Y-245800000D01*
X316272500Y-244475000D02*
X317597500Y-245800000D01*
%TO.N,ROW5*%
X363897500Y-244475000D02*
X363897500Y-237865829D01*
X363897500Y-237865829D02*
X366488750Y-235274579D01*
X366488750Y-235274579D02*
X366488750Y-228016250D01*
X366488750Y-228016250D02*
X363897500Y-225425000D01*
X344910000Y-282575000D02*
X345001671Y-282575000D01*
X356528398Y-271266250D02*
X363897500Y-263897148D01*
X345001671Y-282575000D02*
X356310421Y-271266250D01*
X356310421Y-271266250D02*
X356528398Y-271266250D01*
X363897500Y-263897148D02*
X363897500Y-244475000D01*
X344910000Y-301625000D02*
X345810000Y-302525000D01*
X345810000Y-302525000D02*
X363060000Y-302525000D01*
X363060000Y-302525000D02*
X363960000Y-301625000D01*
X344910000Y-301625000D02*
X346355045Y-300179955D01*
X346355045Y-300179955D02*
X346355045Y-293156250D01*
X346355045Y-293156250D02*
X347438750Y-292072545D01*
X347438750Y-292072545D02*
X347438750Y-285103750D01*
X347438750Y-285103750D02*
X344910000Y-282575000D01*
X325817500Y-301625000D02*
X326717500Y-302525000D01*
X326717500Y-302525000D02*
X344010000Y-302525000D01*
X344010000Y-302525000D02*
X344910000Y-301625000D01*
X311530000Y-282575000D02*
X311530000Y-291986196D01*
X311530000Y-291986196D02*
X322068804Y-302525000D01*
X322068804Y-302525000D02*
X324917500Y-302525000D01*
X324917500Y-302525000D02*
X325817500Y-301625000D01*
X292480000Y-301625000D02*
X295005421Y-301625000D01*
X295005421Y-301625000D02*
X303985071Y-292645350D01*
X303985071Y-292645350D02*
X304203048Y-292645350D01*
X304203048Y-292645350D02*
X311530000Y-285318398D01*
X311530000Y-285318398D02*
X311530000Y-282575000D01*
X268530000Y-301625000D02*
X272005000Y-305100000D01*
X272005000Y-305100000D02*
X289005000Y-305100000D01*
X289005000Y-305100000D02*
X292480000Y-301625000D01*
X149605000Y-301625000D02*
X152425150Y-304445150D01*
X152425150Y-304445150D02*
X265709850Y-304445150D01*
X265709850Y-304445150D02*
X268530000Y-301625000D01*
X125855000Y-301625000D02*
X127830000Y-303600000D01*
X127830000Y-303600000D02*
X147630000Y-303600000D01*
X147630000Y-303600000D02*
X149605000Y-301625000D01*
X101980000Y-301625000D02*
X102880000Y-302525000D01*
X102880000Y-302525000D02*
X124955000Y-302525000D01*
X124955000Y-302525000D02*
X125855000Y-301625000D01*
X78187500Y-301625000D02*
X79162500Y-302600000D01*
X79162500Y-302600000D02*
X101005000Y-302600000D01*
X101005000Y-302600000D02*
X101980000Y-301625000D01*
%TO.N,ROW4*%
X302025000Y-263525000D02*
X302925000Y-264425000D01*
X302925000Y-264425000D02*
X320197500Y-264425000D01*
X320197500Y-264425000D02*
X321097500Y-263525000D01*
X292500000Y-282575000D02*
X292500000Y-276007525D01*
X292500000Y-276007525D02*
X297721250Y-270786275D01*
X297721250Y-270786275D02*
X297721250Y-267828750D01*
X297721250Y-267828750D02*
X302025000Y-263525000D01*
X273492500Y-282575000D02*
X274392500Y-283475000D01*
X274392500Y-283475000D02*
X291600000Y-283475000D01*
X291600000Y-283475000D02*
X292500000Y-282575000D01*
X254442500Y-282575000D02*
X255342500Y-283475000D01*
X255342500Y-283475000D02*
X272592500Y-283475000D01*
X272592500Y-283475000D02*
X273492500Y-282575000D01*
X235350000Y-282575000D02*
X236250000Y-283475000D01*
X236250000Y-283475000D02*
X253542500Y-283475000D01*
X253542500Y-283475000D02*
X254442500Y-282575000D01*
X216362500Y-282575000D02*
X217262500Y-283475000D01*
X217262500Y-283475000D02*
X234450000Y-283475000D01*
X234450000Y-283475000D02*
X235350000Y-282575000D01*
X197030000Y-282575000D02*
X197930000Y-283475000D01*
X197930000Y-283475000D02*
X215462500Y-283475000D01*
X215462500Y-283475000D02*
X216362500Y-282575000D01*
X178042500Y-282575000D02*
X178942500Y-283475000D01*
X178942500Y-283475000D02*
X196130000Y-283475000D01*
X196130000Y-283475000D02*
X197030000Y-282575000D01*
X158930000Y-282575000D02*
X159830000Y-283475000D01*
X159830000Y-283475000D02*
X177142500Y-283475000D01*
X177142500Y-283475000D02*
X178042500Y-282575000D01*
X140142500Y-282575000D02*
X141067500Y-283500000D01*
X141067500Y-283500000D02*
X158005000Y-283500000D01*
X158005000Y-283500000D02*
X158930000Y-282575000D01*
X120830000Y-282575000D02*
X121730000Y-283475000D01*
X121730000Y-283475000D02*
X139242500Y-283475000D01*
X139242500Y-283475000D02*
X140142500Y-282575000D01*
X78167500Y-282575000D02*
X80987650Y-285395150D01*
X80987650Y-285395150D02*
X118009850Y-285395150D01*
X118009850Y-285395150D02*
X120830000Y-282575000D01*
%TO.N,ROW3*%
X297242500Y-244475000D02*
X298142500Y-245375000D01*
X298142500Y-245375000D02*
X315372500Y-245375000D01*
X315372500Y-245375000D02*
X316272500Y-244475000D01*
X282975000Y-263525000D02*
X283103971Y-263525000D01*
X292088821Y-254540150D02*
X292306798Y-254540150D01*
X283103971Y-263525000D02*
X292088821Y-254540150D01*
X292306798Y-254540150D02*
X297242500Y-249604448D01*
X297242500Y-249604448D02*
X297242500Y-244475000D01*
X263987500Y-263525000D02*
X265962500Y-265500000D01*
X265962500Y-265500000D02*
X281000000Y-265500000D01*
X281000000Y-265500000D02*
X282975000Y-263525000D01*
X244875000Y-263525000D02*
X246050000Y-264700000D01*
X246050000Y-264700000D02*
X262812500Y-264700000D01*
X262812500Y-264700000D02*
X263987500Y-263525000D01*
X225805000Y-263525000D02*
X226705000Y-264425000D01*
X226705000Y-264425000D02*
X243975000Y-264425000D01*
X243975000Y-264425000D02*
X244875000Y-263525000D01*
X206837500Y-263525000D02*
X207737500Y-264425000D01*
X207737500Y-264425000D02*
X224905000Y-264425000D01*
X224905000Y-264425000D02*
X225805000Y-263525000D01*
X187767500Y-263525000D02*
X188667500Y-264425000D01*
X188667500Y-264425000D02*
X205937500Y-264425000D01*
X205937500Y-264425000D02*
X206837500Y-263525000D01*
X168737500Y-263525000D02*
X170312500Y-265100000D01*
X186192500Y-265100000D02*
X187767500Y-263525000D01*
X170312500Y-265100000D02*
X186192500Y-265100000D01*
X149605000Y-263525000D02*
X150505000Y-264425000D01*
X150505000Y-264425000D02*
X167837500Y-264425000D01*
X167837500Y-264425000D02*
X168737500Y-263525000D01*
X130575000Y-263525000D02*
X131475000Y-264425000D01*
X131475000Y-264425000D02*
X148705000Y-264425000D01*
X148705000Y-264425000D02*
X149605000Y-263525000D01*
X111505000Y-263525000D02*
X112405000Y-264425000D01*
X129675000Y-264425000D02*
X130575000Y-263525000D01*
X112405000Y-264425000D02*
X129675000Y-264425000D01*
X78167500Y-263525000D02*
X79067500Y-264425000D01*
X79067500Y-264425000D02*
X110605000Y-264425000D01*
X110605000Y-264425000D02*
X111505000Y-263525000D01*
%TO.N,ROW2*%
X278255000Y-244475000D02*
X278255000Y-242745000D01*
X278255000Y-242745000D02*
X278400000Y-242600000D01*
X308725000Y-225425000D02*
X308800000Y-225500000D01*
X306567500Y-225425000D02*
X308725000Y-225425000D01*
X258942500Y-244475000D02*
X260267500Y-245800000D01*
X260267500Y-245800000D02*
X276930000Y-245800000D01*
X276930000Y-245800000D02*
X278255000Y-244475000D01*
X240155000Y-244475000D02*
X241055000Y-245375000D01*
X258042500Y-245375000D02*
X258942500Y-244475000D01*
X241055000Y-245375000D02*
X258042500Y-245375000D01*
X221042500Y-244475000D02*
X221942500Y-245375000D01*
X221942500Y-245375000D02*
X239255000Y-245375000D01*
X239255000Y-245375000D02*
X240155000Y-244475000D01*
X202055000Y-244475000D02*
X202955000Y-245375000D01*
X202955000Y-245375000D02*
X220142500Y-245375000D01*
X220142500Y-245375000D02*
X221042500Y-244475000D01*
X182942500Y-244475000D02*
X183842500Y-245375000D01*
X201155000Y-245375000D02*
X202055000Y-244475000D01*
X183842500Y-245375000D02*
X201155000Y-245375000D01*
X163975000Y-244475000D02*
X164875000Y-245375000D01*
X164875000Y-245375000D02*
X182042500Y-245375000D01*
X182042500Y-245375000D02*
X182942500Y-244475000D01*
X144925000Y-244475000D02*
X145825000Y-245375000D01*
X145825000Y-245375000D02*
X163075000Y-245375000D01*
X163075000Y-245375000D02*
X163975000Y-244475000D01*
X125812500Y-244475000D02*
X127337500Y-246000000D01*
X143400000Y-246000000D02*
X144925000Y-244475000D01*
X127337500Y-246000000D02*
X143400000Y-246000000D01*
X106742500Y-244475000D02*
X107642500Y-245375000D01*
X107642500Y-245375000D02*
X124912500Y-245375000D01*
X124912500Y-245375000D02*
X125812500Y-244475000D01*
X78105000Y-244475000D02*
X79005000Y-245375000D01*
X105842500Y-245375000D02*
X106742500Y-244475000D01*
X79005000Y-245375000D02*
X105842500Y-245375000D01*
%TO.N,ROW1*%
X325428512Y-225425000D02*
X325428512Y-227541364D01*
X325428512Y-227541364D02*
X330700000Y-232812852D01*
X330700000Y-232812852D02*
X330700000Y-244418696D01*
X330700000Y-244418696D02*
X331656304Y-245375000D01*
X331656304Y-245375000D02*
X334505000Y-245375000D01*
X334505000Y-245375000D02*
X335405000Y-244475000D01*
X249617500Y-225425000D02*
X250517500Y-226325000D01*
X250517500Y-226325000D02*
X267787500Y-226325000D01*
X267787500Y-226325000D02*
X268687500Y-225425000D01*
X230630000Y-225425000D02*
X231530000Y-226325000D01*
X231530000Y-226325000D02*
X248717500Y-226325000D01*
X248717500Y-226325000D02*
X249617500Y-225425000D01*
X211580000Y-225425000D02*
X212480000Y-226325000D01*
X212480000Y-226325000D02*
X229730000Y-226325000D01*
X229730000Y-226325000D02*
X230630000Y-225425000D01*
X192487500Y-225425000D02*
X193387500Y-226325000D01*
X193387500Y-226325000D02*
X210680000Y-226325000D01*
X210680000Y-226325000D02*
X211580000Y-225425000D01*
X173782262Y-225425000D02*
X174682262Y-226325000D01*
X174682262Y-226325000D02*
X191587500Y-226325000D01*
X191587500Y-226325000D02*
X192487500Y-225425000D01*
X154367500Y-225425000D02*
X155267500Y-226325000D01*
X155267500Y-226325000D02*
X172882262Y-226325000D01*
X172882262Y-226325000D02*
X173782262Y-225425000D01*
X136217500Y-226325000D02*
X153467500Y-226325000D01*
X153467500Y-226325000D02*
X154367500Y-225425000D01*
X116330000Y-225425000D02*
X117230000Y-226325000D01*
X117230000Y-226325000D02*
X134417500Y-226325000D01*
X134417500Y-226325000D02*
X135317500Y-225425000D01*
X78167500Y-225425000D02*
X79067500Y-226325000D01*
X115430000Y-226325000D02*
X116330000Y-225425000D01*
X79067500Y-226325000D02*
X115430000Y-226325000D01*
X79067500Y-226325000D02*
X96317500Y-226325000D01*
X96317500Y-226325000D02*
X97217500Y-225425000D01*
%TO.N,Net-(D62-A)*%
X360660000Y-301625000D02*
X360660000Y-292010000D01*
X360660000Y-292010000D02*
X361363750Y-291306250D01*
%TO.N,Net-(D61-A)*%
X341610000Y-301625000D02*
X341610000Y-292010000D01*
X341610000Y-292010000D02*
X342313750Y-291306250D01*
%TO.N,Net-(D60-A)*%
X322517500Y-301625000D02*
X322517500Y-292057300D01*
X322517500Y-292057300D02*
X323273750Y-291301050D01*
%TO.N,Net-(D59-A)*%
X289180000Y-301625000D02*
X289180000Y-294443750D01*
X289180000Y-294443750D02*
X292317500Y-291306250D01*
%TO.N,Net-(D58-A)*%
X265230000Y-301625000D02*
X265230000Y-294481250D01*
X265230000Y-294481250D02*
X268405000Y-291306250D01*
%TO.N,Net-(D57-A)*%
X146305000Y-301625000D02*
X156623750Y-291306250D01*
X156623750Y-291306250D02*
X197067500Y-291306250D01*
%TO.N,Net-(D56-A)*%
X122555000Y-301625000D02*
X122555000Y-294381250D01*
X122555000Y-294381250D02*
X125630000Y-291306250D01*
%TO.N,Net-(D55-A)*%
X98680000Y-301625000D02*
X98680000Y-294443750D01*
X98680000Y-294443750D02*
X101817500Y-291306250D01*
%TO.N,Net-(D54-A)*%
X74887500Y-301625000D02*
X74887500Y-294428550D01*
X74887500Y-294428550D02*
X78015000Y-291301050D01*
%TO.N,Net-(D41-A)*%
X74867500Y-282575000D02*
X85186250Y-272256250D01*
X85186250Y-272256250D02*
X87530000Y-272256250D01*
%TO.N,Net-(D42-A)*%
X117530000Y-282575000D02*
X117530000Y-273112500D01*
X117530000Y-273112500D02*
X118386250Y-272256250D01*
%TO.N,Net-(D43-A)*%
X136842500Y-282575000D02*
X136842500Y-272950000D01*
X136842500Y-272950000D02*
X137536250Y-272256250D01*
%TO.N,Net-(D44-A)*%
X155630000Y-282575000D02*
X155630000Y-273112500D01*
X155630000Y-273112500D02*
X156486250Y-272256250D01*
%TO.N,Net-(D45-A)*%
X174742500Y-282575000D02*
X174742500Y-273050000D01*
X174742500Y-273050000D02*
X175536250Y-272256250D01*
%TO.N,Net-(D46-A)*%
X193730000Y-282575000D02*
X193730000Y-273112500D01*
X193730000Y-273112500D02*
X194586250Y-272256250D01*
%TO.N,Net-(D47-A)*%
X213062500Y-282575000D02*
X213062500Y-272934800D01*
X213062500Y-272934800D02*
X213746250Y-272251050D01*
%TO.N,Net-(D48-A)*%
X232050000Y-282575000D02*
X232050000Y-272997300D01*
X232050000Y-272997300D02*
X232796250Y-272251050D01*
%TO.N,Net-(D49-A)*%
X251142500Y-282575000D02*
X251142500Y-272950000D01*
X251142500Y-272950000D02*
X251836250Y-272256250D01*
%TO.N,Net-(D50-A)*%
X270192500Y-282575000D02*
X270192500Y-272950000D01*
X270192500Y-272950000D02*
X270886250Y-272256250D01*
%TO.N,Net-(D51-A)*%
X289200000Y-282575000D02*
X289200000Y-272997300D01*
X289200000Y-272997300D02*
X289946250Y-272251050D01*
%TO.N,Net-(D63-A)*%
X308230000Y-282575000D02*
X308230000Y-280151050D01*
X308230000Y-280151050D02*
X316130000Y-272251050D01*
%TO.N,Net-(D64-A)*%
X341610000Y-282575000D02*
X341610000Y-272960000D01*
X341610000Y-272960000D02*
X342313750Y-272256250D01*
%TO.N,Net-(D53-A)*%
X317797500Y-263525000D02*
X328116250Y-253206250D01*
X328116250Y-253206250D02*
X330407500Y-253206250D01*
%TO.N,Net-(D52-A)*%
X298725000Y-263525000D02*
X298725000Y-253947300D01*
X298725000Y-253947300D02*
X299471250Y-253201050D01*
%TO.N,Net-(D38-A)*%
X279675000Y-263525000D02*
X279675000Y-253947300D01*
X279675000Y-253947300D02*
X280421250Y-253201050D01*
%TO.N,Net-(D37-A)*%
X260687500Y-263525000D02*
X260687500Y-253884800D01*
X260687500Y-253884800D02*
X261371250Y-253201050D01*
%TO.N,Net-(D36-A)*%
X241575000Y-263525000D02*
X241575000Y-253947300D01*
X241575000Y-253947300D02*
X242321250Y-253201050D01*
%TO.N,Net-(D35-A)*%
X222505000Y-263525000D02*
X222505000Y-253962500D01*
X222505000Y-253962500D02*
X223261250Y-253206250D01*
%TO.N,Net-(D34-A)*%
X203537500Y-263525000D02*
X203537500Y-253884800D01*
X203537500Y-253884800D02*
X204221250Y-253201050D01*
%TO.N,Net-(D33-A)*%
X184467500Y-263525000D02*
X184467500Y-253900000D01*
X184467500Y-253900000D02*
X185161250Y-253206250D01*
%TO.N,Net-(D32-A)*%
X165437500Y-263525000D02*
X165437500Y-253884800D01*
X165437500Y-253884800D02*
X166121250Y-253201050D01*
%TO.N,Net-(D31-A)*%
X146305000Y-263525000D02*
X146305000Y-253962500D01*
X146305000Y-253962500D02*
X147061250Y-253206250D01*
%TO.N,Net-(D30-A)*%
X127275000Y-263525000D02*
X127275000Y-253947300D01*
X127275000Y-253947300D02*
X128021250Y-253201050D01*
%TO.N,Net-(D29-A)*%
X108205000Y-263525000D02*
X108205000Y-253962500D01*
X108205000Y-253962500D02*
X108961250Y-253206250D01*
%TO.N,Net-(D28-A)*%
X74867500Y-263525000D02*
X74867500Y-261106250D01*
X74867500Y-261106250D02*
X82767500Y-253206250D01*
%TO.N,Net-(D66-A)*%
X360597500Y-244475000D02*
X360597500Y-234922500D01*
X360597500Y-234922500D02*
X361363750Y-234156250D01*
%TO.N,Net-(D13-A)*%
X332105000Y-244475000D02*
X332105000Y-239607300D01*
X332105000Y-239607300D02*
X337561250Y-234151050D01*
%TO.N,Net-(D40-A)*%
X312972500Y-244475000D02*
X312972500Y-234922500D01*
X312972500Y-234922500D02*
X313738750Y-234156250D01*
%TO.N,Net-(D39-A)*%
X293942500Y-244475000D02*
X293942500Y-234907300D01*
X293942500Y-234907300D02*
X294698750Y-234151050D01*
%TO.N,Net-(D25-A)*%
X274955000Y-244475000D02*
X274955000Y-235008750D01*
X274955000Y-235008750D02*
X275648750Y-234315000D01*
%TO.N,Net-(D24-A)*%
X255642500Y-244475000D02*
X255642500Y-235012500D01*
X255642500Y-235012500D02*
X256498750Y-234156250D01*
%TO.N,Net-(D23-A)*%
X236855000Y-244475000D02*
X236855000Y-234850000D01*
X236855000Y-234850000D02*
X237548750Y-234156250D01*
%TO.N,Net-(D22-A)*%
X217742500Y-244475000D02*
X217742500Y-234912500D01*
X217742500Y-234912500D02*
X218498750Y-234156250D01*
%TO.N,Net-(D21-A)*%
X198755000Y-244475000D02*
X198755000Y-234850000D01*
X198755000Y-234850000D02*
X199448750Y-234156250D01*
%TO.N,Net-(D20-A)*%
X179642500Y-244475000D02*
X179642500Y-235071250D01*
X179642500Y-235071250D02*
X180398750Y-234315000D01*
%TO.N,Net-(D19-A)*%
X160675000Y-244475000D02*
X160675000Y-234834800D01*
X160675000Y-234834800D02*
X161358750Y-234151050D01*
%TO.N,Net-(D18-A)*%
X141625000Y-244475000D02*
X141625000Y-234834800D01*
X141625000Y-234834800D02*
X142308750Y-234151050D01*
%TO.N,Net-(D17-A)*%
X122512500Y-244475000D02*
X122512500Y-234897300D01*
X122512500Y-234897300D02*
X123258750Y-234151050D01*
%TO.N,Net-(D16-A)*%
X103442500Y-244475000D02*
X103442500Y-234912500D01*
X103442500Y-234912500D02*
X104198750Y-234156250D01*
%TO.N,Net-(D15-A)*%
X74805000Y-244475000D02*
X74805000Y-239737500D01*
X74805000Y-239737500D02*
X80386250Y-234156250D01*
%TO.N,Net-(D65-A)*%
X360597500Y-225425000D02*
X360597500Y-215872500D01*
X360597500Y-215872500D02*
X361363750Y-215106250D01*
%TO.N,Net-(D14-A)*%
X322128512Y-225425000D02*
X322832262Y-225425000D01*
X322832262Y-225425000D02*
X333151012Y-215106250D01*
%TO.N,Net-(D27-A)*%
X303267500Y-225425000D02*
X303267500Y-215962500D01*
X303267500Y-215962500D02*
X304123750Y-215106250D01*
%TO.N,Net-(D26-A)*%
X284417500Y-225425000D02*
X284417500Y-215857300D01*
X284417500Y-215857300D02*
X285173750Y-215101050D01*
%TO.N,Net-(D12-A)*%
X265387500Y-225425000D02*
X265387500Y-215847300D01*
X265387500Y-215847300D02*
X266133750Y-215101050D01*
%TO.N,Net-(D11-A)*%
X246317500Y-225425000D02*
X246317500Y-215862500D01*
X246317500Y-215862500D02*
X247073750Y-215106250D01*
%TO.N,Net-(D10-A)*%
X227330000Y-225425000D02*
X227330000Y-215800000D01*
X227330000Y-215800000D02*
X228023750Y-215106250D01*
%TO.N,Net-(D9-A)*%
X208280000Y-225425000D02*
X208280000Y-215800000D01*
X208280000Y-215800000D02*
X208973750Y-215106250D01*
%TO.N,Net-(D8-A)*%
X189187500Y-225425000D02*
X189187500Y-215847300D01*
X189187500Y-215847300D02*
X189933750Y-215101050D01*
%TO.N,Net-(D7-A)*%
X170482262Y-225425000D02*
X170482262Y-215877700D01*
X170482262Y-215877700D02*
X171248512Y-215111450D01*
%TO.N,Net-(D6-A)*%
X151067500Y-225425000D02*
X151067500Y-215862500D01*
X151067500Y-215862500D02*
X151823750Y-215106250D01*
%TO.N,Net-(D5-A)*%
X132017500Y-225425000D02*
X132017500Y-215862500D01*
X132017500Y-215862500D02*
X132773750Y-215106250D01*
%TO.N,Net-(D4-A)*%
X113030000Y-225425000D02*
X113030000Y-215800000D01*
X113030000Y-215800000D02*
X113723750Y-215106250D01*
%TO.N,Net-(D3-A)*%
X93917500Y-225425000D02*
X93917500Y-215862500D01*
X93917500Y-215862500D02*
X94673750Y-215106250D01*
%TO.N,Net-(D2-A)*%
X74867500Y-225425000D02*
X74867500Y-215862500D01*
X74867500Y-215862500D02*
X75623750Y-215106250D01*
%TO.N,ROW1*%
X135317500Y-225425000D02*
X136217500Y-226325000D01*
%TO.N,ROW2*%
X289175000Y-225425000D02*
X289200000Y-225400000D01*
X287717500Y-225425000D02*
X289175000Y-225425000D01*
%TO.N,ROW4*%
X321097500Y-263525000D02*
X322965150Y-261657350D01*
X380154060Y-224525000D02*
X381306510Y-225677450D01*
X322965150Y-261657350D02*
X348842650Y-261657350D01*
X348842650Y-261657350D02*
X359788750Y-250711250D01*
X359788750Y-250711250D02*
X359788750Y-228185054D01*
X381306510Y-225677450D02*
X393317450Y-225677450D01*
X359788750Y-228185054D02*
X363448804Y-224525000D01*
X363448804Y-224525000D02*
X380154060Y-224525000D01*
X393317450Y-225677450D02*
X397033750Y-229393750D01*
%TD*%
%TA.AperFunction,Conductor*%
%TO.N,GND*%
G36*
X395580847Y-233900501D02*
G01*
X395601686Y-233900501D01*
X395668725Y-233920186D01*
X395714480Y-233972990D01*
X395724424Y-234042148D01*
X395697782Y-234100484D01*
X395694786Y-234130133D01*
X395691991Y-234146602D01*
X395690852Y-234151347D01*
X395656950Y-234365394D01*
X395656950Y-234582105D01*
X395690852Y-234796152D01*
X395690852Y-234796155D01*
X395757818Y-235002255D01*
X395823347Y-235130862D01*
X395856205Y-235195350D01*
X395983586Y-235370675D01*
X396136825Y-235523914D01*
X396234460Y-235594850D01*
X396301327Y-235643432D01*
X396343992Y-235698762D01*
X396349971Y-235768376D01*
X396317365Y-235830171D01*
X396301327Y-235844068D01*
X396256278Y-235876798D01*
X396136825Y-235963586D01*
X396136823Y-235963588D01*
X396136822Y-235963588D01*
X395983588Y-236116822D01*
X395856205Y-236292149D01*
X395757818Y-236485244D01*
X395690852Y-236691344D01*
X395690852Y-236691347D01*
X395656950Y-236905394D01*
X395656950Y-237122105D01*
X395690852Y-237336152D01*
X395690852Y-237336155D01*
X395757818Y-237542255D01*
X395806731Y-237638252D01*
X395856205Y-237735350D01*
X395983586Y-237910675D01*
X396136825Y-238063914D01*
X396206539Y-238114564D01*
X396301327Y-238183432D01*
X396343992Y-238238762D01*
X396349971Y-238308376D01*
X396317365Y-238370171D01*
X396301327Y-238384068D01*
X396240096Y-238428555D01*
X396136825Y-238503586D01*
X396136823Y-238503588D01*
X396136822Y-238503588D01*
X395983588Y-238656822D01*
X395856205Y-238832149D01*
X395757818Y-239025244D01*
X395690852Y-239231344D01*
X395690852Y-239231347D01*
X395656950Y-239445394D01*
X395656950Y-239662105D01*
X395690852Y-239876154D01*
X395709369Y-239933145D01*
X395711364Y-240002987D01*
X395679119Y-240059143D01*
X392775084Y-242963181D01*
X392713761Y-242996666D01*
X392687403Y-242999500D01*
X389179766Y-242999500D01*
X389112727Y-242979815D01*
X389110875Y-242978602D01*
X388979185Y-242890609D01*
X388979172Y-242890602D01*
X388833501Y-242830264D01*
X388833489Y-242830261D01*
X388678845Y-242799500D01*
X388678842Y-242799500D01*
X388521158Y-242799500D01*
X388521155Y-242799500D01*
X388366510Y-242830261D01*
X388366498Y-242830264D01*
X388220827Y-242890602D01*
X388220814Y-242890609D01*
X388089711Y-242978210D01*
X388089707Y-242978213D01*
X387978213Y-243089707D01*
X387978210Y-243089711D01*
X387890609Y-243220814D01*
X387890602Y-243220827D01*
X387830264Y-243366498D01*
X387830261Y-243366510D01*
X387799500Y-243521153D01*
X387799500Y-243678846D01*
X387830261Y-243833489D01*
X387830264Y-243833501D01*
X387890602Y-243979172D01*
X387890609Y-243979185D01*
X387978210Y-244110288D01*
X387978213Y-244110292D01*
X388089707Y-244221786D01*
X388089711Y-244221789D01*
X388220814Y-244309390D01*
X388220827Y-244309397D01*
X388366498Y-244369735D01*
X388366503Y-244369737D01*
X388498249Y-244395943D01*
X388521153Y-244400499D01*
X388521156Y-244400500D01*
X388521158Y-244400500D01*
X388678844Y-244400500D01*
X388678845Y-244400499D01*
X388833497Y-244369737D01*
X388979179Y-244309394D01*
X389078223Y-244243215D01*
X389110875Y-244221398D01*
X389177553Y-244200520D01*
X389179766Y-244200500D01*
X392900831Y-244200500D01*
X392900847Y-244200501D01*
X392908443Y-244200501D01*
X393066554Y-244200501D01*
X393066557Y-244200501D01*
X393219285Y-244159577D01*
X393269404Y-244130639D01*
X393356216Y-244080520D01*
X393468020Y-243968716D01*
X393468020Y-243968714D01*
X393478228Y-243958507D01*
X393478229Y-243958504D01*
X396528357Y-240908377D01*
X396589678Y-240874894D01*
X396654353Y-240878128D01*
X396711349Y-240896648D01*
X396925394Y-240930550D01*
X396925395Y-240930550D01*
X397142105Y-240930550D01*
X397142106Y-240930550D01*
X397333257Y-240900274D01*
X397402550Y-240909228D01*
X397456002Y-240954225D01*
X397476642Y-241020976D01*
X397457917Y-241088290D01*
X397440336Y-241110428D01*
X397385339Y-241165425D01*
X397324016Y-241198910D01*
X397321850Y-241199361D01*
X397166508Y-241230261D01*
X397166498Y-241230264D01*
X397020827Y-241290602D01*
X397020814Y-241290609D01*
X396889711Y-241378210D01*
X396889707Y-241378213D01*
X396778213Y-241489707D01*
X396778210Y-241489711D01*
X396690609Y-241620814D01*
X396690602Y-241620827D01*
X396630264Y-241766498D01*
X396630261Y-241766510D01*
X396599500Y-241921153D01*
X396599500Y-242078846D01*
X396630261Y-242233489D01*
X396630264Y-242233501D01*
X396690602Y-242379172D01*
X396690609Y-242379185D01*
X396778210Y-242510288D01*
X396778213Y-242510292D01*
X396889707Y-242621786D01*
X396889711Y-242621789D01*
X397020814Y-242709390D01*
X397020827Y-242709397D01*
X397166498Y-242769735D01*
X397166503Y-242769737D01*
X397316131Y-242799500D01*
X397321153Y-242800499D01*
X397321156Y-242800500D01*
X397321158Y-242800500D01*
X397478844Y-242800500D01*
X397478845Y-242800499D01*
X397633497Y-242769737D01*
X397779179Y-242709394D01*
X397910289Y-242621789D01*
X398021789Y-242510289D01*
X398109394Y-242379179D01*
X398169737Y-242233497D01*
X398189113Y-242136085D01*
X398200638Y-242078150D01*
X398233023Y-242016239D01*
X398234518Y-242014716D01*
X398680429Y-241568805D01*
X398741750Y-241535322D01*
X398811442Y-241540306D01*
X398836999Y-241553386D01*
X398920814Y-241609390D01*
X398920827Y-241609397D01*
X399066498Y-241669735D01*
X399066503Y-241669737D01*
X399221153Y-241700499D01*
X399221156Y-241700500D01*
X399221158Y-241700500D01*
X399378844Y-241700500D01*
X399378845Y-241700499D01*
X399533497Y-241669737D01*
X399651592Y-241620821D01*
X399679172Y-241609397D01*
X399679172Y-241609396D01*
X399679179Y-241609394D01*
X399810289Y-241521789D01*
X399810292Y-241521786D01*
X399838319Y-241493760D01*
X399899642Y-241460275D01*
X399969334Y-241465259D01*
X400025267Y-241507131D01*
X400049684Y-241572595D01*
X400050000Y-241581441D01*
X400050000Y-275304842D01*
X400030315Y-275371881D01*
X399977511Y-275417636D01*
X399923616Y-275428819D01*
X387595866Y-275191746D01*
X387529217Y-275170776D01*
X387484486Y-275117102D01*
X387474250Y-275067769D01*
X387474250Y-251821153D01*
X387799500Y-251821153D01*
X387799500Y-251978846D01*
X387830261Y-252133489D01*
X387830264Y-252133501D01*
X387890602Y-252279172D01*
X387890609Y-252279185D01*
X387978210Y-252410288D01*
X387978213Y-252410292D01*
X388089707Y-252521786D01*
X388089711Y-252521789D01*
X388220814Y-252609390D01*
X388220827Y-252609397D01*
X388366498Y-252669735D01*
X388366503Y-252669737D01*
X388366507Y-252669737D01*
X388366508Y-252669738D01*
X388409967Y-252678383D01*
X388471878Y-252710768D01*
X388506452Y-252771484D01*
X388502712Y-252841253D01*
X388461845Y-252897925D01*
X388409967Y-252921617D01*
X388366508Y-252930261D01*
X388366498Y-252930264D01*
X388220827Y-252990602D01*
X388220814Y-252990609D01*
X388089711Y-253078210D01*
X388089707Y-253078213D01*
X387978213Y-253189707D01*
X387978210Y-253189711D01*
X387890609Y-253320814D01*
X387890602Y-253320827D01*
X387830264Y-253466498D01*
X387830261Y-253466510D01*
X387799500Y-253621153D01*
X387799500Y-253778846D01*
X387830261Y-253933489D01*
X387830264Y-253933501D01*
X387890602Y-254079172D01*
X387890609Y-254079185D01*
X387978210Y-254210288D01*
X387978213Y-254210292D01*
X388089707Y-254321786D01*
X388089711Y-254321789D01*
X388220814Y-254409390D01*
X388220827Y-254409397D01*
X388366498Y-254469735D01*
X388366503Y-254469737D01*
X388521153Y-254500499D01*
X388521156Y-254500500D01*
X388521158Y-254500500D01*
X388678844Y-254500500D01*
X388678845Y-254500499D01*
X388833497Y-254469737D01*
X388979179Y-254409394D01*
X389110289Y-254321789D01*
X389221789Y-254210289D01*
X389309394Y-254079179D01*
X389369737Y-253933497D01*
X389395383Y-253804568D01*
X389400638Y-253778150D01*
X389433023Y-253716239D01*
X389434519Y-253714715D01*
X393258506Y-249890727D01*
X393258511Y-249890724D01*
X393268714Y-249880520D01*
X393268716Y-249880520D01*
X393380520Y-249768716D01*
X393437665Y-249669737D01*
X393459577Y-249631785D01*
X393500500Y-249479058D01*
X393500500Y-249320943D01*
X393500500Y-249279765D01*
X393520185Y-249212726D01*
X393521398Y-249210874D01*
X393609390Y-249079185D01*
X393609390Y-249079184D01*
X393609394Y-249079179D01*
X393669737Y-248933497D01*
X393700500Y-248778842D01*
X393700500Y-248621158D01*
X393700500Y-248621155D01*
X393700499Y-248621153D01*
X393680543Y-248520827D01*
X393669737Y-248466503D01*
X393637929Y-248389711D01*
X393609397Y-248320827D01*
X393609390Y-248320814D01*
X393521789Y-248189711D01*
X393521786Y-248189707D01*
X393410292Y-248078213D01*
X393410288Y-248078210D01*
X393279185Y-247990609D01*
X393279172Y-247990602D01*
X393133501Y-247930264D01*
X393133489Y-247930261D01*
X392978845Y-247899500D01*
X392978842Y-247899500D01*
X392821158Y-247899500D01*
X392821155Y-247899500D01*
X392666510Y-247930261D01*
X392666498Y-247930264D01*
X392520827Y-247990602D01*
X392520814Y-247990609D01*
X392389714Y-248078208D01*
X392383831Y-248084091D01*
X392322506Y-248117573D01*
X392271963Y-248118022D01*
X392178846Y-248099500D01*
X392178842Y-248099500D01*
X392021158Y-248099500D01*
X392021155Y-248099500D01*
X391866510Y-248130261D01*
X391866498Y-248130264D01*
X391720827Y-248190602D01*
X391720814Y-248190609D01*
X391589711Y-248278210D01*
X391589707Y-248278213D01*
X391478213Y-248389707D01*
X391478210Y-248389711D01*
X391390609Y-248520814D01*
X391390602Y-248520827D01*
X391330264Y-248666498D01*
X391330261Y-248666508D01*
X391299362Y-248821848D01*
X391266977Y-248883759D01*
X391265426Y-248885337D01*
X389024315Y-251126448D01*
X388962992Y-251159933D01*
X388893300Y-251154949D01*
X388889182Y-251153328D01*
X388833501Y-251130264D01*
X388833489Y-251130261D01*
X388678845Y-251099500D01*
X388678842Y-251099500D01*
X388521158Y-251099500D01*
X388521155Y-251099500D01*
X388366510Y-251130261D01*
X388366498Y-251130264D01*
X388220827Y-251190602D01*
X388220814Y-251190609D01*
X388089711Y-251278210D01*
X388089707Y-251278213D01*
X387978213Y-251389707D01*
X387978210Y-251389711D01*
X387890609Y-251520814D01*
X387890602Y-251520827D01*
X387830264Y-251666498D01*
X387830261Y-251666510D01*
X387799500Y-251821153D01*
X387474250Y-251821153D01*
X387474250Y-235788985D01*
X387493935Y-235721946D01*
X387541955Y-235678500D01*
X387595350Y-235651295D01*
X387770675Y-235523914D01*
X387923914Y-235370675D01*
X388038298Y-235213239D01*
X388043432Y-235206173D01*
X388098762Y-235163507D01*
X388168375Y-235157528D01*
X388230170Y-235190134D01*
X388244068Y-235206173D01*
X388363583Y-235370671D01*
X388363586Y-235370675D01*
X388516825Y-235523914D01*
X388692150Y-235651295D01*
X388830811Y-235721946D01*
X388885244Y-235749681D01*
X389091345Y-235816647D01*
X389091346Y-235816647D01*
X389091349Y-235816648D01*
X389305394Y-235850550D01*
X389305395Y-235850550D01*
X389522105Y-235850550D01*
X389522106Y-235850550D01*
X389736151Y-235816648D01*
X389736154Y-235816647D01*
X389736155Y-235816647D01*
X389942255Y-235749681D01*
X389942255Y-235749680D01*
X389942258Y-235749680D01*
X390135350Y-235651295D01*
X390310675Y-235523914D01*
X390463914Y-235370675D01*
X390591295Y-235195350D01*
X390689680Y-235002258D01*
X390746919Y-234826095D01*
X390756647Y-234796155D01*
X390756647Y-234796154D01*
X390756648Y-234796151D01*
X390790550Y-234582106D01*
X390790550Y-234365394D01*
X390756648Y-234151349D01*
X390756647Y-234151345D01*
X390756647Y-234151344D01*
X390727883Y-234062818D01*
X390725888Y-233992977D01*
X390761968Y-233933144D01*
X390824669Y-233902316D01*
X390845814Y-233900500D01*
X395580831Y-233900500D01*
X395580847Y-233900501D01*
G37*
%TD.AperFunction*%
%TA.AperFunction,Conductor*%
G36*
X385690170Y-235190134D02*
G01*
X385704068Y-235206173D01*
X385823583Y-235370671D01*
X385823586Y-235370675D01*
X385976825Y-235523914D01*
X386152150Y-235651295D01*
X386205544Y-235678500D01*
X386256340Y-235726474D01*
X386273250Y-235788985D01*
X386273250Y-263676124D01*
X386253565Y-263743163D01*
X386200761Y-263788918D01*
X386131603Y-263798862D01*
X386068047Y-263769837D01*
X386061569Y-263763805D01*
X385036119Y-262738355D01*
X385036117Y-262738352D01*
X384917246Y-262619481D01*
X384917245Y-262619480D01*
X384825120Y-262566292D01*
X384825119Y-262566291D01*
X384780319Y-262540425D01*
X384780318Y-262540424D01*
X384767792Y-262537067D01*
X384627586Y-262499499D01*
X384469472Y-262499499D01*
X384461876Y-262499499D01*
X384461860Y-262499500D01*
X381600097Y-262499500D01*
X381533058Y-262479815D01*
X381512416Y-262463181D01*
X379787590Y-260738355D01*
X379787588Y-260738352D01*
X379668717Y-260619481D01*
X379668716Y-260619480D01*
X379581904Y-260569360D01*
X379581904Y-260569359D01*
X379581900Y-260569358D01*
X379531785Y-260540423D01*
X379379057Y-260499499D01*
X379220943Y-260499499D01*
X379213347Y-260499499D01*
X379213331Y-260499500D01*
X376042807Y-260499500D01*
X375884693Y-260499500D01*
X375731965Y-260540423D01*
X375731964Y-260540423D01*
X375731962Y-260540424D01*
X375731959Y-260540425D01*
X375681846Y-260569359D01*
X375681845Y-260569360D01*
X375638439Y-260594420D01*
X375595035Y-260619479D01*
X375595032Y-260619481D01*
X375483228Y-260731286D01*
X374043832Y-262170681D01*
X373982509Y-262204166D01*
X373956151Y-262207000D01*
X373308379Y-262207000D01*
X373308373Y-262207001D01*
X373248766Y-262213408D01*
X373113921Y-262263702D01*
X373113914Y-262263706D01*
X372998705Y-262349952D01*
X372998702Y-262349955D01*
X372912456Y-262465164D01*
X372912452Y-262465171D01*
X372862158Y-262600017D01*
X372855751Y-262659616D01*
X372855750Y-262659635D01*
X372855750Y-263755370D01*
X372855751Y-263755376D01*
X372862158Y-263814983D01*
X372912452Y-263949828D01*
X372912453Y-263949830D01*
X372921622Y-263962078D01*
X372946038Y-264027543D01*
X372936915Y-264083840D01*
X372894682Y-264185800D01*
X372894677Y-264185817D01*
X372856250Y-264379004D01*
X372856250Y-264575995D01*
X372894677Y-264769181D01*
X372894680Y-264769193D01*
X372970057Y-264951171D01*
X372970064Y-264951184D01*
X373031520Y-265043159D01*
X373052398Y-265109837D01*
X373033913Y-265177217D01*
X373031521Y-265180940D01*
X372969620Y-265273582D01*
X372969614Y-265273593D01*
X372894200Y-265455660D01*
X372894197Y-265455670D01*
X372855750Y-265648956D01*
X372855750Y-265648959D01*
X372855750Y-265846041D01*
X372855750Y-265846043D01*
X372855749Y-265846043D01*
X372894197Y-266039329D01*
X372894200Y-266039339D01*
X372969616Y-266221410D01*
X372969618Y-266221414D01*
X373013602Y-266287240D01*
X373031221Y-266313610D01*
X373052098Y-266380287D01*
X373033613Y-266447667D01*
X373031221Y-266451390D01*
X372969616Y-266543589D01*
X372894200Y-266725660D01*
X372894197Y-266725670D01*
X372855750Y-266918956D01*
X372855750Y-266918959D01*
X372855750Y-267116041D01*
X372855750Y-267116043D01*
X372855749Y-267116043D01*
X372894197Y-267309329D01*
X372894200Y-267309339D01*
X372969615Y-267491407D01*
X372969618Y-267491414D01*
X372984620Y-267513866D01*
X373031221Y-267583610D01*
X373052098Y-267650287D01*
X373033613Y-267717667D01*
X373031221Y-267721390D01*
X372969616Y-267813589D01*
X372894200Y-267995660D01*
X372894197Y-267995670D01*
X372855750Y-268188956D01*
X372855750Y-268188959D01*
X372855750Y-268386041D01*
X372855750Y-268386043D01*
X372855749Y-268386043D01*
X372894197Y-268579329D01*
X372894200Y-268579339D01*
X372969614Y-268761407D01*
X372969621Y-268761420D01*
X373079110Y-268925281D01*
X373079113Y-268925285D01*
X373218464Y-269064636D01*
X373218468Y-269064639D01*
X373382329Y-269174128D01*
X373382342Y-269174135D01*
X373564410Y-269249549D01*
X373564415Y-269249551D01*
X373564419Y-269249551D01*
X373564420Y-269249552D01*
X373757706Y-269288000D01*
X373757709Y-269288000D01*
X373954793Y-269288000D01*
X374084832Y-269262132D01*
X374148085Y-269249551D01*
X374330164Y-269174132D01*
X374494032Y-269064639D01*
X374633389Y-268925282D01*
X374742882Y-268761414D01*
X374818301Y-268579335D01*
X374856750Y-268386041D01*
X374856750Y-268188959D01*
X374856750Y-268188956D01*
X374818302Y-267995670D01*
X374818301Y-267995669D01*
X374818301Y-267995665D01*
X374766685Y-267871051D01*
X374742885Y-267813592D01*
X374742883Y-267813588D01*
X374742882Y-267813586D01*
X374681279Y-267721391D01*
X374660401Y-267654714D01*
X374678885Y-267587334D01*
X374681279Y-267583609D01*
X374694122Y-267564387D01*
X374742882Y-267491414D01*
X374818301Y-267309335D01*
X374856750Y-267116041D01*
X374856750Y-266918959D01*
X374856750Y-266918956D01*
X374818302Y-266725670D01*
X374818301Y-266725669D01*
X374818301Y-266725665D01*
X374793626Y-266666093D01*
X374742885Y-266543592D01*
X374742881Y-266543585D01*
X374699594Y-266478801D01*
X374678717Y-266412127D01*
X374697201Y-266344746D01*
X374740695Y-266302526D01*
X374803800Y-266266093D01*
X374869745Y-266228020D01*
X374981549Y-266116216D01*
X374981549Y-266116214D01*
X374991753Y-266106011D01*
X374991756Y-266106006D01*
X376260945Y-264836819D01*
X376322268Y-264803334D01*
X376348626Y-264800500D01*
X384220234Y-264800500D01*
X384287273Y-264820185D01*
X384289125Y-264821398D01*
X384420814Y-264909390D01*
X384420827Y-264909397D01*
X384566498Y-264969735D01*
X384566503Y-264969737D01*
X384721153Y-265000499D01*
X384721156Y-265000500D01*
X384875500Y-265000500D01*
X384942539Y-265020185D01*
X384988294Y-265072989D01*
X384999500Y-265124500D01*
X384999500Y-265178846D01*
X385030261Y-265333489D01*
X385030264Y-265333501D01*
X385090602Y-265479172D01*
X385090609Y-265479185D01*
X385178210Y-265610288D01*
X385178213Y-265610292D01*
X385289707Y-265721786D01*
X385289711Y-265721789D01*
X385420814Y-265809390D01*
X385420827Y-265809397D01*
X385509295Y-265846041D01*
X385566503Y-265869737D01*
X385721153Y-265900499D01*
X385721156Y-265900500D01*
X385721158Y-265900500D01*
X385878844Y-265900500D01*
X385878845Y-265900499D01*
X386033497Y-265869737D01*
X386101798Y-265841445D01*
X386171267Y-265833977D01*
X386233746Y-265865252D01*
X386269398Y-265925341D01*
X386273250Y-265956007D01*
X386273250Y-275039904D01*
X386253565Y-275106943D01*
X386200761Y-275152698D01*
X386146866Y-275163881D01*
X365019616Y-274757588D01*
X364952967Y-274736618D01*
X364908236Y-274682944D01*
X364898000Y-274633611D01*
X364898000Y-259013636D01*
X364917685Y-258946597D01*
X364934314Y-258925960D01*
X384692256Y-239168017D01*
X384692261Y-239168014D01*
X384702464Y-239157810D01*
X384702466Y-239157810D01*
X384814270Y-239046006D01*
X384893327Y-238909074D01*
X384934250Y-238756347D01*
X384934250Y-235788985D01*
X384953935Y-235721946D01*
X385001955Y-235678500D01*
X385055350Y-235651295D01*
X385230675Y-235523914D01*
X385383914Y-235370675D01*
X385498298Y-235213239D01*
X385503432Y-235206173D01*
X385558762Y-235163507D01*
X385628375Y-235157528D01*
X385690170Y-235190134D01*
G37*
%TD.AperFunction*%
%TA.AperFunction,Conductor*%
G36*
X379066942Y-261720185D02*
G01*
X379087584Y-261736819D01*
X380738584Y-263387819D01*
X380772069Y-263449142D01*
X380767085Y-263518834D01*
X380725213Y-263574767D01*
X380659749Y-263599184D01*
X380650903Y-263599500D01*
X375969469Y-263599500D01*
X375928548Y-263610464D01*
X375928548Y-263610465D01*
X375891280Y-263620451D01*
X375816743Y-263640423D01*
X375816738Y-263640426D01*
X375679819Y-263719475D01*
X375679811Y-263719481D01*
X375568007Y-263831286D01*
X375047505Y-264351787D01*
X374986182Y-264385272D01*
X374916490Y-264380288D01*
X374860557Y-264338416D01*
X374841251Y-264300388D01*
X374771571Y-264072669D01*
X374771239Y-264043437D01*
X374768114Y-264014370D01*
X374770838Y-264008112D01*
X374770778Y-264002804D01*
X374778541Y-263990416D01*
X374790879Y-263962076D01*
X374800046Y-263949831D01*
X374850341Y-263814983D01*
X374856750Y-263755373D01*
X374856749Y-263107595D01*
X374876433Y-263040557D01*
X374893063Y-263019920D01*
X376176166Y-261736819D01*
X376237489Y-261703334D01*
X376263847Y-261700500D01*
X378999903Y-261700500D01*
X379066942Y-261720185D01*
G37*
%TD.AperFunction*%
%TA.AperFunction,Conductor*%
G36*
X399993039Y-208062516D02*
G01*
X400038794Y-208115320D01*
X400050000Y-208166831D01*
X400050000Y-240218559D01*
X400030315Y-240285598D01*
X399977511Y-240331353D01*
X399908353Y-240341297D01*
X399844797Y-240312272D01*
X399838319Y-240306240D01*
X399810292Y-240278213D01*
X399810288Y-240278210D01*
X399679185Y-240190609D01*
X399679172Y-240190602D01*
X399533501Y-240130264D01*
X399533489Y-240130261D01*
X399378845Y-240099500D01*
X399378842Y-240099500D01*
X399221158Y-240099500D01*
X399221155Y-240099500D01*
X399066510Y-240130261D01*
X399066498Y-240130264D01*
X398920827Y-240190602D01*
X398920814Y-240190609D01*
X398789125Y-240278602D01*
X398722447Y-240299480D01*
X398720234Y-240299500D01*
X398586669Y-240299500D01*
X398586653Y-240299499D01*
X398579057Y-240299499D01*
X398420943Y-240299499D01*
X398420942Y-240299499D01*
X398416695Y-240300058D01*
X398413112Y-240299499D01*
X398412815Y-240299499D01*
X398412815Y-240299452D01*
X398347660Y-240289289D01*
X398295406Y-240242908D01*
X398276523Y-240175638D01*
X398290031Y-240120821D01*
X398309679Y-240082261D01*
X398309680Y-240082257D01*
X398376647Y-239876155D01*
X398376647Y-239876154D01*
X398376648Y-239876151D01*
X398410550Y-239662106D01*
X398410550Y-239445394D01*
X398376648Y-239231349D01*
X398376647Y-239231345D01*
X398376647Y-239231344D01*
X398309681Y-239025244D01*
X398254772Y-238917479D01*
X398211295Y-238832150D01*
X398083914Y-238656825D01*
X397930675Y-238503586D01*
X397827404Y-238428555D01*
X397766173Y-238384068D01*
X397723507Y-238328738D01*
X397717528Y-238259125D01*
X397750134Y-238197330D01*
X397766173Y-238183432D01*
X397860961Y-238114564D01*
X397930675Y-238063914D01*
X398083914Y-237910675D01*
X398211295Y-237735350D01*
X398309680Y-237542258D01*
X398349652Y-237419237D01*
X398376647Y-237336155D01*
X398376647Y-237336154D01*
X398376648Y-237336151D01*
X398410550Y-237122106D01*
X398410550Y-236905394D01*
X398376648Y-236691349D01*
X398376647Y-236691345D01*
X398376647Y-236691344D01*
X398309681Y-236485244D01*
X398241621Y-236351669D01*
X398211295Y-236292150D01*
X398083914Y-236116825D01*
X397930675Y-235963586D01*
X397848933Y-235904197D01*
X397766173Y-235844068D01*
X397723507Y-235788738D01*
X397717528Y-235719125D01*
X397750134Y-235657330D01*
X397766173Y-235643432D01*
X397833040Y-235594850D01*
X397930675Y-235523914D01*
X398083914Y-235370675D01*
X398211295Y-235195350D01*
X398309680Y-235002258D01*
X398366919Y-234826095D01*
X398376647Y-234796155D01*
X398376647Y-234796154D01*
X398376648Y-234796151D01*
X398410550Y-234582106D01*
X398410550Y-234365394D01*
X398376648Y-234151349D01*
X398376647Y-234151347D01*
X398358129Y-234094354D01*
X398356134Y-234024513D01*
X398388377Y-233968356D01*
X398568556Y-233788178D01*
X398568561Y-233788174D01*
X398578764Y-233777970D01*
X398578766Y-233777970D01*
X398690570Y-233666166D01*
X398769627Y-233529234D01*
X398810550Y-233376507D01*
X398810550Y-231348169D01*
X398810551Y-231348156D01*
X398810551Y-231180055D01*
X398810551Y-231180053D01*
X398769627Y-231027325D01*
X398718497Y-230938766D01*
X398690570Y-230890394D01*
X398578766Y-230778590D01*
X398578765Y-230778589D01*
X398574435Y-230774259D01*
X398574424Y-230774249D01*
X398161719Y-230361544D01*
X398128234Y-230300221D01*
X398133218Y-230230529D01*
X398149083Y-230200977D01*
X398211292Y-230115354D01*
X398211291Y-230115354D01*
X398211295Y-230115350D01*
X398309680Y-229922258D01*
X398318309Y-229895701D01*
X398376647Y-229716155D01*
X398376647Y-229716154D01*
X398376648Y-229716151D01*
X398410550Y-229502106D01*
X398410550Y-229285394D01*
X398376648Y-229071349D01*
X398376647Y-229071345D01*
X398376647Y-229071344D01*
X398309681Y-228865244D01*
X398302351Y-228850858D01*
X398211295Y-228672150D01*
X398083914Y-228496825D01*
X397930675Y-228343586D01*
X397822490Y-228264985D01*
X397766173Y-228224068D01*
X397723507Y-228168738D01*
X397717528Y-228099125D01*
X397750134Y-228037330D01*
X397766173Y-228023432D01*
X397828414Y-227978211D01*
X397930675Y-227903914D01*
X398083914Y-227750675D01*
X398211295Y-227575350D01*
X398309680Y-227382258D01*
X398348506Y-227262764D01*
X398376647Y-227176155D01*
X398376647Y-227176154D01*
X398376648Y-227176151D01*
X398410550Y-226962106D01*
X398410550Y-226745394D01*
X398376648Y-226531349D01*
X398376647Y-226531345D01*
X398376647Y-226531344D01*
X398309681Y-226325244D01*
X398307103Y-226320185D01*
X398211295Y-226132150D01*
X398083914Y-225956825D01*
X397930675Y-225803586D01*
X397896618Y-225778842D01*
X397766173Y-225684068D01*
X397723507Y-225628738D01*
X397717528Y-225559125D01*
X397750134Y-225497330D01*
X397766173Y-225483432D01*
X397813456Y-225449078D01*
X397930675Y-225363914D01*
X398083914Y-225210675D01*
X398211295Y-225035350D01*
X398309680Y-224842258D01*
X398376648Y-224636151D01*
X398410550Y-224422106D01*
X398410550Y-224205394D01*
X398376648Y-223991349D01*
X398376647Y-223991345D01*
X398376647Y-223991344D01*
X398309681Y-223785244D01*
X398211294Y-223592149D01*
X398098440Y-223436819D01*
X398083914Y-223416825D01*
X397930675Y-223263586D01*
X397800098Y-223168716D01*
X397766173Y-223144068D01*
X397723507Y-223088738D01*
X397717528Y-223019125D01*
X397750134Y-222957330D01*
X397766173Y-222943432D01*
X397813456Y-222909078D01*
X397930675Y-222823914D01*
X398083914Y-222670675D01*
X398211295Y-222495350D01*
X398309680Y-222302258D01*
X398320369Y-222269360D01*
X398376647Y-222096155D01*
X398376647Y-222096154D01*
X398376648Y-222096151D01*
X398410550Y-221882106D01*
X398410550Y-221665394D01*
X398376648Y-221451349D01*
X398376647Y-221451345D01*
X398376647Y-221451344D01*
X398309681Y-221245244D01*
X398286188Y-221199137D01*
X398211295Y-221052150D01*
X398083914Y-220876825D01*
X397930675Y-220723586D01*
X397898900Y-220700500D01*
X397766173Y-220604068D01*
X397723507Y-220548738D01*
X397717528Y-220479125D01*
X397750134Y-220417330D01*
X397766173Y-220403432D01*
X397813456Y-220369078D01*
X397930675Y-220283914D01*
X398083914Y-220130675D01*
X398211295Y-219955350D01*
X398309680Y-219762258D01*
X398339416Y-219670739D01*
X398376647Y-219556155D01*
X398376647Y-219556154D01*
X398376648Y-219556151D01*
X398410550Y-219342106D01*
X398410550Y-219125394D01*
X398376648Y-218911349D01*
X398376647Y-218911345D01*
X398376647Y-218911344D01*
X398309681Y-218705244D01*
X398276974Y-218641053D01*
X398211295Y-218512150D01*
X398083914Y-218336825D01*
X397930675Y-218183586D01*
X397815146Y-218099649D01*
X397766173Y-218064068D01*
X397723507Y-218008738D01*
X397717528Y-217939125D01*
X397750134Y-217877330D01*
X397766173Y-217863432D01*
X397862610Y-217793366D01*
X397930675Y-217743914D01*
X398083914Y-217590675D01*
X398211295Y-217415350D01*
X398309680Y-217222258D01*
X398359480Y-217068989D01*
X398376647Y-217016155D01*
X398376647Y-217016154D01*
X398376648Y-217016151D01*
X398410550Y-216802106D01*
X398410550Y-216585394D01*
X398376648Y-216371349D01*
X398376647Y-216371345D01*
X398376647Y-216371344D01*
X398309681Y-216165244D01*
X398292381Y-216131290D01*
X398211295Y-215972150D01*
X398083914Y-215796825D01*
X397930675Y-215643586D01*
X397765746Y-215523758D01*
X397723082Y-215468429D01*
X397717103Y-215398816D01*
X397749709Y-215337021D01*
X397765747Y-215323123D01*
X397814295Y-215287849D01*
X397814296Y-215287849D01*
X397200799Y-214674353D01*
X397244537Y-214662634D01*
X397369063Y-214590739D01*
X397470739Y-214489063D01*
X397542634Y-214364537D01*
X397554353Y-214320800D01*
X398167849Y-214934296D01*
X398167850Y-214934295D01*
X398210862Y-214875094D01*
X398210870Y-214875081D01*
X398309215Y-214682070D01*
X398376161Y-214476034D01*
X398410050Y-214262072D01*
X398410050Y-214045427D01*
X398376161Y-213831465D01*
X398309215Y-213625429D01*
X398210864Y-213432407D01*
X398167850Y-213373203D01*
X398167849Y-213373202D01*
X397554353Y-213986699D01*
X397542634Y-213942963D01*
X397470739Y-213818437D01*
X397369063Y-213716761D01*
X397244537Y-213644866D01*
X397200799Y-213633146D01*
X397814295Y-213019649D01*
X397765748Y-212984378D01*
X397723081Y-212929048D01*
X397717102Y-212859435D01*
X397749707Y-212797640D01*
X397765747Y-212783741D01*
X397930675Y-212663914D01*
X398083914Y-212510675D01*
X398211295Y-212335350D01*
X398309680Y-212142258D01*
X398309681Y-212142255D01*
X398376647Y-211936155D01*
X398376647Y-211936154D01*
X398376648Y-211936151D01*
X398410550Y-211722106D01*
X398410550Y-211505394D01*
X398376648Y-211291349D01*
X398376647Y-211291345D01*
X398376647Y-211291344D01*
X398309681Y-211085244D01*
X398262633Y-210992907D01*
X398211295Y-210892150D01*
X398083914Y-210716825D01*
X397930675Y-210563586D01*
X397755350Y-210436205D01*
X397562255Y-210337818D01*
X397356154Y-210270852D01*
X397195617Y-210245425D01*
X397142106Y-210236950D01*
X396925394Y-210236950D01*
X396854045Y-210248250D01*
X396711347Y-210270852D01*
X396711344Y-210270852D01*
X396505244Y-210337818D01*
X396312149Y-210436205D01*
X396136822Y-210563588D01*
X395983588Y-210716822D01*
X395856205Y-210892149D01*
X395757818Y-211085244D01*
X395690852Y-211291344D01*
X395690852Y-211291347D01*
X395656950Y-211505394D01*
X395656950Y-211722105D01*
X395690852Y-211936152D01*
X395690852Y-211936155D01*
X395757818Y-212142255D01*
X395856205Y-212335350D01*
X395983586Y-212510675D01*
X396136825Y-212663914D01*
X396181914Y-212696673D01*
X396301751Y-212783740D01*
X396344417Y-212839070D01*
X396350396Y-212908683D01*
X396317790Y-212970478D01*
X396301751Y-212984376D01*
X396253203Y-213019647D01*
X396253203Y-213019649D01*
X396866700Y-213633146D01*
X396822963Y-213644866D01*
X396698437Y-213716761D01*
X396596761Y-213818437D01*
X396524866Y-213942963D01*
X396513146Y-213986700D01*
X395899649Y-213373203D01*
X395899648Y-213373203D01*
X395856634Y-213432409D01*
X395758284Y-213625429D01*
X395691338Y-213831465D01*
X395657450Y-214045427D01*
X395657450Y-214262072D01*
X395691338Y-214476034D01*
X395758284Y-214682070D01*
X395856635Y-214875092D01*
X395899648Y-214934295D01*
X395899649Y-214934295D01*
X396513146Y-214320799D01*
X396524866Y-214364537D01*
X396596761Y-214489063D01*
X396698437Y-214590739D01*
X396822963Y-214662634D01*
X396866700Y-214674353D01*
X396253202Y-215287849D01*
X396253203Y-215287851D01*
X396301751Y-215323123D01*
X396344417Y-215378453D01*
X396350396Y-215448066D01*
X396317791Y-215509861D01*
X396301752Y-215523759D01*
X396252357Y-215559647D01*
X396136825Y-215643586D01*
X396136823Y-215643588D01*
X396136822Y-215643588D01*
X395983588Y-215796822D01*
X395856205Y-215972149D01*
X395757818Y-216165244D01*
X395690852Y-216371344D01*
X395690852Y-216371347D01*
X395679051Y-216445856D01*
X395656950Y-216585394D01*
X395656950Y-216802106D01*
X395657591Y-216806151D01*
X395690852Y-217016152D01*
X395690852Y-217016155D01*
X395757818Y-217222255D01*
X395772769Y-217251598D01*
X395856205Y-217415350D01*
X395983586Y-217590675D01*
X396136825Y-217743914D01*
X396204890Y-217793366D01*
X396301327Y-217863432D01*
X396343992Y-217918762D01*
X396349971Y-217988376D01*
X396317365Y-218050171D01*
X396301327Y-218064068D01*
X396272448Y-218085050D01*
X396136825Y-218183586D01*
X396136823Y-218183588D01*
X396136822Y-218183588D01*
X395983588Y-218336822D01*
X395856205Y-218512149D01*
X395757818Y-218705244D01*
X395690852Y-218911344D01*
X395690852Y-218911347D01*
X395673174Y-219022963D01*
X395656950Y-219125394D01*
X395656950Y-219342106D01*
X395662771Y-219378855D01*
X395653815Y-219448149D01*
X395608818Y-219501600D01*
X395542066Y-219522239D01*
X395508204Y-219518027D01*
X395480446Y-219510589D01*
X395439057Y-219499499D01*
X395280943Y-219499499D01*
X395273347Y-219499499D01*
X395273331Y-219499500D01*
X383290300Y-219499500D01*
X383223261Y-219479815D01*
X383177506Y-219427011D01*
X383167562Y-219357853D01*
X383167827Y-219356103D01*
X383170050Y-219342067D01*
X383170050Y-219125427D01*
X383136161Y-218911465D01*
X383069215Y-218705429D01*
X382970864Y-218512407D01*
X382927850Y-218453203D01*
X382927849Y-218453202D01*
X382314353Y-219066699D01*
X382302634Y-219022963D01*
X382230739Y-218898437D01*
X382129063Y-218796761D01*
X382004537Y-218724866D01*
X381960799Y-218713146D01*
X382574295Y-218099649D01*
X382574295Y-218099648D01*
X382525322Y-218064067D01*
X382482656Y-218008737D01*
X382476677Y-217939124D01*
X382509283Y-217877329D01*
X382525322Y-217863430D01*
X382574295Y-217827848D01*
X381960799Y-217214353D01*
X382004537Y-217202634D01*
X382129063Y-217130739D01*
X382230739Y-217029063D01*
X382302634Y-216904537D01*
X382314353Y-216860800D01*
X382927849Y-217474296D01*
X382927850Y-217474295D01*
X382970862Y-217415094D01*
X382970870Y-217415081D01*
X383069215Y-217222070D01*
X383136161Y-217016034D01*
X383170050Y-216802072D01*
X383170050Y-216585427D01*
X383136161Y-216371465D01*
X383069215Y-216165429D01*
X382970864Y-215972407D01*
X382927850Y-215913203D01*
X382927849Y-215913202D01*
X382314353Y-216526699D01*
X382302634Y-216482963D01*
X382230739Y-216358437D01*
X382129063Y-216256761D01*
X382004537Y-216184866D01*
X381960799Y-216173146D01*
X382574295Y-215559649D01*
X382525748Y-215524378D01*
X382483081Y-215469048D01*
X382477102Y-215399435D01*
X382509707Y-215337640D01*
X382525747Y-215323741D01*
X382690675Y-215203914D01*
X382843914Y-215050675D01*
X382971295Y-214875350D01*
X383069680Y-214682258D01*
X383099416Y-214590739D01*
X383136647Y-214476155D01*
X383136647Y-214476154D01*
X383136648Y-214476151D01*
X383170550Y-214262106D01*
X383170550Y-214045394D01*
X383136648Y-213831349D01*
X383136647Y-213831345D01*
X383136647Y-213831344D01*
X383069681Y-213625244D01*
X382999769Y-213488034D01*
X382971295Y-213432150D01*
X382843914Y-213256825D01*
X382690675Y-213103586D01*
X382575143Y-213019647D01*
X382526173Y-212984068D01*
X382483507Y-212928738D01*
X382477528Y-212859125D01*
X382510134Y-212797330D01*
X382526173Y-212783432D01*
X382573456Y-212749078D01*
X382690675Y-212663914D01*
X382843914Y-212510675D01*
X382971295Y-212335350D01*
X383069680Y-212142258D01*
X383069681Y-212142255D01*
X383136647Y-211936155D01*
X383136647Y-211936154D01*
X383136648Y-211936151D01*
X383170550Y-211722106D01*
X383170550Y-211505394D01*
X383136648Y-211291349D01*
X383136647Y-211291345D01*
X383136647Y-211291344D01*
X383069681Y-211085244D01*
X383022633Y-210992907D01*
X382971295Y-210892150D01*
X382843914Y-210716825D01*
X382690675Y-210563586D01*
X382515350Y-210436205D01*
X382322255Y-210337818D01*
X382116154Y-210270852D01*
X381955617Y-210245425D01*
X381902106Y-210236950D01*
X381685394Y-210236950D01*
X381614045Y-210248250D01*
X381471347Y-210270852D01*
X381471344Y-210270852D01*
X381265244Y-210337818D01*
X381072149Y-210436205D01*
X380896822Y-210563588D01*
X380743588Y-210716822D01*
X380616205Y-210892149D01*
X380517818Y-211085244D01*
X380450852Y-211291344D01*
X380450852Y-211291347D01*
X380416950Y-211505394D01*
X380416950Y-211628353D01*
X380397265Y-211695392D01*
X380344461Y-211741147D01*
X380275303Y-211751091D01*
X380211747Y-211722066D01*
X380205269Y-211716034D01*
X377103040Y-208613805D01*
X377069555Y-208552482D01*
X377074539Y-208482790D01*
X377116411Y-208426857D01*
X377181875Y-208402440D01*
X377188323Y-208402147D01*
X395871592Y-208042854D01*
X395873976Y-208042831D01*
X399926000Y-208042831D01*
X399993039Y-208062516D01*
G37*
%TD.AperFunction*%
%TA.AperFunction,Conductor*%
G36*
X376106942Y-209320185D02*
G01*
X376127584Y-209336819D01*
X380439120Y-213648355D01*
X380472605Y-213709678D01*
X380469370Y-213774353D01*
X380450852Y-213831345D01*
X380416950Y-214045394D01*
X380416950Y-214262105D01*
X380450852Y-214476152D01*
X380450852Y-214476155D01*
X380517818Y-214682255D01*
X380616068Y-214875081D01*
X380616205Y-214875350D01*
X380743586Y-215050675D01*
X380896825Y-215203914D01*
X380957126Y-215247725D01*
X381061751Y-215323740D01*
X381104417Y-215379070D01*
X381110396Y-215448683D01*
X381077790Y-215510478D01*
X381061751Y-215524376D01*
X381013203Y-215559647D01*
X381013203Y-215559649D01*
X381626700Y-216173146D01*
X381582963Y-216184866D01*
X381458437Y-216256761D01*
X381356761Y-216358437D01*
X381284866Y-216482963D01*
X381273146Y-216526700D01*
X380659649Y-215913203D01*
X380659648Y-215913203D01*
X380616634Y-215972409D01*
X380518284Y-216165429D01*
X380451338Y-216371465D01*
X380417450Y-216585427D01*
X380417450Y-216802072D01*
X380451338Y-217016034D01*
X380518284Y-217222070D01*
X380616635Y-217415092D01*
X380659648Y-217474295D01*
X380659649Y-217474295D01*
X381273146Y-216860799D01*
X381284866Y-216904537D01*
X381356761Y-217029063D01*
X381458437Y-217130739D01*
X381582963Y-217202634D01*
X381626700Y-217214353D01*
X381039617Y-217801434D01*
X381097073Y-217902438D01*
X381099195Y-217911440D01*
X381104842Y-217918762D01*
X381107087Y-217944902D01*
X381113110Y-217970442D01*
X381110029Y-217979161D01*
X381110821Y-217988375D01*
X381098576Y-218011580D01*
X381089836Y-218036322D01*
X381082529Y-218041992D01*
X381078215Y-218050170D01*
X381062175Y-218064069D01*
X381013203Y-218099648D01*
X381013203Y-218099649D01*
X381626700Y-218713146D01*
X381582963Y-218724866D01*
X381458437Y-218796761D01*
X381356761Y-218898437D01*
X381284866Y-219022963D01*
X381273146Y-219066700D01*
X380659649Y-218453203D01*
X380659648Y-218453203D01*
X380616634Y-218512409D01*
X380518284Y-218705429D01*
X380451338Y-218911465D01*
X380417450Y-219125427D01*
X380417450Y-219342072D01*
X380451338Y-219556034D01*
X380518284Y-219762070D01*
X380616635Y-219955092D01*
X380659648Y-220014295D01*
X380659649Y-220014295D01*
X381273146Y-219400799D01*
X381284866Y-219444537D01*
X381356761Y-219569063D01*
X381458437Y-219670739D01*
X381582963Y-219742634D01*
X381626700Y-219754353D01*
X381420423Y-219960631D01*
X381359100Y-219994116D01*
X381332742Y-219996950D01*
X381227453Y-219996950D01*
X381074724Y-220037873D01*
X381059444Y-220046696D01*
X381059441Y-220046697D01*
X380937800Y-220116925D01*
X380937792Y-220116931D01*
X380825990Y-220228734D01*
X380825988Y-220228736D01*
X379849426Y-221205299D01*
X378891544Y-222163181D01*
X378830221Y-222196666D01*
X378803863Y-222199500D01*
X376117848Y-222199500D01*
X376050809Y-222179815D01*
X376005054Y-222127011D01*
X375996231Y-222099692D01*
X375969738Y-221966508D01*
X375969737Y-221966507D01*
X375969737Y-221966503D01*
X375934779Y-221882106D01*
X375909397Y-221820827D01*
X375909390Y-221820814D01*
X375821398Y-221689125D01*
X375800520Y-221622447D01*
X375800500Y-221620234D01*
X375800500Y-216589045D01*
X375800501Y-216580546D01*
X375800501Y-216420944D01*
X375787211Y-216371347D01*
X375759577Y-216268216D01*
X375727619Y-216212863D01*
X375680524Y-216131290D01*
X375680518Y-216131282D01*
X374927569Y-215378333D01*
X374894084Y-215317010D01*
X374891250Y-215290652D01*
X374891250Y-214440750D01*
X374910935Y-214373711D01*
X374963739Y-214327956D01*
X375015250Y-214316750D01*
X375422363Y-214316750D01*
X375422366Y-214316750D01*
X375492946Y-214310336D01*
X375655356Y-214259728D01*
X375800935Y-214171722D01*
X375921222Y-214051435D01*
X376009228Y-213905856D01*
X376059836Y-213743446D01*
X376066250Y-213672866D01*
X376066250Y-211459634D01*
X376059836Y-211389054D01*
X376009228Y-211226644D01*
X375921222Y-211081065D01*
X375921220Y-211081063D01*
X375921219Y-211081061D01*
X375800938Y-210960780D01*
X375708819Y-210905092D01*
X375655356Y-210872772D01*
X375492946Y-210822164D01*
X375492944Y-210822163D01*
X375492942Y-210822163D01*
X375443528Y-210817673D01*
X375422366Y-210815750D01*
X373159134Y-210815750D01*
X373139895Y-210817498D01*
X373088557Y-210822163D01*
X372926143Y-210872772D01*
X372780561Y-210960780D01*
X372660280Y-211081061D01*
X372572272Y-211226643D01*
X372526466Y-211373645D01*
X372487728Y-211431793D01*
X372423703Y-211459767D01*
X372354718Y-211448686D01*
X372309709Y-211412248D01*
X372307669Y-211409589D01*
X372307666Y-211409586D01*
X372307663Y-211409582D01*
X372145420Y-211247339D01*
X372145411Y-211247331D01*
X371963367Y-211107642D01*
X371924572Y-211085244D01*
X371764638Y-210992906D01*
X371764626Y-210992900D01*
X371552637Y-210905092D01*
X371504336Y-210892150D01*
X371330988Y-210845702D01*
X371292965Y-210840696D01*
X371103491Y-210815750D01*
X371103484Y-210815750D01*
X370874016Y-210815750D01*
X370874008Y-210815750D01*
X370657465Y-210844259D01*
X370646512Y-210845702D01*
X370552826Y-210870804D01*
X370424862Y-210905092D01*
X370212873Y-210992900D01*
X370212859Y-210992907D01*
X370014132Y-211107642D01*
X369832088Y-211247331D01*
X369669831Y-211409588D01*
X369530142Y-211591632D01*
X369415407Y-211790359D01*
X369415400Y-211790373D01*
X369327592Y-212002362D01*
X369268203Y-212224009D01*
X369268201Y-212224020D01*
X369238250Y-212451508D01*
X369238250Y-212680991D01*
X369253608Y-212797640D01*
X369268202Y-212908488D01*
X369290190Y-212990550D01*
X369327592Y-213130137D01*
X369415400Y-213342126D01*
X369415407Y-213342140D01*
X369530142Y-213540867D01*
X369669831Y-213722911D01*
X369669839Y-213722920D01*
X369832080Y-213885161D01*
X369832088Y-213885168D01*
X369832089Y-213885169D01*
X369880900Y-213922623D01*
X370014132Y-214024857D01*
X370014135Y-214024858D01*
X370014138Y-214024861D01*
X370212862Y-214139594D01*
X370212867Y-214139596D01*
X370212873Y-214139599D01*
X370304230Y-214177440D01*
X370424863Y-214227408D01*
X370646512Y-214286798D01*
X370874016Y-214316750D01*
X370874023Y-214316750D01*
X371103477Y-214316750D01*
X371103484Y-214316750D01*
X371330988Y-214286798D01*
X371552637Y-214227408D01*
X371764638Y-214139594D01*
X371963362Y-214024861D01*
X372145411Y-213885169D01*
X372145415Y-213885164D01*
X372145420Y-213885161D01*
X372307661Y-213722920D01*
X372307664Y-213722916D01*
X372307669Y-213722911D01*
X372309702Y-213720260D01*
X372366129Y-213679056D01*
X372435874Y-213674899D01*
X372496796Y-213709110D01*
X372526464Y-213758851D01*
X372572272Y-213905856D01*
X372644213Y-214024861D01*
X372660280Y-214051438D01*
X372780561Y-214171719D01*
X372780563Y-214171720D01*
X372780565Y-214171722D01*
X372926144Y-214259728D01*
X373088554Y-214310336D01*
X373159134Y-214316750D01*
X373566250Y-214316750D01*
X373633289Y-214336435D01*
X373679044Y-214389239D01*
X373690250Y-214440750D01*
X373690250Y-215504080D01*
X373690249Y-215504098D01*
X373690249Y-215669804D01*
X373690248Y-215669804D01*
X373731173Y-215822535D01*
X373760108Y-215872650D01*
X373760109Y-215872654D01*
X373760110Y-215872654D01*
X373807769Y-215955204D01*
X373810229Y-215959464D01*
X373810231Y-215959467D01*
X373929099Y-216078335D01*
X373929105Y-216078340D01*
X374563181Y-216712416D01*
X374596666Y-216773739D01*
X374599500Y-216800097D01*
X374599500Y-216864564D01*
X374579815Y-216931603D01*
X374527011Y-216977358D01*
X374457853Y-216987302D01*
X374394297Y-216958277D01*
X374375184Y-216937453D01*
X374368851Y-216928736D01*
X374246264Y-216806149D01*
X374106010Y-216704248D01*
X374057624Y-216679594D01*
X373951541Y-216625541D01*
X373951538Y-216625540D01*
X373786663Y-216571970D01*
X373615437Y-216544850D01*
X373615432Y-216544850D01*
X373442068Y-216544850D01*
X373442063Y-216544850D01*
X373270836Y-216571970D01*
X373105961Y-216625540D01*
X373105958Y-216625541D01*
X372951489Y-216704248D01*
X372920155Y-216727014D01*
X372811236Y-216806149D01*
X372811234Y-216806151D01*
X372811233Y-216806151D01*
X372688651Y-216928733D01*
X372688651Y-216928734D01*
X372688649Y-216928736D01*
X372646098Y-216987302D01*
X372586748Y-217068989D01*
X372508042Y-217223458D01*
X372507254Y-217225884D01*
X372506704Y-217226687D01*
X372506178Y-217227959D01*
X372505910Y-217227848D01*
X372467816Y-217283559D01*
X372403457Y-217310757D01*
X372334611Y-217298842D01*
X372283135Y-217251598D01*
X372281936Y-217249565D01*
X372280522Y-217247116D01*
X372280518Y-217247111D01*
X367928011Y-212894605D01*
X367928009Y-212894602D01*
X367809138Y-212775731D01*
X367809137Y-212775730D01*
X367722325Y-212725610D01*
X367722325Y-212725609D01*
X367722321Y-212725608D01*
X367672206Y-212696673D01*
X367519478Y-212655749D01*
X367361364Y-212655749D01*
X367353768Y-212655749D01*
X367353752Y-212655750D01*
X358899000Y-212655750D01*
X358831961Y-212636065D01*
X358786206Y-212583261D01*
X358775000Y-212531750D01*
X358775000Y-209424500D01*
X358794685Y-209357461D01*
X358847489Y-209311706D01*
X358899000Y-209300500D01*
X376039903Y-209300500D01*
X376106942Y-209320185D01*
G37*
%TD.AperFunction*%
%TD*%
M02*
