%TF.GenerationSoftware,KiCad,Pcbnew,10.0.0*%
%TF.CreationDate,2026-04-21T08:27:56+10:00*%
%TF.ProjectId,YetAnotherKeyboard,59657441-6e6f-4746-9865-724b6579626f,rev?*%
%TF.SameCoordinates,Original*%
%TF.FileFunction,Soldermask,Bot*%
%TF.FilePolarity,Negative*%
%FSLAX46Y46*%
G04 Gerber Fmt 4.6, Leading zero omitted, Abs format (unit mm)*
G04 Created by KiCad (PCBNEW 10.0.0) date 2026-04-21 08:27:56*
%MOMM*%
%LPD*%
G01*
G04 APERTURE LIST*
%ADD10C,1.701800*%
%ADD11C,3.000000*%
%ADD12C,3.987800*%
%ADD13C,3.048000*%
%ADD14R,1.000000X1.000000*%
%ADD15C,1.000000*%
%ADD16C,1.752600*%
G04 APERTURE END LIST*
D10*
%TO.C,SW5*%
X134778750Y-217646250D03*
D11*
X137318750Y-212566250D03*
D12*
X139858750Y-217646250D03*
D11*
X143668750Y-215106250D03*
D10*
X144938750Y-217646250D03*
%TD*%
%TO.C,SW38*%
X282426250Y-255741050D03*
D11*
X284966250Y-250661050D03*
D12*
X287506250Y-255741050D03*
D11*
X291316250Y-253201050D03*
D10*
X292586250Y-255741050D03*
%TD*%
%TO.C,SW7*%
X172868750Y-217651450D03*
D11*
X175408750Y-212571450D03*
D12*
X177948750Y-217651450D03*
D11*
X181758750Y-215111450D03*
D10*
X183028750Y-217651450D03*
%TD*%
%TO.C,SW18*%
X144313750Y-236691050D03*
D11*
X146853750Y-231611050D03*
D12*
X149393750Y-236691050D03*
D11*
X153203750Y-234151050D03*
D10*
X154473750Y-236691050D03*
%TD*%
%TO.C,SW60*%
X325278750Y-293841050D03*
D11*
X327818750Y-288761050D03*
D12*
X330358750Y-293841050D03*
D11*
X334168750Y-291301050D03*
D10*
X335438750Y-293841050D03*
%TD*%
%TO.C,SW19*%
X163363750Y-236691050D03*
D11*
X165903750Y-231611050D03*
D12*
X168443750Y-236691050D03*
D11*
X172253750Y-234151050D03*
D10*
X173523750Y-236691050D03*
%TD*%
%TO.C,SW63*%
X318135000Y-274791050D03*
D11*
X320675000Y-269711050D03*
D12*
X323215000Y-274791050D03*
D11*
X327025000Y-272251050D03*
D10*
X328295000Y-274791050D03*
%TD*%
%TO.C,SW10*%
X230028750Y-217646250D03*
D11*
X232568750Y-212566250D03*
D12*
X235108750Y-217646250D03*
D11*
X238918750Y-215106250D03*
D10*
X240188750Y-217646250D03*
%TD*%
D13*
%TO.C,SW57*%
X154152500Y-286861250D03*
D12*
X154152500Y-302101250D03*
D10*
X199072500Y-293846250D03*
D11*
X201612500Y-288766250D03*
D12*
X204152500Y-293846250D03*
D11*
X207962500Y-291306250D03*
D10*
X209232500Y-293846250D03*
D13*
X254152500Y-286861250D03*
D12*
X254152500Y-302101250D03*
%TD*%
D10*
%TO.C,SW40*%
X315743750Y-236696250D03*
D11*
X318283750Y-231616250D03*
D12*
X320823750Y-236696250D03*
D11*
X324633750Y-234156250D03*
D10*
X325903750Y-236696250D03*
%TD*%
D14*
%TO.C,J1*%
X373856250Y-263207500D03*
D15*
X373856250Y-264477500D03*
X373856250Y-265747500D03*
X373856250Y-267017500D03*
X373856250Y-268287500D03*
%TD*%
D10*
%TO.C,SW52*%
X301476250Y-255741050D03*
D11*
X304016250Y-250661050D03*
D12*
X306556250Y-255741050D03*
D11*
X310366250Y-253201050D03*
D10*
X311636250Y-255741050D03*
%TD*%
%TO.C,SW16*%
X106203750Y-236696250D03*
D11*
X108743750Y-231616250D03*
D12*
X111283750Y-236696250D03*
D11*
X115093750Y-234156250D03*
D10*
X116363750Y-236696250D03*
%TD*%
%TO.C,SW34*%
X206226250Y-255741050D03*
D11*
X208766250Y-250661050D03*
D12*
X211306250Y-255741050D03*
D11*
X215116250Y-253201050D03*
D10*
X216386250Y-255741050D03*
%TD*%
%TO.C,SW24*%
X258503750Y-236696250D03*
D11*
X261043750Y-231616250D03*
D12*
X263583750Y-236696250D03*
D11*
X267393750Y-234156250D03*
D10*
X268663750Y-236696250D03*
%TD*%
%TO.C,SW21*%
X201453750Y-236696250D03*
D11*
X203993750Y-231616250D03*
D12*
X206533750Y-236696250D03*
D11*
X210343750Y-234156250D03*
D10*
X211613750Y-236696250D03*
%TD*%
%TO.C,SW23*%
X239553750Y-236696250D03*
D11*
X242093750Y-231616250D03*
D12*
X244633750Y-236696250D03*
D11*
X248443750Y-234156250D03*
D10*
X249713750Y-236696250D03*
%TD*%
%TO.C,SW22*%
X220503750Y-236696250D03*
D11*
X223043750Y-231616250D03*
D12*
X225583750Y-236696250D03*
D11*
X229393750Y-234156250D03*
D10*
X230663750Y-236696250D03*
%TD*%
%TO.C,SW9*%
X210978750Y-217646250D03*
D11*
X213518750Y-212566250D03*
D12*
X216058750Y-217646250D03*
D11*
X219868750Y-215106250D03*
D10*
X221138750Y-217646250D03*
%TD*%
%TO.C,SW62*%
X363368750Y-293846250D03*
D11*
X365908750Y-288766250D03*
D12*
X368448750Y-293846250D03*
D11*
X372258750Y-291306250D03*
D10*
X373528750Y-293846250D03*
%TD*%
%TO.C,SW54*%
X80020000Y-293841050D03*
D11*
X82560000Y-288761050D03*
D12*
X85100000Y-293841050D03*
D11*
X88910000Y-291301050D03*
D10*
X90180000Y-293841050D03*
%TD*%
%TO.C,SW28*%
X84772500Y-255746250D03*
D11*
X87312500Y-250666250D03*
D12*
X89852500Y-255746250D03*
D11*
X93662500Y-253206250D03*
D10*
X94932500Y-255746250D03*
%TD*%
%TO.C,SW49*%
X253841250Y-274796250D03*
D11*
X256381250Y-269716250D03*
D12*
X258921250Y-274796250D03*
D11*
X262731250Y-272256250D03*
D10*
X264001250Y-274796250D03*
%TD*%
%TO.C,SW35*%
X225266250Y-255746250D03*
D11*
X227806250Y-250666250D03*
D12*
X230346250Y-255746250D03*
D11*
X234156250Y-253206250D03*
D10*
X235426250Y-255746250D03*
%TD*%
%TO.C,SW26*%
X287178750Y-217641050D03*
D11*
X289718750Y-212561050D03*
D12*
X292258750Y-217641050D03*
D11*
X296068750Y-215101050D03*
D10*
X297338750Y-217641050D03*
%TD*%
%TO.C,SW27*%
X306128750Y-217646250D03*
D11*
X308668750Y-212566250D03*
D12*
X311208750Y-217646250D03*
D11*
X315018750Y-215106250D03*
D10*
X316288750Y-217646250D03*
%TD*%
%TO.C,SW29*%
X110966250Y-255746250D03*
D11*
X113506250Y-250666250D03*
D12*
X116046250Y-255746250D03*
D11*
X119856250Y-253206250D03*
D10*
X121126250Y-255746250D03*
%TD*%
%TO.C,SW44*%
X158491250Y-274796250D03*
D11*
X161031250Y-269716250D03*
D12*
X163571250Y-274796250D03*
D11*
X167381250Y-272256250D03*
D10*
X168651250Y-274796250D03*
%TD*%
%TO.C,SW2*%
X77628750Y-217646250D03*
D11*
X80168750Y-212566250D03*
D12*
X82708750Y-217646250D03*
D11*
X86518750Y-215106250D03*
D10*
X87788750Y-217646250D03*
%TD*%
%TO.C,SW25*%
X277653750Y-236855000D03*
D11*
X280193750Y-231775000D03*
D12*
X282733750Y-236855000D03*
D11*
X286543750Y-234315000D03*
D10*
X287813750Y-236855000D03*
%TD*%
%TO.C,SW55*%
X103822500Y-293846250D03*
D11*
X106362500Y-288766250D03*
D12*
X108902500Y-293846250D03*
D11*
X112712500Y-291306250D03*
D10*
X113982500Y-293846250D03*
%TD*%
%TO.C,SW59*%
X294322500Y-293846250D03*
D11*
X296862500Y-288766250D03*
D12*
X299402500Y-293846250D03*
D11*
X303212500Y-291306250D03*
D10*
X304482500Y-293846250D03*
%TD*%
%TO.C,SW46*%
X196591250Y-274796250D03*
D11*
X199131250Y-269716250D03*
D12*
X201671250Y-274796250D03*
D11*
X205481250Y-272256250D03*
D10*
X206751250Y-274796250D03*
%TD*%
%TO.C,SW11*%
X249078750Y-217646250D03*
D11*
X251618750Y-212566250D03*
D12*
X254158750Y-217646250D03*
D11*
X257968750Y-215106250D03*
D10*
X259238750Y-217646250D03*
%TD*%
%TO.C,SW31*%
X149066250Y-255746250D03*
D11*
X151606250Y-250666250D03*
D12*
X154146250Y-255746250D03*
D11*
X157956250Y-253206250D03*
D10*
X159226250Y-255746250D03*
%TD*%
%TO.C,SW64*%
X344318750Y-274796250D03*
D11*
X346858750Y-269716250D03*
D12*
X349398750Y-274796250D03*
D11*
X353208750Y-272256250D03*
D10*
X354478750Y-274796250D03*
%TD*%
%TO.C,SW61*%
X344318750Y-293846250D03*
D11*
X346858750Y-288766250D03*
D12*
X349398750Y-293846250D03*
D11*
X353208750Y-291306250D03*
D10*
X354478750Y-293846250D03*
%TD*%
%TO.C,SW45*%
X177541250Y-274796250D03*
D11*
X180081250Y-269716250D03*
D12*
X182621250Y-274796250D03*
D11*
X186431250Y-272256250D03*
D10*
X187701250Y-274796250D03*
%TD*%
%TO.C,SW12*%
X268138750Y-217641050D03*
D11*
X270678750Y-212561050D03*
D12*
X273218750Y-217641050D03*
D11*
X277028750Y-215101050D03*
D10*
X278298750Y-217641050D03*
%TD*%
%TO.C,SW58*%
X270410000Y-293846250D03*
D11*
X272950000Y-288766250D03*
D12*
X275490000Y-293846250D03*
D11*
X279300000Y-291306250D03*
D10*
X280570000Y-293846250D03*
%TD*%
%TO.C,SW66*%
X363368750Y-236696250D03*
D11*
X365908750Y-231616250D03*
D12*
X368448750Y-236696250D03*
D11*
X372258750Y-234156250D03*
D10*
X373528750Y-236696250D03*
%TD*%
%TO.C,SW43*%
X139541250Y-274796250D03*
D11*
X142081250Y-269716250D03*
D12*
X144621250Y-274796250D03*
D11*
X148431250Y-272256250D03*
D10*
X149701250Y-274796250D03*
%TD*%
%TO.C,SW15*%
X82391250Y-236696250D03*
D11*
X84931250Y-231616250D03*
D12*
X87471250Y-236696250D03*
D11*
X91281250Y-234156250D03*
D10*
X92551250Y-236696250D03*
%TD*%
%TO.C,SW36*%
X244326250Y-255741050D03*
D11*
X246866250Y-250661050D03*
D12*
X249406250Y-255741050D03*
D11*
X253216250Y-253201050D03*
D10*
X254486250Y-255741050D03*
%TD*%
D13*
%TO.C,SW14*%
X327935750Y-210661250D03*
D12*
X327935750Y-225901250D03*
D10*
X334793750Y-217646250D03*
D11*
X337333750Y-212566250D03*
D12*
X339873750Y-217646250D03*
D11*
X343683750Y-215106250D03*
D10*
X344953750Y-217646250D03*
D13*
X351811750Y-210661250D03*
D12*
X351811750Y-225901250D03*
%TD*%
D10*
%TO.C,SW39*%
X296703750Y-236691050D03*
D11*
X299243750Y-231611050D03*
D12*
X301783750Y-236691050D03*
D11*
X305593750Y-234151050D03*
D10*
X306863750Y-236691050D03*
%TD*%
%TO.C,SW6*%
X153828750Y-217646250D03*
D11*
X156368750Y-212566250D03*
D12*
X158908750Y-217646250D03*
D11*
X162718750Y-215106250D03*
D10*
X163988750Y-217646250D03*
%TD*%
%TO.C,SW3*%
X96678750Y-217646250D03*
D11*
X99218750Y-212566250D03*
D12*
X101758750Y-217646250D03*
D11*
X105568750Y-215106250D03*
D10*
X106838750Y-217646250D03*
%TD*%
D16*
%TO.C,U1*%
X381793750Y-211613750D03*
X381793750Y-214153750D03*
X381793750Y-216693750D03*
X381793750Y-219233750D03*
X381793750Y-221773750D03*
X381793750Y-224313750D03*
X381793750Y-226853750D03*
X381793750Y-229393750D03*
X381793750Y-231933750D03*
X381793750Y-234473750D03*
X381793750Y-237013750D03*
X381793750Y-239553750D03*
X397033750Y-239553750D03*
X397033750Y-237013750D03*
X397033750Y-234473750D03*
X397033750Y-231933750D03*
X397033750Y-229393750D03*
X397033750Y-226853750D03*
X397033750Y-224313750D03*
X397033750Y-221773750D03*
X397033750Y-219233750D03*
X397033750Y-216693750D03*
X397033750Y-214153750D03*
X397033750Y-211613750D03*
X384333750Y-234473750D03*
X386873750Y-234473750D03*
X389413750Y-234473750D03*
%TD*%
D10*
%TO.C,SW20*%
X182403750Y-236855000D03*
D11*
X184943750Y-231775000D03*
D12*
X187483750Y-236855000D03*
D11*
X191293750Y-234315000D03*
D10*
X192563750Y-236855000D03*
%TD*%
%TO.C,SW17*%
X125263750Y-236691050D03*
D11*
X127803750Y-231611050D03*
D12*
X130343750Y-236691050D03*
D11*
X134153750Y-234151050D03*
D10*
X135423750Y-236691050D03*
%TD*%
%TO.C,SW37*%
X263376250Y-255741050D03*
D11*
X265916250Y-250661050D03*
D12*
X268456250Y-255741050D03*
D11*
X272266250Y-253201050D03*
D10*
X273536250Y-255741050D03*
%TD*%
%TO.C,SW65*%
X363368750Y-217646250D03*
D11*
X365908750Y-212566250D03*
D12*
X368448750Y-217646250D03*
D11*
X372258750Y-215106250D03*
D10*
X373528750Y-217646250D03*
%TD*%
%TO.C,SW32*%
X168126250Y-255741050D03*
D11*
X170666250Y-250661050D03*
D12*
X173206250Y-255741050D03*
D11*
X177016250Y-253201050D03*
D10*
X178286250Y-255741050D03*
%TD*%
%TO.C,SW56*%
X127635000Y-293846250D03*
D11*
X130175000Y-288766250D03*
D12*
X132715000Y-293846250D03*
D11*
X136525000Y-291306250D03*
D10*
X137795000Y-293846250D03*
%TD*%
%TO.C,SW13*%
X339566250Y-236691050D03*
D11*
X342106250Y-231611050D03*
D12*
X344646250Y-236691050D03*
D11*
X348456250Y-234151050D03*
D10*
X349726250Y-236691050D03*
%TD*%
%TO.C,SW4*%
X115728750Y-217646250D03*
D11*
X118268750Y-212566250D03*
D12*
X120808750Y-217646250D03*
D11*
X124618750Y-215106250D03*
D10*
X125888750Y-217646250D03*
%TD*%
%TO.C,SW48*%
X234801250Y-274791050D03*
D11*
X237341250Y-269711050D03*
D12*
X239881250Y-274791050D03*
D11*
X243691250Y-272251050D03*
D10*
X244961250Y-274791050D03*
%TD*%
%TO.C,SW47*%
X215751250Y-274791050D03*
D11*
X218291250Y-269711050D03*
D12*
X220831250Y-274791050D03*
D11*
X224641250Y-272251050D03*
D10*
X225911250Y-274791050D03*
%TD*%
%TO.C,SW50*%
X272891250Y-274796250D03*
D11*
X275431250Y-269716250D03*
D12*
X277971250Y-274796250D03*
D11*
X281781250Y-272256250D03*
D10*
X283051250Y-274796250D03*
%TD*%
%TO.C,SW51*%
X291951250Y-274791050D03*
D11*
X294491250Y-269711050D03*
D12*
X297031250Y-274791050D03*
D11*
X300841250Y-272251050D03*
D10*
X302111250Y-274791050D03*
%TD*%
%TO.C,SW8*%
X191938750Y-217641050D03*
D11*
X194478750Y-212561050D03*
D12*
X197018750Y-217641050D03*
D11*
X200828750Y-215101050D03*
D10*
X202098750Y-217641050D03*
%TD*%
D13*
%TO.C,SW53*%
X325554500Y-248761250D03*
D12*
X325554500Y-264001250D03*
D10*
X332412500Y-255746250D03*
D11*
X334952500Y-250666250D03*
D12*
X337492500Y-255746250D03*
D11*
X341302500Y-253206250D03*
D10*
X342572500Y-255746250D03*
D13*
X349430500Y-248761250D03*
D12*
X349430500Y-264001250D03*
%TD*%
D13*
%TO.C,SW41*%
X82677000Y-267811250D03*
D12*
X82677000Y-283051250D03*
D10*
X89535000Y-274796250D03*
D11*
X92075000Y-269716250D03*
D12*
X94615000Y-274796250D03*
D11*
X98425000Y-272256250D03*
D10*
X99695000Y-274796250D03*
D13*
X106553000Y-267811250D03*
D12*
X106553000Y-283051250D03*
%TD*%
D10*
%TO.C,SW30*%
X130026250Y-255741050D03*
D11*
X132566250Y-250661050D03*
D12*
X135106250Y-255741050D03*
D11*
X138916250Y-253201050D03*
D10*
X140186250Y-255741050D03*
%TD*%
%TO.C,SW33*%
X187166250Y-255746250D03*
D11*
X189706250Y-250666250D03*
D12*
X192246250Y-255746250D03*
D11*
X196056250Y-253206250D03*
D10*
X197326250Y-255746250D03*
%TD*%
%TO.C,SW42*%
X120391250Y-274796250D03*
D11*
X122931250Y-269716250D03*
D12*
X125471250Y-274796250D03*
D11*
X129281250Y-272256250D03*
D10*
X130551250Y-274796250D03*
%TD*%
M02*
