M48
; DRILL file KiCad 10.0.0 date 2026-04-27T22:06:33
; FORMAT={-:-/ absolute / metric / decimal}
; #@! TF.CreationDate,2026-04-27T22:06:33+10:00
; #@! TF.GenerationSoftware,Kicad,Pcbnew,10.0.0
; #@! TF.FileFunction,Plated,1,2,PTH
FMAT,2
METRIC
; #@! TA.AperFunction,Plated,PTH,ViaDrill
T1C0.300
; #@! TA.AperFunction,Plated,PTH,ComponentDrill
T2C0.650
; #@! TA.AperFunction,Plated,PTH,ComponentDrill
T3C1.092
%
G90
G05
T1
X89.5Y-214.8
X91.5Y-286.3
X93.35Y-228.95
X95.5Y-248.4
X100.7Y-267.0
X108.9Y-215.2
X115.6Y-286.6
X116.6Y-229.3
X122.3Y-248.1
X127.9Y-214.9
X131.1Y-267.6
X135.9Y-229.1
X138.4Y-286.4
X140.4Y-248.1
X147.0Y-215.4
X149.6Y-266.8
X154.8Y-229.1
X159.2Y-247.6
X166.4Y-215.7
X168.2Y-267.6
X173.6Y-229.7
X178.3Y-247.6
X185.7Y-215.1
X187.5Y-266.8
X194.7Y-234.2
X199.45Y-253.85
X204.416Y-215.381
X208.9Y-272.2
X209.3Y-286.5
X214.2Y-234.3
X217.2Y-287.1
X218.8Y-252.6
X220.6Y-287.3
X223.5Y-215.1
X228.3Y-271.7
X233.2Y-234.7
X238.2Y-253.4
X242.2Y-214.7
X248.4Y-272.0
X250.3Y-229.1
X254.5Y-247.9
X261.3Y-215.5
X263.1Y-266.2
X268.8Y-228.9
X273.3Y-247.4
X278.4Y-242.6
X280.3Y-215.3
X282.7Y-267.2
X284.3Y-287.4
X285.2Y-227.7
X288.576Y-229.124
X289.2Y-225.4
X292.6Y-247.5
X295.6Y-287.7
X298.0Y-282.4
X299.7Y-215.2
X299.7Y-227.1
X301.8Y-266.5
X304.3Y-228.5
X306.0Y-269.8
X308.8Y-225.5
X311.9Y-248.0
X315.5Y-286.3
X319.9Y-224.2
X323.3Y-229.4
X328.3Y-242.8
X329.1Y-267.2
X330.3Y-229.6
X338.2Y-271.2
X338.7Y-248.0
X350.7Y-271.5
X353.7Y-285.5
X355.7Y-224.4
X355.7Y-245.7
X356.1Y-242.0
X357.5Y-228.6
X361.0Y-284.4
X361.5Y-258.1
X361.9Y-259.9
X362.1Y-263.5
X362.3Y-254.0
X366.4Y-225.7
X371.4Y-272.9
X372.0Y-221.3
X374.8Y-274.1
X375.2Y-222.2
X376.6Y-228.7
X377.7Y-261.7
X379.3Y-265.2
X384.8Y-264.2
X385.5Y-218.6
X385.8Y-265.1
X387.3Y-231.9
X388.3Y-227.1
X388.6Y-243.6
X388.6Y-251.9
X388.6Y-253.7
X389.576Y-232.5
X389.8Y-226.9
X390.2Y-248.0
X390.518Y-232.5
X392.1Y-248.9
X392.9Y-248.7
X394.0Y-248.5
X394.1Y-244.6
X394.8Y-238.3
X397.4Y-242.0
X398.9Y-255.0
X399.1Y-216.4
X399.3Y-240.9
T2
X373.856Y-263.207
X373.856Y-264.477
X373.856Y-265.748
X373.856Y-267.017
X373.856Y-268.287
T3
X381.794Y-211.614
X381.794Y-214.154
X381.794Y-216.694
X381.794Y-219.234
X381.794Y-221.774
X381.794Y-224.314
X381.794Y-226.854
X381.794Y-229.394
X381.794Y-231.934
X381.794Y-234.474
X381.794Y-237.014
X381.794Y-239.554
X384.334Y-234.474
X386.874Y-234.474
X389.414Y-234.474
X397.034Y-211.614
X397.034Y-214.154
X397.034Y-216.694
X397.034Y-219.234
X397.034Y-221.774
X397.034Y-224.314
X397.034Y-226.854
X397.034Y-229.394
X397.034Y-231.934
X397.034Y-234.474
X397.034Y-237.014
X397.034Y-239.554
M30
