%TF.GenerationSoftware,KiCad,Pcbnew,10.0.0*%
%TF.CreationDate,2026-04-14T12:55:18+10:00*%
%TF.ProjectId,YetAnotherKeyboard,59657441-6e6f-4746-9865-724b6579626f,rev?*%
%TF.SameCoordinates,Original*%
%TF.FileFunction,Soldermask,Bot*%
%TF.FilePolarity,Negative*%
%FSLAX46Y46*%
G04 Gerber Fmt 4.6, Leading zero omitted, Abs format (unit mm)*
G04 Created by KiCad (PCBNEW 10.0.0) date 2026-04-14 12:55:18*
%MOMM*%
%LPD*%
G01*
G04 APERTURE LIST*
G04 Aperture macros list*
%AMRoundRect*
0 Rectangle with rounded corners*
0 $1 Rounding radius*
0 $2 $3 $4 $5 $6 $7 $8 $9 X,Y pos of 4 corners*
0 Add a 4 corners polygon primitive as box body*
4,1,4,$2,$3,$4,$5,$6,$7,$8,$9,$2,$3,0*
0 Add four circle primitives for the rounded corners*
1,1,$1+$1,$2,$3*
1,1,$1+$1,$4,$5*
1,1,$1+$1,$6,$7*
1,1,$1+$1,$8,$9*
0 Add four rect primitives between the rounded corners*
20,1,$1+$1,$2,$3,$4,$5,0*
20,1,$1+$1,$4,$5,$6,$7,0*
20,1,$1+$1,$6,$7,$8,$9,0*
20,1,$1+$1,$8,$9,$2,$3,0*%
G04 Aperture macros list end*
%ADD10C,1.701800*%
%ADD11C,3.000000*%
%ADD12C,3.987800*%
%ADD13C,1.700000*%
%ADD14RoundRect,0.170000X-0.680000X-0.680000X0.680000X-0.680000X0.680000X0.680000X-0.680000X0.680000X0*%
%ADD15C,2.200000*%
%ADD16C,1.850000*%
%ADD17RoundRect,0.200000X-0.600000X-0.600000X0.600000X-0.600000X0.600000X0.600000X-0.600000X0.600000X0*%
%ADD18C,1.600000*%
%ADD19C,3.048000*%
%ADD20RoundRect,0.249999X-0.850001X-0.850001X0.850001X-0.850001X0.850001X0.850001X-0.850001X0.850001X0*%
%ADD21C,0.850000*%
G04 APERTURE END LIST*
D10*
%TO.C,SW89*%
X475158750Y-266853550D03*
D11*
X473888750Y-264313550D03*
D12*
X470078750Y-266853550D03*
D11*
X467538750Y-261773550D03*
D10*
X464998750Y-266853550D03*
%TD*%
D13*
%TO.C,U2*%
X483235000Y-220625000D03*
X480695000Y-220625000D03*
X478155000Y-220625000D03*
D14*
X475615000Y-220625000D03*
%TD*%
D10*
%TO.C,SW92*%
X484038750Y-285908750D03*
D11*
X486578750Y-280828750D03*
D12*
X489118750Y-285908750D03*
D11*
X492928750Y-283368750D03*
D10*
X494198750Y-285908750D03*
%TD*%
%TO.C,SW91*%
X464988750Y-285908750D03*
D11*
X467528750Y-280828750D03*
D12*
X470068750Y-285908750D03*
D11*
X473878750Y-283368750D03*
D10*
X475148750Y-285908750D03*
%TD*%
%TO.C,SW90*%
X484048750Y-266853550D03*
D11*
X486588750Y-261773550D03*
D12*
X489128750Y-266853550D03*
D11*
X492938750Y-264313550D03*
D10*
X494208750Y-266853550D03*
%TD*%
%TO.C,SW4*%
X184130000Y-180985400D03*
D11*
X186670000Y-175905400D03*
D12*
X189210000Y-180985400D03*
D11*
X193020000Y-178445400D03*
D10*
X194290000Y-180985400D03*
%TD*%
%TO.C,SW42*%
X269855000Y-228605200D03*
D11*
X272395000Y-223525200D03*
D12*
X274935000Y-228605200D03*
D11*
X278745000Y-226065200D03*
D10*
X280015000Y-228605200D03*
%TD*%
%TO.C,SW62*%
X331777500Y-247655200D03*
D11*
X334317500Y-242575200D03*
D12*
X336857500Y-247655200D03*
D11*
X340667500Y-245115200D03*
D10*
X341937500Y-247655200D03*
%TD*%
%TO.C,SW61*%
X312717500Y-247655200D03*
D11*
X315257500Y-242575200D03*
D12*
X317797500Y-247655200D03*
D11*
X321607500Y-245115200D03*
D10*
X322877500Y-247655200D03*
%TD*%
%TO.C,SW10*%
X317490000Y-180980200D03*
D11*
X320030000Y-175900200D03*
D12*
X322570000Y-180980200D03*
D11*
X326380000Y-178440200D03*
D10*
X327650000Y-180980200D03*
%TD*%
%TO.C,SW49*%
X422275000Y-228600000D03*
D11*
X424815000Y-223520000D03*
D12*
X427355000Y-228600000D03*
D11*
X431165000Y-226060000D03*
D10*
X432435000Y-228600000D03*
%TD*%
%TO.C,SW40*%
X231755000Y-228605200D03*
D11*
X234295000Y-223525200D03*
D12*
X236835000Y-228605200D03*
D11*
X240645000Y-226065200D03*
D10*
X241915000Y-228605200D03*
%TD*%
%TO.C,SW81*%
X300821250Y-285750000D03*
D11*
X303361250Y-280670000D03*
D12*
X305901250Y-285750000D03*
D11*
X309711250Y-283210000D03*
D10*
X310981250Y-285750000D03*
%TD*%
%TO.C,SW33*%
X441325000Y-209550000D03*
D11*
X443865000Y-204470000D03*
D12*
X446405000Y-209550000D03*
D11*
X450215000Y-207010000D03*
D10*
X451485000Y-209550000D03*
%TD*%
%TO.C,SW7*%
X250915000Y-180985400D03*
D11*
X253455000Y-175905400D03*
D12*
X255995000Y-180985400D03*
D11*
X259805000Y-178445400D03*
D10*
X261075000Y-180985400D03*
%TD*%
%TO.C,SW8*%
X269965000Y-180985400D03*
D11*
X272505000Y-175905400D03*
D12*
X275045000Y-180985400D03*
D11*
X278855000Y-178445400D03*
D10*
X280125000Y-180985400D03*
%TD*%
%TO.C,SW15*%
X422265000Y-180980200D03*
D11*
X424805000Y-175900200D03*
D12*
X427345000Y-180980200D03*
D11*
X431155000Y-178440200D03*
D10*
X432425000Y-180980200D03*
%TD*%
%TO.C,SW37*%
X174615000Y-228600000D03*
D11*
X177155000Y-223520000D03*
D12*
X179695000Y-228600000D03*
D11*
X183505000Y-226060000D03*
D10*
X184775000Y-228600000D03*
%TD*%
%TO.C,SW56*%
X217477500Y-247650000D03*
D11*
X220017500Y-242570000D03*
D12*
X222557500Y-247650000D03*
D11*
X226367500Y-245110000D03*
D10*
X227637500Y-247650000D03*
%TD*%
%TO.C,SW28*%
X317480000Y-209555200D03*
D11*
X320020000Y-204475200D03*
D12*
X322560000Y-209555200D03*
D11*
X326370000Y-207015200D03*
D10*
X327640000Y-209555200D03*
%TD*%
%TO.C,SW21*%
X184130000Y-209555200D03*
D11*
X186670000Y-204475200D03*
D12*
X189210000Y-209555200D03*
D11*
X193020000Y-207015200D03*
D10*
X194290000Y-209555200D03*
%TD*%
%TO.C,SW72*%
X284152500Y-266700000D03*
D11*
X286692500Y-261620000D03*
D12*
X289232500Y-266700000D03*
D11*
X293042500Y-264160000D03*
D10*
X294312500Y-266700000D03*
%TD*%
%TO.C,SW1*%
X107940000Y-180980200D03*
D11*
X110480000Y-175900200D03*
D12*
X113020000Y-180980200D03*
D11*
X116830000Y-178440200D03*
D10*
X118100000Y-180980200D03*
%TD*%
%TO.C,SW85*%
X403215000Y-285750000D03*
D11*
X405755000Y-280670000D03*
D12*
X408295000Y-285750000D03*
D11*
X412105000Y-283210000D03*
D10*
X413375000Y-285750000D03*
%TD*%
%TO.C,SW46*%
X346075000Y-228600000D03*
D11*
X348615000Y-223520000D03*
D12*
X351155000Y-228600000D03*
D11*
X354965000Y-226060000D03*
D10*
X356235000Y-228600000D03*
%TD*%
D15*
%TO.C,A2*%
X489558750Y-159991250D03*
D16*
X489858750Y-163021250D03*
X494708750Y-163021250D03*
D15*
X495008750Y-159991250D03*
D17*
X492867850Y-189691250D03*
D18*
X495407850Y-189691250D03*
X497947850Y-189691250D03*
%TD*%
D10*
%TO.C,SW24*%
X241290000Y-209550000D03*
D11*
X243830000Y-204470000D03*
D12*
X246370000Y-209550000D03*
D11*
X250180000Y-207010000D03*
D10*
X251450000Y-209550000D03*
%TD*%
%TO.C,SW66*%
X169842500Y-266705200D03*
D11*
X172382500Y-261625200D03*
D12*
X174922500Y-266705200D03*
D11*
X178732500Y-264165200D03*
D10*
X180002500Y-266705200D03*
%TD*%
%TO.C,SW65*%
X150792500Y-266705200D03*
D11*
X153332500Y-261625200D03*
D12*
X155872500Y-266705200D03*
D11*
X159682500Y-264165200D03*
D10*
X160952500Y-266705200D03*
%TD*%
%TO.C,SW73*%
X303192500Y-266705200D03*
D11*
X305732500Y-261625200D03*
D12*
X308272500Y-266705200D03*
D11*
X312082500Y-264165200D03*
D10*
X313352500Y-266705200D03*
%TD*%
%TO.C,SW12*%
X355590000Y-180980200D03*
D11*
X358130000Y-175900200D03*
D12*
X360670000Y-180980200D03*
D11*
X364480000Y-178440200D03*
D10*
X365750000Y-180980200D03*
%TD*%
%TO.C,SW39*%
X212705000Y-228605200D03*
D11*
X215245000Y-223525200D03*
D12*
X217785000Y-228605200D03*
D11*
X221595000Y-226065200D03*
D10*
X222865000Y-228605200D03*
%TD*%
%TO.C,SW76*%
X422275000Y-266700000D03*
D11*
X424815000Y-261620000D03*
D12*
X427355000Y-266700000D03*
D11*
X431165000Y-264160000D03*
D10*
X432435000Y-266700000D03*
%TD*%
%TO.C,SW26*%
X279380000Y-209555200D03*
D11*
X281920000Y-204475200D03*
D12*
X284460000Y-209555200D03*
D11*
X288270000Y-207015200D03*
D10*
X289540000Y-209555200D03*
%TD*%
%TO.C,SW41*%
X250805000Y-228605200D03*
D11*
X253345000Y-223525200D03*
D12*
X255885000Y-228605200D03*
D11*
X259695000Y-226065200D03*
D10*
X260965000Y-228605200D03*
%TD*%
%TO.C,SW58*%
X255567500Y-247655200D03*
D11*
X258107500Y-242575200D03*
D12*
X260647500Y-247655200D03*
D11*
X264457500Y-245115200D03*
D10*
X265727500Y-247655200D03*
%TD*%
%TO.C,SW87*%
X441315000Y-285755200D03*
D11*
X443855000Y-280675200D03*
D12*
X446395000Y-285755200D03*
D11*
X450205000Y-283215200D03*
D10*
X451475000Y-285755200D03*
%TD*%
%TO.C,SW6*%
X231865000Y-180985400D03*
D11*
X234405000Y-175905400D03*
D12*
X236945000Y-180985400D03*
D11*
X240755000Y-178445400D03*
D10*
X242025000Y-180985400D03*
%TD*%
%TO.C,SW38*%
X193655000Y-228605200D03*
D11*
X196195000Y-223525200D03*
D12*
X198735000Y-228605200D03*
D11*
X202545000Y-226065200D03*
D10*
X203815000Y-228605200D03*
%TD*%
%TO.C,SW57*%
X236517500Y-247655200D03*
D11*
X239057500Y-242575200D03*
D12*
X241597500Y-247655200D03*
D11*
X245407500Y-245115200D03*
D10*
X246677500Y-247655200D03*
%TD*%
%TO.C,SW19*%
X146040000Y-209550000D03*
D11*
X148580000Y-204470000D03*
D12*
X151120000Y-209550000D03*
D11*
X154930000Y-207010000D03*
D10*
X156200000Y-209550000D03*
%TD*%
%TO.C,SW32*%
X422265000Y-209555200D03*
D11*
X424805000Y-204475200D03*
D12*
X427345000Y-209555200D03*
D11*
X431155000Y-207015200D03*
D10*
X432425000Y-209555200D03*
%TD*%
%TO.C,SW77*%
X110321250Y-285750000D03*
D11*
X112861250Y-280670000D03*
D12*
X115401250Y-285750000D03*
D11*
X119211250Y-283210000D03*
D10*
X120481250Y-285750000D03*
%TD*%
%TO.C,SW54*%
X179367500Y-247655200D03*
D11*
X181907500Y-242575200D03*
D12*
X184447500Y-247655200D03*
D11*
X188257500Y-245115200D03*
D10*
X189527500Y-247655200D03*
%TD*%
%TO.C,SW27*%
X298430000Y-209555200D03*
D11*
X300970000Y-204475200D03*
D12*
X303510000Y-209555200D03*
D11*
X307320000Y-207015200D03*
D10*
X308590000Y-209555200D03*
%TD*%
%TO.C,SW59*%
X274617500Y-247655200D03*
D11*
X277157500Y-242575200D03*
D12*
X279697500Y-247655200D03*
D11*
X283507500Y-245115200D03*
D10*
X284777500Y-247655200D03*
%TD*%
%TO.C,SW5*%
X203170000Y-180990600D03*
D11*
X205710000Y-175910600D03*
D12*
X208250000Y-180990600D03*
D11*
X212060000Y-178450600D03*
D10*
X213330000Y-180990600D03*
%TD*%
%TO.C,SW79*%
X157946250Y-285750000D03*
D11*
X160486250Y-280670000D03*
D12*
X163026250Y-285750000D03*
D11*
X166836250Y-283210000D03*
D10*
X168106250Y-285750000D03*
%TD*%
%TO.C,SW84*%
X372258750Y-285755200D03*
D11*
X374798750Y-280675200D03*
D12*
X377338750Y-285755200D03*
D11*
X381148750Y-283215200D03*
D10*
X382418750Y-285755200D03*
%TD*%
%TO.C,SW3*%
X165080000Y-180985400D03*
D11*
X167620000Y-175905400D03*
D12*
X170160000Y-180985400D03*
D11*
X173970000Y-178445400D03*
D10*
X175240000Y-180985400D03*
%TD*%
%TO.C,SW47*%
X369887500Y-228600000D03*
D11*
X372427500Y-223520000D03*
D12*
X374967500Y-228600000D03*
D11*
X378777500Y-226060000D03*
D10*
X380047500Y-228600000D03*
%TD*%
%TO.C,SW67*%
X188892500Y-266705200D03*
D11*
X191432500Y-261625200D03*
D12*
X193972500Y-266705200D03*
D11*
X197782500Y-264165200D03*
D10*
X199052500Y-266705200D03*
%TD*%
%TO.C,SW18*%
X126980000Y-209555200D03*
D11*
X129520000Y-204475200D03*
D12*
X132060000Y-209555200D03*
D11*
X135870000Y-207015200D03*
D10*
X137140000Y-209555200D03*
%TD*%
%TO.C,SW31*%
X403215000Y-209555200D03*
D11*
X405755000Y-204475200D03*
D12*
X408295000Y-209555200D03*
D11*
X412105000Y-207015200D03*
D10*
X413375000Y-209555200D03*
%TD*%
D19*
%TO.C,SW75*%
X351113250Y-259720200D03*
D12*
X351113250Y-274960200D03*
D10*
X357971250Y-266705200D03*
D11*
X360511250Y-261625200D03*
D12*
X363051250Y-266705200D03*
D11*
X366861250Y-264165200D03*
D10*
X368131250Y-266705200D03*
D19*
X374989250Y-259720200D03*
D12*
X374989250Y-274960200D03*
%TD*%
D10*
%TO.C,SW20*%
X165080000Y-209555200D03*
D11*
X167620000Y-204475200D03*
D12*
X170160000Y-209555200D03*
D11*
X173970000Y-207015200D03*
D10*
X175240000Y-209555200D03*
%TD*%
%TO.C,SW78*%
X134133750Y-285755200D03*
D11*
X136673750Y-280675200D03*
D12*
X139213750Y-285755200D03*
D11*
X143023750Y-283215200D03*
D10*
X144293750Y-285755200D03*
%TD*%
%TO.C,SW11*%
X336540000Y-180980200D03*
D11*
X339080000Y-175900200D03*
D12*
X341620000Y-180980200D03*
D11*
X345430000Y-178440200D03*
D10*
X346700000Y-180980200D03*
%TD*%
%TO.C,SW17*%
X107930000Y-209555200D03*
D11*
X110470000Y-204475200D03*
D12*
X113010000Y-209555200D03*
D11*
X116820000Y-207015200D03*
D10*
X118090000Y-209555200D03*
%TD*%
%TO.C,SW55*%
X198317500Y-247655200D03*
D11*
X200857500Y-242575200D03*
D12*
X203397500Y-247655200D03*
D11*
X207207500Y-245115200D03*
D10*
X208477500Y-247655200D03*
%TD*%
%TO.C,SW74*%
X322242500Y-266705200D03*
D11*
X324782500Y-261625200D03*
D12*
X327322500Y-266705200D03*
D11*
X331132500Y-264165200D03*
D10*
X332402500Y-266705200D03*
%TD*%
%TO.C,SW2*%
X146020000Y-180990600D03*
D11*
X148560000Y-175910600D03*
D12*
X151100000Y-180990600D03*
D11*
X154910000Y-178450600D03*
D10*
X156180000Y-180990600D03*
%TD*%
%TO.C,SW14*%
X403215000Y-180980200D03*
D11*
X405755000Y-175900200D03*
D12*
X408295000Y-180980200D03*
D11*
X412105000Y-178440200D03*
D10*
X413375000Y-180980200D03*
%TD*%
%TO.C,SW52*%
X141267500Y-247655200D03*
D11*
X143807500Y-242575200D03*
D12*
X146347500Y-247655200D03*
D11*
X150157500Y-245115200D03*
D10*
X151427500Y-247655200D03*
%TD*%
%TO.C,SW29*%
X336530000Y-209555200D03*
D11*
X339070000Y-204475200D03*
D12*
X341610000Y-209555200D03*
D11*
X345420000Y-207015200D03*
D10*
X346690000Y-209555200D03*
%TD*%
%TO.C,SW23*%
X222230000Y-209555200D03*
D11*
X224770000Y-204475200D03*
D12*
X227310000Y-209555200D03*
D11*
X231120000Y-207015200D03*
D10*
X232390000Y-209555200D03*
%TD*%
D19*
%TO.C,SW64*%
X112978250Y-259720200D03*
D12*
X112978250Y-274960200D03*
D10*
X119836250Y-266705200D03*
D11*
X122376250Y-261625200D03*
D12*
X124916250Y-266705200D03*
D11*
X128726250Y-264165200D03*
D10*
X129996250Y-266705200D03*
D19*
X136854250Y-259720200D03*
D12*
X136854250Y-274960200D03*
%TD*%
D10*
%TO.C,SW45*%
X327015000Y-228600000D03*
D11*
X329555000Y-223520000D03*
D12*
X332095000Y-228600000D03*
D11*
X335905000Y-226060000D03*
D10*
X337175000Y-228600000D03*
%TD*%
D19*
%TO.C,SW30*%
X358257000Y-202570200D03*
D12*
X358257000Y-217810200D03*
D10*
X365115000Y-209555200D03*
D11*
X367655000Y-204475200D03*
D12*
X370195000Y-209555200D03*
D11*
X374005000Y-207015200D03*
D10*
X375275000Y-209555200D03*
D19*
X382133000Y-202570200D03*
D12*
X382133000Y-217810200D03*
%TD*%
D10*
%TO.C,SW35*%
X136515000Y-228600000D03*
D11*
X139055000Y-223520000D03*
D12*
X141595000Y-228600000D03*
D11*
X145405000Y-226060000D03*
D10*
X146675000Y-228600000D03*
%TD*%
%TO.C,SW22*%
X203180000Y-209555200D03*
D11*
X205720000Y-204475200D03*
D12*
X208260000Y-209555200D03*
D11*
X212070000Y-207015200D03*
D10*
X213340000Y-209555200D03*
%TD*%
%TO.C,SW51*%
X114973750Y-247655200D03*
D11*
X117513750Y-242575200D03*
D12*
X120053750Y-247655200D03*
D11*
X123863750Y-245115200D03*
D10*
X125133750Y-247655200D03*
%TD*%
%TO.C,SW44*%
X307965000Y-228600000D03*
D11*
X310505000Y-223520000D03*
D12*
X313045000Y-228600000D03*
D11*
X316855000Y-226060000D03*
D10*
X318125000Y-228600000D03*
%TD*%
%TO.C,SW83*%
X348446250Y-285750000D03*
D11*
X350986250Y-280670000D03*
D12*
X353526250Y-285750000D03*
D11*
X357336250Y-283210000D03*
D10*
X358606250Y-285750000D03*
%TD*%
D19*
%TO.C,SW63*%
X355875750Y-240670200D03*
D12*
X355875750Y-255910200D03*
D10*
X362733750Y-247655200D03*
D11*
X365273750Y-242575200D03*
D12*
X367813750Y-247655200D03*
D11*
X371623750Y-245115200D03*
D10*
X372893750Y-247655200D03*
D19*
X379751750Y-240670200D03*
D12*
X379751750Y-255910200D03*
%TD*%
D10*
%TO.C,SW82*%
X324623750Y-285755200D03*
D11*
X327163750Y-280675200D03*
D12*
X329703750Y-285755200D03*
D11*
X333513750Y-283215200D03*
D10*
X334783750Y-285755200D03*
%TD*%
%TO.C,SW86*%
X422275000Y-285750000D03*
D11*
X424815000Y-280670000D03*
D12*
X427355000Y-285750000D03*
D11*
X431165000Y-283210000D03*
D10*
X432435000Y-285750000D03*
%TD*%
D20*
%TO.C,D90*%
X506730000Y-162718750D03*
D15*
X514350000Y-162718750D03*
%TD*%
D10*
%TO.C,SW60*%
X293677500Y-247650000D03*
D11*
X296217500Y-242570000D03*
D12*
X298757500Y-247650000D03*
D11*
X302567500Y-245110000D03*
D10*
X303837500Y-247650000D03*
%TD*%
%TO.C,SW53*%
X160217500Y-247655200D03*
D11*
X162757500Y-242575200D03*
D12*
X165297500Y-247655200D03*
D11*
X169107500Y-245115200D03*
D10*
X170377500Y-247655200D03*
%TD*%
%TO.C,SW70*%
X246042500Y-266705200D03*
D11*
X248582500Y-261625200D03*
D12*
X251122500Y-266705200D03*
D11*
X254932500Y-264165200D03*
D10*
X256202500Y-266705200D03*
%TD*%
%TO.C,SW36*%
X155555000Y-228605200D03*
D11*
X158095000Y-223525200D03*
D12*
X160635000Y-228605200D03*
D11*
X164445000Y-226065200D03*
D10*
X165715000Y-228605200D03*
%TD*%
%TO.C,SW43*%
X288905000Y-228605200D03*
D11*
X291445000Y-223525200D03*
D12*
X293985000Y-228605200D03*
D11*
X297795000Y-226065200D03*
D10*
X299065000Y-228605200D03*
%TD*%
%TO.C,SW68*%
X207942500Y-266705200D03*
D11*
X210482500Y-261625200D03*
D12*
X213022500Y-266705200D03*
D11*
X216832500Y-264165200D03*
D10*
X218102500Y-266705200D03*
%TD*%
%TO.C,SW25*%
X260330000Y-209555200D03*
D11*
X262870000Y-204475200D03*
D12*
X265410000Y-209555200D03*
D11*
X269220000Y-207015200D03*
D10*
X270490000Y-209555200D03*
%TD*%
%TO.C,SW69*%
X226992500Y-266705200D03*
D11*
X229532500Y-261625200D03*
D12*
X232072500Y-266705200D03*
D11*
X235882500Y-264165200D03*
D10*
X237152500Y-266705200D03*
%TD*%
D21*
%TO.C,SW88*%
X509675000Y-170656250D03*
X512675000Y-170656250D03*
%TD*%
D10*
%TO.C,SW16*%
X441305000Y-180985400D03*
D11*
X443845000Y-175905400D03*
D12*
X446385000Y-180985400D03*
D11*
X450195000Y-178445400D03*
D10*
X451465000Y-180985400D03*
%TD*%
%TO.C,SW34*%
X112692500Y-228605200D03*
D11*
X115232500Y-223525200D03*
D12*
X117772500Y-228605200D03*
D11*
X121582500Y-226065200D03*
D10*
X122852500Y-228605200D03*
%TD*%
%TO.C,SW50*%
X441315000Y-228605200D03*
D11*
X443855000Y-223525200D03*
D12*
X446395000Y-228605200D03*
D11*
X450205000Y-226065200D03*
D10*
X451475000Y-228605200D03*
%TD*%
%TO.C,SW9*%
X288915000Y-180985400D03*
D11*
X291455000Y-175905400D03*
D12*
X293995000Y-180985400D03*
D11*
X297805000Y-178445400D03*
D10*
X299075000Y-180985400D03*
%TD*%
D19*
%TO.C,SW80*%
X184453750Y-278770200D03*
D12*
X184453750Y-294010200D03*
D10*
X229373750Y-285755200D03*
D11*
X231913750Y-280675200D03*
D12*
X234453750Y-285755200D03*
D11*
X238263750Y-283215200D03*
D10*
X239533750Y-285755200D03*
D19*
X284453750Y-278770200D03*
D12*
X284453750Y-294010200D03*
%TD*%
D10*
%TO.C,SW71*%
X265092500Y-266705200D03*
D11*
X267632500Y-261625200D03*
D12*
X270172500Y-266705200D03*
D11*
X273982500Y-264165200D03*
D10*
X275252500Y-266705200D03*
%TD*%
%TO.C,SW48*%
X403225000Y-228600000D03*
D11*
X405765000Y-223520000D03*
D12*
X408305000Y-228600000D03*
D11*
X412115000Y-226060000D03*
D10*
X413385000Y-228600000D03*
%TD*%
%TO.C,SW13*%
X374640000Y-180980200D03*
D11*
X377180000Y-175900200D03*
D12*
X379720000Y-180980200D03*
D11*
X383530000Y-178440200D03*
D10*
X384800000Y-180980200D03*
%TD*%
M02*
