M48
; DRILL file KiCad 10.0.0 date 2026-04-27T22:06:33
; FORMAT={-:-/ absolute / metric / decimal}
; #@! TF.CreationDate,2026-04-27T22:06:33+10:00
; #@! TF.GenerationSoftware,Kicad,Pcbnew,10.0.0
; #@! TF.FileFunction,NonPlated,1,2,NPTH
FMAT,2
METRIC
; #@! TA.AperFunction,NonPlated,NPTH,ComponentDrill
T1C1.702
; #@! TA.AperFunction,NonPlated,NPTH,ComponentDrill
T2C3.000
; #@! TA.AperFunction,NonPlated,NPTH,ComponentDrill
T3C3.048
; #@! TA.AperFunction,NonPlated,NPTH,ComponentDrill
T4C3.988
%
G90
G05
T1
X77.629Y-217.646
X80.02Y-293.841
X82.391Y-236.696
X84.772Y-255.746
X87.789Y-217.646
X89.535Y-274.796
X90.18Y-293.841
X92.551Y-236.696
X94.932Y-255.746
X96.679Y-217.646
X99.695Y-274.796
X103.822Y-293.846
X106.204Y-236.696
X106.839Y-217.646
X110.966Y-255.746
X113.983Y-293.846
X115.729Y-217.646
X116.364Y-236.696
X120.391Y-274.796
X121.126Y-255.746
X125.264Y-236.691
X125.889Y-217.646
X127.635Y-293.846
X130.026Y-255.741
X130.551Y-274.796
X134.779Y-217.646
X135.424Y-236.691
X137.795Y-293.846
X139.541Y-274.796
X140.186Y-255.741
X144.314Y-236.691
X144.939Y-217.646
X149.066Y-255.746
X149.701Y-274.796
X153.829Y-217.646
X154.474Y-236.691
X158.491Y-274.796
X159.226Y-255.746
X163.364Y-236.691
X163.989Y-217.646
X168.126Y-255.741
X168.651Y-274.796
X173.254Y-217.651
X173.524Y-236.691
X177.541Y-274.796
X178.286Y-255.741
X182.404Y-236.855
X183.414Y-217.651
X187.166Y-255.746
X187.701Y-274.796
X191.939Y-217.641
X192.564Y-236.855
X196.591Y-274.796
X197.326Y-255.746
X199.072Y-293.846
X201.454Y-236.696
X202.099Y-217.641
X206.226Y-255.741
X206.751Y-274.796
X209.232Y-293.846
X210.979Y-217.646
X211.614Y-236.696
X215.751Y-274.791
X216.386Y-255.741
X220.504Y-236.696
X221.139Y-217.646
X225.266Y-255.746
X225.911Y-274.791
X230.029Y-217.646
X230.664Y-236.696
X234.801Y-274.791
X235.426Y-255.746
X239.554Y-236.696
X240.189Y-217.646
X244.326Y-255.741
X244.961Y-274.791
X249.079Y-217.646
X249.714Y-236.696
X253.841Y-274.796
X254.486Y-255.741
X258.504Y-236.696
X259.239Y-217.646
X263.376Y-255.741
X264.001Y-274.796
X268.139Y-217.641
X268.664Y-236.696
X270.41Y-293.846
X272.891Y-274.796
X273.536Y-255.741
X277.654Y-236.855
X278.299Y-217.641
X280.57Y-293.846
X282.426Y-255.741
X283.051Y-274.796
X287.179Y-217.641
X287.814Y-236.855
X291.951Y-274.791
X292.586Y-255.741
X294.322Y-293.846
X296.704Y-236.691
X297.339Y-217.641
X301.476Y-255.741
X302.111Y-274.791
X304.482Y-293.846
X306.129Y-217.646
X306.864Y-236.691
X311.636Y-255.741
X315.744Y-236.696
X316.289Y-217.646
X318.135Y-274.791
X325.279Y-293.841
X325.904Y-236.696
X328.295Y-274.791
X332.412Y-255.746
X335.156Y-217.646
X335.439Y-293.841
X339.566Y-236.691
X342.572Y-255.746
X344.319Y-274.796
X344.319Y-293.846
X345.316Y-217.646
X349.726Y-236.691
X354.479Y-274.796
X354.479Y-293.846
X363.369Y-217.646
X363.369Y-236.696
X363.369Y-293.846
X373.529Y-217.646
X373.529Y-236.696
X373.529Y-293.846
T2
X78.899Y-215.106
X81.29Y-291.301
X83.661Y-234.156
X85.249Y-212.566
X86.042Y-253.206
X87.64Y-288.761
X90.011Y-231.616
X90.805Y-272.256
X92.392Y-250.666
X97.155Y-269.716
X97.949Y-215.106
X104.299Y-212.566
X105.093Y-291.306
X107.474Y-234.156
X111.442Y-288.766
X112.236Y-253.206
X113.824Y-231.616
X116.999Y-215.106
X118.586Y-250.666
X121.661Y-272.256
X123.349Y-212.566
X126.534Y-234.151
X128.011Y-269.716
X128.905Y-291.306
X131.296Y-253.201
X132.884Y-231.611
X135.255Y-288.766
X136.049Y-215.106
X137.646Y-250.661
X140.811Y-272.256
X142.399Y-212.566
X145.584Y-234.151
X147.161Y-269.716
X150.336Y-253.206
X151.934Y-231.611
X155.099Y-215.106
X156.686Y-250.666
X159.761Y-272.256
X161.449Y-212.566
X164.634Y-234.151
X166.111Y-269.716
X169.396Y-253.201
X170.984Y-231.611
X174.524Y-215.111
X175.746Y-250.661
X178.811Y-272.256
X180.874Y-212.571
X183.674Y-234.315
X185.161Y-269.716
X188.436Y-253.206
X190.024Y-231.775
X193.209Y-215.101
X194.786Y-250.666
X197.861Y-272.256
X199.559Y-212.561
X200.343Y-291.306
X202.724Y-234.156
X204.211Y-269.716
X206.692Y-288.766
X207.496Y-253.201
X209.074Y-231.616
X212.249Y-215.106
X213.846Y-250.661
X217.021Y-272.251
X218.599Y-212.566
X221.774Y-234.156
X223.371Y-269.711
X226.536Y-253.206
X228.124Y-231.616
X231.299Y-215.106
X232.886Y-250.666
X236.071Y-272.251
X237.649Y-212.566
X240.824Y-234.156
X242.421Y-269.711
X245.596Y-253.201
X247.174Y-231.616
X250.349Y-215.106
X251.946Y-250.661
X255.111Y-272.256
X256.699Y-212.566
X259.774Y-234.156
X261.461Y-269.716
X264.646Y-253.201
X266.124Y-231.616
X269.409Y-215.101
X270.996Y-250.661
X271.68Y-291.306
X274.161Y-272.256
X275.759Y-212.561
X278.03Y-288.766
X278.924Y-234.315
X280.511Y-269.716
X283.696Y-253.201
X285.274Y-231.775
X288.449Y-215.101
X290.046Y-250.661
X293.221Y-272.251
X294.799Y-212.561
X295.592Y-291.306
X297.974Y-234.151
X299.571Y-269.711
X301.942Y-288.766
X302.746Y-253.201
X304.324Y-231.611
X307.399Y-215.106
X309.096Y-250.661
X313.749Y-212.566
X317.014Y-234.156
X319.405Y-272.251
X323.364Y-231.616
X325.755Y-269.711
X326.549Y-291.301
X332.899Y-288.761
X333.683Y-253.206
X336.426Y-215.106
X340.032Y-250.666
X340.836Y-234.151
X342.776Y-212.566
X345.589Y-272.256
X345.589Y-291.306
X347.186Y-231.611
X351.939Y-269.716
X351.939Y-288.766
X364.639Y-215.106
X364.639Y-234.156
X364.639Y-291.306
X370.989Y-212.566
X370.989Y-231.616
X370.989Y-288.766
T3
X82.677Y-267.811
X106.553Y-267.811
X154.153Y-286.861
X254.152Y-286.861
X325.554Y-248.761
X328.298Y-210.661
X349.43Y-248.761
X352.174Y-210.661
T4
X82.677Y-283.051
X82.709Y-217.646
X85.1Y-293.841
X87.471Y-236.696
X89.852Y-255.746
X94.615Y-274.796
X101.759Y-217.646
X106.553Y-283.051
X108.902Y-293.846
X111.284Y-236.696
X116.046Y-255.746
X120.809Y-217.646
X125.471Y-274.796
X130.344Y-236.691
X132.715Y-293.846
X135.106Y-255.741
X139.859Y-217.646
X144.621Y-274.796
X149.394Y-236.691
X154.146Y-255.746
X154.153Y-302.101
X158.909Y-217.646
X163.571Y-274.796
X168.444Y-236.691
X173.206Y-255.741
X178.334Y-217.651
X182.621Y-274.796
X187.484Y-236.855
X192.246Y-255.746
X197.019Y-217.641
X201.671Y-274.796
X204.153Y-293.846
X206.534Y-236.696
X211.306Y-255.741
X216.059Y-217.646
X220.831Y-274.791
X225.584Y-236.696
X230.346Y-255.746
X235.109Y-217.646
X239.881Y-274.791
X244.634Y-236.696
X249.406Y-255.741
X254.152Y-302.101
X254.159Y-217.646
X258.921Y-274.796
X263.584Y-236.696
X268.456Y-255.741
X273.219Y-217.641
X275.49Y-293.846
X277.971Y-274.796
X282.734Y-236.855
X287.506Y-255.741
X292.259Y-217.641
X297.031Y-274.791
X299.402Y-293.846
X301.784Y-236.691
X306.556Y-255.741
X311.209Y-217.646
X320.824Y-236.696
X323.215Y-274.791
X325.554Y-264.001
X328.298Y-225.901
X330.359Y-293.841
X337.493Y-255.746
X340.236Y-217.646
X344.646Y-236.691
X349.399Y-274.796
X349.399Y-293.846
X349.43Y-264.001
X352.174Y-225.901
X368.449Y-217.646
X368.449Y-236.696
X368.449Y-293.846
M30
