%TF.GenerationSoftware,KiCad,Pcbnew,10.0.0*%
%TF.CreationDate,2026-04-14T12:55:17+10:00*%
%TF.ProjectId,YetAnotherKeyboard,59657441-6e6f-4746-9865-724b6579626f,rev?*%
%TF.SameCoordinates,Original*%
%TF.FileFunction,Paste,Top*%
%TF.FilePolarity,Positive*%
%FSLAX46Y46*%
G04 Gerber Fmt 4.6, Leading zero omitted, Abs format (unit mm)*
G04 Created by KiCad (PCBNEW 10.0.0) date 2026-04-14 12:55:17*
%MOMM*%
%LPD*%
G01*
G04 APERTURE LIST*
G04 Aperture macros list*
%AMRoundRect*
0 Rectangle with rounded corners*
0 $1 Rounding radius*
0 $2 $3 $4 $5 $6 $7 $8 $9 X,Y pos of 4 corners*
0 Add a 4 corners polygon primitive as box body*
4,1,4,$2,$3,$4,$5,$6,$7,$8,$9,$2,$3,0*
0 Add four circle primitives for the rounded corners*
1,1,$1+$1,$2,$3*
1,1,$1+$1,$4,$5*
1,1,$1+$1,$6,$7*
1,1,$1+$1,$8,$9*
0 Add four rect primitives between the rounded corners*
20,1,$1+$1,$2,$3,$4,$5,0*
20,1,$1+$1,$4,$5,$6,$7,0*
20,1,$1+$1,$6,$7,$8,$9,0*
20,1,$1+$1,$8,$9,$2,$3,0*%
G04 Aperture macros list end*
%ADD10RoundRect,0.218750X0.218750X0.256250X-0.218750X0.256250X-0.218750X-0.256250X0.218750X-0.256250X0*%
%ADD11RoundRect,0.200000X-1.075000X-1.050000X1.075000X-1.050000X1.075000X1.050000X-1.075000X1.050000X0*%
%ADD12RoundRect,0.225000X0.375000X-0.225000X0.375000X0.225000X-0.375000X0.225000X-0.375000X-0.225000X0*%
%ADD13RoundRect,0.135000X-0.135000X-0.185000X0.135000X-0.185000X0.135000X0.185000X-0.135000X0.185000X0*%
%ADD14RoundRect,0.140000X-0.140000X-0.170000X0.140000X-0.170000X0.140000X0.170000X-0.140000X0.170000X0*%
%ADD15RoundRect,0.250000X-0.255000X-0.440000X0.255000X-0.440000X0.255000X0.440000X-0.255000X0.440000X0*%
%ADD16RoundRect,0.150000X-0.825000X-0.150000X0.825000X-0.150000X0.825000X0.150000X-0.825000X0.150000X0*%
%ADD17R,3.800000X2.200000*%
%ADD18RoundRect,0.135000X0.135000X0.185000X-0.135000X0.185000X-0.135000X-0.185000X0.135000X-0.185000X0*%
%ADD19RoundRect,0.150000X-0.150000X-0.500000X0.150000X-0.500000X0.150000X0.500000X-0.150000X0.500000X0*%
%ADD20RoundRect,0.175000X-0.350000X-0.175000X0.350000X-0.175000X0.350000X0.175000X-0.350000X0.175000X0*%
%ADD21RoundRect,0.135000X-0.185000X0.135000X-0.185000X-0.135000X0.185000X-0.135000X0.185000X0.135000X0*%
G04 APERTURE END LIST*
D10*
%TO.C,D89*%
X514287500Y-159500000D03*
X512712500Y-159500000D03*
%TD*%
D11*
%TO.C,SW89*%
X464236750Y-261773550D03*
X477163750Y-264313550D03*
%TD*%
%TO.C,SW92*%
X496203750Y-283368750D03*
X483276750Y-280828750D03*
%TD*%
%TO.C,SW91*%
X477153750Y-283368750D03*
X464226750Y-280828750D03*
%TD*%
%TO.C,SW90*%
X496213750Y-264313550D03*
X483286750Y-261773550D03*
%TD*%
D12*
%TO.C,D94*%
X497681250Y-294543750D03*
X497681250Y-291243750D03*
%TD*%
%TO.C,D93*%
X478631250Y-294543750D03*
X478631250Y-291243750D03*
%TD*%
%TO.C,D92*%
X497681250Y-275493750D03*
X497681250Y-272193750D03*
%TD*%
%TO.C,D91*%
X478631250Y-275493750D03*
X478631250Y-272193750D03*
%TD*%
D13*
%TO.C,R1*%
X509710000Y-176100000D03*
X508690000Y-176100000D03*
%TD*%
%TO.C,R2*%
X506210000Y-172600000D03*
X505190000Y-172600000D03*
%TD*%
D10*
%TO.C,D88*%
X508712500Y-159500000D03*
X510287500Y-159500000D03*
%TD*%
D11*
%TO.C,SW4*%
X196295000Y-178445400D03*
X183368000Y-175905400D03*
%TD*%
%TO.C,SW42*%
X282020000Y-226065200D03*
X269093000Y-223525200D03*
%TD*%
%TO.C,SW62*%
X343942500Y-245115200D03*
X331015500Y-242575200D03*
%TD*%
D12*
%TO.C,D85*%
X416718750Y-294543750D03*
X416718750Y-291243750D03*
%TD*%
D14*
%TO.C,C1*%
X512282500Y-227012500D03*
X513242500Y-227012500D03*
%TD*%
D11*
%TO.C,SW61*%
X324882500Y-245115200D03*
X311955500Y-242575200D03*
%TD*%
%TO.C,SW10*%
X329655000Y-178440200D03*
X316728000Y-175900200D03*
%TD*%
D12*
%TO.C,D2*%
X159543750Y-189768750D03*
X159543750Y-186468750D03*
%TD*%
%TO.C,D55*%
X211931250Y-256381250D03*
X211931250Y-253081250D03*
%TD*%
%TO.C,D3*%
X178593750Y-189768750D03*
X178593750Y-186468750D03*
%TD*%
D11*
%TO.C,SW49*%
X434440000Y-226060000D03*
X421513000Y-223520000D03*
%TD*%
D12*
%TO.C,D68*%
X221456250Y-275493750D03*
X221456250Y-272193750D03*
%TD*%
D11*
%TO.C,SW40*%
X243920000Y-226065200D03*
X230993000Y-223525200D03*
%TD*%
%TO.C,SW81*%
X312986250Y-283210000D03*
X300059250Y-280670000D03*
%TD*%
%TO.C,SW33*%
X453490000Y-207010000D03*
X440563000Y-204470000D03*
%TD*%
D12*
%TO.C,D19*%
X159543750Y-218343750D03*
X159543750Y-215043750D03*
%TD*%
D11*
%TO.C,SW7*%
X263080000Y-178445400D03*
X250153000Y-175905400D03*
%TD*%
%TO.C,SW8*%
X282130000Y-178445400D03*
X269203000Y-175905400D03*
%TD*%
D12*
%TO.C,D35*%
X150018750Y-237393750D03*
X150018750Y-234093750D03*
%TD*%
D11*
%TO.C,SW15*%
X434430000Y-178440200D03*
X421503000Y-175900200D03*
%TD*%
D12*
%TO.C,D50*%
X454818750Y-237331250D03*
X454818750Y-234031250D03*
%TD*%
D11*
%TO.C,SW37*%
X186780000Y-226060000D03*
X173853000Y-223520000D03*
%TD*%
D12*
%TO.C,D10*%
X330993750Y-189831250D03*
X330993750Y-186531250D03*
%TD*%
%TO.C,D27*%
X311943750Y-218406250D03*
X311943750Y-215106250D03*
%TD*%
D11*
%TO.C,SW56*%
X229642500Y-245110000D03*
X216715500Y-242570000D03*
%TD*%
%TO.C,SW28*%
X329645000Y-207015200D03*
X316718000Y-204475200D03*
%TD*%
%TO.C,SW21*%
X196295000Y-207015200D03*
X183368000Y-204475200D03*
%TD*%
%TO.C,SW72*%
X296317500Y-264160000D03*
X283390500Y-261620000D03*
%TD*%
D12*
%TO.C,D23*%
X235743750Y-218406250D03*
X235743750Y-215106250D03*
%TD*%
%TO.C,D18*%
X140493750Y-218343750D03*
X140493750Y-215043750D03*
%TD*%
D11*
%TO.C,SW1*%
X120105000Y-178440200D03*
X107178000Y-175900200D03*
%TD*%
D12*
%TO.C,D81*%
X316706250Y-294543750D03*
X316706250Y-291243750D03*
%TD*%
%TO.C,D83*%
X364331250Y-294543750D03*
X364331250Y-291243750D03*
%TD*%
%TO.C,D34*%
X130968750Y-237393750D03*
X130968750Y-234093750D03*
%TD*%
%TO.C,D4*%
X197643750Y-189768750D03*
X197643750Y-186468750D03*
%TD*%
D14*
%TO.C,C2*%
X500376250Y-220662500D03*
X501336250Y-220662500D03*
%TD*%
D12*
%TO.C,D57*%
X250031250Y-256443750D03*
X250031250Y-253143750D03*
%TD*%
D11*
%TO.C,SW85*%
X415380000Y-283210000D03*
X402453000Y-280670000D03*
%TD*%
D12*
%TO.C,D44*%
X321468750Y-237456250D03*
X321468750Y-234156250D03*
%TD*%
D11*
%TO.C,SW46*%
X358240000Y-226060000D03*
X345313000Y-223520000D03*
%TD*%
D12*
%TO.C,D12*%
X369093750Y-189768750D03*
X369093750Y-186468750D03*
%TD*%
D15*
%TO.C,U1*%
X493906250Y-222218750D03*
X493906250Y-223868750D03*
X495106250Y-222218750D03*
X495106250Y-223868750D03*
D16*
X492031250Y-221138750D03*
X492031250Y-222408750D03*
X492031250Y-223678750D03*
X492031250Y-224948750D03*
X496981250Y-224948750D03*
X496981250Y-223678750D03*
X496981250Y-222408750D03*
X496981250Y-221138750D03*
%TD*%
D12*
%TO.C,D21*%
X197643750Y-218406250D03*
X197643750Y-215106250D03*
%TD*%
D17*
%TO.C,A2*%
X482593750Y-159861250D03*
X482593750Y-162401250D03*
X482593750Y-164941250D03*
X482593750Y-167481250D03*
X482593750Y-170021250D03*
X482593750Y-172561250D03*
X482593750Y-175101250D03*
X482593750Y-177641250D03*
X482593750Y-180181250D03*
X482593750Y-182721250D03*
X482593750Y-185261250D03*
X482593750Y-187801250D03*
X482593750Y-190341250D03*
X482593750Y-192881250D03*
X482593750Y-195421250D03*
X482593750Y-197961250D03*
X482593750Y-200501250D03*
X482593750Y-203041250D03*
X482593750Y-205581250D03*
X482593750Y-208121250D03*
X501973750Y-159861250D03*
X501973750Y-162401250D03*
X501973750Y-164941250D03*
X501973750Y-167481250D03*
X501973750Y-170021250D03*
X501973750Y-172561250D03*
X501973750Y-175101250D03*
X501973750Y-177641250D03*
X501973750Y-180181250D03*
X501973750Y-182721250D03*
X501973750Y-185261250D03*
X501973750Y-187801250D03*
X501973750Y-190341250D03*
X501973750Y-192881250D03*
X501973750Y-195421250D03*
X501973750Y-197961250D03*
X501973750Y-200501250D03*
X501973750Y-203041250D03*
X501973750Y-205581250D03*
X501973750Y-208121250D03*
%TD*%
D11*
%TO.C,SW24*%
X253455000Y-207010000D03*
X240528000Y-204470000D03*
%TD*%
%TO.C,SW66*%
X182007500Y-264165200D03*
X169080500Y-261625200D03*
%TD*%
D12*
%TO.C,D74*%
X335756250Y-275556250D03*
X335756250Y-272256250D03*
%TD*%
D11*
%TO.C,SW65*%
X162957500Y-264165200D03*
X150030500Y-261625200D03*
%TD*%
%TO.C,SW73*%
X315357500Y-264165200D03*
X302430500Y-261625200D03*
%TD*%
%TO.C,SW12*%
X367755000Y-178440200D03*
X354828000Y-175900200D03*
%TD*%
D12*
%TO.C,D54*%
X192881250Y-256443750D03*
X192881250Y-253143750D03*
%TD*%
D11*
%TO.C,SW39*%
X224870000Y-226065200D03*
X211943000Y-223525200D03*
%TD*%
%TO.C,SW76*%
X434440000Y-264160000D03*
X421513000Y-261620000D03*
%TD*%
D12*
%TO.C,D22*%
X216693750Y-218343750D03*
X216693750Y-215043750D03*
%TD*%
%TO.C,D47*%
X388143750Y-237393750D03*
X388143750Y-234093750D03*
%TD*%
D11*
%TO.C,SW26*%
X291545000Y-207015200D03*
X278618000Y-204475200D03*
%TD*%
%TO.C,SW41*%
X262970000Y-226065200D03*
X250043000Y-223525200D03*
%TD*%
D12*
%TO.C,D13*%
X388143750Y-189831250D03*
X388143750Y-186531250D03*
%TD*%
D11*
%TO.C,SW58*%
X267732500Y-245115200D03*
X254805500Y-242575200D03*
%TD*%
%TO.C,SW87*%
X453480000Y-283215200D03*
X440553000Y-280675200D03*
%TD*%
D12*
%TO.C,D72*%
X297656250Y-275493750D03*
X297656250Y-272193750D03*
%TD*%
%TO.C,D15*%
X435768750Y-189768750D03*
X435768750Y-186468750D03*
%TD*%
%TO.C,D73*%
X316706250Y-275493750D03*
X316706250Y-272193750D03*
%TD*%
%TO.C,D69*%
X240506250Y-275493750D03*
X240506250Y-272193750D03*
%TD*%
%TO.C,D32*%
X435768750Y-218343750D03*
X435768750Y-215043750D03*
%TD*%
%TO.C,D84*%
X388143750Y-294543750D03*
X388143750Y-291243750D03*
%TD*%
%TO.C,D24*%
X254793750Y-218406250D03*
X254793750Y-215106250D03*
%TD*%
%TO.C,D36*%
X169068750Y-237456250D03*
X169068750Y-234156250D03*
%TD*%
D11*
%TO.C,SW6*%
X244030000Y-178445400D03*
X231103000Y-175905400D03*
%TD*%
%TO.C,SW38*%
X205820000Y-226065200D03*
X192893000Y-223525200D03*
%TD*%
D12*
%TO.C,D25*%
X273843750Y-218406250D03*
X273843750Y-215106250D03*
%TD*%
D11*
%TO.C,SW57*%
X248682500Y-245115200D03*
X235755500Y-242575200D03*
%TD*%
%TO.C,SW19*%
X158205000Y-207010000D03*
X145278000Y-204470000D03*
%TD*%
%TO.C,SW32*%
X434430000Y-207015200D03*
X421503000Y-204475200D03*
%TD*%
D12*
%TO.C,D1*%
X121443750Y-189768750D03*
X121443750Y-186468750D03*
%TD*%
%TO.C,D8*%
X283368750Y-189831250D03*
X283368750Y-186531250D03*
%TD*%
%TO.C,D37*%
X188118750Y-237331250D03*
X188118750Y-234031250D03*
%TD*%
%TO.C,D7*%
X264318750Y-189831250D03*
X264318750Y-186531250D03*
%TD*%
D11*
%TO.C,SW77*%
X122486250Y-283210000D03*
X109559250Y-280670000D03*
%TD*%
%TO.C,SW54*%
X191532500Y-245115200D03*
X178605500Y-242575200D03*
%TD*%
%TO.C,SW27*%
X310595000Y-207015200D03*
X297668000Y-204475200D03*
%TD*%
%TO.C,SW59*%
X286782500Y-245115200D03*
X273855500Y-242575200D03*
%TD*%
%TO.C,SW5*%
X215335000Y-178450600D03*
X202408000Y-175910600D03*
%TD*%
%TO.C,SW79*%
X170111250Y-283210000D03*
X157184250Y-280670000D03*
%TD*%
%TO.C,SW84*%
X384423750Y-283215200D03*
X371496750Y-280675200D03*
%TD*%
D12*
%TO.C,D16*%
X454818750Y-189831250D03*
X454818750Y-186531250D03*
%TD*%
%TO.C,D80*%
X292893750Y-294606250D03*
X292893750Y-291306250D03*
%TD*%
%TO.C,D53*%
X173831250Y-256443750D03*
X173831250Y-253143750D03*
%TD*%
D11*
%TO.C,SW3*%
X177245000Y-178445400D03*
X164318000Y-175905400D03*
%TD*%
D12*
%TO.C,D11*%
X350043750Y-189768750D03*
X350043750Y-186468750D03*
%TD*%
%TO.C,D28*%
X330993750Y-218343750D03*
X330993750Y-215043750D03*
%TD*%
D18*
%TO.C,R4*%
X490253750Y-222250000D03*
X489233750Y-222250000D03*
%TD*%
D12*
%TO.C,D26*%
X292893750Y-218406250D03*
X292893750Y-215106250D03*
%TD*%
%TO.C,D29*%
X350043750Y-218406250D03*
X350043750Y-215106250D03*
%TD*%
D11*
%TO.C,SW47*%
X382052500Y-226060000D03*
X369125500Y-223520000D03*
%TD*%
D12*
%TO.C,D52*%
X154781250Y-256506250D03*
X154781250Y-253206250D03*
%TD*%
D11*
%TO.C,SW67*%
X201057500Y-264165200D03*
X188130500Y-261625200D03*
%TD*%
D12*
%TO.C,D59*%
X288131250Y-256443750D03*
X288131250Y-253143750D03*
%TD*%
%TO.C,D39*%
X226218750Y-237393750D03*
X226218750Y-234093750D03*
%TD*%
D11*
%TO.C,SW18*%
X139145000Y-207015200D03*
X126218000Y-204475200D03*
%TD*%
D12*
%TO.C,D77*%
X126206250Y-294543750D03*
X126206250Y-291243750D03*
%TD*%
%TO.C,D33*%
X454818750Y-218406250D03*
X454818750Y-215106250D03*
%TD*%
D11*
%TO.C,SW31*%
X415380000Y-207015200D03*
X402453000Y-204475200D03*
%TD*%
D12*
%TO.C,D76*%
X435768750Y-275556250D03*
X435768750Y-272256250D03*
%TD*%
D11*
%TO.C,SW75*%
X370136250Y-264165200D03*
X357209250Y-261625200D03*
%TD*%
D12*
%TO.C,D65*%
X164306250Y-275493750D03*
X164306250Y-272193750D03*
%TD*%
D11*
%TO.C,SW20*%
X177245000Y-207015200D03*
X164318000Y-204475200D03*
%TD*%
D12*
%TO.C,D48*%
X416718750Y-237393750D03*
X416718750Y-234093750D03*
%TD*%
D11*
%TO.C,SW78*%
X146298750Y-283215200D03*
X133371750Y-280675200D03*
%TD*%
D12*
%TO.C,D75*%
X388143750Y-275556250D03*
X388143750Y-272256250D03*
%TD*%
%TO.C,D46*%
X359568750Y-237393750D03*
X359568750Y-234093750D03*
%TD*%
%TO.C,D86*%
X435768750Y-294543750D03*
X435768750Y-291243750D03*
%TD*%
%TO.C,D78*%
X150018750Y-294543750D03*
X150018750Y-291243750D03*
%TD*%
D11*
%TO.C,SW11*%
X348705000Y-178440200D03*
X335778000Y-175900200D03*
%TD*%
D12*
%TO.C,D43*%
X302418750Y-237393750D03*
X302418750Y-234093750D03*
%TD*%
%TO.C,D45*%
X340518750Y-237393750D03*
X340518750Y-234093750D03*
%TD*%
%TO.C,D14*%
X416718750Y-189831250D03*
X416718750Y-186531250D03*
%TD*%
D11*
%TO.C,SW17*%
X120095000Y-207015200D03*
X107168000Y-204475200D03*
%TD*%
D12*
%TO.C,D56*%
X230981250Y-256443750D03*
X230981250Y-253143750D03*
%TD*%
%TO.C,D71*%
X278606250Y-275493750D03*
X278606250Y-272193750D03*
%TD*%
D11*
%TO.C,SW55*%
X210482500Y-245115200D03*
X197555500Y-242575200D03*
%TD*%
%TO.C,SW74*%
X334407500Y-264165200D03*
X321480500Y-261625200D03*
%TD*%
%TO.C,SW2*%
X158185000Y-178450600D03*
X145258000Y-175910600D03*
%TD*%
D12*
%TO.C,D6*%
X245268750Y-189768750D03*
X245268750Y-186468750D03*
%TD*%
D11*
%TO.C,SW14*%
X415380000Y-178440200D03*
X402453000Y-175900200D03*
%TD*%
D12*
%TO.C,D63*%
X388143750Y-256443750D03*
X388143750Y-253143750D03*
%TD*%
D11*
%TO.C,SW52*%
X153432500Y-245115200D03*
X140505500Y-242575200D03*
%TD*%
D12*
%TO.C,D41*%
X264318750Y-237393750D03*
X264318750Y-234093750D03*
%TD*%
D11*
%TO.C,SW29*%
X348695000Y-207015200D03*
X335768000Y-204475200D03*
%TD*%
%TO.C,SW23*%
X234395000Y-207015200D03*
X221468000Y-204475200D03*
%TD*%
%TO.C,SW64*%
X132001250Y-264165200D03*
X119074250Y-261625200D03*
%TD*%
D12*
%TO.C,D70*%
X259556250Y-275493750D03*
X259556250Y-272193750D03*
%TD*%
%TO.C,D20*%
X178593750Y-218406250D03*
X178593750Y-215106250D03*
%TD*%
D11*
%TO.C,SW45*%
X339180000Y-226060000D03*
X326253000Y-223520000D03*
%TD*%
%TO.C,SW30*%
X377280000Y-207015200D03*
X364353000Y-204475200D03*
%TD*%
D12*
%TO.C,D66*%
X183356250Y-275493750D03*
X183356250Y-272193750D03*
%TD*%
D11*
%TO.C,SW35*%
X148680000Y-226060000D03*
X135753000Y-223520000D03*
%TD*%
%TO.C,SW22*%
X215345000Y-207015200D03*
X202418000Y-204475200D03*
%TD*%
%TO.C,SW51*%
X127138750Y-245115200D03*
X114211750Y-242575200D03*
%TD*%
%TO.C,SW44*%
X320130000Y-226060000D03*
X307203000Y-223520000D03*
%TD*%
D12*
%TO.C,D64*%
X145256250Y-275493750D03*
X145256250Y-272193750D03*
%TD*%
D11*
%TO.C,SW83*%
X360611250Y-283210000D03*
X347684250Y-280670000D03*
%TD*%
%TO.C,SW63*%
X374898750Y-245115200D03*
X361971750Y-242575200D03*
%TD*%
D12*
%TO.C,D87*%
X454818750Y-294543750D03*
X454818750Y-291243750D03*
%TD*%
D11*
%TO.C,SW82*%
X336788750Y-283215200D03*
X323861750Y-280675200D03*
%TD*%
D12*
%TO.C,D79*%
X173831250Y-294543750D03*
X173831250Y-291243750D03*
%TD*%
D11*
%TO.C,SW86*%
X434440000Y-283210000D03*
X421513000Y-280670000D03*
%TD*%
D12*
%TO.C,D9*%
X302418750Y-189768750D03*
X302418750Y-186468750D03*
%TD*%
D11*
%TO.C,SW60*%
X305842500Y-245110000D03*
X292915500Y-242570000D03*
%TD*%
%TO.C,SW53*%
X172382500Y-245115200D03*
X159455500Y-242575200D03*
%TD*%
%TO.C,SW70*%
X258207500Y-264165200D03*
X245280500Y-261625200D03*
%TD*%
D12*
%TO.C,D61*%
X326231250Y-256381250D03*
X326231250Y-253081250D03*
%TD*%
%TO.C,D49*%
X435768750Y-237393750D03*
X435768750Y-234093750D03*
%TD*%
%TO.C,D17*%
X121443750Y-218406250D03*
X121443750Y-215106250D03*
%TD*%
D11*
%TO.C,SW36*%
X167720000Y-226065200D03*
X154793000Y-223525200D03*
%TD*%
%TO.C,SW43*%
X301070000Y-226065200D03*
X288143000Y-223525200D03*
%TD*%
D12*
%TO.C,D5*%
X216693750Y-189768750D03*
X216693750Y-186468750D03*
%TD*%
%TO.C,D30*%
X388143750Y-218406250D03*
X388143750Y-215106250D03*
%TD*%
%TO.C,D51*%
X135731250Y-256443750D03*
X135731250Y-253143750D03*
%TD*%
%TO.C,D31*%
X416718750Y-218406250D03*
X416718750Y-215106250D03*
%TD*%
D11*
%TO.C,SW68*%
X220107500Y-264165200D03*
X207180500Y-261625200D03*
%TD*%
%TO.C,SW25*%
X272495000Y-207015200D03*
X259568000Y-204475200D03*
%TD*%
%TO.C,SW69*%
X239157500Y-264165200D03*
X226230500Y-261625200D03*
%TD*%
D19*
%TO.C,SW88*%
X508925000Y-168706250D03*
X511925000Y-168706250D03*
X513425000Y-168706250D03*
D20*
X507500000Y-169556250D03*
X507500000Y-171756250D03*
X514850000Y-169556250D03*
X514850000Y-171756250D03*
%TD*%
D12*
%TO.C,D38*%
X207168750Y-237393750D03*
X207168750Y-234093750D03*
%TD*%
D11*
%TO.C,SW16*%
X453470000Y-178445400D03*
X440543000Y-175905400D03*
%TD*%
D12*
%TO.C,D58*%
X269081250Y-256443750D03*
X269081250Y-253143750D03*
%TD*%
D11*
%TO.C,SW34*%
X124857500Y-226065200D03*
X111930500Y-223525200D03*
%TD*%
%TO.C,SW50*%
X453480000Y-226065200D03*
X440553000Y-223525200D03*
%TD*%
D12*
%TO.C,D60*%
X307181250Y-256381250D03*
X307181250Y-253081250D03*
%TD*%
D11*
%TO.C,SW9*%
X301080000Y-178445400D03*
X288153000Y-175905400D03*
%TD*%
%TO.C,SW80*%
X241538750Y-283215200D03*
X228611750Y-280675200D03*
%TD*%
%TO.C,SW71*%
X277257500Y-264165200D03*
X264330500Y-261625200D03*
%TD*%
D12*
%TO.C,D42*%
X283368750Y-237393750D03*
X283368750Y-234093750D03*
%TD*%
%TO.C,D62*%
X345281250Y-256443750D03*
X345281250Y-253143750D03*
%TD*%
D21*
%TO.C,R3*%
X505618750Y-220152500D03*
X505618750Y-221172500D03*
%TD*%
D12*
%TO.C,D67*%
X202406250Y-275493750D03*
X202406250Y-272193750D03*
%TD*%
%TO.C,D82*%
X340518750Y-294543750D03*
X340518750Y-291243750D03*
%TD*%
D11*
%TO.C,SW48*%
X415390000Y-226060000D03*
X402463000Y-223520000D03*
%TD*%
%TO.C,SW13*%
X386805000Y-178440200D03*
X373878000Y-175900200D03*
%TD*%
D12*
%TO.C,D40*%
X245268750Y-237393750D03*
X245268750Y-234093750D03*
%TD*%
M02*
