%TF.GenerationSoftware,KiCad,Pcbnew,10.0.0*%
%TF.CreationDate,2026-04-14T12:55:17+10:00*%
%TF.ProjectId,YetAnotherKeyboard,59657441-6e6f-4746-9865-724b6579626f,rev?*%
%TF.SameCoordinates,Original*%
%TF.FileFunction,Copper,L2,Bot*%
%TF.FilePolarity,Positive*%
%FSLAX46Y46*%
G04 Gerber Fmt 4.6, Leading zero omitted, Abs format (unit mm)*
G04 Created by KiCad (PCBNEW 10.0.0) date 2026-04-14 12:55:17*
%MOMM*%
%LPD*%
G01*
G04 APERTURE LIST*
G04 Aperture macros list*
%AMRoundRect*
0 Rectangle with rounded corners*
0 $1 Rounding radius*
0 $2 $3 $4 $5 $6 $7 $8 $9 X,Y pos of 4 corners*
0 Add a 4 corners polygon primitive as box body*
4,1,4,$2,$3,$4,$5,$6,$7,$8,$9,$2,$3,0*
0 Add four circle primitives for the rounded corners*
1,1,$1+$1,$2,$3*
1,1,$1+$1,$4,$5*
1,1,$1+$1,$6,$7*
1,1,$1+$1,$8,$9*
0 Add four rect primitives between the rounded corners*
20,1,$1+$1,$2,$3,$4,$5,0*
20,1,$1+$1,$4,$5,$6,$7,0*
20,1,$1+$1,$6,$7,$8,$9,0*
20,1,$1+$1,$8,$9,$2,$3,0*%
G04 Aperture macros list end*
%TA.AperFunction,ComponentPad*%
%ADD10C,1.700000*%
%TD*%
%TA.AperFunction,ComponentPad*%
%ADD11RoundRect,0.170000X-0.680000X-0.680000X0.680000X-0.680000X0.680000X0.680000X-0.680000X0.680000X0*%
%TD*%
%TA.AperFunction,HeatsinkPad*%
%ADD12C,0.500000*%
%TD*%
%TA.AperFunction,HeatsinkPad*%
%ADD13R,1.900000X2.900000*%
%TD*%
%TA.AperFunction,ComponentPad*%
%ADD14RoundRect,0.200000X-0.600000X-0.600000X0.600000X-0.600000X0.600000X0.600000X-0.600000X0.600000X0*%
%TD*%
%TA.AperFunction,ComponentPad*%
%ADD15C,1.600000*%
%TD*%
%TA.AperFunction,ComponentPad*%
%ADD16RoundRect,0.249999X-0.850001X-0.850001X0.850001X-0.850001X0.850001X0.850001X-0.850001X0.850001X0*%
%TD*%
%TA.AperFunction,ComponentPad*%
%ADD17C,2.200000*%
%TD*%
%TA.AperFunction,ViaPad*%
%ADD18C,0.600000*%
%TD*%
%TA.AperFunction,Conductor*%
%ADD19C,0.200000*%
%TD*%
G04 APERTURE END LIST*
D10*
%TO.P,U2,4,SDA_4*%
%TO.N,/SDA*%
X483235000Y-220625000D03*
%TO.P,U2,3,SCL_3*%
%TO.N,/SCL*%
X480695000Y-220625000D03*
%TO.P,U2,2,VCC_2*%
%TO.N,+3V3*%
X478155000Y-220625000D03*
D11*
%TO.P,U2,1,GND_1*%
%TO.N,GND*%
X475615000Y-220625000D03*
%TD*%
D12*
%TO.P,U1,9,EPAD_9*%
%TO.N,GND*%
X493806250Y-221843750D03*
X493806250Y-223043750D03*
X493806250Y-224243750D03*
D13*
X494506250Y-223043750D03*
D12*
X495206250Y-221843750D03*
X495206250Y-223043750D03*
X495206250Y-224243750D03*
%TD*%
D14*
%TO.P,A2,D1*%
%TO.N,N/C*%
X492867850Y-189691250D03*
D15*
%TO.P,A2,D2*%
X495407850Y-189691250D03*
%TO.P,A2,D3*%
X497947850Y-189691250D03*
%TD*%
D16*
%TO.P,D90,1,K_1*%
%TO.N,Net-(A2-VSYS)*%
X506730000Y-162718750D03*
D17*
%TO.P,D90,2,A_2*%
%TO.N,Net-(D90-A)*%
X514350000Y-162718750D03*
%TD*%
D18*
%TO.N,Net-(D89-A)*%
X512000000Y-160600000D03*
%TO.N,Net-(D88-A)*%
X512700000Y-165100000D03*
%TO.N,ROW6*%
X503500000Y-264500000D03*
%TO.N,GND*%
X470693750Y-211137500D03*
X485775000Y-207962500D03*
X488950000Y-196056250D03*
X505618750Y-169862500D03*
X508000000Y-173831250D03*
%TO.N,ROW5*%
X502500000Y-264500000D03*
%TO.N,COL17*%
X468312500Y-215900000D03*
%TO.N,/SCL*%
X504600000Y-236800000D03*
%TO.N,/SDA*%
X503600000Y-235900000D03*
X505300000Y-181800000D03*
%TO.N,/SCL*%
X505000000Y-179700000D03*
%TO.N,+3V3*%
X502000000Y-231200000D03*
X505600000Y-167900000D03*
%TO.N,Net-(D88-K)*%
X507800000Y-221300000D03*
X512600000Y-223600000D03*
%TO.N,Net-(D88-A)*%
X514973551Y-190903044D03*
%TO.N,Net-(D89-A)*%
X514000000Y-190000000D03*
%TO.N,COL10*%
X288131250Y-220662500D03*
X316706250Y-173037500D03*
X292985774Y-239597064D03*
X310356250Y-277018750D03*
X302418750Y-258762500D03*
X278606250Y-200818750D03*
%TO.N,COL12*%
X330993750Y-239712500D03*
X354815271Y-172293775D03*
X326231250Y-220662500D03*
X357209250Y-258784250D03*
X316718000Y-201624250D03*
%TO.N,COL3*%
X157956250Y-277812500D03*
X159543750Y-238918750D03*
X169068750Y-258762500D03*
X154781250Y-220662500D03*
X145256250Y-200818750D03*
X164318000Y-173049250D03*
%TO.N,COL5*%
X197643750Y-239712500D03*
X192893000Y-219880500D03*
X209550000Y-277812500D03*
X207168750Y-258762500D03*
X183356250Y-201612500D03*
X202406250Y-173037500D03*
%TO.N,COL13*%
X361156250Y-239712500D03*
X335756250Y-201612500D03*
X373856250Y-172243750D03*
X345281250Y-220662500D03*
X392906250Y-257175000D03*
%TO.N,COL17*%
X439737500Y-220662500D03*
X504825000Y-207168750D03*
X439618485Y-207300646D03*
%TO.N,COL15*%
X421481250Y-173037500D03*
X402463000Y-219900500D03*
X402453000Y-200840500D03*
%TO.N,GND*%
X508000000Y-192087500D03*
X502443750Y-219868750D03*
X495300000Y-227012500D03*
X506399896Y-203065065D03*
X505618750Y-165893750D03*
X485160669Y-165052279D03*
X485775000Y-200025000D03*
X507206250Y-177006250D03*
X484981250Y-177641250D03*
X484981250Y-190500000D03*
%TO.N,COL16*%
X421481250Y-219868750D03*
X421481250Y-200818750D03*
X440543000Y-173831250D03*
%TO.N,COL4*%
X223837500Y-280987500D03*
X188118750Y-258762500D03*
X183368000Y-173049250D03*
X164306250Y-201612500D03*
X178593750Y-239712500D03*
X173831250Y-220662500D03*
%TO.N,COL2*%
X140493750Y-239712500D03*
X150018750Y-258762500D03*
X145256250Y-173037500D03*
X135805522Y-220763527D03*
X126218000Y-201624250D03*
X133406664Y-277771096D03*
%TO.N,COL14*%
X402431250Y-172243750D03*
X364331250Y-201612500D03*
X369093750Y-220662500D03*
%TO.N,COL6*%
X226230500Y-258774250D03*
X245268750Y-281781250D03*
X230981250Y-173037500D03*
X211840260Y-219923860D03*
X216693750Y-238918750D03*
X202406250Y-200818750D03*
%TO.N,COL9*%
X283368750Y-258762500D03*
X288131250Y-173037500D03*
X269081250Y-220662500D03*
X273830110Y-239516119D03*
X259556250Y-201612500D03*
X293687500Y-276225000D03*
%TO.N,COL11*%
X311943750Y-239712500D03*
X390525000Y-276225000D03*
X307215735Y-219982868D03*
X321468750Y-258762500D03*
X297656250Y-201612500D03*
X335756250Y-173037500D03*
%TO.N,ROW6*%
X507206250Y-188118750D03*
%TO.N,COL7*%
X250031250Y-173037500D03*
X288131250Y-278606250D03*
X230981250Y-220662500D03*
X221456250Y-201612500D03*
X235743750Y-239712500D03*
X244475000Y-258762500D03*
%TO.N,ROW4*%
X397668750Y-253206250D03*
X507206250Y-196056250D03*
%TO.N,COL8*%
X290512500Y-277018750D03*
X264330500Y-258774250D03*
X269875000Y-173037500D03*
X254793750Y-239712500D03*
X240506250Y-201612500D03*
X250031250Y-220662500D03*
%TO.N,ROW2*%
X459600000Y-218400000D03*
X507206250Y-200818750D03*
%TO.N,ROW3*%
X507206250Y-198437500D03*
X457993750Y-234156250D03*
%TO.N,ROW5*%
X507206250Y-193675000D03*
%TO.N,ROW1*%
X458787500Y-192087500D03*
X507206250Y-205581250D03*
%TD*%
%TO.N,Net-(D89-A)*%
D19*
X512000000Y-160600000D02*
X512000000Y-160500000D01*
%TO.N,Net-(D88-A)*%
X514973551Y-190903044D02*
X514973551Y-167473551D01*
X514973551Y-167473551D02*
X512700000Y-165200000D01*
X512700000Y-165200000D02*
X512700000Y-165100000D01*
%TO.N,Net-(D89-A)*%
X512000000Y-168600000D02*
X512000000Y-160600000D01*
X514000000Y-170600000D02*
X512000000Y-168600000D01*
X514000000Y-170600000D02*
X514000000Y-190000000D01*
%TO.N,ROW6*%
X516000000Y-202304416D02*
X516000000Y-198500000D01*
X516200000Y-202504416D02*
X516000000Y-202304416D01*
X516200000Y-205852705D02*
X516200000Y-202504416D01*
X516300002Y-205952708D02*
X516200000Y-205852705D01*
X516299999Y-220076223D02*
X516300001Y-219744856D01*
X516299997Y-220076228D02*
X516299999Y-220076223D01*
X516200000Y-220176222D02*
X516299997Y-220076228D01*
X507400000Y-237600000D02*
X509551472Y-235448528D01*
X516500000Y-221534314D02*
X516200000Y-221234314D01*
X516500000Y-227070464D02*
X516578125Y-226992339D01*
X516200000Y-221234314D02*
X516200000Y-220176222D01*
X516500000Y-226085786D02*
X516500000Y-221534314D01*
X516300001Y-219744856D02*
X516299999Y-219744854D01*
X503500000Y-241500000D02*
X506000000Y-239000000D01*
X515600000Y-245048528D02*
X515600000Y-237951472D01*
X506000000Y-245048528D02*
X506351472Y-245400000D01*
X516578125Y-226992339D02*
X516578125Y-226163910D01*
X506000000Y-239000000D02*
X506000000Y-245048528D01*
X515248528Y-245400000D02*
X515600000Y-245048528D01*
X506351472Y-245400000D02*
X515248528Y-245400000D01*
X515248528Y-237600000D02*
X507400000Y-237600000D01*
X510051472Y-235448528D02*
X516500000Y-229000000D01*
X516578125Y-226163910D02*
X516500000Y-226085786D01*
X515600000Y-237951472D02*
X515248528Y-237600000D01*
X503500000Y-264500000D02*
X503500000Y-241500000D01*
X509551472Y-235448528D02*
X510051472Y-235448528D01*
X516300000Y-206119395D02*
X516300002Y-205952708D01*
X516299999Y-219744854D02*
X516300000Y-206119395D01*
X516500000Y-229000000D02*
X516500000Y-227070464D01*
X516000000Y-198500000D02*
X507206250Y-189706250D01*
X507206250Y-189706250D02*
X507206250Y-188118750D01*
%TO.N,ROW5*%
X516000000Y-221599999D02*
X515800000Y-221399999D01*
X516178125Y-226329596D02*
X516000000Y-226151471D01*
X516000000Y-226151471D02*
X516000000Y-221599999D01*
X516000000Y-227004779D02*
X516178125Y-226826654D01*
X516000000Y-228000000D02*
X516000000Y-227004779D01*
X516178125Y-226826654D02*
X516178125Y-226329596D01*
X515800000Y-202670102D02*
X515500000Y-202370100D01*
X515500000Y-202370100D02*
X515500000Y-201968750D01*
X506400000Y-237600000D02*
X516000000Y-228000000D01*
X506351472Y-237600000D02*
X506400000Y-237600000D01*
X506000000Y-237951472D02*
X506351472Y-237600000D01*
X515800000Y-221399999D02*
X515800000Y-220341903D01*
X515800000Y-206018388D02*
X515800000Y-202670102D01*
X506000000Y-238000000D02*
X506000000Y-237951472D01*
X502500000Y-241500000D02*
X506000000Y-238000000D01*
X502500000Y-264500000D02*
X502500000Y-241500000D01*
X515800000Y-220341903D02*
X515799998Y-220341901D01*
X515799998Y-220341901D02*
X515800000Y-220010535D01*
X515800000Y-220010535D02*
X515899999Y-219910538D01*
X515899999Y-219910538D02*
X515900000Y-206285077D01*
X515900000Y-206285077D02*
X515899998Y-206285075D01*
X515899998Y-206285075D02*
X515900000Y-206118390D01*
X515900000Y-206118390D02*
X515800000Y-206018388D01*
X515500000Y-201968750D02*
X507206250Y-193675000D01*
%TO.N,/SCL*%
X505000000Y-179700000D02*
X505900000Y-180600000D01*
X515500000Y-219744850D02*
X515400000Y-219844849D01*
X515500000Y-221665686D02*
X515500000Y-225800000D01*
X505900000Y-180600000D02*
X505900000Y-193335785D01*
X515400000Y-206184072D02*
X515500000Y-206284073D01*
X515400000Y-221565686D02*
X515500000Y-221665686D01*
X505900000Y-193335785D02*
X515400000Y-202835786D01*
X515400000Y-202835786D02*
X515400000Y-206184072D01*
X515500000Y-206284073D02*
X515500000Y-219744850D01*
X515400000Y-219844849D02*
X515400000Y-221565686D01*
X515500000Y-225800000D02*
X504600000Y-236700000D01*
%TO.N,/SDA*%
X503600000Y-235900000D02*
X503700000Y-235900000D01*
X503700000Y-235900000D02*
X515000000Y-224600000D01*
X515000000Y-224600000D02*
X515000000Y-219679164D01*
X515000000Y-219679164D02*
X515100000Y-219579164D01*
X515000000Y-206349759D02*
X515000000Y-203001471D01*
X515100000Y-219579164D02*
X515100000Y-206449758D01*
X515000000Y-203001471D02*
X505300000Y-193301471D01*
X515100000Y-206449758D02*
X515000000Y-206349759D01*
X505300000Y-193301471D02*
X505300000Y-181800000D01*
%TO.N,ROW4*%
X507206250Y-196056250D02*
X514500000Y-203350000D01*
X514500000Y-223453186D02*
X484746936Y-253206250D01*
X514500000Y-203350000D02*
X514500000Y-206415444D01*
X514700000Y-219413479D02*
X514500000Y-219613478D01*
X514500000Y-206415444D02*
X514700000Y-206615444D01*
X514700000Y-206615444D02*
X514700000Y-219413479D01*
X514500000Y-219613478D02*
X514500000Y-223453186D01*
X484746936Y-253206250D02*
X397668750Y-253206250D01*
%TO.N,ROW3*%
X507206250Y-198437500D02*
X514000000Y-205231250D01*
X514000000Y-205231250D02*
X514000000Y-206481128D01*
X514000000Y-206481128D02*
X514300000Y-206781129D01*
X514300000Y-206781129D02*
X514300000Y-219247793D01*
X503231250Y-234156250D02*
X457993750Y-234156250D01*
X514300000Y-219247793D02*
X514000000Y-219547793D01*
X514000000Y-219547793D02*
X514000000Y-223387500D01*
X514000000Y-223387500D02*
X503231250Y-234156250D01*
%TO.N,+3V3*%
X502000000Y-231200000D02*
X502000000Y-226251471D01*
X513500000Y-206263971D02*
X499900000Y-192663971D01*
X502000000Y-226251471D02*
X507551471Y-220700000D01*
X513500000Y-206546814D02*
X513500000Y-206263971D01*
X507551471Y-220700000D02*
X512282108Y-220700000D01*
X512282108Y-220700000D02*
X513900000Y-219082107D01*
X513900000Y-219082107D02*
X513900000Y-206946814D01*
X499900000Y-192663971D02*
X499900000Y-173600000D01*
X513900000Y-206946814D02*
X513500000Y-206546814D01*
X499900000Y-173600000D02*
X505600000Y-167900000D01*
%TO.N,ROW2*%
X459600000Y-218400000D02*
X465256250Y-218400000D01*
X465256250Y-218400000D02*
X465947500Y-219091250D01*
X465947500Y-219091250D02*
X513325172Y-219091250D01*
X513500000Y-218916422D02*
X513500000Y-207112500D01*
X513325172Y-219091250D02*
X513500000Y-218916422D01*
X513500000Y-207112500D02*
X507206250Y-200818750D01*
%TO.N,GND*%
X470693750Y-211137500D02*
X470693750Y-208756250D01*
X470693750Y-208756250D02*
X471487500Y-207962500D01*
X471487500Y-207962500D02*
X485775000Y-207962500D01*
%TO.N,COL17*%
X468312500Y-208838971D02*
X468312500Y-215900000D01*
X476260221Y-200891250D02*
X468312500Y-208838971D01*
X499425172Y-200891250D02*
X476260221Y-200891250D01*
%TO.N,Net-(D88-K)*%
X510100000Y-223600000D02*
X507800000Y-221300000D01*
X512600000Y-223600000D02*
X510100000Y-223600000D01*
%TO.N,COL10*%
X288131250Y-220662500D02*
X282116100Y-214647350D01*
X302418750Y-258762500D02*
X292100000Y-248443750D01*
X290512500Y-237123790D02*
X290512500Y-225208995D01*
X316706250Y-173037500D02*
X288925000Y-200818750D01*
X278606250Y-203993750D02*
X278606250Y-200818750D01*
X292100000Y-240482838D02*
X292985774Y-239597064D01*
X305593750Y-264102745D02*
X302418750Y-260927745D01*
X288131250Y-222827745D02*
X288131250Y-220662500D01*
X282116100Y-207503600D02*
X278606250Y-203993750D01*
X310356250Y-277018750D02*
X305593750Y-272256250D01*
X290512500Y-225208995D02*
X288131250Y-222827745D01*
X302418750Y-260927745D02*
X302418750Y-258762500D01*
X288925000Y-200818750D02*
X278606250Y-200818750D01*
X282116100Y-214647350D02*
X282116100Y-207503600D01*
X292985774Y-239597064D02*
X290512500Y-237123790D01*
X292100000Y-248443750D02*
X292100000Y-240482838D01*
X305593750Y-272256250D02*
X305593750Y-264102745D01*
%TO.N,COL12*%
X350363275Y-257846200D02*
X336942275Y-244425200D01*
X327754279Y-201624250D02*
X354815271Y-174563258D01*
X354815271Y-174563258D02*
X354815271Y-172293775D01*
X336942275Y-244425200D02*
X333551205Y-244425200D01*
X316718000Y-201624250D02*
X327754279Y-201624250D01*
X352827536Y-258784250D02*
X351889486Y-257846200D01*
X351889486Y-257846200D02*
X350363275Y-257846200D01*
X357209250Y-258784250D02*
X352827536Y-258784250D01*
X326231250Y-216608121D02*
X316718000Y-207094871D01*
X330993750Y-239712500D02*
X325814100Y-234532850D01*
X325814100Y-234532850D02*
X325814100Y-221079650D01*
X316718000Y-207094871D02*
X316718000Y-201624250D01*
X333551205Y-244425200D02*
X330993750Y-241867745D01*
X326231250Y-220662500D02*
X326231250Y-216608121D01*
X330993750Y-241867745D02*
X330993750Y-239712500D01*
X325814100Y-221079650D02*
X326231250Y-220662500D01*
%TO.N,COL3*%
X154781250Y-222827745D02*
X154781250Y-220662500D01*
X169068750Y-258762500D02*
X169068750Y-248111675D01*
X163512500Y-173854750D02*
X164318000Y-173049250D01*
X159543750Y-238918750D02*
X158291100Y-237666100D01*
X163512500Y-182562500D02*
X163512500Y-173854750D01*
X162153400Y-265677850D02*
X169068750Y-258762500D01*
X145256250Y-200818750D02*
X163512500Y-182562500D01*
X154781250Y-220662500D02*
X148431250Y-214312500D01*
X148431250Y-214312500D02*
X148431250Y-207235045D01*
X161717345Y-238918750D02*
X159543750Y-238918750D01*
X148431250Y-207235045D02*
X145256250Y-204060045D01*
X164607500Y-243650425D02*
X164607500Y-241808905D01*
X169068750Y-248111675D02*
X164607500Y-243650425D01*
X157956250Y-277812500D02*
X162153400Y-273615350D01*
X164607500Y-241808905D02*
X161717345Y-238918750D01*
X162153400Y-273615350D02*
X162153400Y-265677850D01*
X145256250Y-204060045D02*
X145256250Y-200818750D01*
X158291100Y-237666100D02*
X158291100Y-226337595D01*
X158291100Y-226337595D02*
X154781250Y-222827745D01*
%TO.N,COL5*%
X195490900Y-179952850D02*
X202406250Y-173037500D01*
X183356250Y-201612500D02*
X195490900Y-189477850D01*
X192893000Y-220662500D02*
X192893000Y-219880500D01*
X192893000Y-222839495D02*
X192893000Y-220662500D01*
X201053600Y-252647350D02*
X201053600Y-245387595D01*
X201053600Y-245387595D02*
X197643750Y-241977745D01*
X196056250Y-238125000D02*
X196056250Y-226002745D01*
X183356250Y-203777745D02*
X183356250Y-201612500D01*
X196056250Y-226002745D02*
X192893000Y-222839495D01*
X209550000Y-277812500D02*
X209550000Y-266614371D01*
X207168750Y-258762500D02*
X201053600Y-252647350D01*
X195490900Y-189477850D02*
X195490900Y-179952850D01*
X185903705Y-213673205D02*
X185903705Y-206325200D01*
X209550000Y-266614371D02*
X207168750Y-264233121D01*
X207168750Y-264233121D02*
X207168750Y-258762500D01*
X185903705Y-206325200D02*
X183356250Y-203777745D01*
X197643750Y-241977745D02*
X197643750Y-239712500D01*
X197643750Y-239712500D02*
X196056250Y-238125000D01*
X192893000Y-220662500D02*
X185903705Y-213673205D01*
%TO.N,COL13*%
X353115000Y-226826295D02*
X353115000Y-225403705D01*
X346075000Y-220662500D02*
X346075000Y-217401871D01*
X348373795Y-220662500D02*
X346075000Y-220662500D01*
X354198705Y-232754955D02*
X354198705Y-227910000D01*
X392906250Y-257175000D02*
X375443750Y-239712500D01*
X346075000Y-220662500D02*
X345281250Y-220662500D01*
X346075000Y-217401871D02*
X335756250Y-207083121D01*
X346816029Y-201612500D02*
X373856250Y-174572279D01*
X373856250Y-174572279D02*
X373856250Y-172243750D01*
X335756250Y-207083121D02*
X335756250Y-201612500D01*
X353115000Y-225403705D02*
X348373795Y-220662500D01*
X375443750Y-239712500D02*
X361156250Y-239712500D01*
X354198705Y-227910000D02*
X353115000Y-226826295D01*
X361156250Y-239712500D02*
X354198705Y-232754955D01*
X335756250Y-201612500D02*
X346816029Y-201612500D01*
%TO.N,COL17*%
X443650649Y-207300646D02*
X439618485Y-207300646D01*
X439737500Y-207419661D02*
X439618485Y-207300646D01*
X439737500Y-220662500D02*
X439737500Y-207419661D01*
X504825000Y-206291078D02*
X499425172Y-200891250D01*
X499425172Y-200891250D02*
X450060045Y-200891250D01*
X504825000Y-207168750D02*
X504825000Y-206291078D01*
X450060045Y-200891250D02*
X443650649Y-207300646D01*
%TO.N,COL15*%
X402463000Y-219900500D02*
X402014100Y-219451600D01*
X414575900Y-188717600D02*
X414575900Y-179942850D01*
X402014100Y-219451600D02*
X402014100Y-201279400D01*
X402453000Y-200840500D02*
X414575900Y-188717600D01*
X402014100Y-201279400D02*
X402453000Y-200840500D01*
X414575900Y-179942850D02*
X421481250Y-173037500D01*
%TO.N,COL16*%
X421064100Y-201235900D02*
X421481250Y-200818750D01*
X440543000Y-173831250D02*
X439737500Y-173831250D01*
X433941405Y-179627345D02*
X433941405Y-188358595D01*
X421481250Y-219868750D02*
X421064100Y-219451600D01*
X439737500Y-173831250D02*
X433941405Y-179627345D01*
X421064100Y-219451600D02*
X421064100Y-201235900D01*
X433941405Y-188358595D02*
X421481250Y-200818750D01*
%TO.N,COL4*%
X176440900Y-179976350D02*
X183368000Y-173049250D01*
X163512500Y-210343750D02*
X163512500Y-202406250D01*
X178593750Y-241877745D02*
X178593750Y-239712500D01*
X173831250Y-220662500D02*
X163512500Y-210343750D01*
X173831250Y-222812545D02*
X173831250Y-220662500D01*
X188118750Y-264233121D02*
X188118750Y-258762500D01*
X223837500Y-280987500D02*
X204873129Y-280987500D01*
X164306250Y-201612500D02*
X176440900Y-189477850D01*
X181768750Y-252412500D02*
X181768750Y-245052745D01*
X177351100Y-226332395D02*
X173831250Y-222812545D01*
X181768750Y-245052745D02*
X178593750Y-241877745D01*
X178593750Y-239712500D02*
X177351100Y-238469850D01*
X188118750Y-258762500D02*
X181768750Y-252412500D01*
X177351100Y-238469850D02*
X177351100Y-226332395D01*
X176440900Y-189477850D02*
X176440900Y-179976350D01*
X163512500Y-202406250D02*
X164306250Y-201612500D01*
X204873129Y-280987500D02*
X188118750Y-264233121D01*
%TO.N,COL2*%
X138112500Y-225193795D02*
X135805522Y-222886817D01*
X126218000Y-192075750D02*
X145256250Y-173037500D01*
X135805522Y-220763527D02*
X135805522Y-216682393D01*
X150018750Y-258762500D02*
X144003600Y-252747350D01*
X150018750Y-265331450D02*
X137579104Y-277771096D01*
X137579104Y-277771096D02*
X133406664Y-277771096D01*
X140493750Y-240506250D02*
X140493750Y-239712500D01*
X138112500Y-238125000D02*
X138112500Y-225193795D01*
X150018750Y-258762500D02*
X150018750Y-265331450D01*
X135805522Y-222886817D02*
X135805522Y-220763527D01*
X140493750Y-240506250D02*
X138112500Y-238125000D01*
X126218000Y-201624250D02*
X126218000Y-192075750D01*
X126218000Y-207094871D02*
X126218000Y-201624250D01*
X144003600Y-252747350D02*
X144003600Y-245387595D01*
X140493750Y-241877745D02*
X140493750Y-240506250D01*
X144003600Y-245387595D02*
X140493750Y-241877745D01*
X135805522Y-216682393D02*
X126218000Y-207094871D01*
%TO.N,COL14*%
X369093750Y-220662500D02*
X363537500Y-215106250D01*
X363537500Y-215106250D02*
X363537500Y-202406250D01*
X364331250Y-201612500D02*
X373062500Y-201612500D01*
X373062500Y-201612500D02*
X402431250Y-172243750D01*
X363537500Y-202406250D02*
X364331250Y-201612500D01*
%TO.N,COL6*%
X220213600Y-252757350D02*
X220213600Y-245382395D01*
X215441100Y-226337595D02*
X211840260Y-222736755D01*
X202406250Y-200818750D02*
X203200000Y-200818750D01*
X203200000Y-200818750D02*
X230981250Y-173037500D01*
X245268750Y-281781250D02*
X243833775Y-281781250D01*
X202406250Y-203777745D02*
X202406250Y-200818750D01*
X220213600Y-245382395D02*
X216693750Y-241862545D01*
X215441100Y-237666100D02*
X215441100Y-226337595D01*
X205916100Y-207287595D02*
X202406250Y-203777745D01*
X216693750Y-238918750D02*
X215441100Y-237666100D01*
X243833775Y-281781250D02*
X226230500Y-264177975D01*
X226230500Y-264177975D02*
X226230500Y-258774250D01*
X216693750Y-241862545D02*
X216693750Y-238918750D01*
X205916100Y-213999700D02*
X205916100Y-207287595D01*
X211840260Y-222736755D02*
X211840260Y-219923860D01*
X211840260Y-219923860D02*
X205916100Y-213999700D01*
X226230500Y-258774250D02*
X220213600Y-252757350D01*
%TO.N,COL9*%
X268287500Y-221456250D02*
X269081250Y-220662500D01*
X283368750Y-254708121D02*
X273830110Y-245169481D01*
X283368750Y-258762500D02*
X283368750Y-254708121D01*
X259556250Y-201612500D02*
X261196229Y-201612500D01*
X261196229Y-201612500D02*
X288131250Y-174677479D01*
X283368750Y-264217921D02*
X283368750Y-258762500D01*
X273830110Y-239516119D02*
X268287500Y-233973509D01*
X263066100Y-214647350D02*
X263066100Y-207287595D01*
X259556250Y-203777745D02*
X259556250Y-201612500D01*
X263066100Y-207287595D02*
X259556250Y-203777745D01*
X293687500Y-276225000D02*
X293687500Y-274536671D01*
X293687500Y-274536671D02*
X283368750Y-264217921D01*
X273830110Y-245169481D02*
X273830110Y-239516119D01*
X288131250Y-174677479D02*
X288131250Y-173037500D01*
X268287500Y-233973509D02*
X268287500Y-221456250D01*
X269081250Y-220662500D02*
X263066100Y-214647350D01*
%TO.N,COL11*%
X307215735Y-222847030D02*
X307215735Y-219982868D01*
X314491205Y-244425200D02*
X311943750Y-241877745D01*
X327407275Y-263475200D02*
X324016205Y-263475200D01*
X307215735Y-219982868D02*
X300037500Y-212804633D01*
X297656250Y-202406250D02*
X307922279Y-202406250D01*
X335756250Y-174572279D02*
X335756250Y-173037500D01*
X307922279Y-202406250D02*
X335756250Y-174572279D01*
X321468750Y-258762500D02*
X314491205Y-251784955D01*
X310701100Y-238469850D02*
X310701100Y-226332395D01*
X310701100Y-226332395D02*
X307215735Y-222847030D01*
X321468750Y-260927745D02*
X321468750Y-258762500D01*
X297656250Y-202406250D02*
X297656250Y-201612500D01*
X297656250Y-203777745D02*
X297656250Y-202406250D01*
X390525000Y-276225000D02*
X386556250Y-272256250D01*
X324016205Y-263475200D02*
X321468750Y-260927745D01*
X300037500Y-206158995D02*
X297656250Y-203777745D01*
X336188325Y-272256250D02*
X327407275Y-263475200D01*
X314491205Y-251784955D02*
X314491205Y-244425200D01*
X311943750Y-241877745D02*
X311943750Y-239712500D01*
X311943750Y-239712500D02*
X310701100Y-238469850D01*
X386556250Y-272256250D02*
X336188325Y-272256250D01*
X300037500Y-212804633D02*
X300037500Y-206158995D01*
%TO.N,COL7*%
X234491100Y-238459850D02*
X234491100Y-226337595D01*
X230981250Y-222827745D02*
X230981250Y-220662500D01*
X234491100Y-226337595D02*
X230981250Y-222827745D01*
X244475000Y-263439371D02*
X244475000Y-258762500D01*
X223096229Y-201612500D02*
X250031250Y-174677479D01*
X224966100Y-207287595D02*
X221456250Y-203777745D01*
X230981250Y-220662500D02*
X224966100Y-214647350D01*
X250031250Y-174677479D02*
X250031250Y-173037500D01*
X244475000Y-258762500D02*
X239253600Y-253541100D01*
X235743750Y-239712500D02*
X234491100Y-238459850D01*
X224966100Y-214647350D02*
X224966100Y-207287595D01*
X288131250Y-278606250D02*
X286421200Y-276896200D01*
X257931829Y-276896200D02*
X244475000Y-263439371D01*
X239253600Y-245387595D02*
X235743750Y-241877745D01*
X235743750Y-241877745D02*
X235743750Y-239712500D01*
X221456250Y-203777745D02*
X221456250Y-201612500D01*
X239253600Y-253541100D02*
X239253600Y-245387595D01*
X286421200Y-276896200D02*
X257931829Y-276896200D01*
X221456250Y-201612500D02*
X223096229Y-201612500D01*
%TO.N,COL8*%
X272268000Y-258774250D02*
X264330500Y-258774250D01*
X264330500Y-258774250D02*
X258303600Y-252747350D01*
X269875000Y-173883729D02*
X269875000Y-173037500D01*
X249237500Y-234156250D02*
X249237500Y-221456250D01*
X239712500Y-202406250D02*
X240506250Y-201612500D01*
X250031250Y-220662500D02*
X239712500Y-210343750D01*
X249237500Y-221456250D02*
X250031250Y-220662500D01*
X258303600Y-252747350D02*
X258303600Y-245387595D01*
X239712500Y-210343750D02*
X239712500Y-202406250D01*
X254793750Y-239712500D02*
X249237500Y-234156250D01*
X290512500Y-277018750D02*
X272268000Y-258774250D01*
X242146229Y-201612500D02*
X269875000Y-173883729D01*
X240506250Y-201612500D02*
X242146229Y-201612500D01*
X258303600Y-245387595D02*
X254793750Y-241877745D01*
X254793750Y-241877745D02*
X254793750Y-239712500D01*
%TO.N,ROW1*%
X493712500Y-192087500D02*
X458787500Y-192087500D01*
X507206250Y-205581250D02*
X493712500Y-192087500D01*
%TD*%
%TA.AperFunction,Conductor*%
%TO.N,GND*%
G36*
X474528221Y-201496771D02*
G01*
X474539074Y-201499957D01*
X474597855Y-201537727D01*
X474626884Y-201601281D01*
X474616945Y-201670440D01*
X474616941Y-201670449D01*
X474613756Y-201677423D01*
X474588643Y-201713591D01*
X471231278Y-205070957D01*
X467943786Y-208358448D01*
X467831981Y-208470252D01*
X467831979Y-208470254D01*
X467785924Y-208550027D01*
X467785922Y-208550031D01*
X467761085Y-208593046D01*
X467759114Y-208595615D01*
X467752687Y-208607623D01*
X467751890Y-208611037D01*
X467711999Y-208759914D01*
X467711999Y-208930371D01*
X467712000Y-208930422D01*
X467712000Y-215302404D01*
X467706976Y-215337341D01*
X467697636Y-215369148D01*
X467681762Y-215403102D01*
X467603113Y-215520807D01*
X467603103Y-215520824D01*
X467603098Y-215520833D01*
X467542764Y-215666496D01*
X467542757Y-215666527D01*
X467512000Y-215821150D01*
X467512000Y-215821153D01*
X467512000Y-215978846D01*
X467512000Y-215978848D01*
X467511999Y-215978848D01*
X467542757Y-216133471D01*
X467542764Y-216133502D01*
X467603098Y-216279165D01*
X467603103Y-216279174D01*
X467603113Y-216279191D01*
X467690711Y-216410290D01*
X467690712Y-216410291D01*
X467690717Y-216410297D01*
X467802201Y-216521781D01*
X467802207Y-216521786D01*
X467802211Y-216521789D01*
X467933314Y-216609390D01*
X467933327Y-216609397D01*
X468078998Y-216669735D01*
X468079003Y-216669737D01*
X468233653Y-216700499D01*
X468233656Y-216700500D01*
X468233658Y-216700500D01*
X468391344Y-216700500D01*
X468391345Y-216700499D01*
X468545997Y-216669737D01*
X468691679Y-216609394D01*
X468822789Y-216521789D01*
X468934289Y-216410289D01*
X469021894Y-216279179D01*
X469082237Y-216133497D01*
X469113000Y-215978842D01*
X469113000Y-215821158D01*
X469113000Y-215821155D01*
X469113000Y-215820973D01*
X469112565Y-215818972D01*
X469082897Y-215669824D01*
X469082494Y-215667467D01*
X469082238Y-215666508D01*
X469082237Y-215666506D01*
X469082237Y-215666503D01*
X469082235Y-215666498D01*
X469021897Y-215520827D01*
X469021890Y-215520814D01*
X469021879Y-215520797D01*
X468943804Y-215403949D01*
X468928571Y-215372111D01*
X468918665Y-215340474D01*
X468913000Y-215303422D01*
X468913000Y-209156897D01*
X468918022Y-209121964D01*
X468925434Y-209096719D01*
X468956728Y-209043977D01*
X476460032Y-201540673D01*
X476488282Y-201519525D01*
X476511374Y-201506917D01*
X476570799Y-201491750D01*
X485059750Y-201491750D01*
X485126789Y-201511435D01*
X485172544Y-201564239D01*
X485183750Y-201615750D01*
X485183750Y-205331145D01*
X489610981Y-208769314D01*
X489651856Y-208825980D01*
X489655605Y-208895749D01*
X489621040Y-208956470D01*
X489559133Y-208988864D01*
X489534925Y-208991250D01*
X471283750Y-208991250D01*
X471283750Y-218366750D01*
X471264065Y-218433789D01*
X471211261Y-218479544D01*
X471159750Y-218490750D01*
X466265427Y-218490750D01*
X466230491Y-218485727D01*
X466205249Y-218478315D01*
X466152504Y-218447019D01*
X465748178Y-218042693D01*
X465748169Y-218042683D01*
X465726293Y-218020807D01*
X465624967Y-217919481D01*
X465624966Y-217919480D01*
X465556964Y-217880220D01*
X465554903Y-217878920D01*
X465550739Y-217874197D01*
X465545680Y-217869798D01*
X465523092Y-217860663D01*
X465488036Y-217840423D01*
X465449853Y-217830192D01*
X465335307Y-217799499D01*
X465335304Y-217799499D01*
X465167693Y-217799499D01*
X465167630Y-217799500D01*
X460197596Y-217799500D01*
X460162661Y-217794477D01*
X460130852Y-217785137D01*
X460096898Y-217769263D01*
X459979185Y-217690609D01*
X459979172Y-217690602D01*
X459979165Y-217690598D01*
X459833502Y-217630264D01*
X459833471Y-217630257D01*
X459678847Y-217599500D01*
X459678845Y-217599500D01*
X459678842Y-217599500D01*
X459521158Y-217599500D01*
X459521155Y-217599500D01*
X459521153Y-217599500D01*
X459366527Y-217630257D01*
X459366496Y-217630264D01*
X459220833Y-217690598D01*
X459220824Y-217690603D01*
X459220807Y-217690613D01*
X459089708Y-217778211D01*
X459089707Y-217778212D01*
X459089701Y-217778217D01*
X458978217Y-217889701D01*
X458978212Y-217889707D01*
X458978211Y-217889708D01*
X458890613Y-218020807D01*
X458890603Y-218020824D01*
X458890598Y-218020833D01*
X458830264Y-218166496D01*
X458830257Y-218166527D01*
X458799500Y-218321150D01*
X458799500Y-218321153D01*
X458799500Y-218478846D01*
X458799500Y-218478848D01*
X458799499Y-218478848D01*
X458830257Y-218633471D01*
X458830264Y-218633502D01*
X458890598Y-218779165D01*
X458890603Y-218779174D01*
X458890613Y-218779191D01*
X458978211Y-218910290D01*
X458978212Y-218910291D01*
X458978217Y-218910297D01*
X459089701Y-219021781D01*
X459089707Y-219021786D01*
X459089711Y-219021789D01*
X459220814Y-219109390D01*
X459220827Y-219109397D01*
X459366498Y-219169735D01*
X459366503Y-219169737D01*
X459521153Y-219200499D01*
X459521156Y-219200500D01*
X459521158Y-219200500D01*
X459678844Y-219200500D01*
X459678845Y-219200499D01*
X459833497Y-219169737D01*
X459979179Y-219109394D01*
X459979185Y-219109390D01*
X460096055Y-219031299D01*
X460127885Y-219016071D01*
X460147574Y-219009906D01*
X460159529Y-219006164D01*
X460196578Y-219000500D01*
X464938323Y-219000500D01*
X464973255Y-219005521D01*
X464998499Y-219012934D01*
X465051245Y-219044230D01*
X465461585Y-219454570D01*
X465461606Y-219454592D01*
X465462649Y-219455635D01*
X465466979Y-219459965D01*
X465466980Y-219459966D01*
X465578784Y-219571770D01*
X465665595Y-219621889D01*
X465665597Y-219621891D01*
X465703646Y-219643858D01*
X465703649Y-219643861D01*
X465703650Y-219643861D01*
X465715711Y-219650825D01*
X465715712Y-219650825D01*
X465715715Y-219650827D01*
X465868443Y-219691750D01*
X474129483Y-219691750D01*
X474164417Y-219696773D01*
X474178752Y-219700982D01*
X474237530Y-219738755D01*
X474266054Y-219799119D01*
X474268084Y-219811026D01*
X474269339Y-219843087D01*
X474265000Y-219890838D01*
X474265000Y-219890847D01*
X474265000Y-220375000D01*
X475002750Y-220375000D01*
X475069789Y-220394685D01*
X475115544Y-220447489D01*
X475125488Y-220516647D01*
X475122524Y-220531095D01*
X475115000Y-220559171D01*
X475115000Y-220690828D01*
X475122524Y-220718905D01*
X475120863Y-220788755D01*
X475081701Y-220846618D01*
X475017473Y-220874123D01*
X475002750Y-220875000D01*
X474265001Y-220875000D01*
X474265001Y-221359171D01*
X474271130Y-221426648D01*
X474271132Y-221426655D01*
X474319531Y-221581971D01*
X474319541Y-221582001D01*
X474403703Y-221721223D01*
X474403712Y-221721236D01*
X474403717Y-221721242D01*
X474518756Y-221836281D01*
X474518762Y-221836286D01*
X474518761Y-221836286D01*
X474518775Y-221836295D01*
X474657997Y-221920457D01*
X474657998Y-221920457D01*
X474658001Y-221920459D01*
X474658007Y-221920461D01*
X474813337Y-221968864D01*
X474813344Y-221968865D01*
X474880848Y-221974999D01*
X475364999Y-221974999D01*
X475365000Y-221974998D01*
X475365000Y-221237250D01*
X475384685Y-221170211D01*
X475437489Y-221124456D01*
X475506647Y-221114512D01*
X475521093Y-221117475D01*
X475549174Y-221125000D01*
X475680825Y-221125000D01*
X475680826Y-221125000D01*
X475708905Y-221117476D01*
X475778755Y-221119137D01*
X475836618Y-221158299D01*
X475864123Y-221222527D01*
X475865000Y-221237250D01*
X475865000Y-221974999D01*
X476349161Y-221974999D01*
X476349167Y-221974999D01*
X476376150Y-221972546D01*
X476416651Y-221968867D01*
X476416658Y-221968865D01*
X476571989Y-221920462D01*
X476571998Y-221920459D01*
X476711233Y-221836289D01*
X476711237Y-221836286D01*
X476826286Y-221721237D01*
X476826289Y-221721233D01*
X476910459Y-221581998D01*
X476910460Y-221581995D01*
X476913418Y-221572500D01*
X476928603Y-221540647D01*
X476936301Y-221529091D01*
X476989846Y-221484213D01*
X477059158Y-221475407D01*
X477059159Y-221475407D01*
X477062067Y-221475874D01*
X477113963Y-221497036D01*
X477116155Y-221498584D01*
X477132272Y-221512168D01*
X477275216Y-221655112D01*
X477447169Y-221780042D01*
X477447200Y-221780060D01*
X477447442Y-221780182D01*
X477636588Y-221876557D01*
X477838757Y-221942246D01*
X478048713Y-221975500D01*
X478048714Y-221975500D01*
X478261286Y-221975500D01*
X478261287Y-221975500D01*
X478471243Y-221942246D01*
X478673412Y-221876557D01*
X478862816Y-221780051D01*
X478891826Y-221758974D01*
X479034786Y-221655109D01*
X479034787Y-221655107D01*
X479034790Y-221655104D01*
X479034792Y-221655104D01*
X479034793Y-221655102D01*
X479034846Y-221655064D01*
X479035605Y-221654290D01*
X479185104Y-221504792D01*
X479185106Y-221504788D01*
X479185109Y-221504786D01*
X479310048Y-221332820D01*
X479310047Y-221332820D01*
X479310051Y-221332816D01*
X479310053Y-221332811D01*
X479318066Y-221321782D01*
X479318068Y-221321779D01*
X479328238Y-221309522D01*
X479335651Y-221301673D01*
X479370560Y-221281299D01*
X479373394Y-221279114D01*
X479374461Y-221279022D01*
X479395994Y-221266455D01*
X479465799Y-221269450D01*
X479519509Y-221305618D01*
X479525701Y-221312764D01*
X479537686Y-221329128D01*
X479539953Y-221332824D01*
X479664886Y-221504782D01*
X479815216Y-221655112D01*
X479987169Y-221780042D01*
X479987200Y-221780060D01*
X479987442Y-221780182D01*
X480176588Y-221876557D01*
X480378757Y-221942246D01*
X480588713Y-221975500D01*
X480588714Y-221975500D01*
X480801286Y-221975500D01*
X480801287Y-221975500D01*
X481011243Y-221942246D01*
X481213412Y-221876557D01*
X481402816Y-221780051D01*
X481431826Y-221758974D01*
X481574786Y-221655109D01*
X481574787Y-221655107D01*
X481574790Y-221655104D01*
X481574792Y-221655104D01*
X481574793Y-221655102D01*
X481574846Y-221655064D01*
X481575605Y-221654290D01*
X481725104Y-221504792D01*
X481725106Y-221504788D01*
X481725109Y-221504786D01*
X481850048Y-221332820D01*
X481850047Y-221332820D01*
X481850051Y-221332816D01*
X481850053Y-221332811D01*
X481858066Y-221321782D01*
X481858068Y-221321779D01*
X481868238Y-221309522D01*
X481875651Y-221301673D01*
X481910560Y-221281299D01*
X481913394Y-221279114D01*
X481914461Y-221279022D01*
X481935994Y-221266455D01*
X482005799Y-221269450D01*
X482059509Y-221305618D01*
X482065701Y-221312764D01*
X482077686Y-221329128D01*
X482079953Y-221332824D01*
X482204886Y-221504782D01*
X482355216Y-221655112D01*
X482527169Y-221780042D01*
X482527200Y-221780060D01*
X482527442Y-221780182D01*
X482716588Y-221876557D01*
X482918757Y-221942246D01*
X483128713Y-221975500D01*
X483128714Y-221975500D01*
X483341286Y-221975500D01*
X483341287Y-221975500D01*
X483551243Y-221942246D01*
X483627018Y-221917625D01*
X493056249Y-221917625D01*
X493085066Y-222062490D01*
X493085070Y-222062509D01*
X493085072Y-222062517D01*
X493128671Y-222167774D01*
X493452696Y-221843750D01*
X493452696Y-221843749D01*
X493432804Y-221823857D01*
X493706250Y-221823857D01*
X493706250Y-221823859D01*
X493706250Y-221863641D01*
X493721474Y-221900395D01*
X493749605Y-221928526D01*
X493786359Y-221943750D01*
X493826139Y-221943750D01*
X493826141Y-221943750D01*
X493862895Y-221928526D01*
X493891026Y-221900395D01*
X493906250Y-221863641D01*
X493906250Y-221843748D01*
X494159804Y-221843748D01*
X494159804Y-221843749D01*
X494159804Y-221843750D01*
X494484179Y-222168126D01*
X494528319Y-222168126D01*
X494852696Y-221843750D01*
X494832803Y-221823857D01*
X495106250Y-221823857D01*
X495106250Y-221823859D01*
X495106250Y-221863641D01*
X495121474Y-221900395D01*
X495149605Y-221928526D01*
X495186359Y-221943750D01*
X495226139Y-221943750D01*
X495226141Y-221943750D01*
X495262895Y-221928526D01*
X495291026Y-221900395D01*
X495306250Y-221863641D01*
X495306250Y-221843748D01*
X495559804Y-221843748D01*
X495559804Y-221843749D01*
X495559804Y-221843751D01*
X495883827Y-222167774D01*
X495883828Y-222167774D01*
X495927425Y-222062525D01*
X495927429Y-222062510D01*
X495956249Y-221917623D01*
X495956250Y-221917621D01*
X495956250Y-221769878D01*
X495956249Y-221769876D01*
X495927429Y-221624990D01*
X495927428Y-221624986D01*
X495883827Y-221519725D01*
X495883826Y-221519725D01*
X495883826Y-221519724D01*
X495559804Y-221843748D01*
X495306250Y-221843748D01*
X495306250Y-221823859D01*
X495291026Y-221787105D01*
X495262895Y-221758974D01*
X495255022Y-221755713D01*
X495226142Y-221743750D01*
X495226141Y-221743750D01*
X495186359Y-221743750D01*
X495186357Y-221743750D01*
X495149604Y-221758974D01*
X495121474Y-221787104D01*
X495106250Y-221823857D01*
X494832803Y-221823857D01*
X494528318Y-221519372D01*
X494484179Y-221519372D01*
X494159804Y-221843748D01*
X493906250Y-221843748D01*
X493906250Y-221823859D01*
X493891026Y-221787105D01*
X493862895Y-221758974D01*
X493855022Y-221755713D01*
X493826142Y-221743750D01*
X493826141Y-221743750D01*
X493786359Y-221743750D01*
X493786357Y-221743750D01*
X493749604Y-221758974D01*
X493721474Y-221787104D01*
X493706250Y-221823857D01*
X493432804Y-221823857D01*
X493128671Y-221519724D01*
X493128670Y-221519724D01*
X493085073Y-221624976D01*
X493085066Y-221625007D01*
X493056250Y-221769873D01*
X493056250Y-221769876D01*
X493056250Y-221917623D01*
X493056250Y-221917625D01*
X493056249Y-221917625D01*
X483627018Y-221917625D01*
X483753412Y-221876557D01*
X483942816Y-221780051D01*
X484023767Y-221721237D01*
X484096159Y-221668642D01*
X484096160Y-221668640D01*
X484114792Y-221655104D01*
X484264994Y-221504901D01*
X484265094Y-221504805D01*
X484265107Y-221504787D01*
X484265109Y-221504786D01*
X484390048Y-221332820D01*
X484390047Y-221332820D01*
X484390051Y-221332816D01*
X484390052Y-221332813D01*
X484409828Y-221305594D01*
X484416268Y-221281645D01*
X484417424Y-221279091D01*
X484474962Y-221166169D01*
X493482224Y-221166169D01*
X493482224Y-221166170D01*
X493482224Y-221166171D01*
X493806250Y-221490196D01*
X493806251Y-221490196D01*
X494130274Y-221166171D01*
X494130272Y-221166170D01*
X494130273Y-221166170D01*
X494130271Y-221166169D01*
X494882224Y-221166169D01*
X494882224Y-221166170D01*
X494882224Y-221166171D01*
X495206250Y-221490196D01*
X495206251Y-221490196D01*
X495530274Y-221166171D01*
X495530272Y-221166170D01*
X495530273Y-221166170D01*
X495468615Y-221140630D01*
X495425017Y-221122572D01*
X495425009Y-221122570D01*
X495425001Y-221122568D01*
X495424991Y-221122566D01*
X495280124Y-221093750D01*
X495280122Y-221093750D01*
X495132378Y-221093750D01*
X495132376Y-221093750D01*
X494987507Y-221122566D01*
X494987476Y-221122573D01*
X494882224Y-221166169D01*
X494130271Y-221166169D01*
X494068615Y-221140630D01*
X494025017Y-221122572D01*
X494025009Y-221122570D01*
X494025001Y-221122568D01*
X494024991Y-221122566D01*
X493880124Y-221093750D01*
X493880122Y-221093750D01*
X493732378Y-221093750D01*
X493732376Y-221093750D01*
X493587507Y-221122566D01*
X493587476Y-221122573D01*
X493482224Y-221166169D01*
X484474962Y-221166169D01*
X484486557Y-221143412D01*
X484552246Y-220941243D01*
X484585500Y-220731287D01*
X484585500Y-220518713D01*
X484552246Y-220308757D01*
X484486557Y-220106588D01*
X484390051Y-219917184D01*
X484387441Y-219913592D01*
X484379789Y-219903060D01*
X484363316Y-219871839D01*
X484358965Y-219859643D01*
X484354979Y-219789887D01*
X484389338Y-219729049D01*
X484445958Y-219697611D01*
X484454958Y-219695383D01*
X484484752Y-219691750D01*
X512123931Y-219691750D01*
X512158858Y-219696771D01*
X512169711Y-219699957D01*
X512228492Y-219737727D01*
X512257521Y-219801281D01*
X512247582Y-219870440D01*
X512247581Y-219870442D01*
X512244396Y-219877417D01*
X512219280Y-219913592D01*
X512082299Y-220050573D01*
X512054048Y-220071722D01*
X512030960Y-220084330D01*
X511971530Y-220099500D01*
X507640092Y-220099500D01*
X507640029Y-220099499D01*
X507638125Y-220099499D01*
X507630529Y-220099499D01*
X507472414Y-220099499D01*
X507396049Y-220119960D01*
X507396050Y-220119961D01*
X507319688Y-220140422D01*
X507319686Y-220140422D01*
X507319685Y-220140423D01*
X507319683Y-220140423D01*
X507319614Y-220140453D01*
X507318805Y-220140930D01*
X507182769Y-220219470D01*
X507182765Y-220219472D01*
X507182761Y-220219475D01*
X507182753Y-220219481D01*
X507182749Y-220219484D01*
X507182747Y-220219485D01*
X501519480Y-225882753D01*
X501519478Y-225882756D01*
X501499443Y-225917459D01*
X501490975Y-225932127D01*
X501490972Y-225932132D01*
X501440424Y-226019682D01*
X501440423Y-226019686D01*
X501399499Y-226172414D01*
X501399499Y-226172416D01*
X501399499Y-226342871D01*
X501399500Y-226342922D01*
X501399500Y-230602404D01*
X501394476Y-230637341D01*
X501385136Y-230669148D01*
X501369262Y-230703102D01*
X501290613Y-230820807D01*
X501290603Y-230820824D01*
X501290598Y-230820833D01*
X501230264Y-230966496D01*
X501230257Y-230966527D01*
X501199500Y-231121150D01*
X501199500Y-231121153D01*
X501199500Y-231278846D01*
X501199500Y-231278848D01*
X501199499Y-231278848D01*
X501230257Y-231433471D01*
X501230264Y-231433502D01*
X501290598Y-231579165D01*
X501290603Y-231579174D01*
X501290613Y-231579191D01*
X501378211Y-231710290D01*
X501378212Y-231710291D01*
X501378217Y-231710297D01*
X501489701Y-231821781D01*
X501489707Y-231821786D01*
X501489711Y-231821789D01*
X501620814Y-231909390D01*
X501620827Y-231909397D01*
X501766498Y-231969735D01*
X501766503Y-231969737D01*
X501921153Y-232000499D01*
X501921156Y-232000500D01*
X501921158Y-232000500D01*
X502078844Y-232000500D01*
X502078845Y-232000499D01*
X502233497Y-231969737D01*
X502379179Y-231909394D01*
X502510289Y-231821789D01*
X502621789Y-231710289D01*
X502709394Y-231579179D01*
X502769737Y-231433497D01*
X502800500Y-231278842D01*
X502800500Y-231121158D01*
X502800500Y-231121155D01*
X502800500Y-231120973D01*
X502800065Y-231118972D01*
X502770397Y-230969824D01*
X502769994Y-230967467D01*
X502769738Y-230966508D01*
X502769737Y-230966506D01*
X502769737Y-230966503D01*
X502769735Y-230966498D01*
X502709397Y-230820827D01*
X502709390Y-230820814D01*
X502709379Y-230820797D01*
X502631304Y-230703949D01*
X502616071Y-230672111D01*
X502606165Y-230640474D01*
X502600500Y-230603422D01*
X502600500Y-226569397D01*
X502605522Y-226534464D01*
X502612934Y-226509219D01*
X502644228Y-226456477D01*
X504880521Y-224220185D01*
X507138732Y-221961972D01*
X507166987Y-221940822D01*
X507180707Y-221933331D01*
X507248976Y-221918481D01*
X507256303Y-221919005D01*
X507316347Y-221939587D01*
X507330984Y-221949367D01*
X507420814Y-222009390D01*
X507420827Y-222009397D01*
X507566498Y-222069735D01*
X507566503Y-222069737D01*
X507593474Y-222075101D01*
X507631099Y-222082586D01*
X507631123Y-222082590D01*
X507631147Y-222082595D01*
X507704364Y-222097159D01*
X507737644Y-222108901D01*
X507767021Y-222124268D01*
X507797227Y-222146462D01*
X509614085Y-223963320D01*
X509614106Y-223963342D01*
X509615149Y-223964385D01*
X509619479Y-223968715D01*
X509619480Y-223968716D01*
X509731284Y-224080520D01*
X509798767Y-224119481D01*
X509868215Y-224159577D01*
X510020942Y-224200500D01*
X510020943Y-224200500D01*
X512002404Y-224200500D01*
X512037339Y-224205523D01*
X512058665Y-224211785D01*
X512117443Y-224249560D01*
X512118879Y-224251246D01*
X512120349Y-224253005D01*
X512148234Y-224317069D01*
X512137063Y-224386024D01*
X512132315Y-224395951D01*
X512108133Y-224430129D01*
X503031441Y-233506823D01*
X503003190Y-233527972D01*
X502980102Y-233540580D01*
X502920672Y-233555750D01*
X458591346Y-233555750D01*
X458556411Y-233550727D01*
X458524602Y-233541387D01*
X458490648Y-233525513D01*
X458372935Y-233446859D01*
X458372922Y-233446852D01*
X458372915Y-233446848D01*
X458227252Y-233386514D01*
X458227221Y-233386507D01*
X458072597Y-233355750D01*
X458072595Y-233355750D01*
X458072592Y-233355750D01*
X457914908Y-233355750D01*
X457914905Y-233355750D01*
X457914903Y-233355750D01*
X457760277Y-233386507D01*
X457760246Y-233386514D01*
X457614583Y-233446848D01*
X457614574Y-233446853D01*
X457614557Y-233446863D01*
X457483461Y-233534459D01*
X457470820Y-233547100D01*
X457442572Y-233568246D01*
X457432647Y-233573666D01*
X457364375Y-233588520D01*
X457298910Y-233564106D01*
X457257037Y-233508176D01*
X457254492Y-233501351D01*
X457246681Y-233456788D01*
X457261245Y-232000499D01*
X457332036Y-224921327D01*
X493482225Y-224921327D01*
X493587486Y-224964928D01*
X493587490Y-224964929D01*
X493732376Y-224993749D01*
X493732379Y-224993750D01*
X493880121Y-224993750D01*
X493880123Y-224993749D01*
X494025010Y-224964929D01*
X494025025Y-224964925D01*
X494130274Y-224921328D01*
X494130274Y-224921327D01*
X494882225Y-224921327D01*
X494987486Y-224964928D01*
X494987490Y-224964929D01*
X495132376Y-224993749D01*
X495132379Y-224993750D01*
X495280121Y-224993750D01*
X495280123Y-224993749D01*
X495425010Y-224964929D01*
X495425025Y-224964925D01*
X495530274Y-224921328D01*
X495530274Y-224921327D01*
X495206251Y-224597304D01*
X495206250Y-224597304D01*
X494882225Y-224921327D01*
X494130274Y-224921327D01*
X493806251Y-224597304D01*
X493806250Y-224597304D01*
X493482225Y-224921327D01*
X457332036Y-224921327D01*
X457338073Y-224317625D01*
X493056249Y-224317625D01*
X493085066Y-224462490D01*
X493085070Y-224462509D01*
X493085072Y-224462517D01*
X493128671Y-224567774D01*
X493452696Y-224243750D01*
X493452696Y-224243749D01*
X493432804Y-224223857D01*
X493706250Y-224223857D01*
X493706250Y-224263642D01*
X493721474Y-224300395D01*
X493749605Y-224328526D01*
X493786359Y-224343750D01*
X493826139Y-224343750D01*
X493826141Y-224343750D01*
X493862895Y-224328526D01*
X493891026Y-224300395D01*
X493906250Y-224263641D01*
X493906250Y-224243748D01*
X494159804Y-224243748D01*
X494159804Y-224243749D01*
X494159804Y-224243750D01*
X494484179Y-224568126D01*
X494528319Y-224568126D01*
X494852696Y-224243750D01*
X494832803Y-224223857D01*
X495106250Y-224223857D01*
X495106250Y-224263642D01*
X495121474Y-224300395D01*
X495149605Y-224328526D01*
X495186359Y-224343750D01*
X495226139Y-224343750D01*
X495226141Y-224343750D01*
X495262895Y-224328526D01*
X495291026Y-224300395D01*
X495306250Y-224263641D01*
X495306250Y-224243748D01*
X495559804Y-224243748D01*
X495559804Y-224243749D01*
X495559804Y-224243751D01*
X495883827Y-224567774D01*
X495883828Y-224567774D01*
X495927425Y-224462525D01*
X495927429Y-224462510D01*
X495956249Y-224317623D01*
X495956250Y-224317621D01*
X495956250Y-224169878D01*
X495956249Y-224169876D01*
X495927429Y-224024990D01*
X495927428Y-224024986D01*
X495883827Y-223919725D01*
X495883826Y-223919725D01*
X495883826Y-223919724D01*
X495559804Y-224243748D01*
X495306250Y-224243748D01*
X495306250Y-224223859D01*
X495291026Y-224187105D01*
X495262895Y-224158974D01*
X495255022Y-224155713D01*
X495226142Y-224143750D01*
X495226141Y-224143750D01*
X495186359Y-224143750D01*
X495186357Y-224143750D01*
X495149604Y-224158974D01*
X495121474Y-224187104D01*
X495106250Y-224223857D01*
X494832803Y-224223857D01*
X494528318Y-223919372D01*
X494484179Y-223919372D01*
X494159804Y-224243748D01*
X493906250Y-224243748D01*
X493906250Y-224223859D01*
X493891026Y-224187105D01*
X493862895Y-224158974D01*
X493855022Y-224155713D01*
X493826142Y-224143750D01*
X493826141Y-224143750D01*
X493786359Y-224143750D01*
X493786357Y-224143750D01*
X493749604Y-224158974D01*
X493721474Y-224187104D01*
X493706250Y-224223857D01*
X493432804Y-224223857D01*
X493128671Y-223919724D01*
X493128670Y-223919724D01*
X493085073Y-224024976D01*
X493085066Y-224025007D01*
X493056250Y-224169873D01*
X493056250Y-224169876D01*
X493056250Y-224317623D01*
X493056250Y-224317625D01*
X493056249Y-224317625D01*
X457338073Y-224317625D01*
X457344812Y-223643750D01*
X493559804Y-223643750D01*
X493806250Y-223890196D01*
X494052696Y-223643750D01*
X494959804Y-223643750D01*
X495206250Y-223890196D01*
X495452696Y-223643750D01*
X495206250Y-223397304D01*
X494959804Y-223643750D01*
X494052696Y-223643750D01*
X493806250Y-223397304D01*
X493559804Y-223643750D01*
X457344812Y-223643750D01*
X457350073Y-223117625D01*
X493056249Y-223117625D01*
X493085066Y-223262490D01*
X493085070Y-223262509D01*
X493085072Y-223262517D01*
X493128671Y-223367774D01*
X493452696Y-223043750D01*
X493452696Y-223043749D01*
X493432804Y-223023857D01*
X493706250Y-223023857D01*
X493706250Y-223063642D01*
X493713379Y-223080853D01*
X493721474Y-223100395D01*
X493749605Y-223128526D01*
X493786359Y-223143750D01*
X493826139Y-223143750D01*
X493826141Y-223143750D01*
X493862895Y-223128526D01*
X493891026Y-223100395D01*
X493906250Y-223063641D01*
X493906250Y-223043748D01*
X494159804Y-223043748D01*
X494159804Y-223043749D01*
X494159804Y-223043750D01*
X494484179Y-223368126D01*
X494528319Y-223368126D01*
X494852696Y-223043750D01*
X494832803Y-223023857D01*
X495106250Y-223023857D01*
X495106250Y-223063642D01*
X495113379Y-223080853D01*
X495121474Y-223100395D01*
X495149605Y-223128526D01*
X495186359Y-223143750D01*
X495226139Y-223143750D01*
X495226141Y-223143750D01*
X495262895Y-223128526D01*
X495291026Y-223100395D01*
X495306250Y-223063641D01*
X495306250Y-223043748D01*
X495559804Y-223043748D01*
X495559804Y-223043749D01*
X495559804Y-223043751D01*
X495883827Y-223367774D01*
X495883828Y-223367774D01*
X495927425Y-223262525D01*
X495927429Y-223262510D01*
X495956249Y-223117623D01*
X495956250Y-223117621D01*
X495956250Y-222969878D01*
X495956249Y-222969876D01*
X495927429Y-222824990D01*
X495927428Y-222824986D01*
X495883827Y-222719725D01*
X495883826Y-222719725D01*
X495883826Y-222719724D01*
X495559804Y-223043748D01*
X495306250Y-223043748D01*
X495306250Y-223023859D01*
X495291026Y-222987105D01*
X495262895Y-222958974D01*
X495226142Y-222943750D01*
X495226141Y-222943750D01*
X495186359Y-222943750D01*
X495186357Y-222943750D01*
X495149604Y-222958974D01*
X495121474Y-222987104D01*
X495106250Y-223023857D01*
X494832803Y-223023857D01*
X494528318Y-222719372D01*
X494484179Y-222719372D01*
X494159804Y-223043748D01*
X493906250Y-223043748D01*
X493906250Y-223023859D01*
X493891026Y-222987105D01*
X493862895Y-222958974D01*
X493826142Y-222943750D01*
X493826141Y-222943750D01*
X493786359Y-222943750D01*
X493786357Y-222943750D01*
X493749604Y-222958974D01*
X493721474Y-222987104D01*
X493706250Y-223023857D01*
X493432804Y-223023857D01*
X493128671Y-222719724D01*
X493128670Y-222719724D01*
X493085073Y-222824976D01*
X493085066Y-222825007D01*
X493056250Y-222969873D01*
X493056250Y-222969876D01*
X493056250Y-223117623D01*
X493056250Y-223117625D01*
X493056249Y-223117625D01*
X457350073Y-223117625D01*
X457356812Y-222443750D01*
X493559804Y-222443750D01*
X493806250Y-222690196D01*
X494052696Y-222443750D01*
X494959804Y-222443750D01*
X495206250Y-222690196D01*
X495452696Y-222443750D01*
X495206250Y-222197304D01*
X494959804Y-222443750D01*
X494052696Y-222443750D01*
X493806250Y-222197304D01*
X493559804Y-222443750D01*
X457356812Y-222443750D01*
X457564925Y-201632327D01*
X457570297Y-201597452D01*
X457574853Y-201582493D01*
X457613170Y-201524139D01*
X457614806Y-201522749D01*
X457669368Y-201495938D01*
X457671297Y-201495529D01*
X457676384Y-201494450D01*
X457702118Y-201491750D01*
X474493294Y-201491750D01*
X474528221Y-201496771D01*
G37*
%TD.AperFunction*%
%TA.AperFunction,Conductor*%
G36*
X516592101Y-158507861D02*
G01*
X516607122Y-158512203D01*
X516666057Y-158549728D01*
X516666067Y-158549740D01*
X516667167Y-158550999D01*
X516694896Y-158605962D01*
X516696608Y-158613750D01*
X516699500Y-158640373D01*
X516699500Y-198033542D01*
X516694476Y-198068480D01*
X516691289Y-198079333D01*
X516653514Y-198138110D01*
X516589957Y-198167133D01*
X516520812Y-198157194D01*
X516516385Y-198155172D01*
X516477650Y-198127420D01*
X516461319Y-198110091D01*
X516450417Y-198101181D01*
X507855676Y-189506440D01*
X507834524Y-189478184D01*
X507821917Y-189455095D01*
X507806750Y-189395670D01*
X507806750Y-188716344D01*
X507811772Y-188681411D01*
X507821114Y-188649595D01*
X507836983Y-188615652D01*
X507915640Y-188497935D01*
X507915640Y-188497934D01*
X507915644Y-188497929D01*
X507915646Y-188497923D01*
X507916324Y-188496909D01*
X507917960Y-188492335D01*
X507975987Y-188352247D01*
X508006750Y-188197592D01*
X508006750Y-188039908D01*
X508006750Y-188039905D01*
X508006750Y-188039723D01*
X508006315Y-188037722D01*
X507976647Y-187888574D01*
X507976244Y-187886217D01*
X507975988Y-187885258D01*
X507975987Y-187885256D01*
X507975987Y-187885253D01*
X507975985Y-187885248D01*
X507915647Y-187739577D01*
X507915640Y-187739564D01*
X507828039Y-187608461D01*
X507828036Y-187608457D01*
X507828031Y-187608451D01*
X507716547Y-187496967D01*
X507716541Y-187496962D01*
X507716540Y-187496961D01*
X507585441Y-187409363D01*
X507585440Y-187409362D01*
X507585435Y-187409359D01*
X507585422Y-187409352D01*
X507585415Y-187409348D01*
X507439752Y-187349014D01*
X507439721Y-187349007D01*
X507285097Y-187318250D01*
X507285095Y-187318250D01*
X507285092Y-187318250D01*
X507127408Y-187318250D01*
X507127405Y-187318250D01*
X507127403Y-187318250D01*
X506972777Y-187349007D01*
X506972746Y-187349014D01*
X506827082Y-187409348D01*
X506827072Y-187409353D01*
X506827064Y-187409358D01*
X506827063Y-187409358D01*
X506708215Y-187488771D01*
X506676372Y-187504005D01*
X506663375Y-187508074D01*
X506593516Y-187509318D01*
X506534075Y-187472596D01*
X506505399Y-187417166D01*
X506503572Y-187409111D01*
X506500500Y-187381683D01*
X506500500Y-180520943D01*
X506495057Y-180500628D01*
X506495057Y-180500627D01*
X506495033Y-180500538D01*
X506495018Y-180500482D01*
X506486779Y-180469735D01*
X506459577Y-180368215D01*
X506406605Y-180276465D01*
X506380520Y-180231284D01*
X506268716Y-180119480D01*
X506268713Y-180119478D01*
X505847181Y-179697946D01*
X505826031Y-179669693D01*
X505810144Y-179640599D01*
X505797359Y-179605366D01*
X505770395Y-179469816D01*
X505769994Y-179467467D01*
X505769738Y-179466508D01*
X505769737Y-179466506D01*
X505769737Y-179466503D01*
X505769735Y-179466498D01*
X505709397Y-179320827D01*
X505709390Y-179320814D01*
X505621789Y-179189711D01*
X505621786Y-179189707D01*
X505621781Y-179189701D01*
X505510297Y-179078217D01*
X505510291Y-179078212D01*
X505510290Y-179078211D01*
X505379191Y-178990613D01*
X505379190Y-178990612D01*
X505379185Y-178990609D01*
X505379172Y-178990602D01*
X505379165Y-178990598D01*
X505233502Y-178930264D01*
X505233471Y-178930257D01*
X505078847Y-178899500D01*
X505078845Y-178899500D01*
X505078842Y-178899500D01*
X504921158Y-178899500D01*
X504921155Y-178899500D01*
X504921153Y-178899500D01*
X504766527Y-178930257D01*
X504766496Y-178930264D01*
X504620833Y-178990598D01*
X504620824Y-178990603D01*
X504620807Y-178990613D01*
X504489708Y-179078211D01*
X504489707Y-179078212D01*
X504489701Y-179078217D01*
X504378217Y-179189701D01*
X504378212Y-179189707D01*
X504378211Y-179189708D01*
X504290613Y-179320807D01*
X504290603Y-179320824D01*
X504290598Y-179320833D01*
X504230264Y-179466496D01*
X504230257Y-179466527D01*
X504199500Y-179621150D01*
X504199500Y-179621153D01*
X504199500Y-179778846D01*
X504199500Y-179778848D01*
X504199499Y-179778848D01*
X504230257Y-179933471D01*
X504230264Y-179933502D01*
X504290598Y-180079165D01*
X504290603Y-180079174D01*
X504290613Y-180079191D01*
X504378211Y-180210290D01*
X504378212Y-180210291D01*
X504378217Y-180210297D01*
X504489701Y-180321781D01*
X504489707Y-180321786D01*
X504489711Y-180321789D01*
X504620814Y-180409390D01*
X504620827Y-180409397D01*
X504766498Y-180469735D01*
X504766503Y-180469737D01*
X504793474Y-180475101D01*
X504831099Y-180482586D01*
X504831123Y-180482590D01*
X504831147Y-180482595D01*
X504904364Y-180497159D01*
X504937644Y-180508901D01*
X504967021Y-180524268D01*
X504997227Y-180546462D01*
X505235605Y-180784840D01*
X505256758Y-180813097D01*
X505263285Y-180825051D01*
X505278135Y-180893324D01*
X505253716Y-180958788D01*
X505204950Y-180997726D01*
X505197408Y-181001089D01*
X505171101Y-181009455D01*
X505066515Y-181030259D01*
X505066509Y-181030260D01*
X505066508Y-181030261D01*
X505066498Y-181030264D01*
X505066493Y-181030265D01*
X505066475Y-181030272D01*
X504920833Y-181090598D01*
X504920824Y-181090603D01*
X504920807Y-181090613D01*
X504789708Y-181178211D01*
X504789707Y-181178212D01*
X504789701Y-181178217D01*
X504678217Y-181289701D01*
X504678212Y-181289707D01*
X504678211Y-181289708D01*
X504590613Y-181420807D01*
X504590603Y-181420824D01*
X504590598Y-181420833D01*
X504530264Y-181566496D01*
X504530257Y-181566527D01*
X504499500Y-181721150D01*
X504499500Y-181721153D01*
X504499500Y-181878846D01*
X504499500Y-181878848D01*
X504499499Y-181878848D01*
X504530257Y-182033471D01*
X504530264Y-182033502D01*
X504590598Y-182179165D01*
X504590602Y-182179172D01*
X504590609Y-182179185D01*
X504668697Y-182296050D01*
X504683928Y-182327886D01*
X504693834Y-182359522D01*
X504699500Y-182396575D01*
X504699500Y-193213061D01*
X504699499Y-193213135D01*
X504699499Y-193338431D01*
X504693600Y-193358517D01*
X504740423Y-193533257D01*
X504760662Y-193568312D01*
X504760663Y-193568312D01*
X504769358Y-193583372D01*
X504769359Y-193583375D01*
X504769360Y-193583375D01*
X504781422Y-193604267D01*
X504781422Y-193604269D01*
X504819467Y-193670166D01*
X504819477Y-193670182D01*
X504819481Y-193670188D01*
X504819485Y-193670193D01*
X504940314Y-193791022D01*
X504940358Y-193791064D01*
X506544272Y-195394979D01*
X506565424Y-195423235D01*
X506572916Y-195436956D01*
X506587768Y-195505212D01*
X506587245Y-195512537D01*
X506566662Y-195572597D01*
X506496863Y-195677057D01*
X506496853Y-195677074D01*
X506496848Y-195677083D01*
X506436514Y-195822746D01*
X506436507Y-195822777D01*
X506405750Y-195977400D01*
X506405750Y-195977403D01*
X506405750Y-196135096D01*
X506405750Y-196135098D01*
X506405749Y-196135098D01*
X506436507Y-196289721D01*
X506436514Y-196289752D01*
X506496848Y-196435415D01*
X506496853Y-196435424D01*
X506496863Y-196435441D01*
X506584461Y-196566540D01*
X506584462Y-196566541D01*
X506584467Y-196566547D01*
X506695951Y-196678031D01*
X506695957Y-196678036D01*
X506695961Y-196678039D01*
X506827064Y-196765640D01*
X506827077Y-196765647D01*
X506972748Y-196825985D01*
X506972753Y-196825987D01*
X506999724Y-196831351D01*
X507037349Y-196838836D01*
X507037373Y-196838840D01*
X507037397Y-196838845D01*
X507110614Y-196853409D01*
X507143894Y-196865151D01*
X507173271Y-196880518D01*
X507203477Y-196902712D01*
X513850573Y-203549808D01*
X513871723Y-203578060D01*
X513884331Y-203601149D01*
X513899500Y-203660578D01*
X513899500Y-203964323D01*
X513894476Y-203999261D01*
X513891289Y-204010114D01*
X513853514Y-204068891D01*
X513789957Y-204097914D01*
X513720807Y-204087973D01*
X513713829Y-204084786D01*
X513677657Y-204059672D01*
X508053431Y-198435446D01*
X508032281Y-198407193D01*
X508016394Y-198378099D01*
X508003609Y-198342866D01*
X507975988Y-198204010D01*
X507975987Y-198204003D01*
X507970631Y-198191072D01*
X507937088Y-198110091D01*
X507915650Y-198058333D01*
X507915645Y-198058324D01*
X507915640Y-198058314D01*
X507828039Y-197927211D01*
X507828036Y-197927207D01*
X507828031Y-197927201D01*
X507716547Y-197815717D01*
X507716541Y-197815712D01*
X507716540Y-197815711D01*
X507585441Y-197728113D01*
X507585440Y-197728112D01*
X507585435Y-197728109D01*
X507585422Y-197728102D01*
X507585415Y-197728098D01*
X507439752Y-197667764D01*
X507439721Y-197667757D01*
X507285097Y-197637000D01*
X507285095Y-197637000D01*
X507285092Y-197637000D01*
X507127408Y-197637000D01*
X507127405Y-197637000D01*
X507127403Y-197637000D01*
X506972777Y-197667757D01*
X506972746Y-197667764D01*
X506827083Y-197728098D01*
X506827074Y-197728103D01*
X506827057Y-197728113D01*
X506695958Y-197815711D01*
X506695957Y-197815712D01*
X506695951Y-197815717D01*
X506584467Y-197927201D01*
X506584462Y-197927207D01*
X506584461Y-197927208D01*
X506496860Y-198058312D01*
X506496854Y-198058322D01*
X506496853Y-198058324D01*
X506471223Y-198120201D01*
X506453212Y-198150556D01*
X506444506Y-198161359D01*
X506387113Y-198201206D01*
X506317289Y-198203698D01*
X506317277Y-198203695D01*
X506317275Y-198203695D01*
X506312200Y-198202399D01*
X506255200Y-198169936D01*
X500549426Y-192464162D01*
X500528274Y-192435906D01*
X500515667Y-192412817D01*
X500500500Y-192353392D01*
X500500500Y-173917926D01*
X500505522Y-173882993D01*
X500512934Y-173857748D01*
X500544228Y-173805006D01*
X501229757Y-173119478D01*
X505602056Y-168747177D01*
X505630307Y-168726029D01*
X505659403Y-168710141D01*
X505694635Y-168697358D01*
X505736085Y-168689113D01*
X505833497Y-168669737D01*
X505979179Y-168609394D01*
X506110289Y-168521789D01*
X506221789Y-168410289D01*
X506309394Y-168279179D01*
X506369737Y-168133497D01*
X506400500Y-167978842D01*
X506400500Y-167821158D01*
X506400500Y-167821155D01*
X506400500Y-167820971D01*
X506400064Y-167818966D01*
X506369739Y-167666510D01*
X506369736Y-167666501D01*
X506326704Y-167562611D01*
X506326703Y-167562609D01*
X506309397Y-167520827D01*
X506309390Y-167520814D01*
X506221789Y-167389711D01*
X506221786Y-167389707D01*
X506221785Y-167389706D01*
X506221781Y-167389701D01*
X506110297Y-167278217D01*
X506110291Y-167278212D01*
X506110290Y-167278211D01*
X506055743Y-167241764D01*
X505979185Y-167190609D01*
X505979172Y-167190602D01*
X505979165Y-167190598D01*
X505833502Y-167130264D01*
X505833471Y-167130257D01*
X505678847Y-167099500D01*
X505678845Y-167099500D01*
X505678842Y-167099500D01*
X505521158Y-167099500D01*
X505521155Y-167099500D01*
X505521153Y-167099500D01*
X505366527Y-167130257D01*
X505366496Y-167130264D01*
X505220833Y-167190598D01*
X505220824Y-167190603D01*
X505220819Y-167190606D01*
X505220814Y-167190609D01*
X505168443Y-167225602D01*
X505089708Y-167278211D01*
X505089707Y-167278212D01*
X505089701Y-167278217D01*
X504978217Y-167389701D01*
X504978212Y-167389707D01*
X504890613Y-167520807D01*
X504890603Y-167520824D01*
X504890598Y-167520833D01*
X504830272Y-167666475D01*
X504830264Y-167666499D01*
X504830259Y-167666515D01*
X504802839Y-167804362D01*
X504791098Y-167837644D01*
X504775733Y-167867018D01*
X504753538Y-167897225D01*
X499419485Y-173231276D01*
X499419481Y-173231281D01*
X499419481Y-173231282D01*
X499373424Y-173311056D01*
X499373422Y-173311060D01*
X499348585Y-173354075D01*
X499346614Y-173356644D01*
X499340187Y-173368652D01*
X499339390Y-173372066D01*
X499299499Y-173520943D01*
X499299499Y-173691400D01*
X499299500Y-173691451D01*
X499299500Y-188945088D01*
X499288204Y-188983556D01*
X499282575Y-189012413D01*
X499270455Y-189025065D01*
X499268703Y-189027367D01*
X499268441Y-189027168D01*
X499234245Y-189062870D01*
X499166307Y-189079189D01*
X499100332Y-189056187D01*
X499074846Y-189031776D01*
X499072407Y-189028659D01*
X499062856Y-189013681D01*
X499062680Y-189013790D01*
X499060140Y-189009647D01*
X499060136Y-189009638D01*
X498939821Y-188844036D01*
X498795063Y-188699278D01*
X498795062Y-188699277D01*
X498795061Y-188699276D01*
X498640052Y-188586658D01*
X498640049Y-188586656D01*
X498629463Y-188578965D01*
X498629462Y-188578964D01*
X498629460Y-188578963D01*
X498544705Y-188535778D01*
X498544705Y-188535777D01*
X498544703Y-188535777D01*
X498447078Y-188486033D01*
X498447071Y-188486030D01*
X498329319Y-188447770D01*
X498252384Y-188422772D01*
X498252382Y-188422771D01*
X498252380Y-188422771D01*
X498252379Y-188422770D01*
X498077845Y-188395128D01*
X498061239Y-188392498D01*
X498050204Y-188390750D01*
X498050202Y-188390750D01*
X497845498Y-188390750D01*
X497845497Y-188390750D01*
X497821177Y-188394601D01*
X497821176Y-188394600D01*
X497643318Y-188422771D01*
X497448627Y-188486030D01*
X497448614Y-188486036D01*
X497266247Y-188578958D01*
X497266235Y-188578965D01*
X497100637Y-188699277D01*
X497100634Y-188699279D01*
X496955879Y-188844034D01*
X496955877Y-188844037D01*
X496835565Y-189009635D01*
X496835561Y-189009642D01*
X496796427Y-189086446D01*
X496776088Y-189115296D01*
X496767197Y-189124709D01*
X496706853Y-189159929D01*
X496637048Y-189156933D01*
X496583339Y-189120766D01*
X496577267Y-189113758D01*
X496560499Y-189088855D01*
X496544080Y-189056631D01*
X496544080Y-189056630D01*
X496520137Y-189009640D01*
X496489503Y-188967475D01*
X496399822Y-188844037D01*
X496255061Y-188699276D01*
X496100052Y-188586658D01*
X496100049Y-188586656D01*
X496089463Y-188578965D01*
X496089462Y-188578964D01*
X496089460Y-188578963D01*
X496004705Y-188535778D01*
X496004705Y-188535777D01*
X496004703Y-188535777D01*
X495907078Y-188486033D01*
X495907071Y-188486030D01*
X495789319Y-188447770D01*
X495712384Y-188422772D01*
X495712382Y-188422771D01*
X495712380Y-188422771D01*
X495712379Y-188422770D01*
X495537845Y-188395128D01*
X495521239Y-188392498D01*
X495510204Y-188390750D01*
X495510202Y-188390750D01*
X495305498Y-188390750D01*
X495305497Y-188390750D01*
X495281177Y-188394601D01*
X495281176Y-188394600D01*
X495103318Y-188422771D01*
X494908627Y-188486030D01*
X494908614Y-188486036D01*
X494726247Y-188578958D01*
X494726235Y-188578965D01*
X494560637Y-188699277D01*
X494560634Y-188699279D01*
X494415884Y-188844029D01*
X494415879Y-188844036D01*
X494367672Y-188910388D01*
X494343071Y-188935700D01*
X494332987Y-188943475D01*
X494267876Y-188968821D01*
X494199399Y-188954941D01*
X494151616Y-188910181D01*
X494146605Y-188902023D01*
X494133877Y-188874010D01*
X494111328Y-188801644D01*
X494023322Y-188656065D01*
X494023320Y-188656063D01*
X494023319Y-188656061D01*
X493903038Y-188535780D01*
X493757456Y-188447772D01*
X493757454Y-188447771D01*
X493757452Y-188447770D01*
X493757453Y-188447770D01*
X493610240Y-188401897D01*
X493610224Y-188401893D01*
X493595046Y-188397164D01*
X493595044Y-188397163D01*
X493595042Y-188397163D01*
X493545628Y-188392673D01*
X493545627Y-188392672D01*
X493526388Y-188390924D01*
X493524466Y-188390750D01*
X493524465Y-188390750D01*
X492211230Y-188390750D01*
X492200240Y-188391748D01*
X492191995Y-188392498D01*
X492174882Y-188394053D01*
X492140655Y-188397163D01*
X491978242Y-188447772D01*
X491832657Y-188535782D01*
X491712382Y-188656057D01*
X491624372Y-188801642D01*
X491573761Y-188964061D01*
X491567350Y-189034627D01*
X491567350Y-190347871D01*
X491573761Y-190418437D01*
X491611162Y-190538462D01*
X491624372Y-190580856D01*
X491712380Y-190726438D01*
X491832661Y-190846719D01*
X491832663Y-190846720D01*
X491832665Y-190846722D01*
X491832672Y-190846726D01*
X491834004Y-190847686D01*
X491836906Y-190849285D01*
X491978244Y-190934728D01*
X492140654Y-190985336D01*
X492211234Y-190991750D01*
X492211237Y-190991750D01*
X493524463Y-190991750D01*
X493524466Y-190991750D01*
X493595046Y-190985336D01*
X493757456Y-190934728D01*
X493903035Y-190846722D01*
X494023322Y-190726435D01*
X494111328Y-190580856D01*
X494133187Y-190510702D01*
X494148372Y-190478850D01*
X494155434Y-190468250D01*
X494208982Y-190423372D01*
X494278294Y-190414568D01*
X494337917Y-190441660D01*
X494345276Y-190447780D01*
X494366306Y-190470232D01*
X494415878Y-190538462D01*
X494415882Y-190538467D01*
X494560636Y-190683221D01*
X494679719Y-190769738D01*
X494726240Y-190803537D01*
X494810989Y-190846719D01*
X494842457Y-190862753D01*
X494902177Y-190893182D01*
X494902176Y-190893182D01*
X494909500Y-190896913D01*
X494913253Y-190897972D01*
X494953338Y-190910996D01*
X495012985Y-190930376D01*
X495012986Y-190930377D01*
X495056462Y-190944503D01*
X495103315Y-190959727D01*
X495204407Y-190975738D01*
X495305498Y-190991750D01*
X495305499Y-190991750D01*
X495510201Y-190991750D01*
X495510202Y-190991750D01*
X495712384Y-190959727D01*
X495907069Y-190896470D01*
X496089460Y-190803537D01*
X496219038Y-190709394D01*
X496219051Y-190709385D01*
X496255020Y-190683252D01*
X496255063Y-190683221D01*
X496255063Y-190683219D01*
X496255122Y-190683177D01*
X496255882Y-190682402D01*
X496399816Y-190538469D01*
X496399818Y-190538465D01*
X496399821Y-190538463D01*
X496520134Y-190372864D01*
X496520133Y-190372864D01*
X496520137Y-190372860D01*
X496520138Y-190372856D01*
X496521885Y-190370453D01*
X496525865Y-190364975D01*
X496525869Y-190364971D01*
X496525875Y-190364960D01*
X496540532Y-190344786D01*
X496548815Y-190316575D01*
X496559275Y-190296045D01*
X496579608Y-190267204D01*
X496588501Y-190257788D01*
X496648844Y-190222570D01*
X496718650Y-190225565D01*
X496772358Y-190261731D01*
X496778428Y-190268736D01*
X496795198Y-190293640D01*
X496804802Y-190312488D01*
X496804802Y-190312489D01*
X496822031Y-190346302D01*
X496835565Y-190372864D01*
X496955878Y-190538463D01*
X497100636Y-190683221D01*
X497219719Y-190769738D01*
X497266240Y-190803537D01*
X497350989Y-190846719D01*
X497382457Y-190862753D01*
X497442177Y-190893182D01*
X497442176Y-190893182D01*
X497449500Y-190896913D01*
X497453253Y-190897972D01*
X497493338Y-190910996D01*
X497552985Y-190930376D01*
X497552986Y-190930377D01*
X497596462Y-190944503D01*
X497643315Y-190959727D01*
X497744407Y-190975738D01*
X497845498Y-190991750D01*
X497845499Y-190991750D01*
X498050201Y-190991750D01*
X498050202Y-190991750D01*
X498252384Y-190959727D01*
X498447069Y-190896470D01*
X498629460Y-190803537D01*
X498759038Y-190709394D01*
X498759051Y-190709385D01*
X498795020Y-190683252D01*
X498795063Y-190683221D01*
X498795063Y-190683219D01*
X498795122Y-190683177D01*
X498795882Y-190682402D01*
X498939816Y-190538469D01*
X498939818Y-190538465D01*
X498939821Y-190538463D01*
X499060134Y-190372864D01*
X499060133Y-190372864D01*
X499060137Y-190372860D01*
X499060139Y-190372855D01*
X499069331Y-190360204D01*
X499087358Y-190346302D01*
X499102561Y-190326870D01*
X499120820Y-190320498D01*
X499124661Y-190317537D01*
X499138505Y-190313063D01*
X499144355Y-190311545D01*
X499144531Y-190312224D01*
X499168530Y-190303851D01*
X499236472Y-190320152D01*
X499284815Y-190370597D01*
X499296442Y-190403919D01*
X499297200Y-190407801D01*
X499299500Y-190431570D01*
X499299500Y-192575561D01*
X499299499Y-192575635D01*
X499299499Y-192700930D01*
X499293600Y-192721016D01*
X499313933Y-192796896D01*
X499340422Y-192895754D01*
X499345911Y-192905261D01*
X499345912Y-192905263D01*
X499419476Y-193032682D01*
X499419477Y-193032683D01*
X499419482Y-193032689D01*
X499419488Y-193032696D01*
X499540314Y-193153522D01*
X499540359Y-193153565D01*
X506544272Y-200157478D01*
X506565424Y-200185734D01*
X506572916Y-200199455D01*
X506587768Y-200267711D01*
X506587245Y-200275036D01*
X506566662Y-200335096D01*
X506496858Y-200439563D01*
X506496858Y-200439564D01*
X506496853Y-200439572D01*
X506496848Y-200439582D01*
X506436514Y-200585246D01*
X506436507Y-200585277D01*
X506405750Y-200739900D01*
X506405750Y-200739903D01*
X506405750Y-200897596D01*
X506405750Y-200897598D01*
X506405749Y-200897598D01*
X506436507Y-201052221D01*
X506436514Y-201052252D01*
X506496848Y-201197915D01*
X506496853Y-201197924D01*
X506496863Y-201197941D01*
X506584461Y-201329040D01*
X506584462Y-201329041D01*
X506584467Y-201329047D01*
X506695951Y-201440531D01*
X506695957Y-201440536D01*
X506695961Y-201440539D01*
X506827064Y-201528140D01*
X506827077Y-201528147D01*
X506972748Y-201588485D01*
X506972753Y-201588487D01*
X506999724Y-201593851D01*
X507037349Y-201601336D01*
X507037373Y-201601340D01*
X507037397Y-201601345D01*
X507110614Y-201615909D01*
X507143894Y-201627651D01*
X507173271Y-201643018D01*
X507203477Y-201665212D01*
X512850573Y-207312308D01*
X512871723Y-207340560D01*
X512884331Y-207363649D01*
X512899500Y-207423078D01*
X512899500Y-208867250D01*
X512879815Y-208934289D01*
X512827011Y-208980044D01*
X512775500Y-208991250D01*
X495032575Y-208991250D01*
X494965536Y-208971565D01*
X494919781Y-208918761D01*
X494909837Y-208849603D01*
X494938862Y-208786047D01*
X494956519Y-208769314D01*
X496360424Y-207679047D01*
X499383750Y-205331145D01*
X499383750Y-201998425D01*
X499403435Y-201931386D01*
X499456239Y-201885631D01*
X499525397Y-201875687D01*
X499588953Y-201904712D01*
X499595431Y-201910744D01*
X504174695Y-206490008D01*
X504195847Y-206518264D01*
X504203339Y-206531985D01*
X504218191Y-206600241D01*
X504217668Y-206607566D01*
X504197085Y-206667626D01*
X504115608Y-206789563D01*
X504115608Y-206789564D01*
X504115603Y-206789572D01*
X504115598Y-206789582D01*
X504055264Y-206935246D01*
X504055257Y-206935277D01*
X504024500Y-207089900D01*
X504024500Y-207089903D01*
X504024500Y-207247596D01*
X504024500Y-207247598D01*
X504024499Y-207247598D01*
X504055257Y-207402221D01*
X504055264Y-207402252D01*
X504115598Y-207547915D01*
X504115603Y-207547924D01*
X504115613Y-207547941D01*
X504203211Y-207679040D01*
X504203212Y-207679041D01*
X504203217Y-207679047D01*
X504314701Y-207790531D01*
X504314707Y-207790536D01*
X504314711Y-207790539D01*
X504445814Y-207878140D01*
X504445827Y-207878147D01*
X504591498Y-207938485D01*
X504591503Y-207938487D01*
X504746153Y-207969249D01*
X504746156Y-207969250D01*
X504746158Y-207969250D01*
X504903844Y-207969250D01*
X504903845Y-207969249D01*
X505058497Y-207938487D01*
X505204179Y-207878144D01*
X505335289Y-207790539D01*
X505446789Y-207679039D01*
X505534394Y-207547929D01*
X505594737Y-207402247D01*
X505625500Y-207247592D01*
X505625500Y-207089908D01*
X505625500Y-207089905D01*
X505625500Y-207089723D01*
X505625065Y-207087722D01*
X505595397Y-206938574D01*
X505594994Y-206936217D01*
X505594738Y-206935258D01*
X505594737Y-206935256D01*
X505594737Y-206935253D01*
X505594735Y-206935248D01*
X505534397Y-206789577D01*
X505534390Y-206789564D01*
X505534379Y-206789547D01*
X505456304Y-206672699D01*
X505441071Y-206640861D01*
X505431165Y-206609224D01*
X505425500Y-206572172D01*
X505425500Y-206382529D01*
X505425501Y-206382478D01*
X505425501Y-206212023D01*
X505425501Y-206212021D01*
X505384577Y-206059293D01*
X505355639Y-206009173D01*
X505305520Y-205922362D01*
X505193716Y-205810558D01*
X505193715Y-205810557D01*
X505189385Y-205806227D01*
X505188363Y-205805205D01*
X505188320Y-205805163D01*
X499917100Y-200533943D01*
X499912762Y-200529605D01*
X499912760Y-200529602D01*
X499793889Y-200410731D01*
X499793888Y-200410730D01*
X499793887Y-200410729D01*
X499793884Y-200410727D01*
X499727970Y-200372671D01*
X499727970Y-200372672D01*
X499692015Y-200351914D01*
X499692014Y-200351913D01*
X499656958Y-200331673D01*
X499618775Y-200321442D01*
X499504229Y-200290749D01*
X499504226Y-200290749D01*
X499336615Y-200290749D01*
X499336552Y-200290750D01*
X476339282Y-200290750D01*
X476339278Y-200290749D01*
X476181164Y-200290749D01*
X476181160Y-200290750D01*
X457721418Y-200290750D01*
X457686477Y-200285725D01*
X457671478Y-200281320D01*
X457612727Y-200243572D01*
X457611756Y-200242452D01*
X457584154Y-200186987D01*
X457582430Y-200178870D01*
X457579730Y-200151868D01*
X457593248Y-198800097D01*
X457660434Y-192081501D01*
X457957746Y-192081501D01*
X457957747Y-192081503D01*
X457971462Y-192111459D01*
X457978430Y-192130755D01*
X457983847Y-192150818D01*
X457986789Y-192164924D01*
X457987000Y-192166346D01*
X458017757Y-192320971D01*
X458017764Y-192321002D01*
X458078098Y-192466665D01*
X458078103Y-192466674D01*
X458078113Y-192466691D01*
X458165711Y-192597790D01*
X458165712Y-192597791D01*
X458165717Y-192597797D01*
X458277201Y-192709281D01*
X458277207Y-192709286D01*
X458277211Y-192709289D01*
X458408314Y-192796890D01*
X458408327Y-192796897D01*
X458553998Y-192857235D01*
X458554003Y-192857237D01*
X458708653Y-192887999D01*
X458708656Y-192888000D01*
X458708658Y-192888000D01*
X458866344Y-192888000D01*
X458866345Y-192887999D01*
X459020997Y-192857237D01*
X459166679Y-192796894D01*
X459166685Y-192796890D01*
X459283555Y-192718799D01*
X459315385Y-192703571D01*
X459335074Y-192697406D01*
X459347029Y-192693664D01*
X459384078Y-192688000D01*
X493394573Y-192688000D01*
X493429505Y-192693021D01*
X493454749Y-192700434D01*
X493507495Y-192731730D01*
X506359067Y-205583302D01*
X506380217Y-205611555D01*
X506396104Y-205640649D01*
X506408890Y-205675885D01*
X506436509Y-205814734D01*
X506436510Y-205814738D01*
X506436511Y-205814741D01*
X506436514Y-205814751D01*
X506436517Y-205814759D01*
X506436522Y-205814773D01*
X506496848Y-205960415D01*
X506496853Y-205960424D01*
X506496863Y-205960441D01*
X506584461Y-206091540D01*
X506584462Y-206091541D01*
X506584467Y-206091547D01*
X506695951Y-206203031D01*
X506695957Y-206203036D01*
X506695961Y-206203039D01*
X506827064Y-206290640D01*
X506827077Y-206290647D01*
X506972748Y-206350985D01*
X506972753Y-206350987D01*
X507119234Y-206380124D01*
X507119891Y-206380254D01*
X507119944Y-206380282D01*
X507122452Y-206380946D01*
X507127405Y-206381750D01*
X507285094Y-206381750D01*
X507289214Y-206381750D01*
X507297064Y-206379368D01*
X507439747Y-206350987D01*
X507585429Y-206290644D01*
X507716539Y-206203039D01*
X507828039Y-206091539D01*
X507915644Y-205960429D01*
X507975987Y-205814747D01*
X508006750Y-205660092D01*
X508006750Y-205502408D01*
X508006750Y-205502405D01*
X508006750Y-205502223D01*
X508006315Y-205500222D01*
X507976647Y-205351074D01*
X507976244Y-205348717D01*
X507975988Y-205347758D01*
X507975987Y-205347756D01*
X507975987Y-205347753D01*
X507975985Y-205347748D01*
X507915647Y-205202077D01*
X507915640Y-205202064D01*
X507828039Y-205070961D01*
X507828036Y-205070957D01*
X507828031Y-205070951D01*
X507716547Y-204959467D01*
X507716541Y-204959462D01*
X507716540Y-204959461D01*
X507585441Y-204871863D01*
X507585440Y-204871862D01*
X507585435Y-204871859D01*
X507585422Y-204871852D01*
X507585415Y-204871848D01*
X507439773Y-204811522D01*
X507439759Y-204811517D01*
X507439751Y-204811514D01*
X507439741Y-204811511D01*
X507439736Y-204811510D01*
X507439733Y-204811509D01*
X507301886Y-204784089D01*
X507268604Y-204772348D01*
X507239230Y-204756983D01*
X507209023Y-204734788D01*
X494204428Y-191730193D01*
X494204419Y-191730183D01*
X494173058Y-191698822D01*
X494081217Y-191606981D01*
X494081216Y-191606980D01*
X493993967Y-191556607D01*
X493993931Y-191556585D01*
X493944289Y-191527925D01*
X493944285Y-191527923D01*
X493944283Y-191527922D01*
X493944281Y-191527921D01*
X493944278Y-191527920D01*
X493888382Y-191512942D01*
X493888382Y-191512943D01*
X493839969Y-191499971D01*
X493791557Y-191486999D01*
X493791556Y-191486999D01*
X493623943Y-191486999D01*
X493623880Y-191487000D01*
X459385096Y-191487000D01*
X459350161Y-191481977D01*
X459318352Y-191472637D01*
X459284398Y-191456763D01*
X459166685Y-191378109D01*
X459166672Y-191378102D01*
X459166665Y-191378098D01*
X459021002Y-191317764D01*
X459020971Y-191317757D01*
X458866347Y-191287000D01*
X458866345Y-191287000D01*
X458866342Y-191287000D01*
X458708658Y-191287000D01*
X458708655Y-191287000D01*
X458708653Y-191287000D01*
X458554027Y-191317757D01*
X458553996Y-191317764D01*
X458408333Y-191378098D01*
X458408324Y-191378103D01*
X458408307Y-191378113D01*
X458277208Y-191465711D01*
X458277207Y-191465712D01*
X458277201Y-191465717D01*
X458165717Y-191577201D01*
X458165712Y-191577207D01*
X458165711Y-191577208D01*
X458078113Y-191708307D01*
X458078103Y-191708324D01*
X458078098Y-191708333D01*
X458017764Y-191853996D01*
X458017759Y-191854020D01*
X457987479Y-192006240D01*
X457984544Y-192017971D01*
X457982608Y-192024367D01*
X457979984Y-192028375D01*
X457976724Y-192039947D01*
X457972326Y-192049577D01*
X457968366Y-192059386D01*
X457964392Y-192066052D01*
X457964725Y-192066204D01*
X457957746Y-192081501D01*
X457660434Y-192081501D01*
X457963061Y-161818732D01*
X505129500Y-161818732D01*
X505129500Y-163618767D01*
X505129518Y-163618943D01*
X505129518Y-163618945D01*
X505139999Y-163721544D01*
X505153200Y-163761381D01*
X505195185Y-163888082D01*
X505195186Y-163888085D01*
X505287288Y-164037406D01*
X505411344Y-164161462D01*
X505560665Y-164253564D01*
X505727202Y-164308749D01*
X505829990Y-164319250D01*
X505829995Y-164319250D01*
X507630005Y-164319250D01*
X507630010Y-164319250D01*
X507732798Y-164308749D01*
X507899335Y-164253564D01*
X508048656Y-164161462D01*
X508172712Y-164037406D01*
X508264814Y-163888085D01*
X508319999Y-163721548D01*
X508330500Y-163618760D01*
X508330500Y-161818740D01*
X508319999Y-161715952D01*
X508264814Y-161549415D01*
X508172712Y-161400094D01*
X508048656Y-161276038D01*
X507899335Y-161183936D01*
X507741266Y-161131557D01*
X507738440Y-161130389D01*
X507732797Y-161128749D01*
X507630026Y-161118250D01*
X507630017Y-161118250D01*
X507630010Y-161118250D01*
X505829990Y-161118250D01*
X505829982Y-161118250D01*
X505829974Y-161118250D01*
X505725495Y-161128924D01*
X505719912Y-161131166D01*
X505644669Y-161156099D01*
X505560679Y-161183930D01*
X505560666Y-161183934D01*
X505411340Y-161276040D01*
X505287289Y-161400091D01*
X505287286Y-161400095D01*
X505195188Y-161549408D01*
X505195152Y-161549519D01*
X505150300Y-161684872D01*
X505141852Y-161697818D01*
X505140365Y-161712379D01*
X505139971Y-161715370D01*
X505139965Y-161716286D01*
X505129500Y-161818732D01*
X457963061Y-161818732D01*
X457974460Y-160678848D01*
X511199499Y-160678848D01*
X511230257Y-160833471D01*
X511230264Y-160833502D01*
X511290598Y-160979165D01*
X511290602Y-160979172D01*
X511290609Y-160979185D01*
X511368697Y-161096050D01*
X511383928Y-161127886D01*
X511393834Y-161159522D01*
X511399500Y-161196575D01*
X511399500Y-168511590D01*
X511399499Y-168511664D01*
X511399499Y-168636960D01*
X511393600Y-168657046D01*
X511440423Y-168831786D01*
X511460662Y-168866841D01*
X511460663Y-168866841D01*
X511469358Y-168881901D01*
X511469359Y-168881904D01*
X511469360Y-168881904D01*
X511481422Y-168902796D01*
X511481422Y-168902798D01*
X511519467Y-168968695D01*
X511519477Y-168968711D01*
X511519481Y-168968717D01*
X511519485Y-168968722D01*
X511640314Y-169089551D01*
X511640359Y-169089594D01*
X513350573Y-170799808D01*
X513371723Y-170828060D01*
X513384331Y-170851149D01*
X513399500Y-170910578D01*
X513399500Y-189402404D01*
X513394476Y-189437341D01*
X513385136Y-189469148D01*
X513369262Y-189503102D01*
X513290613Y-189620807D01*
X513290603Y-189620824D01*
X513290598Y-189620833D01*
X513230264Y-189766496D01*
X513230257Y-189766527D01*
X513199500Y-189921150D01*
X513199500Y-189921153D01*
X513199500Y-190078846D01*
X513199500Y-190078848D01*
X513199499Y-190078848D01*
X513230257Y-190233471D01*
X513230264Y-190233502D01*
X513290598Y-190379165D01*
X513290603Y-190379174D01*
X513290613Y-190379191D01*
X513378211Y-190510290D01*
X513378212Y-190510291D01*
X513378217Y-190510297D01*
X513489701Y-190621781D01*
X513489707Y-190621786D01*
X513489711Y-190621789D01*
X513620814Y-190709390D01*
X513620827Y-190709397D01*
X513766498Y-190769735D01*
X513766503Y-190769737D01*
X513921153Y-190800499D01*
X513921156Y-190800500D01*
X514032923Y-190800500D01*
X514034631Y-190800547D01*
X514037093Y-190801344D01*
X514066157Y-190805523D01*
X514081155Y-190809927D01*
X514098984Y-190821381D01*
X514101104Y-190822068D01*
X514102272Y-190823494D01*
X514139906Y-190847672D01*
X514141093Y-190849041D01*
X514168569Y-190903902D01*
X514170214Y-190911460D01*
X514173051Y-190937831D01*
X514173051Y-190981890D01*
X514173051Y-190981892D01*
X514173050Y-190981892D01*
X514203808Y-191136515D01*
X514203815Y-191136546D01*
X514264149Y-191282209D01*
X514264154Y-191282218D01*
X514264164Y-191282235D01*
X514351762Y-191413334D01*
X514351763Y-191413335D01*
X514351768Y-191413341D01*
X514463252Y-191524825D01*
X514463258Y-191524830D01*
X514463262Y-191524833D01*
X514594365Y-191612434D01*
X514594378Y-191612441D01*
X514740049Y-191672779D01*
X514740054Y-191672781D01*
X514894704Y-191703543D01*
X514894707Y-191703544D01*
X514894709Y-191703544D01*
X515052395Y-191703544D01*
X515052396Y-191703543D01*
X515207048Y-191672781D01*
X515352730Y-191612438D01*
X515483840Y-191524833D01*
X515595340Y-191413333D01*
X515682945Y-191282223D01*
X515743288Y-191136541D01*
X515774051Y-190981886D01*
X515774051Y-190824202D01*
X515774051Y-190824199D01*
X515774051Y-190824015D01*
X515773615Y-190822010D01*
X515754604Y-190726435D01*
X515743290Y-190669554D01*
X515743287Y-190669545D01*
X515723505Y-190621786D01*
X515706552Y-190580858D01*
X515682948Y-190523871D01*
X515682941Y-190523858D01*
X515682930Y-190523841D01*
X515604855Y-190406993D01*
X515589622Y-190375155D01*
X515579716Y-190343518D01*
X515574051Y-190306466D01*
X515574051Y-167565003D01*
X515574052Y-167564952D01*
X515574052Y-167394496D01*
X515574052Y-167394495D01*
X515572770Y-167389710D01*
X515572770Y-167389706D01*
X515572769Y-167389707D01*
X515533128Y-167241767D01*
X515503592Y-167190609D01*
X515468749Y-167130257D01*
X515454079Y-167104847D01*
X515454071Y-167104835D01*
X515454064Y-167104827D01*
X513549426Y-165200190D01*
X513528274Y-165171934D01*
X513515667Y-165148845D01*
X513500500Y-165089420D01*
X513500500Y-165020973D01*
X513500065Y-165018972D01*
X513470397Y-164869824D01*
X513469994Y-164867467D01*
X513469738Y-164866508D01*
X513469737Y-164866506D01*
X513469737Y-164866503D01*
X513469735Y-164866498D01*
X513409397Y-164720827D01*
X513409390Y-164720814D01*
X513321789Y-164589711D01*
X513321786Y-164589707D01*
X513321781Y-164589701D01*
X513210297Y-164478217D01*
X513210291Y-164478212D01*
X513210290Y-164478211D01*
X513079191Y-164390613D01*
X513079190Y-164390612D01*
X513079185Y-164390609D01*
X513079172Y-164390602D01*
X513079165Y-164390598D01*
X512933502Y-164330264D01*
X512933471Y-164330257D01*
X512778847Y-164299500D01*
X512778845Y-164299500D01*
X512778842Y-164299500D01*
X512742330Y-164299500D01*
X512707389Y-164294475D01*
X512692390Y-164290070D01*
X512633644Y-164252327D01*
X512632457Y-164250958D01*
X512604977Y-164196083D01*
X512603332Y-164188521D01*
X512600500Y-164162168D01*
X512600500Y-163314402D01*
X512612039Y-163275101D01*
X512621186Y-163242206D01*
X512673325Y-163195695D01*
X512742333Y-163184756D01*
X512806300Y-163212861D01*
X512829795Y-163239199D01*
X512833068Y-163244134D01*
X512847659Y-163274347D01*
X512866759Y-163333129D01*
X512866762Y-163333136D01*
X512928225Y-163453762D01*
X512981130Y-163557595D01*
X512981134Y-163557601D01*
X513025703Y-163618945D01*
X513129201Y-163761399D01*
X513129205Y-163761404D01*
X513129210Y-163761410D01*
X513307338Y-163939538D01*
X513307342Y-163939541D01*
X513307345Y-163939544D01*
X513307350Y-163939548D01*
X513485117Y-164068702D01*
X513511155Y-164087620D01*
X513654184Y-164160497D01*
X513654183Y-164160497D01*
X513657463Y-164162168D01*
X513732775Y-164200541D01*
X513736488Y-164202434D01*
X513740243Y-164203493D01*
X513890539Y-164252327D01*
X513975215Y-164279840D01*
X514224038Y-164319250D01*
X514224039Y-164319250D01*
X514475961Y-164319250D01*
X514475962Y-164319250D01*
X514724785Y-164279840D01*
X514964379Y-164201991D01*
X515188845Y-164087620D01*
X515392656Y-163939543D01*
X515570793Y-163761406D01*
X515718870Y-163557595D01*
X515833241Y-163333129D01*
X515911090Y-163093535D01*
X515950500Y-162844712D01*
X515950500Y-162592788D01*
X515911090Y-162343965D01*
X515911089Y-162343961D01*
X515911089Y-162343960D01*
X515835853Y-162112409D01*
X515835851Y-162112404D01*
X515833241Y-162104371D01*
X515833239Y-162104368D01*
X515833239Y-162104366D01*
X515830999Y-162099970D01*
X515830689Y-162099175D01*
X515829956Y-162097923D01*
X515810379Y-162059502D01*
X515791747Y-162022933D01*
X515791747Y-162022934D01*
X515718870Y-161879905D01*
X515674425Y-161818732D01*
X515674425Y-161818731D01*
X515570812Y-161676119D01*
X515570794Y-161676095D01*
X515570786Y-161676086D01*
X515392660Y-161497960D01*
X515392655Y-161497956D01*
X515392654Y-161497955D01*
X515392649Y-161497951D01*
X515188848Y-161349882D01*
X515188847Y-161349881D01*
X515188845Y-161349880D01*
X515118747Y-161314163D01*
X514964383Y-161235510D01*
X514880487Y-161208250D01*
X514724787Y-161157660D01*
X514542256Y-161128750D01*
X514475962Y-161118250D01*
X514475961Y-161118250D01*
X514224039Y-161118250D01*
X514224038Y-161118250D01*
X514163199Y-161127886D01*
X514157738Y-161128751D01*
X513975212Y-161157660D01*
X513975209Y-161157660D01*
X513735619Y-161235509D01*
X513735616Y-161235510D01*
X513581253Y-161314163D01*
X513511147Y-161349884D01*
X513307367Y-161497938D01*
X513307338Y-161497960D01*
X513129210Y-161676088D01*
X513129188Y-161676117D01*
X512981131Y-161879901D01*
X512981130Y-161879902D01*
X512866764Y-162104355D01*
X512866758Y-162104368D01*
X512847940Y-162162287D01*
X512824760Y-162196186D01*
X512805927Y-162224582D01*
X512741958Y-162252686D01*
X512672951Y-162241745D01*
X512620813Y-162195232D01*
X512606619Y-162162923D01*
X512605031Y-162157214D01*
X512600500Y-162124001D01*
X512600500Y-161197594D01*
X512605522Y-161162661D01*
X512606444Y-161159522D01*
X512614864Y-161130845D01*
X512630733Y-161096902D01*
X512709390Y-160979185D01*
X512709390Y-160979184D01*
X512709394Y-160979179D01*
X512709397Y-160979172D01*
X512710074Y-160978159D01*
X512711710Y-160973585D01*
X512769737Y-160833497D01*
X512800500Y-160678842D01*
X512800500Y-160521158D01*
X512800500Y-160521155D01*
X512800500Y-160520973D01*
X512800065Y-160518972D01*
X512770395Y-160369816D01*
X512769994Y-160367467D01*
X512769738Y-160366508D01*
X512769737Y-160366506D01*
X512769737Y-160366503D01*
X512769735Y-160366498D01*
X512709397Y-160220827D01*
X512709390Y-160220814D01*
X512621789Y-160089711D01*
X512621786Y-160089707D01*
X512621781Y-160089701D01*
X512510297Y-159978217D01*
X512510291Y-159978212D01*
X512510290Y-159978211D01*
X512379191Y-159890613D01*
X512379190Y-159890612D01*
X512379185Y-159890609D01*
X512379172Y-159890602D01*
X512379165Y-159890598D01*
X512233502Y-159830264D01*
X512233471Y-159830257D01*
X512078847Y-159799500D01*
X512078845Y-159799500D01*
X512078842Y-159799500D01*
X511921158Y-159799500D01*
X511921155Y-159799500D01*
X511921153Y-159799500D01*
X511766527Y-159830257D01*
X511766496Y-159830264D01*
X511620833Y-159890598D01*
X511620824Y-159890603D01*
X511620807Y-159890613D01*
X511489708Y-159978211D01*
X511489707Y-159978212D01*
X511489701Y-159978217D01*
X511378217Y-160089701D01*
X511378212Y-160089707D01*
X511378211Y-160089708D01*
X511290613Y-160220807D01*
X511290603Y-160220824D01*
X511290598Y-160220833D01*
X511230264Y-160366496D01*
X511230257Y-160366527D01*
X511199500Y-160521150D01*
X511199500Y-160521153D01*
X511199500Y-160678846D01*
X511199500Y-160678848D01*
X511199499Y-160678848D01*
X457974460Y-160678848D01*
X457992348Y-158890060D01*
X457997720Y-158855188D01*
X458002276Y-158840225D01*
X458040623Y-158781847D01*
X458042362Y-158780370D01*
X458096619Y-158753640D01*
X458103398Y-158752186D01*
X458128876Y-158749429D01*
X516557151Y-158502987D01*
X516592101Y-158507861D01*
G37*
%TD.AperFunction*%
%TA.AperFunction,Conductor*%
G36*
X506669785Y-190036579D02*
G01*
X506672126Y-190037421D01*
X506718162Y-190071041D01*
X506719984Y-190069220D01*
X506844602Y-190193838D01*
X506841379Y-190197060D01*
X506870568Y-190231912D01*
X506871013Y-190235425D01*
X515349936Y-198699171D01*
X515350497Y-198699732D01*
X515371723Y-198728060D01*
X515384331Y-198751149D01*
X515399500Y-198810578D01*
X515399500Y-200701822D01*
X515394476Y-200736760D01*
X515391289Y-200747613D01*
X515353514Y-200806390D01*
X515289957Y-200835413D01*
X515220807Y-200825472D01*
X515213829Y-200822285D01*
X515177657Y-200797171D01*
X508053430Y-193672944D01*
X508032280Y-193644691D01*
X508016393Y-193615597D01*
X508003607Y-193580360D01*
X507975988Y-193441510D01*
X507975987Y-193441503D01*
X507950731Y-193380528D01*
X507933294Y-193338431D01*
X507915650Y-193295833D01*
X507915645Y-193295824D01*
X507915640Y-193295814D01*
X507828039Y-193164711D01*
X507828036Y-193164707D01*
X507828031Y-193164701D01*
X507716547Y-193053217D01*
X507716541Y-193053212D01*
X507716540Y-193053211D01*
X507585441Y-192965613D01*
X507585440Y-192965612D01*
X507585435Y-192965609D01*
X507585422Y-192965602D01*
X507585415Y-192965598D01*
X507439752Y-192905264D01*
X507439721Y-192905257D01*
X507285097Y-192874500D01*
X507285095Y-192874500D01*
X507285092Y-192874500D01*
X507127408Y-192874500D01*
X507127405Y-192874500D01*
X507127403Y-192874500D01*
X506972777Y-192905257D01*
X506972746Y-192905264D01*
X506827082Y-192965598D01*
X506827072Y-192965603D01*
X506827064Y-192965608D01*
X506827063Y-192965608D01*
X506708215Y-193045021D01*
X506676372Y-193060255D01*
X506663375Y-193064324D01*
X506593516Y-193065568D01*
X506534075Y-193028846D01*
X506505399Y-192973416D01*
X506503572Y-192965361D01*
X506500500Y-192937933D01*
X506500500Y-190164560D01*
X506505521Y-190129632D01*
X506508839Y-190118330D01*
X506546609Y-190059553D01*
X506610163Y-190030524D01*
X506669785Y-190036579D01*
G37*
%TD.AperFunction*%
%TD*%
M02*
