M48
; DRILL file KiCad 10.0.0 date 2026-04-14T12:55:16
; FORMAT={-:-/ absolute / metric / decimal}
; #@! TF.CreationDate,2026-04-14T12:55:16+10:00
; #@! TF.GenerationSoftware,Kicad,Pcbnew,10.0.0
; #@! TF.FileFunction,Plated,1,2,PTH
FMAT,2
METRIC
; #@! TA.AperFunction,Plated,PTH,ComponentDrill
T1C0.200
; #@! TA.AperFunction,Plated,PTH,ViaDrill
T2C0.300
; #@! TA.AperFunction,Plated,PTH,ComponentDrill
T3C1.000
; #@! TA.AperFunction,Plated,PTH,ComponentDrill
T4C1.100
%
G90
G05
T1
X493.806Y-221.844
X493.806Y-223.044
X493.806Y-224.244
X495.206Y-221.844
X495.206Y-223.044
X495.206Y-224.244
T2
X126.218Y-201.624
X133.407Y-277.771
X135.806Y-220.764
X140.494Y-239.712
X145.256Y-173.037
X145.256Y-200.819
X150.019Y-258.762
X154.781Y-220.662
X157.956Y-277.812
X159.544Y-238.919
X164.306Y-201.612
X164.318Y-173.049
X169.069Y-258.762
X173.831Y-220.662
X178.594Y-239.712
X183.356Y-201.612
X183.368Y-173.049
X188.119Y-258.762
X192.893Y-219.88
X197.644Y-239.712
X202.406Y-173.037
X202.406Y-200.819
X207.169Y-258.762
X209.55Y-277.812
X211.84Y-219.924
X216.694Y-238.919
X221.456Y-201.612
X223.837Y-280.988
X226.23Y-258.774
X230.981Y-173.037
X230.981Y-220.662
X235.744Y-239.712
X240.506Y-201.612
X244.475Y-258.762
X245.269Y-281.781
X250.031Y-173.037
X250.031Y-220.662
X254.794Y-239.712
X259.556Y-201.612
X264.33Y-258.774
X269.081Y-220.662
X269.875Y-173.037
X273.83Y-239.516
X278.606Y-200.819
X283.369Y-258.762
X288.131Y-173.037
X288.131Y-220.662
X288.131Y-278.606
X290.512Y-277.019
X292.986Y-239.597
X293.688Y-276.225
X297.656Y-201.612
X302.419Y-258.762
X307.216Y-219.983
X310.356Y-277.019
X311.944Y-239.712
X316.706Y-173.037
X316.718Y-201.624
X321.469Y-258.762
X326.231Y-220.662
X330.994Y-239.712
X335.756Y-173.037
X335.756Y-201.612
X345.281Y-220.662
X354.815Y-172.294
X357.209Y-258.784
X361.156Y-239.712
X364.331Y-201.612
X369.094Y-220.662
X373.856Y-172.244
X390.525Y-276.225
X392.906Y-257.175
X397.669Y-253.206
X402.431Y-172.244
X402.453Y-200.84
X402.463Y-219.9
X421.481Y-173.037
X421.481Y-200.819
X421.481Y-219.869
X439.618Y-207.301
X439.737Y-220.662
X440.543Y-173.831
X457.994Y-234.156
X458.787Y-192.087
X459.6Y-218.4
X468.312Y-215.9
X470.694Y-211.137
X484.981Y-177.641
X484.981Y-190.5
X485.161Y-165.052
X485.775Y-200.025
X485.775Y-207.962
X488.95Y-196.056
X495.3Y-227.012
X502.0Y-231.2
X502.444Y-219.869
X502.5Y-264.5
X503.5Y-264.5
X503.6Y-235.9
X504.6Y-236.8
X504.825Y-207.169
X505.0Y-179.7
X505.3Y-181.8
X505.6Y-167.9
X505.619Y-165.894
X505.619Y-169.862
X506.4Y-203.065
X507.206Y-177.006
X507.206Y-188.119
X507.206Y-193.675
X507.206Y-196.056
X507.206Y-198.438
X507.206Y-200.819
X507.206Y-205.581
X507.8Y-221.3
X508.0Y-173.831
X508.0Y-192.087
X512.0Y-160.6
X512.6Y-223.6
X512.7Y-165.1
X514.0Y-190.0
X514.974Y-190.903
T3
X475.615Y-220.625
X478.155Y-220.625
X480.695Y-220.625
X483.235Y-220.625
X492.868Y-189.691
X495.408Y-189.691
X497.948Y-189.691
T4
X506.73Y-162.719
X514.35Y-162.719
M30
